<svg width="20" height="20" viewBox="0 0 20 20" fill="none" xmlns="http://www.w3.org/2000/svg">
<g id="chevron-down">
<path id="Vector" fill-rule="evenodd" clip-rule="evenodd" d="M2.05764 5.8074C2.1157 5.74919 2.18467 5.70301 2.2606 5.67151C2.33653 5.64 2.41793 5.62378 2.50014 5.62378C2.58235 5.62378 2.66375 5.64 2.73968 5.67151C2.81561 5.70301 2.88458 5.74919 2.94264 5.8074L10.0001 12.8661L17.0576 5.8074C17.1158 5.74929 17.1847 5.70319 17.2607 5.67174C17.3366 5.64029 17.418 5.62411 17.5001 5.62411C17.5823 5.62411 17.6637 5.64029 17.7396 5.67174C17.8155 5.70319 17.8845 5.74929 17.9426 5.8074C18.0008 5.86551 18.0468 5.93449 18.0783 6.01042C18.1097 6.08634 18.1259 6.16772 18.1259 6.2499C18.1259 6.33208 18.1097 6.41345 18.0783 6.48938C18.0468 6.5653 18.0008 6.63429 17.9426 6.6924L10.4426 14.1924C10.3846 14.2506 10.3156 14.2968 10.2397 14.3283C10.1638 14.3598 10.0824 14.376 10.0001 14.376C9.91793 14.376 9.83653 14.3598 9.7606 14.3283C9.68467 14.2968 9.6157 14.2506 9.55764 14.1924L2.05764 6.6924C1.99944 6.63434 1.95326 6.56537 1.92175 6.48944C1.89024 6.41351 1.87402 6.33211 1.87402 6.2499C1.87402 6.16769 1.89024 6.08629 1.92175 6.01035C1.95326 5.93442 1.99944 5.86545 2.05764 5.8074Z" fill="black"/>
</g>
</svg>
