<svg width="134" height="28" viewBox="0 0 134 28" fill="none" xmlns="http://www.w3.org/2000/svg">
<path d="M123.012 13.3508V22.0897H117.609V6.63285H122.727V9.53635H122.898C123.57 7.61492 125.357 6.43359 127.644 6.43359C130.931 6.43359 133.075 8.83895 133.047 12.2406V22.0897H127.644V13.3508C127.672 11.7567 126.815 10.8031 125.357 10.8173C123.927 10.8031 123.012 11.7709 123.012 13.3508Z" fill="#0858F7"/>
<path d="M109.318 22.0894V6.63251H114.722V22.0894H109.318ZM109.318 2.47652C109.304 1.11016 110.519 0 112.006 0C113.478 0 114.693 1.11016 114.693 2.47652C114.693 3.8571 113.478 4.96726 112.006 4.95303C110.519 4.96726 109.304 3.8571 109.318 2.47652Z" fill="#0858F7"/>
<path d="M98.9986 22.3744C93.9958 22.3744 91.0084 19.1578 90.9941 14.404C91.0084 9.65022 93.9958 6.43359 98.9986 6.43359C104.001 6.43359 106.989 9.65022 106.975 14.404C106.989 19.1578 104.001 22.3744 98.9986 22.3744ZM96.5115 14.3755C96.5258 16.8236 97.4406 18.375 99.0272 18.3892C100.542 18.375 101.471 16.8236 101.457 14.3755C101.471 11.899 100.542 10.3476 99.0272 10.3619C97.4406 10.3476 96.5258 11.899 96.5115 14.3755Z" fill="#0858F7"/>
<path d="M83.3889 1.48047H88.7634V15.6279C88.7348 19.67 85.5473 22.3743 81.0162 22.3743C77.0711 22.3743 73.8407 20.3959 73.8693 15.7418H79.3009C79.3581 17.3074 80.0871 18.1471 81.3592 18.1329C82.66 18.1471 83.3603 17.2789 83.3889 15.6279V1.48047Z" fill="#0858F7"/>
<path d="M54.5445 27.8967C53.5297 27.8825 52.5863 27.8682 51.8859 27.8113V23.7976C52.6149 23.8546 53.3152 23.8546 53.9156 23.8546C54.6874 23.8546 55.2449 23.7692 55.5451 23.0291L55.6594 22.7444L50.1992 6.63281H55.8309L58.4324 17.4213H58.6039L61.2625 6.63281H66.9228L61.2054 23.4276C60.362 25.9753 58.5467 27.8825 54.5445 27.8967Z" fill="#0858F7"/>
<path d="M43.8811 11.6144C43.7811 10.6465 42.852 10.0345 41.7085 10.0487C40.6936 10.0345 39.8646 10.4473 39.8789 11.1304C39.8646 11.6001 40.2219 12.0413 41.4512 12.2691L44.5386 12.8384C47.6975 13.4077 49.227 14.7456 49.2556 17.0228C49.227 20.2964 46.1252 22.3744 41.8514 22.3744C37.1631 22.3744 34.4616 20.2964 34.1328 17.1652H39.5072C39.6788 18.1615 40.5793 18.7165 41.88 18.7308C42.9663 18.7165 43.7382 18.3323 43.7668 17.6491C43.7382 17.0228 43.1807 16.6812 41.9372 16.4535L39.2214 15.9696C36.0768 15.4003 34.5044 13.8489 34.5044 11.4436C34.5044 8.24117 37.2203 6.43359 41.5941 6.43359C46.0109 6.43359 48.6981 8.38349 48.8553 11.6144H43.8811Z" fill="#0858F7"/>
<path d="M17.3535 17.8199C17.3535 14.4182 19.9121 13.0803 23.071 12.8953C24.2431 12.8384 26.0727 12.7814 26.7016 12.753V11.5005C26.6873 10.6465 25.9869 10.1626 24.9292 10.1626C23.8286 10.1626 23.0853 10.6323 22.9566 11.6144H17.9539C18.154 8.81048 20.441 6.43359 25.0149 6.43359C29.3173 6.43359 32.1046 8.55429 32.1046 11.529V22.0897H27.0446V19.9263H26.9303C26.0012 21.6058 24.4861 22.3317 22.4135 22.3459C19.4547 22.3317 17.3535 20.8942 17.3535 17.8199ZM22.4421 17.5067C22.4564 18.4319 23.1568 18.9158 24.1573 18.9016C25.5152 18.9158 26.7445 18.0476 26.7302 16.5958V15.7703C26.187 15.7846 24.7577 15.8415 24.043 15.9127C23.071 16.0408 22.4564 16.667 22.4421 17.5067Z" fill="#0858F7"/>
<path d="M0.400391 22.0896V1.48047H15.1801V5.86419H5.832V9.59319H12.6518V13.9769H5.832V17.7059H15.1515V22.0896H0.400391Z" fill="#0858F7"/>
</svg>
