<svg width="1199" height="160" viewBox="0 0 1199 160" fill="none" xmlns="http://www.w3.org/2000/svg">
<rect width="1199" height="160" rx="12" fill="#F2F4F8"/>
<path opacity="0.6" d="M160.582 63.5312V64.7812H153.336V70.582H151.832V64.7812H144.684V63.5312H160.582ZM146.715 61.4219V53.9414H148.238V56.3438H156.988V53.9414H158.531V61.4219H146.715ZM148.238 60.1719H156.988V57.5938H148.238V60.1719ZM177.828 61.8125V63.043H161.988V61.8125H169.156V59.7812H164V54.0391H175.855V55.2695H165.504V58.5312H175.973V59.7812H170.641V61.8125H177.828ZM163.902 67.4375C163.893 65.4551 166.148 64.3223 169.898 64.3125C173.619 64.3223 175.855 65.4551 175.875 67.4375C175.855 69.4395 173.619 70.5625 169.898 70.582C166.148 70.5625 163.893 69.4395 163.902 67.4375ZM165.465 67.4375C165.445 68.6582 167.115 69.3613 169.898 69.3516C172.652 69.3613 174.322 68.6582 174.332 67.4375C174.322 66.2363 172.652 65.5234 169.898 65.5234C167.115 65.5234 165.445 66.2363 165.465 67.4375ZM185.113 56.5C185.104 58.8926 186.91 61.0996 189.469 61.9883L188.688 63.2188C186.715 62.4961 185.182 61.0312 184.41 59.1953C183.678 61.2656 182.105 62.8574 180.055 63.6484L179.215 62.418C181.861 61.4902 183.6 59.1367 183.609 56.4414V54.293H185.113V56.5ZM182.008 70.2109V64.8203H183.57V68.9219H193.648V70.2109H182.008ZM191.324 66.0508V53.2188H192.848V58.5508H195.465V59.8594H192.848V66.0508H191.324ZM216.402 53.2188V70.582H214.898V61.5H212.496V69.7227H211.031V53.6875H212.496V60.2305H214.898V53.2188H216.402ZM201.598 65.7773C205.631 63.5215 207.291 60.3477 207.555 56.7539H202.262V55.4844H209.059C209.039 59.8984 207.486 64.0684 202.496 66.8516L201.598 65.7773ZM221.109 53.9609V56.4609H226.168V53.9609H227.691V61.5195H219.605V53.9609H221.109ZM221.109 60.2695H226.168V57.6523H221.109V60.2695ZM221.363 64.2539V63.0234H232.438V67.2227H222.906V69.1367H233.082V70.3867H221.402V66.0508H230.914V64.2539H221.363ZM230.914 62.2031V53.2188H232.438V56.9883H235.055V58.2773H232.438V62.2031H230.914ZM250.191 54.625C250.172 59.1074 247.857 62.4766 242.262 64.3516L241.637 63.1211C244.615 62.1348 246.51 60.7578 247.564 59.0586L241.812 59.5469L241.539 58.2773L248.111 57.9648C248.365 57.3105 248.521 56.6172 248.58 55.8945H242.418V54.625H250.191ZM244.586 70.2109V64.8398H246.148V68.9219H256.051V70.2109H244.586ZM250.152 60.0547V58.7656H254.02V53.2383H255.562V66.1289H254.02V60.0547H250.152ZM272.848 53.2188V62.2031H271.305V57.6914H267.438V56.4219H271.305V53.2188H272.848ZM258.434 61.0117C261.051 60.1426 262.848 57.9648 262.867 55.4258V53.7852H264.371V55.4258C264.352 57.7012 266.148 59.791 268.688 60.6211L267.867 61.8125C265.943 61.1289 264.41 59.7617 263.639 58.0039C262.896 59.9863 261.324 61.5 259.273 62.2422L258.434 61.0117ZM261.598 64.3125V63.082H272.848V67.2227H263.141V69.1172H273.492V70.3477H261.637V66.0508H271.324V64.3125H261.598ZM285.074 54.5078V55.7578H278.297V57.9453H284.586V59.1953H278.297V61.4805C281.988 61.4902 284.059 61.4219 286.5 61.0117L286.656 62.2617C284.127 62.6719 281.998 62.7598 278.16 62.75H276.754V54.5078H285.074ZM278.434 67.3789C278.434 65.3965 280.631 64.2344 284.312 64.2539C287.926 64.2344 290.162 65.3965 290.152 67.3789C290.162 69.4004 287.926 70.543 284.312 70.543C280.631 70.543 278.434 69.4004 278.434 67.3789ZM279.957 67.3789C279.957 68.6094 281.578 69.332 284.312 69.332C286.969 69.332 288.639 68.6094 288.648 67.3789C288.639 66.1973 286.969 65.4648 284.312 65.4648C281.578 65.4648 279.957 66.1973 279.957 67.3789ZM288.551 64V53.2383H290.074V64H288.551ZM302.711 54.5664C305.074 54.5762 306.783 56.6074 307.018 59.8594H310.914V53.2188H312.438V70.6211H310.914V61.1289H307.037C306.871 64.5371 305.133 66.666 302.711 66.6562C300.143 66.666 298.346 64.3223 298.355 60.6211C298.346 56.9297 300.143 54.5762 302.711 54.5664ZM299.82 60.6211C299.83 63.4434 301.002 65.2988 302.711 65.2891C304.41 65.2988 305.602 63.4434 305.602 60.6211C305.602 57.7988 304.41 55.9434 302.711 55.9336C301.002 55.9434 299.83 57.7988 299.82 60.6211ZM329.723 53.2383V62.9453H328.18V60.1133H324.723V58.8633H328.18V56.7539H324.723V55.4844H328.18V53.2383H329.723ZM316.031 55.2891V54.0195H323.57V58.707H317.594V61.1289C320.816 61.1094 322.506 61.0801 324.605 60.7188L324.742 61.9883C322.535 62.3594 320.768 62.3984 317.301 62.418H316.07V57.5156H322.047V55.2891H316.031ZM318.395 70.3477V63.6484H319.938V65.6797H328.199V63.6484H329.723V70.3477H318.395ZM319.938 69.0977H328.199V66.9102H319.938V69.0977ZM347.477 53.2188V70.582H346.012V53.2188H347.477ZM332.633 65.7188C336.402 63.4824 338.297 60.3477 338.59 56.7148H333.375V55.4453H340.113C340.113 57.1543 339.84 58.8047 339.244 60.3477H342.359V53.6875H343.824V69.7031H342.359V61.5977H338.678C337.633 63.6191 335.953 65.4062 333.531 66.832L332.633 65.7188ZM368.98 61.0898V62.3594H356.871V54.7422H358.414V61.0898H368.98ZM354.918 68.1797V66.8906H370.816V68.1797H354.918ZM386.52 53.2188V70.582H385.016V63.8438H380.631C380.074 65.2305 379.303 66.5684 378.277 67.7891L376.988 66.9492C379.654 63.8828 380.523 60.0254 380.66 56.4023H377.945V55.1133H382.125C382.125 56.0312 382.086 56.9883 381.988 57.9648H385.016V53.2188H386.52ZM372.047 65.7188C374.615 63.0918 375.738 59.8594 375.943 56.4023H372.652V55.1133H377.418C377.408 59.2246 376.393 63.3066 373.277 66.5977L372.047 65.7188ZM381.1 62.5547H385.016V59.2148H381.842C381.686 60.3281 381.451 61.4512 381.1 62.5547ZM395.699 58.5508C395.709 61.5 397.848 64.498 400.406 65.6016L399.547 66.8125C397.516 65.8945 395.768 63.8926 394.957 61.4902C394.146 64.0391 392.389 66.2461 390.406 67.2422L389.488 66.0312C391.979 64.8398 394.146 61.5586 394.156 58.5508V56.2852H390.055V55.0156H399.84V56.2852H395.699V58.5508ZM402.262 70.582V53.2188H403.805V70.582H402.262ZM412.945 57.8867C412.936 61.0605 415.094 64.2441 417.652 65.4062L416.715 66.6172C414.732 65.6602 413.023 63.5996 412.193 61.1289C411.393 63.7461 409.684 65.9434 407.652 66.9688L406.676 65.6797C409.264 64.498 411.402 61.1777 411.422 57.8867V54.7227H412.945V57.8867ZM419.547 70.6211V53.2188H421.09V70.6211H419.547ZM440.309 60.1523V61.4414H437.496V70.582H435.973V53.2188H437.496V60.1523H440.309ZM424.781 66.168V54.9375H426.305V64.8789C428.844 64.8789 431.432 64.6836 434.293 64.0781L434.488 65.3867C431.49 65.9922 428.795 66.168 426.168 66.168H424.781ZM457.242 67.0664V68.3555H441.344V67.0664H445.289V62.3887C443.805 61.6172 442.906 60.3672 442.906 58.7852C442.906 56.0996 445.543 54.332 449.254 54.3125C452.965 54.332 455.602 56.0996 455.602 58.7852C455.602 60.3379 454.732 61.5684 453.297 62.3398V67.0664H457.242ZM444.391 58.7852C444.381 60.7285 446.402 62.0273 449.254 62.0273C452.076 62.0273 454.117 60.7285 454.117 58.7852C454.117 56.8418 452.076 55.5625 449.254 55.582C446.402 55.5625 444.381 56.8418 444.391 58.7852ZM446.793 67.0664H451.754V62.9355C451.002 63.1309 450.162 63.2383 449.254 63.2383C448.365 63.2383 447.535 63.1406 446.793 62.9453V67.0664ZM461.402 64.918C461.422 62.3008 462.223 61.5 463.57 60.6797C464.381 60.1914 464.996 59.4102 464.996 58.3164C464.996 56.9883 463.961 56.1387 462.672 56.1484C461.559 56.1387 460.436 56.8027 460.328 58.4141H458.551C458.648 56.041 460.436 54.6641 462.672 54.6641C465.123 54.6641 466.715 56.2363 466.715 58.3945C466.715 59.9277 465.992 60.9922 464.781 61.7344C463.561 62.4766 463.121 63.2285 463.082 64.918V65.0156H461.402V64.918ZM461.051 67.8477C461.031 67.1641 461.617 66.5977 462.301 66.5977C462.994 66.5977 463.561 67.1641 463.551 67.8477C463.561 68.541 462.994 69.1074 462.301 69.1172C461.617 69.1074 461.031 68.541 461.051 67.8477Z" fill="#0858F7"/>
<path d="M162.492 85.8281V107.203H159.469V85.8281H162.492ZM145.266 94.9219C145.254 90.2695 147.633 87.3281 150.914 87.3281C154.125 87.3281 156.516 90.2695 156.516 94.9219C156.516 99.6094 154.125 102.539 150.914 102.539C147.633 102.539 145.254 99.6094 145.266 94.9219ZM148.148 94.9219C148.137 98.0977 149.25 99.832 150.914 99.8203C152.531 99.832 153.621 98.0977 153.633 94.9219C153.621 91.7578 152.531 90.0234 150.914 90.0234C149.25 90.0234 148.137 91.7578 148.148 94.9219ZM173.648 91.6406C173.637 95.0859 175.418 98.7773 178.992 100.266L177.375 102.609C174.867 101.543 173.133 99.4219 172.172 96.8438C171.211 99.6445 169.441 101.988 166.922 103.148L165.211 100.781C168.75 99.1992 170.578 95.25 170.578 91.6406V90.3281H166.055V87.8906H178.102V90.3281H173.648V91.6406ZM180.211 107.156V85.8281H183.234V107.156H180.211ZM205.641 102.258V104.672H186.117V102.258H194.367V97.5H197.367V102.258H205.641ZM186.914 96.0703C191.344 95.3555 193.992 92.6836 194.25 89.8594H187.734V87.4453H203.93V89.8594H197.438C197.672 92.6719 200.344 95.2852 204.914 95.9531L203.742 98.3203C200.004 97.6641 197.238 95.8477 195.855 93.3164C194.508 95.8828 191.766 97.7695 188.086 98.4375L186.914 96.0703ZM224.719 85.8516V101.18H221.719V85.8516H224.719ZM207.188 92.5781C207.188 89.4492 209.742 87.1992 213.023 87.2109C216.293 87.1992 218.848 89.4492 218.859 92.5781C218.848 95.7539 216.293 97.9922 213.023 97.9922C209.742 97.9922 207.188 95.7539 207.188 92.5781ZM210.117 92.5781C210.094 94.3594 211.348 95.3906 213.023 95.3906C214.641 95.3906 215.895 94.3594 215.906 92.5781C215.895 90.8438 214.641 89.8008 213.023 89.8125C211.348 89.8008 210.094 90.8438 210.117 92.5781ZM210.422 106.781V99.6328H213.445V104.391H225.281V106.781H210.422ZM246.094 85.8281V107.156H243.234V85.8281H246.094ZM227.789 95.0625C227.789 90.293 229.605 87.3398 232.43 87.3516C234.996 87.3398 236.754 89.7422 237.082 93.7266H238.828V86.1328H241.641V106.172H238.828V96.0938H237.105C236.848 100.277 235.055 102.82 232.43 102.82C229.605 102.82 227.789 99.8555 227.789 95.0625ZM230.555 95.0625C230.531 98.3438 231.234 99.9609 232.43 99.9375C233.66 99.9609 234.387 98.3438 234.375 95.0625C234.387 91.793 233.66 90.1641 232.43 90.1641C231.234 90.1641 230.531 91.793 230.555 95.0625ZM256.406 90.6562C256.418 94.6641 258.035 98.5664 261.586 100.102L259.758 102.492C257.391 101.344 255.797 99.2109 254.906 96.5742C253.992 99.375 252.352 101.672 249.914 102.867L248.039 100.43C251.695 98.7773 253.359 94.6641 253.383 90.6562V87.4688H256.406V90.6562ZM259.195 94.9453V92.5312H263.391V85.8281H266.344V107.203H263.391V94.9453H259.195ZM280.805 104.555H289.57V103.055H280.805V104.555ZM274.641 94.8047C278.625 94.8164 283.816 94.8164 288.375 94.2422L288.516 96.3516C286.875 96.6328 285.188 96.8203 283.523 96.9492V99.4453H280.805V100.805H289.57V99H292.523V106.922H277.852V99H280.547V97.1133C278.566 97.1836 276.68 97.1953 274.992 97.1953L274.641 94.8047ZM275.391 91.6875C278.777 90.9961 280.312 89.1797 280.336 87.2344V86.3672H283.406V87.2344C283.395 89.0391 284.953 90.75 288.258 91.3828L286.992 93.6328C284.543 93.1406 282.844 92.0039 281.895 90.4805C280.969 92.1562 279.246 93.4219 276.703 93.9609L275.391 91.6875ZM289.547 98.1328V85.8516H292.523V98.1328H289.547ZM313.852 85.8281V107.156H311.039V85.8281H313.852ZM295.102 100.617C299.414 98.0625 301.312 94.957 301.723 90.7734H296.273V88.3594H304.688C304.688 90.3984 304.465 92.2969 303.949 94.0547H306.516V86.2969H309.305V106.219H306.516V96.4219H303.023C301.805 98.8594 299.824 100.969 296.789 102.727L295.102 100.617ZM329.953 90.0469C329.941 92.5898 331.535 95.1914 335.039 96.2578L333.516 98.6016C331.125 97.8398 329.449 96.3047 328.488 94.3828C327.516 96.4922 325.781 98.168 323.273 99L321.727 96.6562C325.277 95.5195 326.906 92.7422 326.906 90.0469V89.7422H322.523V87.3516H334.242V89.7422H329.953V90.0469ZM325.195 106.781V99.8672H328.219V104.391H340.055V106.781H325.195ZM336.492 101.273V85.8516H339.492V101.273H336.492ZM360.703 85.8281V99.2109H357.867V93.5391H356.156V98.5078H353.367V86.2266H356.156V91.1016H357.867V85.8281H360.703ZM342.258 90.3516V88.0312H346.031V86.0156H349.008V88.0312H352.734V90.3516H342.258ZM342.914 94.7812C342.902 92.543 344.859 91.0547 347.531 91.0547C350.238 91.0547 352.184 92.543 352.195 94.7812C352.184 96.9961 350.238 98.4727 347.531 98.4844C344.859 98.4727 342.902 96.9961 342.914 94.7812ZM345.586 94.7812C345.574 95.7656 346.359 96.3633 347.531 96.3516C348.691 96.3633 349.488 95.7656 349.5 94.7812C349.488 93.7852 348.691 93.1992 347.531 93.2109C346.371 93.1992 345.574 93.7852 345.586 94.7812ZM346.031 103.289C346.02 100.816 348.82 99.4102 353.414 99.3984C358.02 99.4102 360.797 100.816 360.82 103.289C360.797 105.75 358.02 107.168 353.414 107.156C348.82 107.168 346.02 105.75 346.031 103.289ZM349.031 103.289C349.008 104.367 350.52 104.906 353.414 104.906C356.32 104.906 357.797 104.367 357.797 103.289C357.797 102.164 356.32 101.637 353.414 101.648C350.52 101.637 349.008 102.164 349.031 103.289ZM379.945 85.8281V94.1719H383.086V96.6328H379.945V107.156H376.992V85.8281H379.945ZM363 91.4062V89.0156H367.828V86.1562H370.828V89.0156H375.539V91.4062H363ZM363.867 97.6875C363.855 94.7109 366.176 92.5898 369.328 92.6016C372.434 92.5898 374.766 94.7109 374.766 97.6875C374.766 100.664 372.434 102.762 369.328 102.773C366.176 102.762 363.855 100.664 363.867 97.6875ZM366.727 97.6875C366.727 99.3398 367.816 100.324 369.328 100.312C370.816 100.324 371.906 99.3398 371.906 97.6875C371.906 96.0469 370.816 95.0391 369.328 95.0156C367.816 95.0391 366.727 96.0469 366.727 97.6875ZM390.703 91.1953C390.691 94.6523 391.652 98.2148 394.57 100.078L392.953 102.398C391.102 101.285 389.941 99.4336 389.262 97.2539C388.5 99.668 387.223 101.695 385.289 102.867L383.461 100.664C386.625 98.707 387.797 94.9453 387.797 91.3359V87.6562H390.703V91.1953ZM392.32 95.4609V93.0234H395.086V86.1328H397.875V106.172H395.086V95.4609H392.32ZM399.492 107.156V85.8281H402.352V107.156H399.492ZM424.125 102.211V104.672H404.602V102.211H408.961V96.9844C407.309 95.9883 406.312 94.4766 406.312 92.6016C406.312 89.1445 409.688 86.8711 414.328 86.8594C418.945 86.8711 422.355 89.1445 422.367 92.6016C422.355 94.4414 421.395 95.9297 419.789 96.9258V102.211H424.125ZM409.266 92.6016C409.266 94.6875 411.27 95.9766 414.328 95.9766C417.34 95.9766 419.402 94.6875 419.414 92.6016C419.402 90.457 417.34 89.2148 414.328 89.2266C411.27 89.2148 409.266 90.457 409.266 92.6016ZM411.914 102.211H416.766V98.0625C416.004 98.2148 415.184 98.2969 414.328 98.2969C413.473 98.2969 412.664 98.2148 411.914 98.0742V102.211ZM430.195 88.0312L429.891 99.9141H426.891L426.586 88.0312H430.195ZM426.445 103.242C426.422 102.164 427.312 101.285 428.414 101.297C429.457 101.285 430.359 102.164 430.359 103.242C430.359 104.332 429.457 105.211 428.414 105.211C427.312 105.211 426.422 104.332 426.445 103.242Z" fill="#0858F7"/>
<rect x="843" y="48" width="296" height="64" rx="4" fill="url(#paint0_linear_298_3271)"/>
<path d="M890.41 71.0234V88.8359H887.891V71.0234H890.41ZM876.055 78.6016C876.045 74.7246 878.027 72.2734 880.762 72.2734C883.438 72.2734 885.43 74.7246 885.43 78.6016C885.43 82.5078 883.438 84.9492 880.762 84.9492C878.027 84.9492 876.045 82.5078 876.055 78.6016ZM878.457 78.6016C878.447 81.248 879.375 82.6934 880.762 82.6836C882.109 82.6934 883.018 81.248 883.027 78.6016C883.018 75.9648 882.109 74.5195 880.762 74.5195C879.375 74.5195 878.447 75.9648 878.457 78.6016ZM899.707 75.8672C899.697 78.7383 901.182 81.8145 904.16 83.0547L902.812 85.0078C900.723 84.1191 899.277 82.3516 898.477 80.2031C897.676 82.5371 896.201 84.4902 894.102 85.457L892.676 83.4844C895.625 82.166 897.148 78.875 897.148 75.8672V74.7734H893.379V72.7422H903.418V74.7734H899.707V75.8672ZM905.176 88.7969V71.0234H907.695V88.7969H905.176ZM926.367 84.7148V86.7266H910.098V84.7148H916.973V80.75H919.473V84.7148H926.367ZM910.762 79.5586C914.453 78.9629 916.66 76.7363 916.875 74.3828H911.445V72.3711H924.941V74.3828H919.531C919.727 76.7266 921.953 78.9043 925.762 79.4609L924.785 81.4336C921.67 80.8867 919.365 79.373 918.213 77.2637C917.09 79.4023 914.805 80.9746 911.738 81.5312L910.762 79.5586ZM942.266 71.043V83.8164H939.766V71.043H942.266ZM927.656 76.6484C927.656 74.041 929.785 72.166 932.52 72.1758C935.244 72.166 937.373 74.041 937.383 76.6484C937.373 79.2949 935.244 81.1602 932.52 81.1602C929.785 81.1602 927.656 79.2949 927.656 76.6484ZM930.098 76.6484C930.078 78.1328 931.123 78.9922 932.52 78.9922C933.867 78.9922 934.912 78.1328 934.922 76.6484C934.912 75.2031 933.867 74.334 932.52 74.3438C931.123 74.334 930.078 75.2031 930.098 76.6484ZM930.352 88.4844V82.5273H932.871V86.4922H942.734V88.4844H930.352ZM955.996 75.0469C956.006 78.3867 957.354 81.6387 960.312 82.918L958.789 84.9102C956.816 83.9531 955.488 82.1758 954.746 79.9785C953.984 82.3125 952.617 84.2266 950.586 85.2227L949.023 83.1914C952.07 81.8145 953.457 78.3867 953.477 75.0469V72.3906H955.996V75.0469ZM958.32 78.6211V76.6094H961.816V71.0234H964.277V88.8359H961.816V78.6211H958.32ZM981.445 71.0234V88.8359H978.926V71.0234H981.445ZM967.441 84.6758V72.4297H969.941V76.7656H973.77V72.4297H976.23V84.6758H967.441ZM969.941 82.6641H973.77V78.6992H969.941V82.6641ZM993.203 73.3672C993.193 75.9746 995.508 78.7578 999.531 79.4414L998.438 81.5117C995.332 80.8965 993.037 79.1484 991.885 76.873C990.713 79.1289 988.408 80.8867 985.332 81.5117L984.258 79.4414C988.213 78.7383 990.527 75.9453 990.547 73.3672V72.0781H993.203V73.3672ZM983.848 86.6094V84.5586H1000.12V86.6094H983.848ZM1020.62 71.043V84.0117H1018.12V71.043H1020.62ZM1005.68 79.6172C1008.66 78.6211 1009.96 76.1504 1009.96 73.7383V72.0195H1012.56V73.7383C1012.54 76.0918 1013.8 78.3867 1016.72 79.3242L1015.45 81.2773C1013.44 80.6133 1012.06 79.2852 1011.27 77.5957C1010.47 79.4121 1009.05 80.877 1006.97 81.5898L1005.68 79.6172ZM1008.71 88.4844V82.7617H1011.23V86.4922H1021.09V88.4844H1008.71ZM1033.16 72.8789V74.832H1029.57C1029.6 76.6582 1030.93 78.5137 1033.79 79.2461L1032.64 81.1602C1030.61 80.6523 1029.19 79.5293 1028.38 78.084C1027.61 79.7246 1026.18 81.0234 1024.08 81.6289L1022.91 79.6953C1025.75 78.875 1027.07 76.8438 1027.09 74.832H1023.52V72.8789H1027.09V70.9453H1029.61V72.8789H1033.16ZM1025.82 85.3984C1025.82 83.2695 1028.16 82.0684 1031.93 82.0586C1035.72 82.0684 1038.06 83.2695 1038.07 85.3984C1038.06 87.5566 1035.72 88.8066 1031.93 88.7969C1028.16 88.8066 1025.82 87.5566 1025.82 85.3984ZM1028.3 85.3984C1028.3 86.375 1029.58 86.9023 1031.93 86.9023C1034.34 86.9023 1035.58 86.375 1035.59 85.3984C1035.58 84.4512 1034.34 83.9727 1031.93 83.9727C1029.58 83.9727 1028.3 84.4512 1028.3 85.3984ZM1032.64 77.7812V75.7891H1035.53V71.0234H1038.01V81.7656H1035.53V77.7812H1032.64ZM1054.34 71.0234V77.9766H1056.95V80.0273H1054.34V88.7969H1051.88V71.0234H1054.34ZM1040.21 75.6719V73.6797H1044.24V71.2969H1046.74V73.6797H1050.66V75.6719H1040.21ZM1040.94 80.9062C1040.93 78.4258 1042.86 76.6582 1045.49 76.668C1048.08 76.6582 1050.02 78.4258 1050.02 80.9062C1050.02 83.3867 1048.08 85.1348 1045.49 85.1445C1042.86 85.1348 1040.93 83.3867 1040.94 80.9062ZM1043.32 80.9062C1043.32 82.2832 1044.23 83.1035 1045.49 83.0938C1046.73 83.1035 1047.64 82.2832 1047.64 80.9062C1047.64 79.5391 1046.73 78.6992 1045.49 78.6797C1044.23 78.6992 1043.32 79.5391 1043.32 80.9062ZM1072.54 71.0234V88.7969H1070.02V71.0234H1072.54ZM1057.66 83.7578C1062.25 81.5898 1064.27 78.7773 1064.67 74.832H1058.61V72.8789H1067.21C1067.2 78.2695 1065.31 82.752 1058.96 85.75L1057.66 83.7578Z" fill="white"/>
<path d="M1095 84L1099 80M1099 80L1095 76M1099 80H1091M1095 70C1100.52 70 1105 74.4772 1105 80C1105 85.5228 1100.52 90 1095 90C1089.48 90 1085 85.5228 1085 80C1085 74.4772 1089.48 70 1095 70Z" stroke="white" stroke-linecap="round" stroke-linejoin="round"/>
<path d="M69.0059 111.5V114.986C69.0059 115.546 69.4599 116 70.0199 116H117.492C118.052 116 118.506 115.546 118.506 114.986V49.514C118.506 48.9539 118.052 48.5 117.492 48.5H113.997L69.0059 111.5Z" fill="#C4E2FF"/>
<path d="M112.557 110.051L109.66 111.5H65.5199C64.9598 111.5 64.5059 111.046 64.5059 110.486V53L70.4381 49.9652L73.5057 44H109.66L112.557 45.4487V110.051Z" fill="#EAF6FF"/>
<path d="M64.5059 53H72.4918C73.0519 53 73.5059 52.5459 73.5059 51.986V44L64.5059 53Z" fill="#D8ECFE"/>
<path d="M109.66 44V111.5H112.992C113.552 111.5 114.006 111.046 114.006 110.486V45.014C114.006 44.4539 113.552 44 112.992 44H109.66Z" fill="#D8ECFE"/>
<path d="M125.408 66.3969L99.7559 92.0494L94.1448 95.5966L93.0483 95.18L95.8576 90.0248C95.957 89.8423 96.0822 89.6751 96.2291 89.528L115.099 70.6578L117.455 69.9794L118.281 67.4759L122.834 62.9229L125.408 63.3238C126.257 64.1723 126.257 65.5482 125.408 66.3969Z" fill="#808B95"/>
<path d="M120.582 71.2248L118.849 72.9581L117.037 72.5953L115.1 70.6578L118.282 67.4758L120.219 69.4134L120.582 71.2248Z" fill="#FE99A0"/>
<path d="M96.1341 93.498L93.0483 95.18L92.2242 96.6923C92.0168 97.0729 92.4332 97.4893 92.8138 97.2818L99.4809 93.6479C99.6633 93.5485 99.8306 93.4234 99.9774 93.2765L118.848 74.4062L119.438 72.0991L117.037 72.5954L96.1341 93.498Z" fill="#5E6B75"/>
<path d="M126.857 63.3236L126.182 62.6485C125.333 61.7998 123.957 61.7998 123.109 62.6485L122.834 62.9228L123.235 63.3237C124.084 64.1724 124.084 65.5483 123.235 66.397L120.219 69.4135L119.574 71.6658L122.03 71.2243L126.857 66.397C127.706 65.5482 127.706 64.1723 126.857 63.3236Z" fill="#5E6B75"/>
<path d="M117.028 72.5986L120.209 69.4171L122.02 71.2277L118.838 74.4092L117.028 72.5986Z" fill="#FD8087"/>
<path d="M97.3517 81.0865H73.4825C72.8823 81.0865 72.396 80.6001 72.396 80C72.396 79.4 72.8824 78.9136 73.4825 78.9136H97.3517C97.9519 78.9136 98.4382 79.4 98.4382 80C98.4382 80.6001 97.9518 81.0865 97.3517 81.0865Z" fill="#C4E2FF"/>
<path d="M92.8282 85.5867H73.4825C72.8823 85.5867 72.396 85.1002 72.396 84.5C72.396 83.9 72.8824 83.4136 73.4825 83.4136H92.8282C93.4284 83.4136 93.9147 83.9 93.9147 84.5C93.9147 85.1001 93.4283 85.5867 92.8282 85.5867Z" fill="#C4E2FF"/>
<path d="M88.3174 90.0865H73.4825C72.8823 90.0865 72.396 89.6001 72.396 89C72.396 88.4 72.8824 87.9136 73.4825 87.9136H88.3174C88.9176 87.9136 89.4039 88.4 89.4039 89C89.4039 89.6001 88.9175 90.0865 88.3174 90.0865Z" fill="#C4E2FF"/>
<path d="M73.8508 105.959C73.5087 105.959 73.1722 105.798 72.9607 105.497C72.6157 105.006 72.7343 104.328 73.2255 103.983C76.8408 101.445 79.9136 98.292 82.3582 94.6127C82.8333 93.8433 84.1004 94.0465 84.311 94.9261C84.8466 96.8764 84.9459 98.5241 84.5732 100.2C85.0966 99.724 85.6432 99.0976 86.2777 98.2108C86.6601 97.6476 87.5435 97.6049 87.9801 98.1287C88.6744 98.9244 89.0518 99.9137 89.2569 100.749C89.6831 100.477 90.0565 100.212 90.2171 100.039C90.7821 99.3848 91.9467 99.7168 92.0825 100.57C92.1514 100.929 92.2928 101.037 92.4356 101.1C93.1388 101.413 94.6916 100.97 95.6997 100.359C96.2132 100.048 96.881 100.212 97.1921 100.726C97.5027 101.239 97.3386 101.907 96.8253 102.218C95.6893 102.906 93.3004 103.863 91.5531 103.086C91.2639 102.958 90.9359 102.755 90.6468 102.439C89.9198 102.922 89.1462 103.342 88.9256 103.459C88.2403 103.852 87.3129 103.302 87.3279 102.513C87.3278 102.502 87.3085 101.67 87.0155 100.796C85.596 102.443 84.4118 103.065 82.8988 103.747C82.0019 104.187 80.9998 103.13 81.4873 102.258C82.2958 100.691 82.6595 99.3957 82.6216 97.9754C80.3164 100.966 77.5846 103.578 74.4742 105.762C74.2842 105.895 74.0664 105.959 73.8508 105.959Z" fill="#C4E2FF"/>
<path d="M95.71 73.3514H83.9805V62.431L90.5724 57.2852L95.71 61.0248V73.3514Z" fill="#D8ECFE"/>
<path d="M90.5725 57.2852L87.3662 59.788L93.4983 64.61C94.0069 65.01 94.3038 65.6211 94.3038 66.2681V73.3514H97.1163V62.431L90.5725 57.2852Z" fill="#C4E2FF"/>
<path d="M92.7568 73.3516H88.3887V67.7837C88.3887 67.24 88.8294 66.7993 89.373 66.7993H91.7724C92.316 66.7993 92.7568 67.24 92.7568 67.7837V73.3516Z" fill="#FFE07D"/>
<path d="M97.464 64.0947L91.1807 59.1564C90.8237 58.8758 90.3211 58.8758 89.9642 59.1564L83.681 64.0947C83.2535 64.4307 82.6348 64.3565 82.2988 63.929L80.7954 62.0163C80.4595 61.5888 80.5337 60.97 80.9611 60.6341L89.2125 54.1487C90.0107 53.5214 91.1343 53.5214 91.9325 54.1487L100.184 60.6341C100.611 60.97 100.686 61.5889 100.35 62.0163L98.8462 63.929C98.5102 64.3565 97.8915 64.4307 97.464 64.0947Z" fill="#FE99A0"/>
<path d="M99.2879 74.4062H81.8154C81.233 74.4062 80.7607 73.9342 80.7607 73.3516C80.7607 72.769 81.233 72.2969 81.8154 72.2969H99.2879C99.8704 72.2969 100.343 72.769 100.343 73.3516C100.343 73.9342 99.8704 74.4062 99.2879 74.4062Z" fill="#808B95"/>
<defs>
<linearGradient id="paint0_linear_298_3271" x1="843" y1="80" x2="1139" y2="80" gradientUnits="userSpaceOnUse">
<stop stop-color="#2779F4"/>
<stop offset="1" stop-color="#4448D4"/>
</linearGradient>
</defs>
</svg>
