<svg width="1212" height="331" viewBox="0 0 1212 331" fill="none" xmlns="http://www.w3.org/2000/svg">
<g filter="url(#filter0_d_461_6012)">
<rect x="6" y="4" width="580" height="140" fill="white"/>
<rect x="6.5" y="4.5" width="579" height="139" stroke="#F2F4F8"/>
</g>
<g filter="url(#filter1_d_461_6012)">
<rect x="626" y="4" width="580" height="140" fill="white"/>
<rect x="626.5" y="4.5" width="579" height="139" stroke="#F2F4F8"/>
</g>
<g filter="url(#filter2_d_461_6012)">
<rect x="6" y="183" width="580" height="140" fill="white"/>
<rect x="6.5" y="183.5" width="579" height="139" stroke="#F2F4F8"/>
</g>
<g filter="url(#filter3_d_461_6012)">
<rect x="626" y="183" width="580" height="140" fill="white"/>
<rect x="626.5" y="183.5" width="579" height="139" stroke="#F2F4F8"/>
</g>
<path d="M274.094 67V44.375H282.594C287.781 44.375 290.547 47.5312 290.562 51.875C290.547 56.2031 287.75 59.3438 282.531 59.3438H278.156V67H274.094ZM278.156 56H281.969C285.031 55.9844 286.406 54.2656 286.406 51.875C286.406 49.4531 285.031 47.7812 281.969 47.7812H278.156V56ZM293.844 44.375H298.844L305.562 60.8125H305.844L312.562 44.375H317.562V67H313.656V51.4375H313.438L307.156 66.9375H304.25L297.969 51.375H297.781V67H293.844V44.375Z" fill="#4448D4"/>
<path d="M197.777 96.6094C197.797 92.9277 198.793 89.8613 200.59 87.2539H202.074C200.756 89.1777 199.525 93.1328 199.516 96.6094C199.525 100.096 200.756 104.041 202.074 105.984H200.59C198.793 103.367 197.797 100.301 197.777 96.6094ZM204.379 102V87.8594H209.184C212.494 87.8594 214.008 89.832 214.008 92.3516C214.008 94.8613 212.494 96.8633 209.203 96.8633H206.137V102H204.379ZM206.137 95.3008H209.125C211.381 95.3008 212.26 94.0312 212.27 92.3516C212.26 90.6621 211.381 89.4219 209.105 89.4219H206.137V95.3008ZM216.254 102V91.3945H217.875V93.0156H217.992C218.373 91.9414 219.477 91.2285 220.727 91.2188C220.98 91.2285 221.41 91.2383 221.605 91.2578V92.957C221.479 92.9277 221.029 92.8398 220.59 92.8398C219.066 92.8398 217.934 93.8945 217.934 95.3203V102H216.254ZM227.23 102.215C224.34 102.225 222.387 100.037 222.387 96.7461C222.387 93.4355 224.34 91.2578 227.23 91.2578C230.111 91.2578 232.045 93.4355 232.035 96.7461C232.045 100.037 230.111 102.225 227.23 102.215ZM224.066 96.7461C224.076 98.8652 225.072 100.73 227.23 100.73C229.369 100.73 230.355 98.8652 230.355 96.7461C230.355 94.6367 229.369 92.7422 227.23 92.7422C225.072 92.7422 224.076 94.6367 224.066 96.7461ZM234.242 91.3945H235.922V102.762C235.922 104.744 234.896 105.975 232.836 105.984C232.729 105.975 232.621 105.975 232.484 105.984V104.422C232.602 104.432 232.699 104.432 232.816 104.422C233.793 104.432 234.232 103.826 234.242 102.762V91.3945ZM233.891 88.5234C233.881 87.8984 234.418 87.4004 235.062 87.4102C235.707 87.4004 236.244 87.8984 236.254 88.5234C236.244 89.1387 235.707 89.6367 235.062 89.6367C234.418 89.6367 233.881 89.1387 233.891 88.5234ZM243.051 102.215C239.984 102.225 238.09 100.037 238.09 96.7852C238.09 93.5234 240.014 91.2578 242.895 91.2578C245.121 91.2578 247.475 92.625 247.465 96.5508V97.2539H239.77C239.857 99.5 241.166 100.73 243.051 100.73C244.32 100.73 245.121 100.174 245.512 99.5195H247.309C246.811 101.131 245.238 102.225 243.051 102.215ZM239.779 95.8281H245.766C245.756 94.0605 244.643 92.7422 242.895 92.7422C241.059 92.7422 239.896 94.1875 239.779 95.8281ZM253.988 102.215C250.98 102.225 249.145 99.9297 249.145 96.7461C249.145 93.5234 251.068 91.2578 253.949 91.2578C256.205 91.2578 257.904 92.5957 258.168 94.5977H256.488C256.244 93.6309 255.404 92.7422 253.988 92.7422C252.094 92.7422 250.834 94.3047 250.824 96.6875C250.834 99.1387 252.064 100.711 253.988 100.711C255.238 100.711 256.195 100.037 256.488 98.875H258.168C257.904 100.77 256.342 102.225 253.988 102.215ZM264.867 91.3945V92.8008H262.641V98.9531C262.631 100.311 263.314 100.535 264.027 100.535C264.33 100.535 264.779 100.506 265.023 100.496V102.059C264.76 102.098 264.35 102.137 263.852 102.137C262.436 102.137 260.951 101.258 260.941 99.3828V92.8008H259.34V91.3945H260.941V88.8555H262.641V91.3945H264.867ZM272.27 87.8594H274.379L279.145 99.5H279.32L284.086 87.8594H286.195V102H284.535V91.3164H284.398L280.004 102H278.441L274.047 91.3164H273.93V102H272.27V87.8594ZM288.598 98.9922C288.598 96.5605 290.746 96.0039 292.582 95.8672C293.266 95.8184 294.975 95.7207 295.453 95.7109V94.8516C295.453 93.5039 294.652 92.7227 293.051 92.7227C291.713 92.7227 290.902 93.3379 290.668 94.1484H288.91C289.125 92.4395 290.785 91.2578 293.129 91.2578C294.516 91.2578 297.123 91.668 297.113 95.0078V102H295.453V100.555H295.375C295.023 101.268 294.057 102.244 292.211 102.254C290.199 102.244 288.598 101.062 288.598 98.9922ZM290.277 99.0703C290.287 100.193 291.215 100.76 292.504 100.75C294.398 100.76 295.453 99.4902 295.453 98.1523V97.0879C294.955 97.1172 293.285 97.2441 292.777 97.2734C291.254 97.3711 290.287 97.9082 290.277 99.0703ZM301.488 95.6328V102H299.809V91.3945H301.43V93.0547H301.566C302.064 91.9707 303.061 91.2578 304.672 91.2578C306.82 91.2578 308.256 92.5664 308.246 95.2617V102H306.566V95.3789C306.566 93.7383 305.668 92.7617 304.164 92.7617C302.621 92.7617 301.488 93.7969 301.488 95.6328ZM310.434 98.9922C310.434 96.5605 312.582 96.0039 314.418 95.8672C315.102 95.8184 316.811 95.7207 317.289 95.7109V94.8516C317.289 93.5039 316.488 92.7227 314.887 92.7227C313.549 92.7227 312.738 93.3379 312.504 94.1484H310.746C310.961 92.4395 312.621 91.2578 314.965 91.2578C316.352 91.2578 318.959 91.668 318.949 95.0078V102H317.289V100.555H317.211C316.859 101.268 315.893 102.244 314.047 102.254C312.035 102.244 310.434 101.062 310.434 98.9922ZM312.113 99.0703C312.123 100.193 313.051 100.76 314.34 100.75C316.234 100.76 317.289 99.4902 317.289 98.1523V97.0879C316.791 97.1172 315.121 97.2441 314.613 97.2734C313.09 97.3711 312.123 97.9082 312.113 99.0703ZM325.941 106.199C323.373 106.199 321.635 105.076 321.449 103.113H323.207C323.432 104.197 324.438 104.734 325.941 104.734C327.758 104.734 328.871 103.943 328.871 102.195V100.047H328.734C328.373 100.633 327.699 101.834 325.648 101.844C323.07 101.834 321.137 99.8906 321.137 96.5508C321.137 93.2891 323.002 91.2578 325.668 91.2578C327.729 91.2578 328.393 92.5078 328.773 93.0742H328.91V91.3945H330.551V102.293C330.541 105.027 328.529 106.199 325.941 106.199ZM322.836 96.6094C322.836 98.8066 323.871 100.34 325.883 100.34C327.826 100.34 328.9 98.9434 328.91 96.6094C328.9 94.334 327.855 92.7617 325.883 92.7617C323.842 92.7617 322.836 94.4707 322.836 96.6094ZM337.68 102.215C334.613 102.225 332.719 100.037 332.719 96.7852C332.719 93.5234 334.643 91.2578 337.523 91.2578C339.75 91.2578 342.104 92.625 342.094 96.5508V97.2539H334.398C334.486 99.5 335.795 100.73 337.68 100.73C338.949 100.73 339.75 100.174 340.141 99.5195H341.938C341.439 101.131 339.867 102.225 337.68 102.215ZM334.408 95.8281H340.395C340.385 94.0605 339.271 92.7422 337.523 92.7422C335.688 92.7422 334.525 94.1875 334.408 95.8281ZM344.281 102V91.3945H345.902V93.0547H346.039C346.479 91.9219 347.504 91.2578 348.891 91.2578C350.277 91.2578 351.225 91.9219 351.723 93.0547H351.84C352.377 91.9609 353.5 91.2578 355.023 91.2578C356.908 91.2578 358.266 92.4102 358.266 94.9102V102H356.586V94.9297C356.576 93.3672 355.6 92.7617 354.438 92.7617C352.963 92.7617 352.123 93.7578 352.113 95.1055V102H350.414V94.7539C350.424 93.5625 349.564 92.7617 348.344 92.7617C347.074 92.7617 345.961 93.8359 345.961 95.3789V102H344.281ZM365.414 102.215C362.348 102.225 360.453 100.037 360.453 96.7852C360.453 93.5234 362.377 91.2578 365.258 91.2578C367.484 91.2578 369.838 92.625 369.828 96.5508V97.2539H362.133C362.221 99.5 363.529 100.73 365.414 100.73C366.684 100.73 367.484 100.174 367.875 99.5195H369.672C369.174 101.131 367.602 102.225 365.414 102.215ZM362.143 95.8281H368.129C368.119 94.0605 367.006 92.7422 365.258 92.7422C363.422 92.7422 362.26 94.1875 362.143 95.8281ZM373.695 95.6328V102H372.016V91.3945H373.637V93.0547H373.773C374.271 91.9707 375.268 91.2578 376.879 91.2578C379.027 91.2578 380.463 92.5664 380.453 95.2617V102H378.773V95.3789C378.773 93.7383 377.875 92.7617 376.371 92.7617C374.828 92.7617 373.695 93.7969 373.695 95.6328ZM387.777 91.3945V92.8008H385.551V98.9531C385.541 100.311 386.225 100.535 386.938 100.535C387.24 100.535 387.689 100.506 387.934 100.496V102.059C387.67 102.098 387.26 102.137 386.762 102.137C385.346 102.137 383.861 101.258 383.852 99.3828V92.8008H382.25V91.3945H383.852V88.8555H385.551V91.3945H387.777ZM393.637 96.6094C393.617 100.301 392.621 103.367 390.824 105.984H389.34C390.658 104.041 391.889 100.096 391.898 96.6094C391.889 93.1328 390.658 89.1777 389.34 87.2539H390.824C392.621 89.8613 393.617 92.9277 393.637 96.6094Z" fill="#A2A9B0"/>
<path d="M866.656 60.9062V63.0938C866.672 65.2969 866.672 67.7969 865.969 71.125H869.812V73.9375H844V71.125H862.453C863.125 68.0625 863.188 65.75 863.188 63.6875H847.188V60.9062H866.656ZM847.094 87.4375V77.2188H866.625V87.4375H847.094ZM850.5 84.625H863.188V79.9375H850.5V84.625ZM897.406 72.375V75.2188H891.438V78.75C893.266 79.625 894.266 80.9375 894.281 82.6562C894.266 85.9375 890.578 87.7656 884.5 87.7812C878.328 87.7656 874.656 85.9375 874.656 82.6562C874.656 80.8906 875.719 79.5469 877.656 78.6875V75.2188H871.656V72.375H897.406ZM874.312 65.4375C874.312 62.0625 878.266 60.0156 884.5 60.0312C890.719 60.0156 894.672 62.0625 894.688 65.4375C894.672 68.7812 890.719 70.7656 884.5 70.7812C878.266 70.7656 874.312 68.7812 874.312 65.4375ZM877.938 65.4375C877.906 67.1719 880.375 68.1094 884.5 68.0938C888.625 68.1094 891.094 67.1719 891.094 65.4375C891.094 63.6875 888.625 62.75 884.5 62.75C880.375 62.75 877.906 63.6875 877.938 65.4375ZM878.188 82.6562C878.172 84.2812 880.391 85.1094 884.5 85.0938C888.547 85.1094 890.781 84.2812 890.812 82.6562C890.781 81.0469 888.547 80.2031 884.5 80.1875C880.391 80.2031 878.172 81.0469 878.188 82.6562ZM881.156 77.7656C882.172 77.625 883.281 77.5625 884.5 77.5625C885.766 77.5625 886.922 77.6406 887.969 77.7812V75.2188H881.156V77.7656ZM921.719 61.7188C921.719 69.4219 918.203 74.8125 908.812 77.875L907.469 75.1562C911.797 73.75 914.547 71.9219 916.156 69.7031L907.938 70.375L907.406 67.625L917.469 67.2188C917.766 66.375 917.953 65.4688 918.047 64.5312H908.844V61.7188H921.719ZM912.25 87.2188V78.375H915.75V84.4062H931.312V87.2188H912.25ZM921.594 71.0938V68.25H927.094V59.5625H930.562V80.4375H927.094V71.0938H921.594ZM958.219 59.5312V74H954.75V66.8438H949.125V64.0625H954.75V59.5312H958.219ZM934.406 71.375C938.953 70 941.312 66.5156 941.312 62.7188V60.4688H944.812V62.7188C944.797 66.2031 947.078 69.5 951.469 70.8438L949.625 73.5312C946.562 72.5156 944.344 70.5156 943.094 67.9531C941.875 70.8125 939.547 73.0625 936.219 74.1562L934.406 71.375ZM939.625 77.9375V75.2188H958.219V82.5312H943.062V84.6875H959.125V87.4375H939.656V79.9375H954.781V77.9375H939.625ZM977.438 61.5625V64.3125H967.312V67H976.625V69.7188H967.312V72.4375C972.594 72.4531 975.812 72.375 979.531 71.75L979.875 74.5C975.828 75.1719 972.281 75.2656 966.188 75.25H963.781V61.5625H977.438ZM966.562 82.4688C966.547 79.125 970.188 77.1719 976.219 77.1875C982.141 77.1719 985.875 79.125 985.875 82.4688C985.875 85.8125 982.141 87.75 976.219 87.75C970.188 87.75 966.547 85.8125 966.562 82.4688ZM970.031 82.4688C970 84.1562 972.203 85.0625 976.219 85.0625C980.141 85.0625 982.406 84.1562 982.406 82.4688C982.406 80.7969 980.141 79.875 976.219 79.875C972.203 79.875 970 80.7969 970.031 82.4688ZM982.25 76.7812V59.5625H985.75V76.7812H982.25Z" fill="#4448D4"/>
<path d="M240.156 240.156V241.906C240.156 243.703 240.156 246.234 239.469 249.406L236.062 249.125C236.578 246.578 236.672 244.609 236.703 243H225.75V240.156H240.156ZM224.062 251.656C225.75 251.656 227.625 251.641 229.594 251.609V246.406H233.031V251.516C235.969 251.406 238.953 251.219 241.688 250.875L241.875 253.312C236 254.312 229.469 254.484 224.375 254.469L224.062 251.656ZM227.75 261.406C227.75 258.188 231.469 256.234 237.438 256.219C243.422 256.234 247.109 258.188 247.125 261.406C247.109 264.766 243.422 266.703 237.438 266.688C231.469 266.703 227.75 264.766 227.75 261.406ZM231.281 261.406C231.266 263.141 233.547 263.969 237.438 263.969C241.312 263.969 243.547 263.141 243.562 261.406C243.547 259.828 241.312 258.906 237.438 258.906C233.547 258.906 231.266 259.828 231.281 261.406ZM243.344 255.906V238.531H246.906V245.75H250.562V248.656H246.906V255.906H243.344ZM275.094 241.125V243.844C275.062 247.359 275.062 251.281 273.969 257.188L270.469 256.812C271.578 251.312 271.578 247.297 271.594 243.906H254.719V241.125H275.094ZM252.031 263.125V260.281H261.531V250.469H264.969V260.281H277.781V263.125H252.031ZM295.031 264.312C290.406 264.328 287.562 261.594 287.562 258C287.562 255.328 289.281 253.703 291.812 251.953C290.516 250.344 289.5 248.688 289.5 246.688C289.5 243.469 291.844 241.094 295.406 241.094C298.969 241.094 301.172 243.453 301.156 246.219C301.172 248.375 300.047 250.016 298.156 251.375L296.719 252.438L300.859 257.297C301.453 256.172 301.812 254.844 301.812 253.344H305.25C305.234 256.453 304.375 258.656 303.281 260.125L306.594 264H302.281L300.828 262.344C299.219 263.703 297.016 264.328 295.031 264.312ZM291.469 257.812C291.469 259.609 292.922 261.047 295.156 261.062C296.359 261.062 297.594 260.625 298.656 259.859L293.953 254.453L293.594 254.719C292.062 255.844 291.469 257.031 291.469 257.812ZM293.031 246.75C293.047 247.781 293.734 248.828 294.672 250L295.969 249.125C297.156 248.359 297.781 247.547 297.781 246.406C297.781 245.422 296.906 244.359 295.469 244.375C294.031 244.359 293.047 245.516 293.031 246.75ZM340.969 253.156V255.938H330.062V260.812H326.625V255.938H315.156V253.156H340.969ZM318.281 266.219V258.438H321.719V263.406H338.125V266.219H318.281ZM318.531 250.938V239.438H321.969V242.625H334.156V239.438H337.594V250.938H318.531ZM321.969 248.188H334.156V245.219H321.969V248.188ZM368.969 242.312V245.156H365.125V248.375H368.969V251.25H365.125V255.125H361.656V238.531H365.125V242.312H368.969ZM343.156 246.906C343.141 242.922 346.422 240.125 350.781 240.156C355.125 240.125 358.375 242.922 358.406 246.906C358.375 250.875 355.125 253.672 350.781 253.688C346.422 253.672 343.141 250.875 343.156 246.906ZM346.375 261.281C346.375 257.828 350.094 255.797 355.938 255.781C361.734 255.797 365.391 257.828 365.406 261.281C365.391 264.703 361.734 266.75 355.938 266.75C350.094 266.75 346.375 264.703 346.375 261.281ZM346.562 246.906C346.547 249.25 348.344 250.734 350.781 250.75C353.188 250.734 354.984 249.25 355 246.906C354.984 244.578 353.188 243.047 350.781 243.062C348.344 243.047 346.547 244.578 346.562 246.906ZM349.844 261.281C349.844 263.062 352.062 263.969 355.938 263.969C359.797 263.969 361.969 263.062 361.969 261.281C361.969 259.516 359.797 258.562 355.938 258.562C352.062 258.562 349.844 259.516 349.844 261.281Z" fill="#4448D4"/>
<path d="M907.844 228C907.359 225.281 905.188 223.719 902.438 223.719C898.734 223.719 896.109 226.562 896.125 231.688C896.109 236.891 898.75 239.656 902.438 239.656C905.125 239.656 907.297 238.156 907.844 235.5H911.938C911.312 239.844 907.734 243.312 902.375 243.312C896.406 243.312 892.016 238.984 892.031 231.688C892.016 224.375 896.453 220.062 902.375 220.062C907.375 220.062 911.234 222.969 911.938 228H907.844ZM915.438 220.375H920.438L927.156 236.812H927.438L934.156 220.375H939.156V243H935.25V227.438H935.031L928.75 242.938H925.844L919.562 227.375H919.375V243H915.438V220.375Z" fill="#4448D4"/>
<path d="M791.777 277.609C791.797 273.928 792.793 270.861 794.59 268.254H796.074C794.756 270.178 793.525 274.133 793.516 277.609C793.525 281.096 794.756 285.041 796.074 286.984H794.59C792.793 284.367 791.797 281.301 791.777 277.609ZM808.027 273.312C807.617 271.359 805.947 270.305 804.082 270.305C801.523 270.305 799.541 272.277 799.531 275.93C799.541 279.572 801.523 281.545 804.082 281.555C805.947 281.545 807.607 280.5 808.027 278.566H809.785C809.277 281.457 806.953 283.195 804.082 283.195C800.449 283.195 797.822 280.402 797.832 275.93C797.822 271.457 800.449 268.664 804.082 268.664C806.943 268.664 809.258 270.373 809.785 273.312H808.027ZM816.367 283.215C813.477 283.225 811.523 281.037 811.523 277.746C811.523 274.436 813.477 272.258 816.367 272.258C819.248 272.258 821.182 274.436 821.172 277.746C821.182 281.037 819.248 283.225 816.367 283.215ZM813.203 277.746C813.213 279.865 814.209 281.73 816.367 281.73C818.506 281.73 819.492 279.865 819.492 277.746C819.492 275.637 818.506 273.742 816.367 273.742C814.209 273.742 813.213 275.637 813.203 277.746ZM825.059 276.633V283H823.379V272.395H825V274.055H825.137C825.635 272.971 826.631 272.258 828.242 272.258C830.391 272.258 831.826 273.566 831.816 276.262V283H830.137V276.379C830.137 274.738 829.238 273.762 827.734 273.762C826.191 273.762 825.059 274.797 825.059 276.633ZM840.41 275.148C840.176 274.27 839.502 273.693 838.262 273.684C836.953 273.693 836.025 274.396 836.016 275.285C836.025 275.988 836.592 276.467 837.832 276.77L839.414 277.16C841.309 277.609 842.236 278.557 842.246 280.031C842.236 281.867 840.742 283.225 838.086 283.215C835.703 283.225 834.287 282.16 834.004 280.227H835.762C835.957 281.262 836.709 281.76 838.047 281.75C839.561 281.76 840.508 281.125 840.508 280.129C840.508 279.377 839.971 278.889 838.77 278.605L837.168 278.234C835.322 277.805 834.336 276.799 834.336 275.383C834.336 273.566 835.928 272.258 838.262 272.258C840.459 272.258 841.836 273.43 842.051 275.148H840.41ZM849.062 272.395V273.801H846.836V279.953C846.826 281.311 847.51 281.535 848.223 281.535C848.525 281.535 848.975 281.506 849.219 281.496V283.059C848.955 283.098 848.545 283.137 848.047 283.137C846.631 283.137 845.146 282.258 845.137 280.383V273.801H843.535V272.395H845.137V269.855H846.836V272.395H849.062ZM851.23 283V272.395H852.852V274.016H852.969C853.35 272.941 854.453 272.229 855.703 272.219C855.957 272.229 856.387 272.238 856.582 272.258V273.957C856.455 273.928 856.006 273.84 855.566 273.84C854.043 273.84 852.91 274.895 852.91 276.32V283H851.23ZM864.922 278.645V272.395H866.582V283H864.922V281.203H864.805C864.307 282.277 863.252 283.137 861.66 283.137C859.648 283.137 858.213 281.828 858.223 279.133V272.395H859.902V279.016C859.902 280.539 860.85 281.525 862.207 281.516C863.408 281.525 864.912 280.627 864.922 278.645ZM873.613 283.215C870.605 283.225 868.77 280.93 868.77 277.746C868.77 274.523 870.693 272.258 873.574 272.258C875.83 272.258 877.529 273.596 877.793 275.598H876.113C875.869 274.631 875.029 273.742 873.613 273.742C871.719 273.742 870.459 275.305 870.449 277.688C870.459 280.139 871.689 281.711 873.613 281.711C874.863 281.711 875.82 281.037 876.113 279.875H877.793C877.529 281.77 875.967 283.225 873.613 283.215ZM884.492 272.395V273.801H882.266V279.953C882.256 281.311 882.939 281.535 883.652 281.535C883.955 281.535 884.404 281.506 884.648 281.496V283.059C884.385 283.098 883.975 283.137 883.477 283.137C882.061 283.137 880.576 282.258 880.566 280.383V273.801H878.965V272.395H880.566V269.855H882.266V272.395H884.492ZM886.66 283V272.395H888.34V283H886.66ZM886.328 269.523C886.318 268.898 886.855 268.4 887.5 268.41C888.145 268.4 888.682 268.898 888.691 269.523C888.682 270.139 888.145 270.637 887.5 270.637C886.855 270.637 886.318 270.139 886.328 269.523ZM895.352 283.215C892.461 283.225 890.508 281.037 890.508 277.746C890.508 274.436 892.461 272.258 895.352 272.258C898.232 272.258 900.166 274.436 900.156 277.746C900.166 281.037 898.232 283.225 895.352 283.215ZM892.188 277.746C892.197 279.865 893.193 281.73 895.352 281.73C897.49 281.73 898.477 279.865 898.477 277.746C898.477 275.637 897.49 273.742 895.352 273.742C893.193 273.742 892.197 275.637 892.188 277.746ZM904.043 276.633V283H902.363V272.395H903.984V274.055H904.121C904.619 272.971 905.615 272.258 907.227 272.258C909.375 272.258 910.811 273.566 910.801 276.262V283H909.121V276.379C909.121 274.738 908.223 273.762 906.719 273.762C905.176 273.762 904.043 274.797 904.043 276.633ZM918.73 268.859H920.84L925.605 280.5H925.781L930.547 268.859H932.656V283H930.996V272.316H930.859L926.465 283H924.902L920.508 272.316H920.391V283H918.73V268.859ZM935.059 279.992C935.059 277.561 937.207 277.004 939.043 276.867C939.727 276.818 941.436 276.721 941.914 276.711V275.852C941.914 274.504 941.113 273.723 939.512 273.723C938.174 273.723 937.363 274.338 937.129 275.148H935.371C935.586 273.439 937.246 272.258 939.59 272.258C940.977 272.258 943.584 272.668 943.574 276.008V283H941.914V281.555H941.836C941.484 282.268 940.518 283.244 938.672 283.254C936.66 283.244 935.059 282.062 935.059 279.992ZM936.738 280.07C936.748 281.193 937.676 281.76 938.965 281.75C940.859 281.76 941.914 280.49 941.914 279.152V278.088C941.416 278.117 939.746 278.244 939.238 278.273C937.715 278.371 936.748 278.908 936.738 280.07ZM947.949 276.633V283H946.27V272.395H947.891V274.055H948.027C948.525 272.971 949.521 272.258 951.133 272.258C953.281 272.258 954.717 273.566 954.707 276.262V283H953.027V276.379C953.027 274.738 952.129 273.762 950.625 273.762C949.082 273.762 947.949 274.797 947.949 276.633ZM956.895 279.992C956.895 277.561 959.043 277.004 960.879 276.867C961.562 276.818 963.271 276.721 963.75 276.711V275.852C963.75 274.504 962.949 273.723 961.348 273.723C960.01 273.723 959.199 274.338 958.965 275.148H957.207C957.422 273.439 959.082 272.258 961.426 272.258C962.812 272.258 965.42 272.668 965.41 276.008V283H963.75V281.555H963.672C963.32 282.268 962.354 283.244 960.508 283.254C958.496 283.244 956.895 282.062 956.895 279.992ZM958.574 280.07C958.584 281.193 959.512 281.76 960.801 281.75C962.695 281.76 963.75 280.49 963.75 279.152V278.088C963.252 278.117 961.582 278.244 961.074 278.273C959.551 278.371 958.584 278.908 958.574 280.07ZM972.402 287.199C969.834 287.199 968.096 286.076 967.91 284.113H969.668C969.893 285.197 970.898 285.734 972.402 285.734C974.219 285.734 975.332 284.943 975.332 283.195V281.047H975.195C974.834 281.633 974.16 282.834 972.109 282.844C969.531 282.834 967.598 280.891 967.598 277.551C967.598 274.289 969.463 272.258 972.129 272.258C974.189 272.258 974.854 273.508 975.234 274.074H975.371V272.395H977.012V283.293C977.002 286.027 974.99 287.199 972.402 287.199ZM969.297 277.609C969.297 279.807 970.332 281.34 972.344 281.34C974.287 281.34 975.361 279.943 975.371 277.609C975.361 275.334 974.316 273.762 972.344 273.762C970.303 273.762 969.297 275.471 969.297 277.609ZM984.141 283.215C981.074 283.225 979.18 281.037 979.18 277.785C979.18 274.523 981.104 272.258 983.984 272.258C986.211 272.258 988.564 273.625 988.555 277.551V278.254H980.859C980.947 280.5 982.256 281.73 984.141 281.73C985.41 281.73 986.211 281.174 986.602 280.52H988.398C987.9 282.131 986.328 283.225 984.141 283.215ZM980.869 276.828H986.855C986.846 275.061 985.732 273.742 983.984 273.742C982.148 273.742 980.986 275.188 980.869 276.828ZM990.742 283V272.395H992.363V274.055H992.5C992.939 272.922 993.965 272.258 995.352 272.258C996.738 272.258 997.686 272.922 998.184 274.055H998.301C998.838 272.961 999.961 272.258 1001.48 272.258C1003.37 272.258 1004.73 273.41 1004.73 275.91V283H1003.05V275.93C1003.04 274.367 1002.06 273.762 1000.9 273.762C999.424 273.762 998.584 274.758 998.574 276.105V283H996.875V275.754C996.885 274.562 996.025 273.762 994.805 273.762C993.535 273.762 992.422 274.836 992.422 276.379V283H990.742ZM1011.88 283.215C1008.81 283.225 1006.91 281.037 1006.91 277.785C1006.91 274.523 1008.84 272.258 1011.72 272.258C1013.95 272.258 1016.3 273.625 1016.29 277.551V278.254H1008.59C1008.68 280.5 1009.99 281.73 1011.88 281.73C1013.14 281.73 1013.95 281.174 1014.34 280.52H1016.13C1015.63 282.131 1014.06 283.225 1011.88 283.215ZM1008.6 276.828H1014.59C1014.58 275.061 1013.47 273.742 1011.72 273.742C1009.88 273.742 1008.72 275.188 1008.6 276.828ZM1020.16 276.633V283H1018.48V272.395H1020.1V274.055H1020.23C1020.73 272.971 1021.73 272.258 1023.34 272.258C1025.49 272.258 1026.92 273.566 1026.91 276.262V283H1025.23V276.379C1025.23 274.738 1024.34 273.762 1022.83 273.762C1021.29 273.762 1020.16 274.797 1020.16 276.633ZM1034.24 272.395V273.801H1032.01V279.953C1032 281.311 1032.69 281.535 1033.4 281.535C1033.7 281.535 1034.15 281.506 1034.39 281.496V283.059C1034.13 283.098 1033.72 283.137 1033.22 283.137C1031.81 283.137 1030.32 282.258 1030.31 280.383V273.801H1028.71V272.395H1030.31V269.855H1032.01V272.395H1034.24ZM1040.1 277.609C1040.08 281.301 1039.08 284.367 1037.29 286.984H1035.8C1037.12 285.041 1038.35 281.096 1038.36 277.609C1038.35 274.133 1037.12 270.178 1035.8 268.254H1037.29C1039.08 270.861 1040.08 273.928 1040.1 277.609Z" fill="#A2A9B0"/>
<defs>
<filter id="filter0_d_461_6012" x="0" y="0" width="592" height="152" filterUnits="userSpaceOnUse" color-interpolation-filters="sRGB">
<feFlood flood-opacity="0" result="BackgroundImageFix"/>
<feColorMatrix in="SourceAlpha" type="matrix" values="0 0 0 0 0 0 0 0 0 0 0 0 0 0 0 0 0 0 127 0" result="hardAlpha"/>
<feOffset dy="2"/>
<feGaussianBlur stdDeviation="3"/>
<feComposite in2="hardAlpha" operator="out"/>
<feColorMatrix type="matrix" values="0 0 0 0 0 0 0 0 0 0 0 0 0 0 0 0 0 0 0.1 0"/>
<feBlend mode="normal" in2="BackgroundImageFix" result="effect1_dropShadow_461_6012"/>
<feBlend mode="normal" in="SourceGraphic" in2="effect1_dropShadow_461_6012" result="shape"/>
</filter>
<filter id="filter1_d_461_6012" x="620" y="0" width="592" height="152" filterUnits="userSpaceOnUse" color-interpolation-filters="sRGB">
<feFlood flood-opacity="0" result="BackgroundImageFix"/>
<feColorMatrix in="SourceAlpha" type="matrix" values="0 0 0 0 0 0 0 0 0 0 0 0 0 0 0 0 0 0 127 0" result="hardAlpha"/>
<feOffset dy="2"/>
<feGaussianBlur stdDeviation="3"/>
<feComposite in2="hardAlpha" operator="out"/>
<feColorMatrix type="matrix" values="0 0 0 0 0 0 0 0 0 0 0 0 0 0 0 0 0 0 0.1 0"/>
<feBlend mode="normal" in2="BackgroundImageFix" result="effect1_dropShadow_461_6012"/>
<feBlend mode="normal" in="SourceGraphic" in2="effect1_dropShadow_461_6012" result="shape"/>
</filter>
<filter id="filter2_d_461_6012" x="0" y="179" width="592" height="152" filterUnits="userSpaceOnUse" color-interpolation-filters="sRGB">
<feFlood flood-opacity="0" result="BackgroundImageFix"/>
<feColorMatrix in="SourceAlpha" type="matrix" values="0 0 0 0 0 0 0 0 0 0 0 0 0 0 0 0 0 0 127 0" result="hardAlpha"/>
<feOffset dy="2"/>
<feGaussianBlur stdDeviation="3"/>
<feComposite in2="hardAlpha" operator="out"/>
<feColorMatrix type="matrix" values="0 0 0 0 0 0 0 0 0 0 0 0 0 0 0 0 0 0 0.1 0"/>
<feBlend mode="normal" in2="BackgroundImageFix" result="effect1_dropShadow_461_6012"/>
<feBlend mode="normal" in="SourceGraphic" in2="effect1_dropShadow_461_6012" result="shape"/>
</filter>
<filter id="filter3_d_461_6012" x="620" y="179" width="592" height="152" filterUnits="userSpaceOnUse" color-interpolation-filters="sRGB">
<feFlood flood-opacity="0" result="BackgroundImageFix"/>
<feColorMatrix in="SourceAlpha" type="matrix" values="0 0 0 0 0 0 0 0 0 0 0 0 0 0 0 0 0 0 127 0" result="hardAlpha"/>
<feOffset dy="2"/>
<feGaussianBlur stdDeviation="3"/>
<feComposite in2="hardAlpha" operator="out"/>
<feColorMatrix type="matrix" values="0 0 0 0 0 0 0 0 0 0 0 0 0 0 0 0 0 0 0.1 0"/>
<feBlend mode="normal" in2="BackgroundImageFix" result="effect1_dropShadow_461_6012"/>
<feBlend mode="normal" in="SourceGraphic" in2="effect1_dropShadow_461_6012" result="shape"/>
</filter>
</defs>
</svg>
