<svg width="422" height="340" viewBox="0 0 422 340" fill="none" xmlns="http://www.w3.org/2000/svg">
<rect x="222" width="200" height="160" rx="12" fill="white"/>
<rect y="180" width="200" height="160" rx="12" fill="white"/>
<path d="M80.5137 297.256V298.803C80.5049 300.745 80.5049 302.925 79.916 306.15L78.2285 305.975C78.835 302.925 78.835 300.692 78.8438 298.803V298.609H69.2812V297.256H80.5137ZM67.7695 309.367V307.979H73.2363V302.424H74.8887V307.979H82.1309V309.367H67.7695ZM96.7559 295.762V305.025H95.1738V300.982H93.2754V304.938H91.6934V296.043H93.2754V299.594H95.1738V295.762H96.7559ZM83.3262 303.918C86.5078 302.67 88.2305 300.71 88.5205 298.24H84.0117V296.887H90.2168C90.2168 300.71 88.1689 303.496 84.1348 305.166L83.3262 303.918ZM85.998 307.064V305.711H96.7559V311.494H95.1035V307.064H85.998ZM109.078 300.385C109.069 303.021 110.801 305.746 113.227 306.783L112.312 308.084C110.458 307.267 108.981 305.526 108.252 303.426C107.522 305.676 106.046 307.592 104.209 308.488L103.242 307.17C105.615 306.054 107.373 303.101 107.391 300.385V298.715H103.787V297.326H112.664V298.715H109.078V300.385ZM114.65 311.494V295.744H116.32V311.494H114.65ZM131.93 295.762V307.697H130.26V306.186H127.096V305.008H130.26V295.762H131.93ZM118.764 302.951C121.673 302.925 125.602 302.898 128.959 302.477L129.064 303.672C127.72 303.9 126.305 304.041 124.916 304.138V307.205H123.246V304.226C121.717 304.287 120.249 304.287 118.975 304.287L118.764 302.951ZM119.994 299.137C119.985 297.467 121.576 296.359 123.914 296.359C126.217 296.359 127.816 297.467 127.816 299.137C127.816 300.815 126.217 301.879 123.914 301.879C121.585 301.879 119.985 300.815 119.994 299.137ZM120.943 311.16V306.537H122.596V309.807H132.316V311.16H120.943ZM121.576 299.137C121.567 300.068 122.517 300.648 123.914 300.648C125.259 300.648 126.226 300.068 126.234 299.137C126.226 298.196 125.259 297.59 123.914 297.607C122.517 297.59 121.567 298.196 121.576 299.137Z" fill="#2779F4"/>
<path d="M287.669 119.752C287.669 122.635 289.286 125.509 291.694 126.59L290.675 127.926C288.891 127.029 287.537 125.254 286.843 123.101C286.148 125.368 284.777 127.284 282.958 128.225L281.903 126.871C284.347 125.702 285.973 122.67 285.981 119.752V117.062H287.669V119.752ZM289.954 122.336V120.982H293.47V115.744H295.122V131.529H293.47V122.336H289.954ZM310.591 115.744V131.529H308.921V115.744H310.591ZM298.427 127.75V117.062H300.097V121.105H304.333V117.062H305.985V127.75H298.427ZM300.097 126.379H304.333V122.424H300.097V126.379ZM321.103 117.977C321.103 120.543 323.836 122.969 326.868 123.514L326.095 124.902C323.572 124.357 321.261 122.705 320.241 120.49C319.204 122.696 316.893 124.34 314.37 124.902L313.632 123.514C316.62 122.951 319.336 120.543 319.345 117.977V116.781H321.103V117.977ZM313.104 129.42V128.031H327.519V129.42H313.104ZM346.116 115.762V127.293H344.446V115.762H346.116ZM333.144 123.742C335.613 122.828 337.072 120.561 337.081 118.188V116.623H338.786V118.188C338.777 120.49 340.236 122.6 342.671 123.443L341.81 124.779C339.99 124.103 338.646 122.767 337.942 121.062C337.248 122.89 335.886 124.349 334.04 125.061L333.144 123.742ZM335.815 131.16V126.203H337.503V129.807H346.591V131.16H335.815ZM354.132 119.102C354.132 120.956 355.652 122.688 358.052 123.355L357.261 124.656C355.433 124.138 354.062 123.013 353.341 121.554C352.655 123.18 351.284 124.472 349.403 125.061L348.612 123.777C351.003 123.013 352.479 121.132 352.479 119.102V118.908H349.052V117.572H352.479V115.674H354.149V117.572H357.56V118.908H354.132V119.102ZM351.144 128.541C351.135 126.695 353.165 125.649 356.47 125.641C359.766 125.649 361.787 126.695 361.796 128.541C361.787 130.396 359.766 131.468 356.47 131.459C353.165 131.468 351.135 130.396 351.144 128.541ZM352.796 128.541C352.787 129.561 354.158 130.167 356.47 130.176C358.781 130.167 360.135 129.561 360.144 128.541C360.135 127.521 358.781 126.941 356.47 126.941C354.158 126.941 352.787 127.521 352.796 128.541ZM357.067 121.527V120.156H360.073V115.744H361.743V125.289H360.073V121.527H357.067Z" fill="#2779F4"/>
<g clip-path="url(#clip0_270_10497)">
<path d="M296.595 96H333.378L335.793 94.7927V37.2073L333.378 36H303.25L299.603 40.8543L295.75 43.5V95.155C295.75 95.6216 296.128 96 296.595 96Z" fill="#DFF6FD"/>
<path d="M301.374 85.6557C301.238 85.6557 301.1 85.6248 300.97 85.5599C300.523 85.3363 300.341 84.7925 300.565 84.3452L303.004 79.467C303.408 78.6585 304.221 78.1562 305.125 78.1562C306.029 78.1562 306.842 78.6585 307.246 79.4669L308.875 82.7254L309.94 80.5952C310.093 80.2884 310.407 80.0946 310.75 80.0946C311.093 80.0946 311.406 80.2884 311.56 80.5952L312.625 82.7254L313.69 80.5952C313.843 80.2884 314.157 80.0946 314.5 80.0946C314.843 80.0946 315.156 80.2884 315.31 80.5952L317.185 84.3452C317.408 84.7923 317.227 85.3363 316.78 85.5599C316.333 85.7837 315.789 85.6022 315.565 85.155L314.5 83.0247L313.435 85.1549C313.281 85.4617 312.968 85.6554 312.625 85.6554C312.282 85.6554 311.968 85.4617 311.815 85.1549L310.75 83.0247L309.685 85.1549C309.531 85.4617 309.218 85.6554 308.875 85.6554C308.532 85.6554 308.218 85.4617 308.065 85.1549L305.626 80.2768C305.486 79.9973 305.229 79.9671 305.125 79.9671C305.021 79.9671 304.763 79.9974 304.624 80.2768L302.184 85.1549C302.026 85.4721 301.706 85.6557 301.374 85.6557Z" fill="#BEC6ED"/>
<path d="M315.359 88.5466C315.127 88.5466 314.895 88.4581 314.718 88.2814C314.365 87.9279 314.365 87.3545 314.718 87.0009L316.566 85.1529C316.92 84.7993 317.493 84.7993 317.847 85.1529C318.201 85.5064 318.201 86.0798 317.847 86.4334L315.999 88.2814C315.822 88.4583 315.59 88.5466 315.359 88.5466Z" fill="#4C4C4C"/>
<path d="M346.375 59.2766H344.105L343.724 56.625L345.049 55.2991C345.782 54.567 346.969 54.567 347.701 55.2991C348.433 56.0313 348.433 57.2186 347.701 57.9507L346.375 59.2766Z" fill="#FFF08A"/>
<path d="M295.75 43.5H302.405C302.872 43.5 303.25 43.1216 303.25 42.655V36L295.75 43.5Z" fill="#D5E3F4"/>
<path d="M333.378 36V96H336.155C336.622 96 337 95.6216 337 95.155V36.845C337 36.3784 336.622 36 336.155 36H333.378Z" fill="#D5E3F4"/>
<path d="M317.207 85.7932C316.475 85.061 316.475 83.8738 317.207 83.1416L319.858 80.49L322.51 80.8725V83.1417L319.858 85.7933C319.126 86.5254 317.939 86.5254 317.207 85.7932Z" fill="#616161"/>
<path d="M323.186 82.6104L321.375 82.0068L319.78 80.411C319.45 80.081 319.45 79.5459 319.78 79.2159L327.813 71.1826L331.817 73.9795L323.186 82.6104Z" fill="#FFF08A"/>
<path d="M321.375 82.0068L322.589 83.2202C322.919 83.5502 323.454 83.5502 323.784 83.2202L331.817 75.1869V73.9796L330.006 73.376L321.375 82.0068Z" fill="#FFC472"/>
<path d="M318.232 72.5305H301.445C300.945 72.5305 300.54 72.1252 300.54 71.6251C300.54 71.1251 300.945 70.7197 301.445 70.7197H318.232C318.732 70.7197 319.137 71.1251 319.137 71.6251C319.137 72.1252 318.732 72.5305 318.232 72.5305Z" fill="#BEC6ED"/>
<path d="M322 68.7805H301.445C300.945 68.7805 300.54 68.3752 300.54 67.8751C300.54 67.3751 300.945 66.9697 301.445 66.9697H322C322.5 66.9697 322.906 67.3751 322.906 67.8751C322.906 68.375 322.5 68.7805 322 68.7805Z" fill="#BEC6ED"/>
<path d="M327.813 65.0305H301.445C300.945 65.0305 300.54 64.6252 300.54 64.1251C300.54 63.6251 300.945 63.2197 301.445 63.2197H327.813C328.313 63.2197 328.718 63.6251 328.718 64.1251C328.718 64.6252 328.313 65.0305 327.813 65.0305Z" fill="#BEC6ED"/>
<path d="M331.375 61.2805H301.445C300.945 61.2805 300.54 60.8752 300.54 60.3751C300.54 59.8751 300.945 59.4697 301.445 59.4697H331.375C331.875 59.4697 332.281 59.8751 332.281 60.3751C332.281 60.8752 331.875 61.2805 331.375 61.2805Z" fill="#BEC6ED"/>
<path d="M322 54.75H310.75V45.8438L316.375 41.625L322 45.8438V54.75Z" fill="#F96491"/>
<path d="M318.25 54.75H314.5V49.97C314.5 49.5033 314.878 49.125 315.345 49.125H317.405C317.872 49.125 318.25 49.5034 318.25 49.97V54.75H318.25Z" fill="#8CE0FF"/>
<path d="M308.875 48.1556C309.064 48.1556 309.255 48.0965 309.418 47.9744L315.868 43.1371C316.168 42.9118 316.581 42.9118 316.882 43.1371L323.331 47.9744C323.779 48.266 324.201 48.2056 324.599 47.7933C324.899 47.3933 324.818 46.8257 324.418 46.5257L316.932 40.9109C316.613 40.6615 316.141 40.6599 315.819 40.9099L308.331 46.5256C307.931 46.8256 307.85 47.3932 308.15 47.7932C308.328 48.0305 308.6 48.1556 308.875 48.1556Z" fill="#FCAD42"/>
<path d="M323.875 53.8447H308.875C308.375 53.8447 307.969 54.2501 307.969 54.7501C307.969 55.2502 308.375 55.6555 308.875 55.6555H323.875C324.375 55.6555 324.78 55.2502 324.78 54.7501C324.78 54.2501 324.375 53.8447 323.875 53.8447Z" fill="#FCAD42"/>
<path d="M343.645 56.5467L345.24 58.1418L345.844 59.9527L331.817 73.9798L330.006 73.3765L327.813 71.1835L342.45 56.5467C342.78 56.2165 343.315 56.2165 343.645 56.5467Z" fill="#616161"/>
<path d="M330.006 73.3762L331.817 75.1871L346.454 60.5503C346.784 60.2203 346.784 59.6852 346.454 59.3552L345.24 58.1418L330.006 73.3762Z" fill="#4C4C4C"/>
<path d="M337.771 75.4426C337.539 75.4426 337.307 75.3542 337.13 75.1774C336.777 74.8238 336.777 74.2504 337.13 73.8969L343.805 67.2225C344.158 66.8694 344.158 66.2949 343.805 65.942L338.456 60.5933C338.103 60.2397 338.103 59.6663 338.456 59.3128C338.81 58.9592 339.383 58.9592 339.737 59.3128L345.086 64.6614C346.145 65.7206 346.145 67.4438 345.086 68.5029L338.411 75.1773C338.234 75.3541 338.002 75.4426 337.771 75.4426Z" fill="#FFF08A"/>
</g>
<g clip-path="url(#clip1_270_10497)">
<mask id="mask0_270_10497" style="mask-type:luminance" maskUnits="userSpaceOnUse" x="70" y="216" width="60" height="60">
<path d="M70 216H130V276H70V216Z" fill="white"/>
</mask>
<g mask="url(#mask0_270_10497)">
<path d="M70.4458 225.452C70.4458 220.185 74.7529 215.925 80.0367 216.001C85.1548 216.075 89.3165 220.272 89.349 225.391C89.367 228.257 88.1087 230.83 86.1092 232.575C85.8981 232.759 85.9286 233.095 86.1697 233.238L87.9506 234.291C88.2385 234.462 88.1177 234.903 87.7831 234.903L79.7185 234.901C74.5811 234.806 70.4458 230.612 70.4458 225.452Z" fill="#7ACAA6"/>
<path d="M87.9506 234.291L86.1697 233.238C85.9299 233.096 85.8967 232.76 86.1065 232.577C88.1288 230.813 89.3938 228.203 89.3479 225.299C89.2685 220.275 85.2021 216.15 80.1794 216.004C79.4671 215.983 78.7721 216.042 78.1021 216.171C82.4436 217.003 85.7522 220.83 85.781 225.391C85.7949 227.599 85.051 229.634 83.794 231.25C83.0349 232.225 83.2816 233.64 84.3454 234.269L84.3827 234.291C84.6675 234.46 84.5519 234.893 84.2258 234.902L87.7831 234.903C88.1177 234.903 88.2385 234.462 87.9506 234.291Z" fill="#57BE92"/>
<path d="M116.499 250.307H95.0578C89.7026 250.307 86.7721 244.066 90.1924 239.946L90.3826 239.716C91.8894 237.901 92.7142 235.616 92.7142 233.257V229.122C92.7142 221.875 98.589 216 105.836 216C113.083 216 118.958 221.875 118.958 229.122V233.396C118.958 235.78 119.8 238.088 121.336 239.911C124.799 244.023 121.875 250.307 116.499 250.307Z" fill="#C59191"/>
<path d="M127.77 260.933V275.108H83.7871V261.04C83.7871 257.855 85.696 254.98 88.6305 253.745L95.7309 250.658L98.1214 249.619C99.9354 248.83 101.108 247.041 101.108 245.062V244.145H110.447V245.016C110.447 247.002 111.632 248.798 113.459 249.581L123.062 253.698C125.924 254.966 127.77 257.802 127.77 260.933Z" fill="white"/>
<path d="M95.7304 254.038C98.1537 254.762 101.721 255.534 106.068 255.458C110.148 255.387 113.497 254.594 115.827 253.85L116.984 251.092L113.459 249.581C111.632 248.799 110.448 247.002 110.448 245.015V244.145H101.109V245.063C101.109 247.04 99.9361 248.83 98.1221 249.618L95.2666 250.86L95.7304 254.038Z" fill="#FFCEBF"/>
<path d="M123.062 253.697L115.828 250.597L115.827 250.597V275.108H127.77V260.933C127.77 257.802 125.924 254.966 123.062 253.697Z" fill="#8795DE"/>
<path d="M95.7309 250.658V275.108H83.7871V261.04C83.7871 257.855 85.696 254.98 88.6305 253.745L95.7309 250.658Z" fill="#8795DE"/>
<path d="M109.016 249.271C110.09 249.271 111.114 249.055 112.047 248.666C111.046 247.742 110.448 246.427 110.448 245.015V244.145H101.109V245.063C101.109 245.777 100.955 246.467 100.674 247.094C102.088 248.442 104.002 249.271 106.109 249.271H109.016Z" fill="#FFB09E"/>
<path d="M115.112 230.097V237.822C115.112 242.175 111.584 245.703 107.232 245.703H104.325C99.9731 245.703 96.4448 242.175 96.4448 237.822V230.097C96.4448 227.265 98.7401 224.97 101.571 224.97H109.985C112.817 224.97 115.112 227.265 115.112 230.097Z" fill="#FFCEBF"/>
<path d="M115.112 234.116C115.108 234.127 115.104 234.137 115.101 234.148C114.816 235.132 114.069 236.99 112.262 238.384C111.42 239.032 110.461 239.501 109.409 239.777C108.933 239.902 108.648 240.39 108.773 240.866C108.878 241.267 109.24 241.532 109.635 241.532C109.71 241.532 109.786 241.522 109.862 241.503C111.146 241.166 112.319 240.592 113.351 239.796C114.063 239.247 114.64 238.64 115.107 238.03C115.109 237.961 115.112 237.892 115.112 237.823V234.116Z" fill="#7A6D79"/>
<path d="M108.431 242.243H106.341C105.389 242.243 104.618 241.472 104.618 240.52C104.618 239.569 105.389 238.797 106.341 238.797H108.431C109.383 238.797 110.154 239.569 110.154 240.52C110.154 241.472 109.383 242.243 108.431 242.243Z" fill="#685E68"/>
<path d="M107.641 222.925C107.841 220.401 110.258 218.726 112.57 217.858C116.397 220.151 118.958 224.337 118.958 229.122V230.024C118.747 230.068 118.536 230.107 118.328 230.138C117.054 230.329 115.969 230.246 115.227 230.138C110.451 229.502 107.399 225.974 107.641 222.925Z" fill="#B98080"/>
<path d="M105.836 216C108.799 216 111.533 216.983 113.73 218.64C112.634 220.547 110.118 224.316 105.399 227.107C101.897 229.179 98.5938 229.876 96.5597 230.138H92.7139V229.122C92.7139 221.875 98.5887 216 105.836 216Z" fill="#C59191"/>
<path d="M120.505 275.108H91.9512L90.3763 260.252C90.2647 259.198 91.0907 258.28 92.1503 258.28H120.305C121.365 258.28 122.191 259.198 122.079 260.252L120.505 275.108Z" fill="#EFEDEF"/>
<path d="M120.305 258.28H116.737C117.797 258.28 118.623 259.198 118.511 260.252L116.936 275.108H120.504L122.079 260.252C122.191 259.198 121.365 258.28 120.305 258.28Z" fill="#E5E1E5"/>
<path d="M129.121 276H70.8789C70.3934 276 70 275.606 70 275.121C70 274.636 70.3934 274.242 70.8789 274.242H129.121C129.607 274.242 130 274.636 130 275.121C130 275.606 129.607 276 129.121 276Z" fill="#C9BFC8"/>
<path d="M108.725 266.694C108.725 268.073 107.607 269.191 106.228 269.191C104.849 269.191 103.73 268.073 103.73 266.694C103.73 265.314 104.849 264.196 106.228 264.196C107.607 264.196 108.725 265.314 108.725 266.694Z" fill="#C9BFC8"/>
<path d="M77.2214 225.452C77.2214 225.944 76.8222 226.344 76.3295 226.344C75.8369 226.344 75.4375 225.944 75.4375 225.452C75.4375 224.959 75.8369 224.56 76.3295 224.56C76.8222 224.56 77.2214 224.959 77.2214 225.452Z" fill="white"/>
<path d="M80.7898 225.452C80.7898 225.944 80.3904 226.344 79.8979 226.344C79.4052 226.344 79.0059 225.944 79.0059 225.452C79.0059 224.959 79.4052 224.56 79.8979 224.56C80.3904 224.56 80.7898 224.959 80.7898 225.452Z" fill="white"/>
<path d="M84.3573 225.452C84.3573 225.944 83.9579 226.344 83.4653 226.344C82.9727 226.344 82.5732 225.944 82.5732 225.452C82.5732 224.959 82.9727 224.56 83.4653 224.56C83.9579 224.56 84.3573 224.959 84.3573 225.452Z" fill="white"/>
</g>
</g>
<rect x="222" y="180" width="200" height="160" rx="12" fill="white"/>
<path d="M290.218 296.992C290.209 301.167 288.179 304.199 283.028 305.904L282.36 304.586C284.927 303.751 286.553 302.617 287.476 301.229L282.571 301.633L282.308 300.279L288.091 300.033C288.284 299.497 288.407 298.935 288.46 298.346H283.099V296.992H290.218ZM285.032 311.16V306.273H286.72V309.807H295.562V311.16H285.032ZM290.165 302.055V300.684H293.452V295.762H295.122V307.416H293.452V302.055H290.165ZM310.679 295.744V303.848H309.009V299.805H305.687V298.451H309.009V295.744H310.679ZM297.495 302.582C299.956 301.8 301.424 299.84 301.433 297.625V296.254H303.085V297.625C303.085 299.629 304.526 301.492 306.899 302.248L306.021 303.549C304.289 302.951 302.979 301.765 302.285 300.262C301.6 301.958 300.255 303.276 298.392 303.918L297.495 302.582ZM300.378 305.904V304.586H310.679V308.506H302.048V309.965H311.224V311.301H300.413V307.24H309.026V305.904H300.378ZM321.577 296.887V298.223H315.688V299.963H321.138V301.281H315.688V303.074C318.835 303.092 320.672 303.039 322.808 302.67L322.983 304.023C320.707 304.393 318.747 304.454 315.302 304.445H314.001V296.887H321.577ZM315.53 308.559C315.53 306.722 317.543 305.658 320.892 305.658C324.188 305.658 326.244 306.722 326.253 308.559C326.244 310.413 324.188 311.468 320.892 311.459C317.543 311.468 315.53 310.413 315.53 308.559ZM317.2 308.559C317.191 309.587 318.545 310.167 320.892 310.176C323.194 310.167 324.592 309.587 324.583 308.559C324.592 307.557 323.194 306.968 320.892 306.977C318.545 306.968 317.191 307.557 317.2 308.559ZM324.495 305.447V295.762H326.165V305.447H324.495ZM347.452 303.707V305.061H341.194V308.119H339.542V305.061H333.038V303.707H347.452ZM334.831 311.16V306.625H336.501V309.807H345.853V311.16H334.831ZM334.884 302.072V296.482H345.589V302.072H334.884ZM336.519 300.754H343.937V297.801H336.519V300.754ZM353.745 296.869C356.232 296.86 358.025 298.398 358.034 300.613C358.025 302.828 356.232 304.366 353.745 304.375C351.267 304.366 349.447 302.828 349.456 300.613C349.447 298.398 351.267 296.86 353.745 296.869ZM348.7 306.748C351.565 306.748 355.538 306.722 358.983 306.221L359.106 307.434C355.547 308.119 351.724 308.137 348.911 308.137L348.7 306.748ZM351.108 300.613C351.091 302.011 352.216 302.916 353.745 302.916C355.274 302.916 356.399 302.011 356.399 300.613C356.399 299.233 355.274 298.311 353.745 298.311C352.216 298.311 351.091 299.233 351.108 300.613ZM359.968 311.529V295.744H361.638V311.529H359.968Z" fill="#2779F4"/>
<g clip-path="url(#clip2_270_10497)">
<path d="M334.317 271.122H316.024L318.463 262.585H331.878L334.317 271.122Z" fill="#365E7D"/>
<path d="M349.561 262.585H300.78C299.433 262.585 298.341 261.493 298.341 260.146V223.561C298.341 222.214 299.433 221.122 300.78 221.122H349.561C350.908 221.122 352 222.214 352 223.561V260.146C352 261.493 350.908 262.585 349.561 262.585Z" fill="#4A80AA"/>
<path d="M300.78 221.122C299.433 221.122 298.341 222.214 298.341 223.561V253.317H333.463C336.422 253.317 338.829 250.91 338.829 247.951V221.122H300.78Z" fill="#407093"/>
<path d="M349.561 221.122H345.658C347.005 221.122 348.097 222.214 348.097 223.561V260.146C348.097 261.493 347.005 262.585 345.658 262.585H349.561C350.908 262.585 352 261.493 352 260.146V223.561C352 222.214 350.908 221.122 349.561 221.122Z" fill="#407093"/>
<path d="M302.244 253.817V226.231C302.244 225.565 302.784 225.024 303.451 225.024H346.89C347.557 225.024 348.097 225.565 348.097 226.231V253.817C348.097 254.484 347.557 255.024 346.89 255.024H303.451C302.784 255.024 302.244 254.484 302.244 253.817Z" fill="#80B4FB"/>
<path d="M302.244 225.024V253.317H333.463C336.422 253.317 338.829 250.91 338.829 247.951V225.024H302.244Z" fill="#61A2F9"/>
<path d="M337.861 276H312.48C312.08 276 311.756 275.676 311.756 275.276V273.561C311.756 272.214 312.848 271.122 314.195 271.122H336.146C337.493 271.122 338.585 272.214 338.585 273.561V275.276C338.585 275.676 338.261 276 337.861 276Z" fill="#4A80AA"/>
<path d="M336.146 271.122H332.854C334.201 271.122 335.293 272.214 335.293 273.561V276H337.861C338.261 276 338.585 275.676 338.585 275.276V273.561C338.585 272.214 337.493 271.122 336.146 271.122Z" fill="#407093"/>
<path d="M292 247.951V223.561H335.902V247.951C335.902 249.298 334.81 250.39 333.463 250.39H294.439C293.092 250.39 292 249.298 292 247.951Z" fill="#E4F6FF"/>
<path d="M294.997 230.159V228.671C294.997 228.004 295.538 227.463 296.204 227.463H306.89C307.557 227.463 308.098 228.004 308.098 228.671V230.159C308.098 230.825 307.557 231.366 306.89 231.366H296.204C295.538 231.366 294.997 230.825 294.997 230.159Z" fill="#E278B1"/>
<path d="M309.317 236.13H295.902C295.402 236.13 294.997 235.725 294.997 235.225C294.997 234.725 295.402 234.319 295.902 234.319H309.317C309.817 234.319 310.223 234.725 310.223 235.225C310.223 235.725 309.817 236.13 309.317 236.13Z" fill="#93D8E4"/>
<path d="M312.976 240.032H295.902C295.402 240.032 294.997 239.627 294.997 239.127C294.997 238.627 295.402 238.222 295.902 238.222H312.976C313.476 238.222 313.881 238.627 313.881 239.127C313.881 239.627 313.476 240.032 312.976 240.032Z" fill="#93D8E4"/>
<path d="M312.976 243.9H295.902C295.402 243.9 294.997 243.495 294.997 242.995C294.997 242.495 295.402 242.089 295.902 242.089H312.976C313.476 242.089 313.881 242.495 313.881 242.995C313.881 243.495 313.476 243.9 312.976 243.9Z" fill="#93D8E4"/>
<path d="M333.098 223.561V247.951C333.098 249.298 332.006 250.39 330.659 250.39H333.464C334.811 250.39 335.903 249.298 335.903 247.951V223.561H333.098Z" fill="#B9E4EF"/>
<path d="M292 223.561V218.439C292 217.092 293.092 216 294.439 216H333.463C334.81 216 335.902 217.092 335.902 218.439V223.561H292Z" fill="#80B4FB"/>
<path d="M333.464 216H330.659C332.006 216 333.098 217.092 333.098 218.439V223.561H335.903V218.439C335.903 217.092 334.811 216 333.464 216Z" fill="#61A2F9"/>
<path d="M331.024 220.756C331.563 220.756 332 220.319 332 219.781C332 219.242 331.563 218.805 331.024 218.805C330.486 218.805 330.049 219.242 330.049 219.781C330.049 220.319 330.486 220.756 331.024 220.756Z" fill="#A2F4C1"/>
<path d="M327.122 220.756C327.661 220.756 328.098 220.319 328.098 219.781C328.098 219.242 327.661 218.805 327.122 218.805C326.583 218.805 326.146 219.242 326.146 219.781C326.146 220.319 326.583 220.756 327.122 220.756Z" fill="#FFE07D"/>
<path d="M323.219 220.756C323.758 220.756 324.195 220.319 324.195 219.781C324.195 219.242 323.758 218.805 323.219 218.805C322.68 218.805 322.244 219.242 322.244 219.781C322.244 220.319 322.68 220.756 323.219 220.756Z" fill="#E278B1"/>
<path d="M331.141 227.721L314.963 232.575C314.306 232.772 314.265 233.686 314.902 233.941L322.2 236.86C322.384 236.934 322.53 237.08 322.603 237.264L325.523 244.562C325.777 245.199 326.692 245.158 326.889 244.501L331.743 228.322C331.853 227.954 331.51 227.61 331.141 227.721Z" fill="#FFE07D"/>
<path d="M322.488 236.975L318.554 235.402L317.598 241.03C317.514 241.522 317.942 241.949 318.433 241.865L324.062 240.909L322.488 236.975Z" fill="#FFC250"/>
<path d="M331.742 228.322C331.853 227.954 331.509 227.61 331.141 227.721L330.171 228.012L321.573 236.61L322.2 236.86C322.384 236.934 322.53 237.08 322.603 237.264L322.854 237.89L331.451 229.292L331.742 228.322Z" fill="#FFD064"/>
</g>
<defs>
<clipPath id="clip0_270_10497">
<rect width="60" height="60" fill="white" transform="translate(292 36)"/>
</clipPath>
<clipPath id="clip1_270_10497">
<rect width="60" height="60" fill="white" transform="translate(70 216)"/>
</clipPath>
<clipPath id="clip2_270_10497">
<rect width="60" height="60" fill="white" transform="translate(292 216)"/>
</clipPath>
</defs>
</svg>
