<svg width="1199" height="357" viewBox="0 0 1199 357" fill="none" xmlns="http://www.w3.org/2000/svg">
<rect width="272" height="272" rx="136" fill="white"/>
<rect x="309" width="272" height="272" rx="136" fill="white"/>
<rect x="618" width="272" height="272" rx="136" fill="white"/>
<rect x="927" width="272" height="272" rx="136" fill="white"/>
<path d="M103.962 199.426V218.977H101.384V199.426H103.962ZM86.71 212.982C90.6738 210.641 92.4141 207.794 92.79 203.959H87.8486V201.746H95.5186C95.5186 202.724 95.4541 203.669 95.3359 204.582H97.2803V199.855H99.8799V218.117H97.2803V211.672H94.5088V209.459H97.2803V206.795H94.8848C93.9717 210.028 91.9736 212.746 88.3213 214.916L86.71 212.982ZM124.071 202.004V204.217H121.536V206.215H124.071V208.492H121.536V210.963H118.786V199.426H121.536V202.004H124.071ZM106.153 205.248C106.143 202.487 108.463 200.489 111.524 200.5C114.554 200.489 116.853 202.487 116.853 205.248C116.853 208.073 114.554 210.05 111.524 210.039C108.463 210.05 106.143 208.073 106.153 205.248ZM108.366 213.949V211.736H121.536V218.977H118.786V213.949H108.366ZM108.86 205.248C108.839 206.827 109.988 207.729 111.524 207.719C113.028 207.729 114.178 206.827 114.188 205.248C114.178 203.723 113.028 202.831 111.524 202.842C109.988 202.831 108.839 203.723 108.86 205.248ZM132.429 203.852C132.439 207.525 133.922 211.103 137.177 212.51L135.501 214.701C133.331 213.648 131.87 211.693 131.054 209.276C130.216 211.844 128.712 213.949 126.478 215.045L124.759 212.811C128.11 211.296 129.636 207.525 129.657 203.852V200.93H132.429V203.852ZM134.985 207.783V205.57H138.831V199.426H141.538V219.02H138.831V207.783H134.985ZM160.229 200.564V202.756H156.341C156.352 205.044 157.727 207.396 160.896 208.406L159.499 210.533C157.329 209.824 155.836 208.428 154.987 206.688C154.117 208.589 152.549 210.114 150.282 210.855L148.821 208.75C152.055 207.708 153.537 205.194 153.569 202.756H149.573V200.564H160.229ZM151.464 214.229V212.059H164.634V218.977H161.884V214.229H151.464ZM161.884 211.221V199.426H164.634V204.174H167.276V206.451H164.634V211.221H161.884ZM175.526 202.09C175.516 204.7 176.858 207.117 179.995 208.084L178.556 210.232C176.45 209.502 175.021 208.159 174.194 206.397C173.335 208.438 171.756 210.039 169.403 210.834L167.964 208.643C171.305 207.568 172.744 204.947 172.755 202.219V200.436H175.526V202.09ZM171.208 215.195C171.208 212.789 173.765 211.382 177.933 211.393C182.111 211.382 184.668 212.789 184.679 215.195C184.668 217.612 182.111 218.987 177.933 218.977C173.765 218.987 171.208 217.612 171.208 215.195ZM173.937 215.195C173.937 216.28 175.344 216.85 177.933 216.85C180.532 216.85 181.939 216.28 181.95 215.195C181.939 214.078 180.532 213.52 177.933 213.52C175.344 213.52 173.937 214.078 173.937 215.195ZM178.212 205.248V203.014H181.886V199.426H184.614V210.877H181.886V205.248H178.212Z" fill="black"/>
<path d="M59.9385 305.797V321.459H58.5498V305.797H59.9385ZM47.6338 312.459C47.6426 309.137 49.2949 307.019 51.624 307.01C53.9443 307.019 55.623 309.137 55.6143 312.459C55.623 315.79 53.9443 317.899 51.624 317.891C49.2949 317.899 47.6426 315.79 47.6338 312.459ZM48.9697 312.459C48.9697 314.999 50.0596 316.669 51.624 316.66C53.1973 316.669 54.2783 314.999 54.2783 312.459C54.2783 309.919 53.1973 308.249 51.624 308.24C50.0596 308.249 48.9697 309.919 48.9697 312.459ZM68.2002 310.596C68.209 313.25 70.1338 315.948 72.4365 316.941L71.6631 318.031C69.835 317.205 68.2617 315.403 67.5322 313.241C66.8027 315.535 65.2207 317.521 63.4365 318.418L62.6104 317.328C64.8516 316.256 66.8027 313.303 66.8115 310.596V308.557H63.1201V307.414H71.9268V308.557H68.2002V310.596ZM74.1064 321.424V305.797H75.4951V321.424H74.1064ZM92.4756 318.26V319.42H78.167V318.26H84.6182V314.463H86.0068V318.26H92.4756ZM78.8701 313.9C81.5156 313.452 84.583 311.264 84.583 308.768V308.381H79.3447V307.221H91.2451V308.381H86.0068V308.768C86.0156 311.264 89.0918 313.408 91.79 313.848L91.2275 314.938C88.8369 314.463 86.3145 312.942 85.3125 310.78C84.3105 312.969 81.7969 314.524 79.4502 315.008L78.8701 313.9ZM106.626 305.814V317.24H105.255V305.814H106.626ZM94.0928 310.736C94.084 308.486 95.8506 306.913 98.1885 306.904C100.526 306.913 102.275 308.486 102.284 310.736C102.275 313.013 100.526 314.595 98.1885 314.586C95.8506 314.595 94.084 313.013 94.0928 310.736ZM95.4463 310.736C95.4287 312.292 96.6064 313.373 98.1885 313.373C99.7441 313.373 100.931 312.292 100.931 310.736C100.931 309.207 99.7441 308.117 98.1885 308.117C96.6064 308.117 95.4287 309.207 95.4463 310.736ZM96.5361 321.09V316.08H97.9072V319.93H107.118V321.09H96.5361ZM120.495 306.816V307.977H115.854V309.91H119.845V311H115.854V313.127C118.122 313.118 119.52 313.03 121.198 312.723L121.339 313.83C119.528 314.173 118.052 314.243 115.521 314.252H114.536V306.816H120.495ZM116.751 321.213V315.939H127.069V321.213H116.751ZM118.104 320.088H125.716V317.064H118.104V320.088ZM120.583 310.877V309.734H122.692V306.078H124.028V315.078H122.692V310.877H120.583ZM125.751 315.219V305.797H127.069V315.219H125.751ZM142.239 306.289V307.379H139.831V310.402H142.187V311.475H130.743V310.402H133.099V307.379H130.69V306.289H142.239ZM129.354 313.9V312.793H143.593V313.9H129.354ZM131.077 316.344V315.307H141.765V318.699H132.483V320.193H142.239V321.248H131.112V317.697H140.411V316.344H131.077ZM134.47 310.402H138.46V307.379H134.47V310.402ZM157.796 305.797V316.379H156.442V305.797H157.796ZM145.702 307.959V306.816H152.839V311.193H147.073V313.514C149.982 313.514 152.03 313.426 154.509 313.004L154.649 314.129C152.101 314.56 150 314.656 147.003 314.656H145.737V310.121H151.468V307.959H145.702ZM146.669 320.299C149.464 319.859 152.013 318.251 152.013 316.027V315.57H153.454V316.027C153.437 318.233 155.968 319.859 158.745 320.299L158.218 321.371C155.836 320.949 153.647 319.771 152.733 317.97C151.793 319.78 149.587 320.949 147.231 321.371L146.669 320.299ZM170.224 309.998C170.224 312.749 172.043 315.588 174.267 316.678L173.423 317.785C171.7 316.889 170.259 315.034 169.564 312.863C168.87 315.166 167.394 317.144 165.636 318.084L164.757 316.977C167.042 315.852 168.853 312.854 168.87 309.998V307.15H170.224V309.998ZM175.708 321.424V305.797H177.079V312.143H179.698V313.338H177.079V321.424H175.708ZM194.78 313.531V314.674H180.542V313.531H184.075V311.325C182.827 310.842 182.124 310.051 182.124 308.996C182.124 307.159 184.233 306.104 187.661 306.096C191.062 306.104 193.172 307.159 193.181 308.996C193.172 310.042 192.478 310.833 191.247 311.325V313.531H194.78ZM182.265 318.629C182.256 316.845 184.269 315.86 187.661 315.869C191.01 315.86 193.022 316.845 193.04 318.629C193.022 320.413 191.01 321.389 187.661 321.389C184.269 321.389 182.256 320.413 182.265 318.629ZM183.548 308.996C183.539 310.139 185.104 310.798 187.661 310.807C190.192 310.798 191.766 310.139 191.774 308.996C191.766 307.871 190.192 307.186 187.661 307.186C185.104 307.186 183.539 307.871 183.548 308.996ZM183.671 318.629C183.653 319.692 185.156 320.325 187.661 320.316C190.14 320.325 191.643 319.692 191.651 318.629C191.643 317.565 190.14 316.941 187.661 316.924C185.156 316.941 183.653 317.565 183.671 318.629ZM185.446 313.531H189.876V311.694C189.217 311.817 188.479 311.879 187.661 311.879C186.844 311.879 186.105 311.817 185.446 311.703V313.531ZM208.192 305.797V312.248H210.812V313.391H208.192V321.424H206.821V305.797H208.192ZM196.011 309.453V308.311H200.036V305.99H201.407V308.311H205.31V309.453H196.011ZM196.907 314.34C196.898 312.23 198.516 310.754 200.739 310.754C202.945 310.754 204.554 312.23 204.571 314.34C204.554 316.458 202.945 317.926 200.739 317.926C198.516 317.926 196.898 316.458 196.907 314.34ZM198.226 314.34C198.217 315.764 199.28 316.766 200.739 316.748C202.181 316.766 203.235 315.764 203.253 314.34C203.235 312.925 202.181 311.905 200.739 311.914C199.28 311.905 198.217 312.925 198.226 314.34ZM215.856 307.01C217.289 307.019 218.458 307.854 219.135 309.295H223.239V305.797H224.61V321.459H223.239V315.395H219.231C218.581 316.977 217.368 317.899 215.856 317.891C213.545 317.899 211.928 315.79 211.937 312.459C211.928 309.137 213.545 307.019 215.856 307.01ZM213.255 312.459C213.264 314.999 214.318 316.669 215.856 316.66C217.386 316.669 218.458 314.999 218.458 312.459C218.458 309.919 217.386 308.249 215.856 308.24C214.318 308.249 213.264 309.919 213.255 312.459ZM219.53 310.455C219.68 311.062 219.759 311.729 219.759 312.459C219.759 313.101 219.697 313.707 219.583 314.252H223.239V310.455H219.53ZM92.5107 335.535C94.6025 335.526 96.2021 336.748 96.501 338.541H99.7705V334.797H101.159V343.182H99.7705V339.684H96.5098C96.2373 341.529 94.6289 342.76 92.5107 342.76C90.1289 342.76 88.4414 341.283 88.4502 339.139C88.4414 337.021 90.1289 335.526 92.5107 335.535ZM89.7686 339.139C89.7686 340.562 90.9023 341.591 92.5107 341.6C94.084 341.591 95.2178 340.562 95.2178 339.139C95.2178 337.697 94.084 336.695 92.5107 336.713C90.9023 336.695 89.7686 337.697 89.7686 339.139ZM91.0869 350.213V343.973H92.4756V345.959H99.7705V343.973H101.159V350.213H91.0869ZM92.4756 349.088H99.7705V347.066H92.4756V349.088ZM118.052 343.885V345.027H111.53V350.424H110.177V345.027H103.743V343.885H118.052ZM105.589 341.758V335.676H116.188V341.758H105.589ZM106.942 340.668H114.817V336.801H106.942V340.668ZM124.872 338.998C124.863 341.854 126.806 344.72 129.108 345.766L128.265 346.855C126.48 345.994 124.942 344.14 124.195 341.916C123.475 344.271 121.937 346.249 120.108 347.172L119.229 346.012C121.559 344.948 123.483 341.96 123.501 338.998V336.15H124.872V338.998ZM130.813 350.459V334.797H132.202V350.459H130.813ZM147.091 334.797V339.561H149.446V340.721H147.091V346.24H145.702V334.797H147.091ZM134.892 343.322C138.645 342.153 141.079 339.93 141.369 337.17H135.542V336.01H142.872C142.872 340.035 139.998 343.023 135.489 344.43L134.892 343.322ZM137.3 350.09V345.08H138.671V348.93H147.812V350.09H137.3ZM167.165 334.797V339.455H169.538V340.615H167.165V346.117H165.794V334.797H167.165ZM155.687 343.34V336.15H162.647V337.311H157.058V342.18C160.195 342.188 161.979 342.092 164.071 341.67L164.247 342.812C162.05 343.234 160.187 343.34 156.899 343.34H155.687ZM157.392 350.09V344.975H158.745V348.93H167.886V350.09H157.392ZM184.743 342.672V343.797H178.292V345.59H182.985V350.371H181.597V346.715H172.087V345.59H176.938V343.797H170.505V342.672H184.743ZM171.349 340.738C174.275 340.448 176.754 339.235 176.868 337.451H171.981V336.344H176.938V334.727H178.292V336.344H183.302V337.451H178.38C178.477 339.235 180.946 340.448 183.899 340.738L183.442 341.793C180.867 341.521 178.564 340.58 177.624 338.989C176.666 340.58 174.363 341.521 171.806 341.793L171.349 340.738Z" fill="#697077"/>
<path d="M415.443 203.852C415.454 207.525 416.937 211.103 420.191 212.51L418.516 214.701C416.346 213.648 414.885 211.693 414.068 209.276C413.23 211.844 411.727 213.949 409.492 215.045L407.773 212.811C411.125 211.296 412.65 207.525 412.672 203.852V200.93H415.443V203.852ZM418 207.783V205.57H421.846V199.426H424.553V219.02H421.846V207.783H418ZM443.545 199.426V210.877H440.816V208.385H437.164V209.803H427.883V200.865H437.164V202.283H440.816V199.426H443.545ZM430.139 215.195C430.139 212.789 432.695 211.382 436.863 211.393C441.042 211.382 443.599 212.789 443.609 215.195C443.599 217.612 441.042 218.987 436.863 218.977C432.695 218.987 430.139 217.612 430.139 215.195ZM430.611 207.633H434.479V203.035H430.611V207.633ZM432.867 215.195C432.867 216.312 434.274 216.893 436.863 216.893C439.463 216.893 440.87 216.312 440.881 215.195C440.87 214.035 439.463 213.477 436.863 213.477C434.274 213.477 432.867 214.035 432.867 215.195ZM437.164 206.172H440.816V204.453H437.164V206.172ZM463.977 214.443V216.699H446.08V214.443H450.076V209.652C448.562 208.739 447.648 207.354 447.648 205.635C447.648 202.466 450.742 200.382 454.996 200.371C459.229 200.382 462.354 202.466 462.365 205.635C462.354 207.321 461.474 208.686 460.002 209.599V214.443H463.977ZM450.355 205.635C450.355 207.547 452.192 208.729 454.996 208.729C457.757 208.729 459.647 207.547 459.658 205.635C459.647 203.669 457.757 202.53 454.996 202.541C452.192 202.53 450.355 203.669 450.355 205.635ZM452.783 214.443H457.23V210.641C456.532 210.78 455.78 210.855 454.996 210.855C454.212 210.855 453.471 210.78 452.783 210.651V214.443ZM476.244 201.467V203.615H472.291C472.323 205.624 473.784 207.665 476.932 208.471L475.664 210.576C473.43 210.018 471.872 208.782 470.98 207.192C470.132 208.997 468.563 210.426 466.254 211.092L464.965 208.965C468.091 208.062 469.541 205.828 469.562 203.615H465.631V201.467H469.562V199.34H472.334V201.467H476.244ZM468.166 215.238C468.166 212.896 470.744 211.575 474.891 211.564C479.059 211.575 481.626 212.896 481.637 215.238C481.626 217.612 479.059 218.987 474.891 218.977C470.744 218.987 468.166 217.612 468.166 215.238ZM470.895 215.238C470.895 216.312 472.302 216.893 474.891 216.893C477.533 216.893 478.897 216.312 478.908 215.238C478.897 214.196 477.533 213.67 474.891 213.67C472.302 213.67 470.895 214.196 470.895 215.238ZM475.664 206.859V204.668H478.844V199.426H481.572V211.242H478.844V206.859H475.664Z" fill="black"/>
<path d="M376.717 305.797V321.459H375.328V305.797H376.717ZM364.412 312.459C364.421 309.137 366.073 307.019 368.402 307.01C370.723 307.019 372.401 309.137 372.393 312.459C372.401 315.79 370.723 317.899 368.402 317.891C366.073 317.899 364.421 315.79 364.412 312.459ZM365.748 312.459C365.748 314.999 366.838 316.669 368.402 316.66C369.976 316.669 371.057 314.999 371.057 312.459C371.057 309.919 369.976 308.249 368.402 308.24C366.838 308.249 365.748 309.919 365.748 312.459ZM385.945 307.625V311.703H388.318V306.131H389.637V320.633H388.318V312.846H385.945V317.223H379.969V307.625H385.945ZM381.27 316.115H384.645V308.732H381.27V316.115ZM391.447 321.424V305.797H392.783V321.424H391.447ZM399.375 306.377C401.713 306.386 403.409 307.81 403.418 309.84C403.409 311.879 401.713 313.285 399.375 313.285C397.011 313.285 395.306 311.879 395.314 309.84C395.306 307.81 397.011 306.386 399.375 306.377ZM396.668 309.84C396.65 311.211 397.802 312.16 399.375 312.16C400.922 312.16 402.082 311.211 402.082 309.84C402.082 308.486 400.922 307.528 399.375 307.537C397.802 307.528 396.65 308.486 396.668 309.84ZM397.688 315.693V314.586H407.848V318.348H399.076V320.105H408.41V321.213H397.723V317.311H406.477V315.693H397.688ZM406.477 313.83V305.797H407.848V313.83H406.477ZM428.186 313.057V314.182H422.525V307.291H427.992V308.416H423.914V313.057H428.186ZM415.02 319.42V318.277H421.436V314.973H422.789V318.277H429.328V319.42H415.02ZM416.268 314.182V307.291H421.576V308.434H417.639V313.039C418.957 313.03 420.267 312.934 421.717 312.6L421.84 313.76C420.126 314.146 418.685 314.19 417.129 314.182H416.268ZM443.215 310.543V311.65H432.51V306.377H433.881V310.543H443.215ZM430.559 314.902V313.777H444.867V314.902H430.559ZM432.422 321.037V316.502H433.793V319.895H443.303V321.037H432.422ZM464.062 307.537V308.662H451.389V307.537H457.084V305.709H458.438V307.537H464.062ZM450.65 316.924V315.781H464.959V316.924H461.18V321.459H459.809V316.924H455.766V321.459H454.377V316.924H450.65ZM452.672 312.143C452.654 310.481 454.57 309.559 457.77 309.559C460.942 309.559 462.858 310.481 462.867 312.143C462.858 313.795 460.942 314.727 457.77 314.727C454.57 314.727 452.654 313.795 452.672 312.143ZM454.096 312.143C454.078 313.101 455.44 313.663 457.77 313.654C460.072 313.663 461.426 313.101 461.443 312.143C461.426 311.176 460.072 310.631 457.77 310.613C455.44 310.631 454.078 311.176 454.096 312.143ZM479.566 305.797V321.424H478.248V313.232H475.945V320.615H474.68V306.148H475.945V312.09H478.248V305.797H479.566ZM466.787 317.557V307.713H472.641V308.855H468.158V316.379C470.312 316.37 471.797 316.291 473.537 315.939L473.66 317.1C471.779 317.486 470.188 317.548 467.789 317.557H466.787ZM494.648 306.518V307.66H492.24V311.246H494.596V312.354H489.568V314.27H496.002V315.395H481.764V314.27H488.197V312.354H483.152V311.246H485.508V307.66H483.1V306.518H494.648ZM483.609 321.09V316.766H484.998V319.93H494.42V321.09H483.609ZM486.879 311.246H490.869V307.66H486.879V311.246ZM504.439 306.816C507.7 306.825 510.152 308.53 510.152 311.105C510.152 313.707 507.7 315.412 504.439 315.395C501.179 315.412 498.727 313.707 498.727 311.105C498.727 308.53 501.179 306.825 504.439 306.816ZM497.32 319.35V318.189H511.629V319.35H497.32ZM500.045 311.105C500.027 313.004 501.917 314.27 504.439 314.27C506.944 314.27 508.816 313.004 508.816 311.105C508.816 309.233 506.944 307.933 504.439 307.941C501.917 307.933 500.027 309.233 500.045 311.105ZM527.186 318.33V319.49H512.877V318.33H519.311V315.377H514.67V310.561H524.021V308.1H514.635V306.957H525.375V311.686H516.041V314.234H525.744V315.377H520.664V318.33H527.186ZM402.706 338.998C402.697 341.828 404.517 344.676 406.784 345.713L405.958 346.838C404.183 345.924 402.715 344.061 402.021 341.837C401.326 344.175 399.858 346.179 398.083 347.119L397.187 346.012C399.48 344.887 401.291 341.881 401.3 338.998V336.15H402.706V338.998ZM405.079 341.266V340.141H408.788V334.797H410.159V350.459H408.788V341.266H405.079ZM425.716 334.797V344.061H424.327V341.6H420.671V342.936H413.499V335.992H420.671V337.346H424.327V334.797H425.716ZM414.87 341.811H419.317V337.117H414.87V341.811ZM415.292 347.471C415.283 345.59 417.278 344.509 420.53 344.518C423.773 344.509 425.769 345.59 425.769 347.471C425.769 349.334 423.773 350.389 420.53 350.389C417.278 350.389 415.283 349.334 415.292 347.471ZM416.663 347.471C416.654 348.604 418.131 349.299 420.53 349.299C422.921 349.299 424.397 348.604 424.397 347.471C424.397 346.293 422.921 345.607 420.53 345.59C418.131 345.607 416.654 346.293 416.663 347.471ZM420.671 340.439H424.327V338.488H420.671V340.439ZM442.626 347.26V348.42H428.317V347.26H431.868V343.05C430.532 342.355 429.724 341.23 429.724 339.807C429.724 337.39 432.097 335.799 435.437 335.781C438.776 335.799 441.149 337.39 441.149 339.807C441.149 341.204 440.367 342.312 439.075 343.006V347.26H442.626ZM431.06 339.807C431.051 341.556 432.87 342.725 435.437 342.725C437.977 342.725 439.813 341.556 439.813 339.807C439.813 338.058 437.977 336.906 435.437 336.924C432.87 336.906 431.051 338.058 431.06 339.807ZM433.222 347.26H437.687V343.542C437.01 343.718 436.254 343.814 435.437 343.814C434.637 343.814 433.89 343.727 433.222 343.551V347.26ZM449.2 338.154C449.209 340.097 450.888 341.854 453.19 342.531L452.522 343.604C450.712 343.059 449.271 341.881 448.559 340.343C447.891 342.048 446.458 343.393 444.595 344.008L443.927 342.953C446.221 342.18 447.838 340.272 447.847 338.154V337.82H444.313V336.713H447.847V334.727H449.235V336.713H452.733V337.82H449.2V338.154ZM446.405 347.541C446.396 345.722 448.392 344.685 451.644 344.693C454.887 344.685 456.882 345.722 456.882 347.541C456.882 349.352 454.887 350.389 451.644 350.389C448.392 350.389 446.396 349.352 446.405 347.541ZM447.776 347.541C447.768 348.631 449.244 349.299 451.644 349.299C454.043 349.299 455.511 348.631 455.511 347.541C455.511 346.425 454.043 345.783 451.644 345.766C449.244 345.783 447.768 346.425 447.776 347.541ZM452.241 340.422V339.279H455.44V334.797H456.829V344.271H455.44V340.422H452.241ZM476.903 334.814V346.275H475.515V340.281H472.298V339.139H475.515V334.814H476.903ZM464.019 343.146C466.321 342.338 467.991 340.272 467.991 338.031V337.223H464.458V336.08H472.878V337.223H469.38V338.031C469.38 340.053 470.944 342.013 473.229 342.795L472.509 343.902C470.751 343.261 469.389 341.951 468.712 340.334C468.035 342.145 466.594 343.577 464.739 344.271L464.019 343.146ZM466.866 350.09V345.238H468.255V348.93H477.343V350.09H466.866ZM487.292 340.264V342.566H493.743V343.691H479.505V342.566H485.938V340.264H487.292ZM480.366 339.982C483.126 339.604 485.921 337.864 485.921 335.781V335.043H487.31V335.781C487.31 337.864 490.122 339.604 492.882 339.982L492.319 341.09C489.955 340.677 487.6 339.42 486.624 337.618C485.64 339.438 483.293 340.677 480.894 341.09L480.366 339.982ZM481.228 347.699C481.219 345.968 483.231 345.001 486.624 344.992C489.981 345.001 491.985 345.968 492.003 347.699C491.985 349.439 489.981 350.389 486.624 350.389C483.231 350.389 481.219 349.439 481.228 347.699ZM482.634 347.699C482.616 348.728 484.093 349.325 486.624 349.316C489.129 349.325 490.605 348.728 490.614 347.699C490.605 346.662 489.129 346.082 486.624 346.082C484.093 346.082 482.616 346.662 482.634 347.699Z" fill="#697077"/>
<path d="M724.443 203.852C724.454 207.525 725.937 211.103 729.191 212.51L727.516 214.701C725.346 213.648 723.885 211.693 723.068 209.276C722.23 211.844 720.727 213.949 718.492 215.045L716.773 212.811C720.125 211.296 721.65 207.525 721.672 203.852V200.93H724.443V203.852ZM727 207.783V205.57H730.846V199.426H733.553V219.02H730.846V207.783H727ZM752.545 199.426V210.877H749.816V208.385H746.164V209.803H736.883V200.865H746.164V202.283H749.816V199.426H752.545ZM739.139 215.195C739.139 212.789 741.695 211.382 745.863 211.393C750.042 211.382 752.599 212.789 752.609 215.195C752.599 217.612 750.042 218.987 745.863 218.977C741.695 218.987 739.139 217.612 739.139 215.195ZM739.611 207.633H743.479V203.035H739.611V207.633ZM741.867 215.195C741.867 216.312 743.274 216.893 745.863 216.893C748.463 216.893 749.87 216.312 749.881 215.195C749.87 214.035 748.463 213.477 745.863 213.477C743.274 213.477 741.867 214.035 741.867 215.195ZM746.164 206.172H749.816V204.453H746.164V206.172ZM771.451 199.426V209.932H768.701V199.426H771.451ZM755.381 204.883C755.381 202.133 757.68 200.221 760.73 200.242C763.771 200.221 766.069 202.133 766.08 204.883C766.069 207.547 763.771 209.459 760.73 209.459C757.68 209.459 755.381 207.547 755.381 204.883ZM758.066 204.883C758.045 206.333 759.162 207.203 760.73 207.203C762.256 207.203 763.362 206.333 763.373 204.883C763.362 203.411 762.256 202.509 760.73 202.52C759.162 202.509 758.045 203.411 758.066 204.883ZM758.367 218.762V210.791H761.074V212.617H768.723V210.791H771.451V218.762H758.367ZM761.074 216.549H768.723V214.744H761.074V216.549ZM783.482 200.564V206.666H777.574V208.75C780.475 208.75 782.215 208.653 784.191 208.277L784.449 210.469C782.161 210.877 780.109 210.931 776.328 210.941H774.867V204.625H780.732V202.713H774.824V200.564H783.482ZM777.102 214.551V212.359H790.572V218.977H787.844V214.551H777.102ZM784.6 208.471V206.301H787.844V204.324H784.6V202.154H787.844V199.447H790.572V211.479H787.844V208.471H784.6Z" fill="black"/>
<path d="M626.673 308.1C626.682 310.78 629.74 313.162 632.456 313.672L631.823 314.832C629.459 314.287 626.98 312.608 625.97 310.314C624.95 312.608 622.48 314.278 620.116 314.832L619.483 313.672C622.19 313.153 625.223 310.789 625.231 308.1V306.904H626.673V308.1ZM618.886 319.297V318.154H633.194V319.297H618.886ZM642.3 307.379V317.451H635.093V307.379H642.3ZM636.429 316.326H640.929V308.486H636.429V316.326ZM645.165 321.424V305.797H646.536V312.037H649.155V313.232H646.536V321.424H645.165ZM662.655 314.252V315.377H651.845V307.15H662.479V308.311H653.251V310.631H662.146V311.738H653.251V314.252H662.655ZM649.999 319.385V318.242H664.308V319.385H649.999ZM678.44 306.518V307.66H676.032V311.246H678.388V312.354H673.36V314.27H679.794V315.395H665.556V314.27H671.989V312.354H666.944V311.246H669.3V307.66H666.892V306.518H678.44ZM667.401 321.09V316.766H668.79V319.93H678.212V321.09H667.401ZM670.671 311.246H674.661V307.66H670.671V311.246ZM688.231 306.078C691.703 306.078 693.742 307.036 693.751 308.768C693.742 310.543 691.703 311.501 688.231 311.51C684.742 311.501 682.694 310.543 682.694 308.768C682.694 307.036 684.742 306.078 688.231 306.078ZM681.112 313.689V312.564H695.351V313.689H681.112ZM682.835 316.098V315.043H693.522V318.541H684.241V320.158H693.997V321.248H682.87V317.521H692.169V316.098H682.835ZM684.136 308.768C684.118 309.857 685.639 310.455 688.231 310.455C690.824 310.455 692.336 309.857 692.345 308.768C692.336 307.739 690.824 307.124 688.231 307.115C685.639 307.124 684.118 307.739 684.136 308.768ZM715.425 314.094V315.219H701.169V314.094H707.603V312.547H703.067V306.254H713.649V307.379H704.456V308.838H713.228V309.893H704.456V311.439H713.737V312.547H708.974V314.094H715.425ZM702.909 318.893C702.9 317.267 704.843 316.379 708.306 316.396C711.733 316.379 713.667 317.267 713.685 318.893C713.667 320.536 711.733 321.389 708.306 321.389C704.843 321.389 702.9 320.536 702.909 318.893ZM704.298 318.893C704.28 319.842 705.722 320.334 708.306 320.316C710.863 320.334 712.287 319.842 712.296 318.893C712.287 317.961 710.863 317.442 708.306 317.434C705.722 317.442 704.28 317.961 704.298 318.893ZM728.96 305.814V310.965H731.315V312.125H728.96V317.521H727.589V305.814H728.96ZM716.778 308.855V307.73H720.751V305.814H722.122V307.73H726.095V308.855H716.778ZM717.675 312.635C717.666 310.859 719.178 309.717 721.437 309.717C723.669 309.717 725.181 310.859 725.198 312.635C725.181 314.393 723.669 315.526 721.437 315.518C719.178 315.526 717.666 314.393 717.675 312.635ZM718.993 312.635C718.984 313.733 719.96 314.445 721.437 314.428C722.896 314.445 723.88 313.733 723.897 312.635C723.88 311.519 722.896 310.798 721.437 310.807C719.96 310.798 718.984 311.519 718.993 312.635ZM719.187 321.09V316.59H720.54V319.93H729.681V321.09H719.187ZM740.087 306.43V308.416H747.821V306.43H749.192V312.67H744.622V314.34H751.056V315.482H736.817V314.34H743.251V312.67H738.716V306.43H740.087ZM738.663 321.09V316.73H740.052V319.93H749.474V321.09H738.663ZM740.087 311.562H747.821V309.506H740.087V311.562ZM765.276 305.814V317.24H763.905V305.814H765.276ZM752.743 310.736C752.734 308.486 754.501 306.913 756.839 306.904C759.177 306.913 760.926 308.486 760.935 310.736C760.926 313.013 759.177 314.595 756.839 314.586C754.501 314.595 752.734 313.013 752.743 310.736ZM754.097 310.736C754.079 312.292 755.257 313.373 756.839 313.373C758.395 313.373 759.581 312.292 759.581 310.736C759.581 309.207 758.395 308.117 756.839 308.117C755.257 308.117 754.079 309.207 754.097 310.736ZM755.187 321.09V316.08H756.558V319.93H765.769V321.09H755.187ZM785.351 305.814V317.24H783.979V305.814H785.351ZM772.817 310.736C772.809 308.486 774.575 306.913 776.913 306.904C779.251 306.913 781 308.486 781.009 310.736C781 313.013 779.251 314.595 776.913 314.586C774.575 314.595 772.809 313.013 772.817 310.736ZM774.171 310.736C774.153 312.292 775.331 313.373 776.913 313.373C778.469 313.373 779.655 312.292 779.655 310.736C779.655 309.207 778.469 308.117 776.913 308.117C775.331 308.117 774.153 309.207 774.171 310.736ZM775.261 321.09V316.08H776.632V319.93H785.843V321.09H775.261ZM802.243 313.232V314.375H788.005V313.232H802.243ZM788.813 311.193C791.538 310.877 794.166 309.532 794.228 307.748H789.306V306.605H800.978V307.748H796.021C796.082 309.515 798.684 310.877 801.452 311.193L800.942 312.301C798.385 311.976 795.985 310.824 795.124 309.093C794.263 310.824 791.881 311.976 789.306 312.301L788.813 311.193ZM789.728 318.576C789.719 316.783 791.749 315.746 795.124 315.746C798.473 315.746 800.485 316.783 800.503 318.576C800.485 320.387 798.473 321.389 795.124 321.389C791.749 321.389 789.719 320.387 789.728 318.576ZM791.134 318.576C791.116 319.666 792.619 320.29 795.124 320.281C797.603 320.29 799.105 319.666 799.114 318.576C799.105 317.478 797.603 316.854 795.124 316.836C792.619 316.854 791.116 317.478 791.134 318.576ZM821.491 307.59V308.732H808.817V307.59H814.513V305.709H815.866V307.59H821.491ZM808.079 317.064V315.922H822.388V317.064H815.866V321.459H814.513V317.064H808.079ZM810.101 312.248C810.083 310.561 811.999 309.629 815.198 309.629C818.371 309.629 820.287 310.561 820.296 312.248C820.287 313.9 818.371 314.832 815.198 314.85C811.999 314.832 810.083 313.9 810.101 312.248ZM811.524 312.248C811.507 313.215 812.869 313.786 815.198 313.777C817.501 313.786 818.854 313.215 818.872 312.248C818.854 311.264 817.501 310.692 815.198 310.684C812.869 310.692 811.507 311.264 811.524 312.248ZM841.108 305.814V317.275H839.72V311.281H836.503V310.139H839.72V305.814H841.108ZM828.224 314.146C830.526 313.338 832.196 311.272 832.196 309.031V308.223H828.663V307.08H837.083V308.223H833.585V309.031C833.585 311.053 835.149 313.013 837.435 313.795L836.714 314.902C834.956 314.261 833.594 312.951 832.917 311.334C832.24 313.145 830.799 314.577 828.944 315.271L828.224 314.146ZM831.071 321.09V316.238H832.46V319.93H841.548V321.09H831.071ZM849.001 310.596C848.983 313.101 850.794 315.86 853.062 316.941L852.271 318.031C850.513 317.17 849.027 315.324 848.324 313.206C847.604 315.5 846.039 317.521 844.29 318.418L843.446 317.328C845.696 316.229 847.63 313.259 847.647 310.596V308.557H844.009V307.414H852.517V308.557H849.001V310.596ZM854.433 321.424V305.797H855.804V312.125H858.423V313.303H855.804V321.424H854.433ZM864.769 309.998C864.76 312.828 866.579 315.676 868.847 316.713L868.021 317.838C866.245 316.924 864.777 315.061 864.083 312.837C863.389 315.175 861.921 317.179 860.146 318.119L859.249 317.012C861.543 315.887 863.354 312.881 863.362 309.998V307.15H864.769V309.998ZM867.142 312.266V311.141H870.851V305.797H872.222V321.459H870.851V312.266H867.142ZM887.778 305.797V315.061H886.39V312.6H882.733V313.936H875.562V306.992H882.733V308.346H886.39V305.797H887.778ZM876.933 312.811H881.38V308.117H876.933V312.811ZM877.354 318.471C877.346 316.59 879.341 315.509 882.593 315.518C885.836 315.509 887.831 316.59 887.831 318.471C887.831 320.334 885.836 321.389 882.593 321.389C879.341 321.389 877.346 320.334 877.354 318.471ZM878.726 318.471C878.717 319.604 880.193 320.299 882.593 320.299C884.983 320.299 886.46 319.604 886.46 318.471C886.46 317.293 884.983 316.607 882.593 316.59C880.193 316.607 878.717 317.293 878.726 318.471ZM882.733 311.439H886.39V309.488H882.733V311.439Z" fill="#697077"/>
<path d="M968.666 320V307.273H972.99C975.97 307.273 977.332 309.049 977.332 311.316C977.332 313.575 975.97 315.377 973.008 315.377H970.248V320H968.666ZM970.248 313.971H972.938C974.968 313.971 975.759 312.828 975.768 311.316C975.759 309.796 974.968 308.68 972.92 308.68H970.248V313.971ZM988.23 311.281C987.861 309.523 986.358 308.574 984.68 308.574C982.377 308.574 980.593 310.35 980.584 313.637C980.593 316.915 982.377 318.69 984.68 318.699C986.358 318.69 987.853 317.75 988.23 316.01H989.812C989.355 318.611 987.264 320.176 984.68 320.176C981.41 320.176 979.046 317.662 979.055 313.637C979.046 309.611 981.41 307.098 984.68 307.098C987.255 307.098 989.338 308.636 989.812 311.281H988.23ZM1008.94 313.057V314.182H1003.28V307.291H1008.74V308.416H1004.67V313.057H1008.94ZM995.771 319.42V318.277H1002.19V314.973H1003.54V318.277H1010.08V319.42H995.771ZM997.02 314.182V307.291H1002.33V308.434H998.391V313.039C999.709 313.03 1001.02 312.934 1002.47 312.6L1002.59 313.76C1000.88 314.146 999.437 314.19 997.881 314.182H997.02ZM1023.97 310.543V311.65H1013.26V306.377H1014.63V310.543H1023.97ZM1011.31 314.902V313.777H1025.62V314.902H1011.31ZM1013.17 321.037V316.502H1014.54V319.895H1024.05V321.037H1013.17ZM1045.71 318.26V319.42H1031.4V318.26H1037.84V314.445H1033.09V307.115H1043.94V314.445H1039.19V318.26H1045.71ZM1034.44 313.338H1042.6V308.223H1034.44V313.338ZM1059.05 305.797V311.949H1061.67V313.145H1059.05V321.424H1057.68V305.797H1059.05ZM1047.61 317.68V307.133H1048.98V311.264H1053.55V307.133H1054.92V317.68H1047.61ZM1048.98 316.52H1053.55V312.371H1048.98V316.52ZM1066.95 306.377C1069.28 306.386 1070.98 307.81 1070.99 309.84C1070.98 311.879 1069.28 313.285 1066.95 313.285C1064.58 313.285 1062.88 311.879 1062.88 309.84C1062.88 307.81 1064.58 306.386 1066.95 306.377ZM1064.24 309.84C1064.22 311.211 1065.37 312.16 1066.95 312.16C1068.49 312.16 1069.65 311.211 1069.65 309.84C1069.65 308.486 1068.49 307.528 1066.95 307.537C1065.37 307.528 1064.22 308.486 1064.24 309.84ZM1065.26 315.693V314.586H1075.42V318.348H1066.65V320.105H1075.98V321.213H1065.29V317.311H1074.05V315.693H1065.26ZM1074.05 313.83V305.797H1075.42V313.83H1074.05ZM1095.51 305.797V321.424H1094.12V305.797H1095.51ZM1082.78 317.363C1087.01 315.359 1089.17 312.362 1089.48 308.627H1083.5V307.502H1090.89C1090.87 311.993 1088.78 315.975 1083.54 318.488L1082.78 317.363ZM1111.07 305.797V321.424H1109.68V305.797H1111.07ZM1098.34 317.363C1102.57 315.359 1104.73 312.362 1105.04 308.627H1099.06V307.502H1106.44C1106.43 311.993 1104.33 315.975 1099.1 318.488L1098.34 317.363ZM1127.99 313.057V314.146H1113.69V313.057H1127.99ZM1115.41 316.432V315.395H1126.2V318.717H1116.81V320.211H1126.71V321.213H1115.43V317.768H1124.83V316.432H1115.41ZM1115.5 307.273V306.271H1126.15V309.506H1116.92V310.877H1126.43V311.879H1115.55V308.557H1124.76V307.273H1115.5ZM1143.5 314.094V315.219H1129.24V314.094H1135.68V312.547H1131.14V306.254H1141.72V307.379H1132.53V308.838H1141.3V309.893H1132.53V311.439H1141.81V312.547H1137.05V314.094H1143.5ZM1130.98 318.893C1130.97 317.267 1132.92 316.379 1136.38 316.396C1139.81 316.379 1141.74 317.267 1141.76 318.893C1141.74 320.536 1139.81 321.389 1136.38 321.389C1132.92 321.389 1130.97 320.536 1130.98 318.893ZM1132.37 318.893C1132.35 319.842 1133.79 320.334 1136.38 320.316C1138.94 320.334 1140.36 319.842 1140.37 318.893C1140.36 317.961 1138.94 317.442 1136.38 317.434C1133.79 317.442 1132.35 317.961 1132.37 318.893ZM1152.62 308.504V309.629H1144.78V308.504H1148.03V306.271H1149.4V308.504H1152.62ZM1145.34 314.234C1145.34 312.16 1146.76 310.692 1148.7 310.684C1150.67 310.692 1152.08 312.16 1152.09 314.234C1152.08 316.335 1150.67 317.812 1148.7 317.82C1146.76 317.812 1145.34 316.335 1145.34 314.234ZM1146.57 314.234C1146.57 315.623 1147.46 316.616 1148.7 316.607C1149.95 316.616 1150.86 315.623 1150.86 314.234C1150.86 312.863 1149.95 311.861 1148.7 311.844C1147.46 311.861 1146.57 312.863 1146.57 314.234ZM1153.43 320.65V306.184H1154.73V312.389H1156.8V305.797H1158.12V321.424H1156.8V313.531H1154.73V320.65H1153.43ZM1002.57 334.814V346.328H1001.18V340.299H997.907C997.6 342.224 995.982 343.533 993.917 343.533C991.579 343.533 989.848 341.925 989.856 339.666C989.848 337.398 991.579 335.825 993.917 335.816C996.026 335.825 997.67 337.17 997.925 339.156H1001.18V334.814H1002.57ZM991.175 339.666C991.175 341.222 992.344 342.32 993.917 342.338C995.455 342.32 996.624 341.222 996.624 339.666C996.624 338.119 995.455 337.038 993.917 337.029C992.344 337.038 991.175 338.119 991.175 339.666ZM992.528 350.09V345.15H993.917V348.93H1003V350.09H992.528ZM1018.53 334.797V350.424H1017.21V334.797H1018.53ZM1004.97 346.258C1007.15 344.957 1008.43 342.101 1008.42 339.262V337.785H1005.41V336.643H1012.62V337.785H1009.75V339.262C1009.75 341.96 1010.98 344.658 1013.13 345.906L1012.29 346.926C1010.75 346.003 1009.66 344.315 1009.11 342.329C1008.55 344.482 1007.42 346.319 1005.85 347.295L1004.97 346.258ZM1011.42 341.564V340.439H1014.06V335.184H1015.36V349.615H1014.06V341.564H1011.42ZM1034.98 342.689V343.814H1020.72V342.689H1034.98ZM1022.53 340.967V335.482H1033.2V336.607H1023.91V339.824H1033.34V340.967H1022.53ZM1022.57 350.072V345.502H1023.94V348.912H1033.47V350.072H1022.57ZM1041.87 339.596C1041.88 342.25 1043.8 344.948 1046.11 345.941L1045.33 347.031C1043.5 346.205 1041.93 344.403 1041.2 342.241C1040.47 344.535 1038.89 346.521 1037.11 347.418L1036.28 346.328C1038.52 345.256 1040.47 342.303 1040.48 339.596V337.557H1036.79V336.414H1045.6V337.557H1041.87V339.596ZM1047.78 350.424V334.797H1049.17V350.424H1047.78ZM1069.73 334.797V350.424H1068.41V334.797H1069.73ZM1056.34 346.047C1059.74 344.034 1061.44 341.213 1061.72 337.943H1057.04V336.801H1063.09C1063.09 337.601 1063.02 338.392 1062.88 339.156H1065.25V335.219H1066.57V349.633H1065.25V344.219H1062.35V343.076H1065.25V340.299H1062.6C1061.85 342.944 1060.13 345.282 1057.18 347.049L1056.34 346.047ZM1086.45 337.223V338.348H1084.13V340.545H1086.45V341.723H1084.13V344.096H1082.76V334.797H1084.13V337.223H1086.45ZM1072.21 339.42C1072.2 337.249 1073.94 335.737 1076.31 335.746C1078.69 335.737 1080.4 337.249 1080.42 339.42C1080.4 341.617 1078.69 343.12 1076.31 343.129C1073.94 343.12 1072.2 341.617 1072.21 339.42ZM1073.56 339.42C1073.55 340.923 1074.72 341.951 1076.31 341.934C1077.91 341.951 1079.06 340.923 1079.07 339.42C1079.06 337.952 1077.91 336.933 1076.31 336.924C1074.72 336.933 1073.55 337.952 1073.56 339.42ZM1073.9 345.959V344.816H1084.13V350.424H1082.76V345.959H1073.9ZM1092.97 338.998C1092.96 341.828 1094.78 344.676 1097.05 345.713L1096.22 346.838C1094.45 345.924 1092.98 344.061 1092.28 341.837C1091.59 344.175 1090.12 346.179 1088.35 347.119L1087.45 346.012C1089.74 344.887 1091.55 341.881 1091.56 338.998V336.15H1092.97V338.998ZM1095.34 341.266V340.141H1099.05V334.797H1100.42V350.459H1099.05V341.266H1095.34ZM1119.74 334.814V339.543H1122.08V340.703H1119.74V345.291H1118.35V334.814H1119.74ZM1107.47 343.691C1108.72 343.691 1110.18 343.691 1111.71 343.647V342.496C1109.89 342.329 1108.71 341.494 1108.72 340.193C1108.71 338.77 1110.18 337.891 1112.38 337.891C1114.59 337.891 1116.03 338.77 1116.05 340.193C1116.03 341.485 1114.89 342.32 1113.08 342.496V343.595C1114.54 343.524 1116.01 343.401 1117.39 343.199L1117.51 344.201C1114.12 344.799 1110.38 344.825 1107.63 344.816L1107.47 343.691ZM1107.86 337.293V336.238H1111.71V334.674H1113.08V336.238H1116.91V337.293H1107.86ZM1109.39 347.172V346.064H1119.74V350.424H1118.35V347.172H1109.39ZM1110.04 340.193C1110.03 341.011 1110.93 341.564 1112.38 341.547C1113.82 341.564 1114.73 341.011 1114.73 340.193C1114.73 339.367 1113.82 338.857 1112.38 338.875C1110.93 338.857 1110.03 339.367 1110.04 340.193ZM1136 334.814V346.24H1134.63V334.814H1136ZM1123.47 339.736C1123.46 337.486 1125.23 335.913 1127.56 335.904C1129.9 335.913 1131.65 337.486 1131.66 339.736C1131.65 342.013 1129.9 343.595 1127.56 343.586C1125.23 343.595 1123.46 342.013 1123.47 339.736ZM1124.82 339.736C1124.8 341.292 1125.98 342.373 1127.56 342.373C1129.12 342.373 1130.31 341.292 1130.31 339.736C1130.31 338.207 1129.12 337.117 1127.56 337.117C1125.98 337.117 1124.8 338.207 1124.82 339.736ZM1125.91 350.09V345.08H1127.28V348.93H1136.49V350.09H1125.91Z" fill="#697077"/>
<path d="M1043 199.426V218.977H1040.43V199.426H1043ZM1025.75 212.982C1029.72 210.641 1031.46 207.794 1031.83 203.959H1026.89V201.746H1034.56C1034.56 202.724 1034.5 203.669 1034.38 204.582H1036.32V199.855H1038.92V218.117H1036.32V211.672H1033.55V209.459H1036.32V206.795H1033.93C1033.01 210.028 1031.02 212.746 1027.36 214.916L1025.75 212.982ZM1063.11 202.004V204.217H1060.58V206.215H1063.11V208.492H1060.58V210.963H1057.83V199.426H1060.58V202.004H1063.11ZM1045.2 205.248C1045.18 202.487 1047.5 200.489 1050.57 200.5C1053.6 200.489 1055.89 202.487 1055.89 205.248C1055.89 208.073 1053.6 210.05 1050.57 210.039C1047.5 210.05 1045.18 208.073 1045.2 205.248ZM1047.41 213.949V211.736H1060.58V218.977H1057.83V213.949H1047.41ZM1047.9 205.248C1047.88 206.827 1049.03 207.729 1050.57 207.719C1052.07 207.729 1053.22 206.827 1053.23 205.248C1053.22 203.723 1052.07 202.831 1050.57 202.842C1049.03 202.831 1047.88 203.723 1047.9 205.248ZM1069.97 200.221C1072.82 200.231 1074.88 201.832 1074.89 204.195C1074.88 206.107 1073.48 207.568 1071.38 208.02V209.448C1072.92 209.352 1074.45 209.212 1075.88 209.008L1076.09 211.006C1072.06 211.715 1067.58 211.812 1064.32 211.801L1064.04 209.631C1065.39 209.631 1066.97 209.62 1068.63 209.577V208.041C1066.48 207.611 1065.04 206.14 1065.05 204.195C1065.04 201.832 1067.09 200.231 1069.97 200.221ZM1066.62 218.611V213.047H1069.37V216.42H1080.39V218.611H1066.62ZM1067.6 204.195C1067.58 205.388 1068.58 206.075 1069.97 206.086C1071.37 206.075 1072.31 205.388 1072.31 204.195C1072.31 202.971 1071.36 202.305 1069.97 202.283C1068.58 202.305 1067.58 202.971 1067.6 204.195ZM1076.97 214.357V199.447H1079.72V205.592H1082.21V207.869H1079.72V214.357H1076.97ZM1100.99 214.551V216.807H1083.09V214.551H1087.67V211.564H1085.16V204.99H1096.22V202.885H1085.13V200.693H1098.93V207.182H1087.91V209.352H1099.38V211.564H1096.61V214.551H1100.99ZM1090.33 214.551H1093.92V211.564H1090.33V214.551Z" fill="black"/>
<g clip-path="url(#clip0_461_5803)">
<path d="M1094.2 134.582H1033.11V72.3641C1033.11 69.9539 1035.06 68 1037.47 68H1101.62L1094.2 75.8218V134.582Z" fill="#E0E9EF"/>
<path d="M1055.61 107.173C1052.13 107.173 1050.64 104.654 1049.96 103.011C1046.98 104.469 1044.42 105.072 1044.2 105.123C1043.62 105.255 1043.05 104.895 1042.92 104.32C1042.79 103.745 1043.15 103.173 1043.72 103.042C1043.79 103.025 1046.31 102.426 1049.17 100.997C1047.49 96.5111 1049.3 91.4547 1053.51 89.224C1056.49 87.441 1060.27 90.7331 1059.03 93.936C1057.75 97.6424 1054.79 100.238 1051.85 101.989C1052.59 103.879 1053.78 105.594 1057.04 104.866C1058.31 104.581 1059.27 103.518 1059.36 102.279C1059.37 102.223 1059.37 102.165 1059.37 102.107C1059.38 101.622 1059.71 101.203 1060.18 101.086C1060.65 100.97 1061.14 101.184 1061.37 101.61C1061.83 102.436 1063.46 104.772 1064.89 104.667C1065.91 104.591 1066.98 103.177 1067.9 100.687C1068.04 100.306 1068.38 100.037 1068.79 99.995C1069.19 99.9521 1069.59 100.144 1069.8 100.488C1070.24 101.184 1071.8 103.144 1073.12 103.03C1073.95 102.958 1074.79 101.958 1075.51 100.215C1075.65 99.878 1075.95 99.6346 1076.31 99.5701C1076.67 99.5047 1077.03 99.6279 1077.28 99.8959C1077.29 99.9021 1078.27 100.931 1079.4 100.889C1080.03 100.867 1080.64 100.498 1081.22 99.7919C1081.59 99.3358 1082.26 99.2692 1082.72 99.6429C1083.17 100.017 1083.24 100.689 1082.87 101.146C1081.88 102.354 1080.73 102.986 1079.46 103.024C1078.43 103.056 1077.54 102.687 1076.89 102.287C1075.91 104.072 1074.71 105.036 1073.3 105.158C1071.61 105.303 1070.14 104.166 1069.18 103.137C1068.04 105.476 1066.68 106.677 1065.05 106.797C1063.3 106.924 1061.82 105.698 1060.83 104.537C1060.13 105.729 1058.93 106.631 1057.5 106.95C1056.81 107.104 1056.18 107.173 1055.61 107.173ZM1054.51 91.1119C1051.38 92.829 1049.95 96.5352 1051.07 99.9467C1053.56 98.4075 1056.08 96.2557 1057.01 93.2373C1057.76 90.8166 1055.5 90.5712 1054.51 91.1119Z" fill="#9BB6C6"/>
<path d="M1083.29 82.1528H1044.25C1043.66 82.1528 1043.18 81.6747 1043.18 81.0851C1043.18 80.4955 1043.66 80.0174 1044.25 80.0174H1083.29C1083.88 80.0174 1084.36 80.4955 1084.36 81.0851C1084.36 81.6747 1083.88 82.1528 1083.29 82.1528Z" fill="#9BB6C6"/>
<path d="M1108.94 75.3426C1108.94 71.2875 1105.64 68 1101.57 68C1097.5 68 1094.2 71.2872 1094.2 75.3426V85.4232H1108.94V75.3426H1108.94Z" fill="#9BB6C6"/>
<path d="M1089.53 147.742L1083.19 142.405L1081.84 138.962L1077.04 126.785L1060.04 124.015L1057.56 122.134C1057.56 122.134 1051.93 117.98 1046.47 117.36C1044.24 117.107 1042.09 116.395 1040.17 115.232C1038.13 113.99 1036.22 112.182 1036.36 109.804L1033.89 110.523L1015.47 130.609L1017.03 131.489C1019.78 133.043 1022.1 135.245 1023.82 137.926L1023.88 138.03C1025.63 140.76 1028.05 142.992 1030.91 144.509L1033.34 145.795L1051.43 159.938L1060.99 167.246C1062.6 168.516 1064.92 168.13 1066.26 166.477C1067.73 164.656 1067.45 161.985 1065.63 160.507C1063.82 159.029 1065.63 160.507 1065.63 160.507L1068.73 163.011C1070.5 164.449 1073.11 164.176 1074.55 162.399C1075.99 160.622 1075.71 158.016 1073.94 156.577L1077.32 159.319C1079.1 160.758 1081.71 160.484 1083.15 158.708C1084.58 156.931 1084.31 154.324 1082.53 152.885L1084.18 154.218C1085.98 155.678 1088.63 155.4 1090.09 153.598L1090.09 153.598C1091.53 151.82 1091.28 149.216 1089.53 147.742Z" fill="#FFDECF"/>
<path d="M1086.36 152.036L1084.71 150.703L1076.34 143.921L1074.1 146.053L1082.53 152.885L1084.18 154.218C1085.98 155.678 1088.63 155.4 1090.09 153.598L1090.09 153.598C1090.33 153.295 1090.52 152.966 1090.67 152.625C1089.28 153.225 1087.62 153.055 1086.36 152.036Z" fill="#FFC7B3"/>
<path d="M1067.82 158.325H1067.81L1067.82 158.326V158.325Z" fill="#FFDECF"/>
<path d="M1063.17 165.064L1056.75 160.151L1051.43 159.938L1060.99 167.246C1062.59 168.516 1064.92 168.13 1066.26 166.477C1066.5 166.174 1066.69 165.845 1066.84 165.503C1065.64 166.018 1064.25 165.913 1063.17 165.064Z" fill="#FFC7B3"/>
<path d="M1070.91 160.829L1067.82 158.325L1061.74 153.332L1059.57 155.525L1065.63 160.507L1068.73 163.011C1070.5 164.449 1073.11 164.176 1074.55 162.399C1074.8 162.094 1074.99 161.763 1075.14 161.42C1073.77 161.999 1072.14 161.827 1070.91 160.829Z" fill="#FFC7B3"/>
<path d="M1079.5 157.137L1076.12 154.395L1069.25 149.055L1066.68 150.929L1073.94 156.577L1077.32 159.319C1079.1 160.758 1081.71 160.484 1083.15 158.708C1083.39 158.403 1083.58 158.072 1083.73 157.728C1082.37 158.308 1080.74 158.135 1079.5 157.137Z" fill="#FFC7B3"/>
<path d="M1033.45 106.867L1039.8 111.151C1041.03 111.98 1041.35 113.651 1040.52 114.878L1024.27 138.802C1023.45 140.022 1021.79 140.342 1020.56 139.518L1014.21 135.234C1012.98 134.405 1012.66 132.736 1013.49 131.509C1017.09 126.207 1026.15 112.866 1029.74 107.581C1030.57 106.361 1032.23 106.043 1033.45 106.867Z" fill="#F761A6"/>
<path d="M1022.26 130.223C1023.23 130.878 1023.49 132.195 1022.83 133.166C1022.18 134.137 1020.86 134.393 1019.89 133.738C1018.92 133.083 1018.66 131.765 1019.31 130.794C1019.97 129.824 1021.29 129.568 1022.26 130.223Z" fill="white"/>
<path d="M1048.35 120.947L1059.57 114.093C1061.83 112.716 1064.58 112.436 1067.07 113.331L1074.95 116.17C1076.59 116.758 1078.36 116.845 1080.04 116.421L1092.71 113.223L1103.72 136.095C1103.72 136.095 1099.47 145.384 1088.67 147.02L1063.21 125.126L1057.14 126.941L1053.19 131.802C1050.38 135.271 1045.52 136.305 1041.54 134.284C1040.35 133.683 1039.97 132.168 1040.74 131.082L1047.06 122.148C1047.41 121.665 1047.84 121.256 1048.35 120.947Z" fill="#FFC7B3"/>
<path d="M1094.41 106.989L1087.78 110.82C1086.5 111.561 1086.06 113.205 1086.8 114.487L1101.34 139.487C1102.08 140.762 1103.72 141.197 1104.99 140.46L1111.63 136.63C1112.91 135.889 1113.35 134.246 1112.6 132.965C1109.38 127.424 1101.28 113.483 1098.06 107.961C1097.32 106.686 1095.69 106.252 1094.41 106.989Z" fill="#6262F4"/>
<path d="M1103.95 131.069C1102.94 131.655 1102.59 132.951 1103.17 133.965C1103.76 134.98 1105.06 135.327 1106.07 134.741C1107.09 134.156 1107.44 132.86 1106.85 131.845C1106.26 130.831 1104.97 130.484 1103.95 131.069Z" fill="white"/>
<path d="M1046.61 147.255L1039.69 157.138C1038.42 158.939 1038.89 161.425 1040.72 162.648L1040.78 162.689C1042.56 163.878 1044.96 163.423 1046.18 161.668L1053.07 151.763C1054.3 149.989 1053.87 147.552 1052.1 146.312L1052.07 146.292C1050.29 145.05 1047.85 145.481 1046.61 147.255Z" fill="#FFC7B3"/>
<path d="M1043.99 162.648C1042.16 161.425 1041.7 158.939 1042.96 157.138L1049.88 147.255C1050.29 146.663 1050.84 146.225 1051.46 145.944C1049.77 145.165 1047.71 145.677 1046.61 147.255L1039.69 157.138C1038.42 158.939 1038.89 161.425 1040.72 162.648L1040.78 162.689C1041.96 163.474 1043.4 163.538 1044.6 162.989C1044.41 162.903 1044.23 162.807 1044.05 162.689L1043.99 162.648Z" fill="#F9AD95"/>
<path d="M1044.39 143.578C1046.17 144.82 1046.6 147.266 1045.36 149.04L1039.64 157.208C1038.39 158.982 1035.95 159.413 1034.17 158.171C1032.4 156.929 1031.97 154.483 1033.21 152.709L1038.93 144.541C1040.17 142.767 1042.62 142.336 1044.39 143.578Z" fill="#FFC7B3"/>
<path d="M1036.48 152.709L1042.2 144.541C1042.62 143.949 1043.17 143.511 1043.78 143.23C1042.09 142.451 1040.04 142.963 1038.93 144.541L1033.21 152.709C1031.97 154.483 1032.4 156.929 1034.17 158.171C1035.36 158.999 1036.84 159.08 1038.06 158.519C1037.85 158.422 1037.64 158.308 1037.45 158.171C1035.67 156.929 1035.24 154.483 1036.48 152.709Z" fill="#F9AD95"/>
<path d="M1050.61 155.163L1047.39 159.762C1046.15 161.536 1046.58 163.981 1048.36 165.224C1050.13 166.466 1052.58 166.035 1053.82 164.26L1057.04 159.662C1058.28 157.888 1057.85 155.443 1056.08 154.2C1054.3 152.958 1051.86 153.389 1050.61 155.163Z" fill="#FFC7B3"/>
<path d="M1051.63 165.224C1049.86 163.981 1049.42 161.536 1050.67 159.762L1053.89 155.163C1054.3 154.571 1054.85 154.133 1055.46 153.852C1053.77 153.073 1051.72 153.585 1050.61 155.163L1047.39 159.762C1046.15 161.536 1046.58 163.981 1048.36 165.224C1049.54 166.051 1051.02 166.132 1052.24 165.572C1052.03 165.475 1051.83 165.361 1051.63 165.224Z" fill="#F9AD95"/>
<path d="M1035.39 142.908C1033.61 141.665 1031.17 142.096 1029.92 143.871L1027.95 146.684C1026.71 148.459 1027.14 150.904 1028.92 152.146C1030.69 153.389 1033.14 152.958 1034.38 151.183L1036.35 148.37C1037.59 146.596 1037.16 144.15 1035.39 142.908Z" fill="#FFC7B3"/>
<path d="M1032.19 152.147C1030.42 150.904 1029.98 148.459 1031.23 146.685L1033.2 143.871C1033.61 143.279 1034.16 142.84 1034.77 142.56C1033.08 141.781 1031.03 142.293 1029.92 143.871L1027.95 146.685C1026.71 148.459 1027.14 150.904 1028.92 152.147C1030.1 152.974 1031.58 153.055 1032.8 152.495C1032.59 152.397 1032.39 152.284 1032.19 152.147Z" fill="#F9AD95"/>
</g>
<g clip-path="url(#clip1_461_5803)">
<path d="M804 168H704L723.466 86.9188H784.534L804 168Z" fill="#E9F2FF"/>
<path d="M784.535 86.9188H774.475L793.94 168H804.001L784.535 86.9188Z" fill="#DEEBFF"/>
<path d="M770.305 100.795H734.159C733.326 100.795 732.65 101.471 732.65 102.304C732.65 103.138 733.326 103.813 734.159 103.813H770.305C771.139 103.813 771.814 103.138 771.814 102.304C771.814 101.471 771.139 100.795 770.305 100.795Z" fill="#91A8DD"/>
<path d="M765.519 113.301H732.148C731.314 113.301 730.639 113.976 730.639 114.81C730.639 115.643 731.314 116.319 732.148 116.319H765.519C766.352 116.319 767.028 115.643 767.028 114.81C767.028 113.976 766.352 113.301 765.519 113.301Z" fill="#91A8DD"/>
<path d="M761.312 125.806H729.734C728.9 125.806 728.225 126.482 728.225 127.315C728.225 128.149 728.9 128.824 729.734 128.824H761.312C762.145 128.824 762.821 128.149 762.821 127.315C762.821 126.482 762.145 125.806 761.312 125.806Z" fill="#91A8DD"/>
<path d="M726.245 155.464C727.565 153.225 728.918 151.004 730.298 148.801C731.318 147.172 732.352 145.55 733.445 143.969C733.826 143.418 734.288 142.763 734.57 142.421C734.781 142.164 734.989 141.9 735.269 141.717C735.532 141.545 735.67 141.503 735.82 141.595C735.664 141.499 735.884 141.777 735.929 141.896C736.135 142.44 736.011 143.113 735.964 143.673C735.863 144.881 735.724 146.084 735.613 147.29C735.419 149.404 734.861 152.65 737.2 153.789C738.498 154.42 739.861 153.715 741.013 153.085C742.2 152.436 743.318 151.791 744.568 151.279C744.915 151.137 745.068 151.193 744.555 151.073C744.337 151.022 744.512 150.809 744.508 151.051C744.502 151.317 744.832 151.834 744.923 152.128C745.198 153.016 745.433 153.954 745.9 154.766C747.863 158.179 753.399 156.979 756.438 155.979C758.275 155.374 757.488 152.459 755.636 153.068C754.47 153.452 753.237 153.741 752.017 153.873C751.129 153.969 750.151 154.041 749.284 153.775C748.615 153.57 748.46 153.268 748.221 152.576C747.664 150.955 747.262 148.28 745.071 148.177C743.789 148.117 742.436 148.816 741.343 149.418C740.719 149.761 740.115 150.138 739.49 150.479C739.217 150.629 738.94 150.786 738.653 150.906C738.064 151.153 738.546 150.997 738.525 151.085C738.606 150.743 738.473 150.192 738.481 149.82C738.495 149.226 738.524 148.632 738.569 148.039C738.656 146.87 738.798 145.705 738.906 144.537C739.111 142.334 739.143 139.337 736.464 138.639C734.388 138.099 732.858 139.694 731.74 141.188C730.658 142.634 729.677 144.156 728.705 145.676C726.965 148.398 725.28 151.157 723.64 153.941C722.651 155.618 725.259 157.138 726.245 155.464Z" fill="#F55745"/>
<path d="M786.879 79.0865L796.089 82.3388L774.879 142.401L765.669 139.149L786.879 79.0865Z" fill="#F55745"/>
<path d="M797.945 77.909L788.206 74.4715C786.623 73.9125 784.886 74.7432 784.327 76.327C783.768 77.9107 784.598 79.6479 786.182 80.2068L793.053 82.632L784.815 105.97C784.256 107.554 785.087 109.291 786.67 109.85C788.254 110.409 789.991 109.578 790.55 107.994L799.8 81.7889C800.36 80.2051 799.529 78.468 797.945 77.909Z" fill="#FFBA47"/>
<path d="M769.015 144.355C768.229 144.077 767.367 144.49 767.09 145.276L764.059 153.861C763.782 154.646 764.194 155.508 764.98 155.786C765.146 155.845 765.315 155.872 765.482 155.872C766.104 155.872 766.686 155.485 766.905 154.865L769.936 146.28C770.213 145.494 769.801 144.632 769.015 144.355Z" fill="#91A8DD"/>
<path d="M769.495 150.842L764.568 149.103L765.678 139.137L774.887 142.388L769.495 150.842Z" fill="#FFBA47"/>
<path d="M796.218 77.299L789.936 75.0813L791.65 70.2233C792.263 68.4883 794.166 67.5783 795.901 68.1908C797.636 68.8031 798.546 70.7061 797.933 72.441L796.218 77.299Z" fill="#91A8DD"/>
</g>
<g clip-path="url(#clip2_461_5803)">
<path d="M158.896 166.943C158.714 167.568 158.142 168 157.49 168H114.509C113.857 168 113.285 167.568 113.103 166.943C112.921 166.316 113.175 165.646 113.726 165.297C113.804 165.248 121.73 160.115 126.273 149.607C126.505 149.072 127.033 148.725 127.617 148.725H144.38C144.966 148.725 145.494 149.072 145.726 149.607C150.289 160.162 158.193 165.246 158.273 165.297C158.824 165.646 159.078 166.316 158.896 166.943Z" fill="#97B3BF"/>
<path d="M158.896 166.943C158.715 167.568 158.143 168 157.49 168H152.891C147.693 164.436 140.348 152.379 139.928 148.738V148.725H144.381C144.967 148.725 145.494 149.072 145.727 149.607C150.289 160.162 158.193 165.246 158.273 165.297C158.824 165.646 159.078 166.316 158.896 166.943Z" fill="#708EA0"/>
<path d="M185.035 140.607L179.703 141.385L136 147.748L86.965 140.607C84.4591 103.295 87.6212 70.6074 87.6564 70.2559C87.7287 69.5312 88.3244 68.9688 89.0529 68.9375C89.2775 68.9277 111.728 68 136 68C154.414 68 171.781 68.5332 179.189 68.7969H179.191C181.545 68.8809 182.892 68.9355 182.947 68.9375C183.676 68.9688 184.271 69.5312 184.344 70.2559C184.379 70.6074 187.541 103.295 185.035 140.607Z" fill="#F7F7F7"/>
<path d="M185.035 140.607L179.703 141.385C181.852 96.6992 179.189 68.7969 179.189 68.7969H179.191C181.545 68.8809 182.893 68.9355 182.947 68.9375C183.676 68.9688 184.271 69.5313 184.344 70.2559C184.379 70.6074 187.541 103.295 185.035 140.607Z" fill="#9BB6C6"/>
<path d="M185.035 140.607C184.84 143.51 184.611 146.439 184.344 149.385C184.277 150.117 183.68 150.686 182.947 150.717C182.893 150.719 181.545 150.775 179.189 150.859C171.781 151.121 154.414 151.654 136 151.654C111.729 151.654 89.2773 150.727 89.0527 150.717C88.3203 150.686 87.7227 150.117 87.6562 149.385C87.5352 148.043 87.4199 146.703 87.3145 145.369C87.1875 143.775 87.0703 142.188 86.9648 140.607C90.123 140.723 113.215 141.531 136 141.531C153.406 141.531 170.992 141.059 179.732 140.785C182.434 140.699 184.291 140.635 185.035 140.607Z" fill="#E0E9EF"/>
<path d="M185.035 140.607C184.84 143.51 184.611 146.439 184.344 149.385C184.277 150.117 183.68 150.686 182.947 150.717C182.893 150.719 181.545 150.775 179.189 150.859V150.857C179.271 149.322 179.662 142.281 179.732 140.785C182.434 140.699 184.291 140.635 185.035 140.607Z" fill="#C5DEED"/>
<path d="M157.377 92.6797C157.352 91.9512 157.326 91.1953 157.299 90.3828L144.109 77.2012C143.203 77.1797 142.52 77.1582 141.906 77.1387C140.35 77.0879 139.225 77.0527 136.125 77.0527C125.543 77.0527 116.754 77.4688 116.668 77.4727C115.916 77.5098 115.314 78.1074 115.275 78.8594C115.268 78.9746 114.656 90.6367 114.656 104.682C114.656 118.729 115.268 130.391 115.275 130.506C115.314 131.258 115.916 131.855 116.668 131.891C116.754 131.896 125.543 132.312 136.125 132.312C146.709 132.312 155.496 131.896 155.584 131.891C156.336 131.855 156.938 131.258 156.977 130.506C156.982 130.391 157.596 118.729 157.596 104.682C157.596 98.9824 157.494 96.0625 157.377 92.6797Z" fill="#DEEBFF"/>
<path d="M157.3 90.3828C152.438 90.6191 147.874 90.5723 145.602 90.5254C144.751 90.5078 144.061 89.8301 144.026 88.9805C143.759 82.6523 144.11 77.2012 144.11 77.2012C144.434 77.2109 144.745 77.3242 144.997 77.5293C145.268 77.75 151.727 83.0117 156.975 89.5098C157.177 89.7578 157.29 90.0645 157.3 90.3828Z" fill="#91A8DD"/>
<path d="M124.816 100.98H147.435C148.245 100.98 148.9 100.324 148.9 99.5154C148.9 98.7065 148.245 98.0506 147.435 98.0506H124.816C124.007 98.0506 123.352 98.7065 123.352 99.5154C123.352 100.324 124.007 100.98 124.816 100.98Z" fill="#91A8DD"/>
<path d="M124.816 108.488H143.34C144.15 108.488 144.805 107.832 144.805 107.023C144.805 106.214 144.15 105.558 143.34 105.558H124.816C124.007 105.558 123.352 106.214 123.352 107.023C123.352 107.832 124.007 108.488 124.816 108.488Z" fill="#91A8DD"/>
<path d="M147.435 113.065H124.816C124.007 113.065 123.352 113.721 123.352 114.53C123.352 115.339 124.007 115.995 124.816 115.995H147.435C148.245 115.995 148.9 115.339 148.9 114.53C148.9 113.721 148.244 113.065 147.435 113.065Z" fill="#91A8DD"/>
<path d="M143.34 120.573H124.816C124.007 120.573 123.352 121.229 123.352 122.038C123.352 122.847 124.007 123.503 124.816 123.503H143.34C144.15 123.503 144.805 122.847 144.805 122.038C144.805 121.229 144.15 120.573 143.34 120.573Z" fill="#91A8DD"/>
</g>
<g clip-path="url(#clip3_461_5803)">
<path d="M461.491 161.79V74.2096C461.491 70.7801 458.711 68 455.281 68H408.452C405.022 68 402.242 70.7801 402.242 74.2096V161.791C402.242 165.22 405.022 168 408.452 168H455.281C458.711 168 461.491 165.22 461.491 161.79Z" fill="#F9F6F9"/>
<path d="M467.218 68H453.637C457.066 68 459.846 70.7801 459.846 74.2096V161.791C459.846 165.22 457.066 168 453.637 168H467.218C470.648 168 473.428 165.22 473.428 161.791V74.2096C473.428 70.7801 470.647 68 467.218 68Z" fill="#DDDAEC"/>
<path d="M461.491 76.2516H413.379C411.786 76.2516 410.494 77.543 410.494 79.1359V150.032C410.494 151.625 411.786 152.916 413.379 152.916H461.491L461.491 76.2516Z" fill="#C9E0FD"/>
<path d="M462.293 76.2516H459.848V152.916H462.293C463.886 152.916 465.178 151.625 465.178 150.032V79.1359C465.178 77.543 463.886 76.2516 462.293 76.2516Z" fill="#BCD6F9"/>
<path d="M461.491 76.2516H413.379C411.786 76.2516 410.494 77.543 410.494 79.1359V86.4103H461.491V76.2516Z" fill="#9BC4F9"/>
<path d="M462.293 76.2516H459.848V86.4105H465.178V79.1359C465.178 77.543 463.886 76.2516 462.293 76.2516Z" fill="#7FB2F9"/>
<path d="M441.155 161.561H434.515C433.681 161.561 433.006 160.886 433.006 160.052C433.006 159.219 433.681 158.543 434.515 158.543H441.155C441.988 158.543 442.664 159.219 442.664 160.052C442.664 160.886 441.988 161.561 441.155 161.561Z" fill="#9BC4F9"/>
<path d="M418.872 82.8401C419.706 82.8401 420.381 82.1645 420.381 81.3311C420.381 80.4977 419.706 79.8221 418.872 79.8221C418.039 79.8221 417.363 80.4977 417.363 81.3311C417.363 82.1645 418.039 82.8401 418.872 82.8401Z" fill="#FFC250"/>
<path d="M425.763 82.8401C426.596 82.8401 427.272 82.1645 427.272 81.3311C427.272 80.4977 426.596 79.8221 425.763 79.8221C424.93 79.8221 424.254 80.4977 424.254 81.3311C424.254 82.1645 424.93 82.8401 425.763 82.8401Z" fill="#FFC250"/>
<path d="M432.655 82.8401C433.489 82.8401 434.164 82.1645 434.164 81.3311C434.164 80.4977 433.489 79.8221 432.655 79.8221C431.822 79.8221 431.146 80.4977 431.146 81.3311C431.146 82.1645 431.822 82.8401 432.655 82.8401Z" fill="#FFC250"/>
<path d="M475.411 132.448V106.887C475.411 104.088 473.539 101.729 470.979 100.989H440.577C437.229 100.989 434.516 103.703 434.516 107.051V132.284C434.516 135.632 437.229 138.346 440.577 138.346H470.979C473.539 137.606 475.411 135.246 475.411 132.448Z" fill="#FFD064"/>
<path d="M475.411 132.448V125.906L461.136 113.18L435.688 135.867C436.791 137.37 438.569 138.346 440.576 138.346H470.978C473.538 137.606 475.411 135.246 475.411 132.448Z" fill="#FFE07D"/>
<path d="M475.412 106.887C475.412 104.088 473.539 101.729 470.979 100.989H440.578C438.579 100.989 436.807 101.956 435.703 103.448L457.804 123.347C459.698 125.053 462.576 125.053 464.471 123.347L475.412 113.496V106.887Z" fill="#FFC250"/>
<path d="M481.696 100.989H468.24C471.588 100.989 474.302 103.703 474.302 107.051V132.284C474.302 135.632 471.588 138.346 468.24 138.346H481.696C485.043 138.346 487.757 135.632 487.757 132.284V107.051C487.757 103.703 485.043 100.989 481.696 100.989Z" fill="#FFC250"/>
<path d="M474.302 124.917V132.284C474.302 135.632 471.588 138.346 468.24 138.346H481.695C483.702 138.346 485.481 137.37 486.584 135.867L474.302 124.917Z" fill="#FFD064"/>
<path d="M468.24 100.989C471.588 100.989 474.302 103.703 474.302 107.051V114.494L486.57 103.448C485.466 101.956 483.694 100.989 481.695 100.989H468.24Z" fill="#EBB044"/>
</g>
<defs>
<clipPath id="clip0_461_5803">
<rect width="100" height="100" fill="white" transform="translate(1013 68)"/>
</clipPath>
<clipPath id="clip1_461_5803">
<rect width="100" height="100" fill="white" transform="translate(704 68)"/>
</clipPath>
<clipPath id="clip2_461_5803">
<rect width="100" height="100" fill="white" transform="translate(86 68)"/>
</clipPath>
<clipPath id="clip3_461_5803">
<rect width="100" height="100" fill="white" transform="translate(395 68)"/>
</clipPath>
</defs>
</svg>
