<svg width="1200" height="614" viewBox="0 0 1200 614" fill="none" xmlns="http://www.w3.org/2000/svg">
<rect width="580" height="287" rx="20" fill="#2779F4"/>
<path d="M41.9062 77V54.375H50.7812C55.9219 54.375 58.875 57.5469 58.875 62C58.875 66.5156 55.875 69.625 50.6562 69.625H46.5938V77H41.9062ZM46.5938 65.8438H49.9062C52.6875 65.8438 54.0469 64.2812 54.0312 62C54.0469 59.75 52.6875 58.2344 49.9062 58.2188H46.5938V65.8438ZM61.8438 54.375H67.6562L73.9375 69.7188H74.1875L80.4688 54.375H86.2812V77H81.7188V62.1875H81.5312L75.625 76.9062H72.5L66.5938 62.125H66.4062V77H61.8438V54.375Z" fill="white"/>
<path d="M106.562 72.5V58.3594H111.367C114.678 58.3594 116.191 60.332 116.191 62.8516C116.191 65.3613 114.678 67.3633 111.387 67.3633H108.32V72.5H106.562ZM108.32 65.8008H111.309C113.564 65.8008 114.443 64.5312 114.453 62.8516C114.443 61.1621 113.564 59.9219 111.289 59.9219H108.32V65.8008ZM118.438 72.5V61.8945H120.059V63.5156H120.176C120.557 62.4414 121.66 61.7285 122.91 61.7188C123.164 61.7285 123.594 61.7383 123.789 61.7578V63.457C123.662 63.4277 123.213 63.3398 122.773 63.3398C121.25 63.3398 120.117 64.3945 120.117 65.8203V72.5H118.438ZM129.414 72.7148C126.523 72.7246 124.57 70.5371 124.57 67.2461C124.57 63.9355 126.523 61.7578 129.414 61.7578C132.295 61.7578 134.229 63.9355 134.219 67.2461C134.229 70.5371 132.295 72.7246 129.414 72.7148ZM126.25 67.2461C126.26 69.3652 127.256 71.2305 129.414 71.2305C131.553 71.2305 132.539 69.3652 132.539 67.2461C132.539 65.1367 131.553 63.2422 129.414 63.2422C127.256 63.2422 126.26 65.1367 126.25 67.2461ZM136.426 61.8945H138.105V73.2617C138.105 75.2441 137.08 76.4746 135.02 76.4844C134.912 76.4746 134.805 76.4746 134.668 76.4844V74.9219C134.785 74.9316 134.883 74.9316 135 74.9219C135.977 74.9316 136.416 74.3262 136.426 73.2617V61.8945ZM136.074 59.0234C136.064 58.3984 136.602 57.9004 137.246 57.9102C137.891 57.9004 138.428 58.3984 138.438 59.0234C138.428 59.6387 137.891 60.1367 137.246 60.1367C136.602 60.1367 136.064 59.6387 136.074 59.0234ZM145.234 72.7148C142.168 72.7246 140.273 70.5371 140.273 67.2852C140.273 64.0234 142.197 61.7578 145.078 61.7578C147.305 61.7578 149.658 63.125 149.648 67.0508V67.7539H141.953C142.041 70 143.35 71.2305 145.234 71.2305C146.504 71.2305 147.305 70.6738 147.695 70.0195H149.492C148.994 71.6309 147.422 72.7246 145.234 72.7148ZM141.963 66.3281H147.949C147.939 64.5605 146.826 63.2422 145.078 63.2422C143.242 63.2422 142.08 64.6875 141.963 66.3281ZM156.172 72.7148C153.164 72.7246 151.328 70.4297 151.328 67.2461C151.328 64.0234 153.252 61.7578 156.133 61.7578C158.389 61.7578 160.088 63.0957 160.352 65.0977H158.672C158.428 64.1309 157.588 63.2422 156.172 63.2422C154.277 63.2422 153.018 64.8047 153.008 67.1875C153.018 69.6387 154.248 71.2109 156.172 71.2109C157.422 71.2109 158.379 70.5371 158.672 69.375H160.352C160.088 71.2695 158.525 72.7246 156.172 72.7148ZM167.051 61.8945V63.3008H164.824V69.4531C164.814 70.8105 165.498 71.0352 166.211 71.0352C166.514 71.0352 166.963 71.0059 167.207 70.9961V72.5586C166.943 72.5977 166.533 72.6367 166.035 72.6367C164.619 72.6367 163.135 71.7578 163.125 69.8828V63.3008H161.523V61.8945H163.125V59.3555H164.824V61.8945H167.051ZM174.453 58.3594H176.562L181.328 70H181.504L186.27 58.3594H188.379V72.5H186.719V61.8164H186.582L182.188 72.5H180.625L176.23 61.8164H176.113V72.5H174.453V58.3594ZM190.781 69.4922C190.781 67.0605 192.93 66.5039 194.766 66.3672C195.449 66.3184 197.158 66.2207 197.637 66.2109V65.3516C197.637 64.0039 196.836 63.2227 195.234 63.2227C193.896 63.2227 193.086 63.8379 192.852 64.6484H191.094C191.309 62.9395 192.969 61.7578 195.312 61.7578C196.699 61.7578 199.307 62.168 199.297 65.5078V72.5H197.637V71.0547H197.559C197.207 71.7676 196.24 72.7441 194.395 72.7539C192.383 72.7441 190.781 71.5625 190.781 69.4922ZM192.461 69.5703C192.471 70.6934 193.398 71.2598 194.688 71.25C196.582 71.2598 197.637 69.9902 197.637 68.6523V67.5879C197.139 67.6172 195.469 67.7441 194.961 67.7734C193.438 67.8711 192.471 68.4082 192.461 69.5703ZM203.672 66.1328V72.5H201.992V61.8945H203.613V63.5547H203.75C204.248 62.4707 205.244 61.7578 206.855 61.7578C209.004 61.7578 210.439 63.0664 210.43 65.7617V72.5H208.75V65.8789C208.75 64.2383 207.852 63.2617 206.348 63.2617C204.805 63.2617 203.672 64.2969 203.672 66.1328ZM212.617 69.4922C212.617 67.0605 214.766 66.5039 216.602 66.3672C217.285 66.3184 218.994 66.2207 219.473 66.2109V65.3516C219.473 64.0039 218.672 63.2227 217.07 63.2227C215.732 63.2227 214.922 63.8379 214.688 64.6484H212.93C213.145 62.9395 214.805 61.7578 217.148 61.7578C218.535 61.7578 221.143 62.168 221.133 65.5078V72.5H219.473V71.0547H219.395C219.043 71.7676 218.076 72.7441 216.23 72.7539C214.219 72.7441 212.617 71.5625 212.617 69.4922ZM214.297 69.5703C214.307 70.6934 215.234 71.2598 216.523 71.25C218.418 71.2598 219.473 69.9902 219.473 68.6523V67.5879C218.975 67.6172 217.305 67.7441 216.797 67.7734C215.273 67.8711 214.307 68.4082 214.297 69.5703ZM228.125 76.6992C225.557 76.6992 223.818 75.5762 223.633 73.6133H225.391C225.615 74.6973 226.621 75.2344 228.125 75.2344C229.941 75.2344 231.055 74.4434 231.055 72.6953V70.5469H230.918C230.557 71.1328 229.883 72.334 227.832 72.3438C225.254 72.334 223.32 70.3906 223.32 67.0508C223.32 63.7891 225.186 61.7578 227.852 61.7578C229.912 61.7578 230.576 63.0078 230.957 63.5742H231.094V61.8945H232.734V72.793C232.725 75.5273 230.713 76.6992 228.125 76.6992ZM225.02 67.1094C225.02 69.3066 226.055 70.8398 228.066 70.8398C230.01 70.8398 231.084 69.4434 231.094 67.1094C231.084 64.834 230.039 63.2617 228.066 63.2617C226.025 63.2617 225.02 64.9707 225.02 67.1094ZM239.863 72.7148C236.797 72.7246 234.902 70.5371 234.902 67.2852C234.902 64.0234 236.826 61.7578 239.707 61.7578C241.934 61.7578 244.287 63.125 244.277 67.0508V67.7539H236.582C236.67 70 237.979 71.2305 239.863 71.2305C241.133 71.2305 241.934 70.6738 242.324 70.0195H244.121C243.623 71.6309 242.051 72.7246 239.863 72.7148ZM236.592 66.3281H242.578C242.568 64.5605 241.455 63.2422 239.707 63.2422C237.871 63.2422 236.709 64.6875 236.592 66.3281ZM246.465 72.5V61.8945H248.086V63.5547H248.223C248.662 62.4219 249.688 61.7578 251.074 61.7578C252.461 61.7578 253.408 62.4219 253.906 63.5547H254.023C254.561 62.4609 255.684 61.7578 257.207 61.7578C259.092 61.7578 260.449 62.9102 260.449 65.4102V72.5H258.77V65.4297C258.76 63.8672 257.783 63.2617 256.621 63.2617C255.146 63.2617 254.307 64.2578 254.297 65.6055V72.5H252.598V65.2539C252.607 64.0625 251.748 63.2617 250.527 63.2617C249.258 63.2617 248.145 64.3359 248.145 65.8789V72.5H246.465ZM267.598 72.7148C264.531 72.7246 262.637 70.5371 262.637 67.2852C262.637 64.0234 264.561 61.7578 267.441 61.7578C269.668 61.7578 272.021 63.125 272.012 67.0508V67.7539H264.316C264.404 70 265.713 71.2305 267.598 71.2305C268.867 71.2305 269.668 70.6738 270.059 70.0195H271.855C271.357 71.6309 269.785 72.7246 267.598 72.7148ZM264.326 66.3281H270.312C270.303 64.5605 269.189 63.2422 267.441 63.2422C265.605 63.2422 264.443 64.6875 264.326 66.3281ZM275.879 66.1328V72.5H274.199V61.8945H275.82V63.5547H275.957C276.455 62.4707 277.451 61.7578 279.062 61.7578C281.211 61.7578 282.646 63.0664 282.637 65.7617V72.5H280.957V65.8789C280.957 64.2383 280.059 63.2617 278.555 63.2617C277.012 63.2617 275.879 64.2969 275.879 66.1328ZM289.961 61.8945V63.3008H287.734V69.4531C287.725 70.8105 288.408 71.0352 289.121 71.0352C289.424 71.0352 289.873 71.0059 290.117 70.9961V72.5586C289.854 72.5977 289.443 72.6367 288.945 72.6367C287.529 72.6367 286.045 71.7578 286.035 69.8828V63.3008H284.434V61.8945H286.035V59.3555H287.734V61.8945H289.961Z" fill="#DDE1E6"/>
<path d="M56.4141 128.004C55.2109 128.004 54.2227 127.016 54.2227 125.791C54.2227 124.588 55.2109 123.6 56.4141 123.6C57.6387 123.6 58.627 124.588 58.627 125.791C58.627 127.016 57.6387 128.004 56.4141 128.004ZM90.0801 114.641V133.74H88.4258V123.75H85.7832V132.795H84.1719V115.156H85.7832V122.354H88.4258V114.641H90.0801ZM73.7949 128.455C78.2314 125.974 80.0576 122.482 80.3477 118.529H74.5254V117.133H82.002C81.9805 121.988 80.2725 126.575 74.7832 129.637L73.7949 128.455ZM95.2578 115.457V118.207H100.822V115.457H102.498V123.771H93.6035V115.457H95.2578ZM95.2578 122.396H100.822V119.518H95.2578V122.396ZM95.5371 126.779V125.426H107.719V130.045H97.2344V132.15H108.428V133.525H95.5801V128.756H106.043V126.779H95.5371ZM106.043 124.523V114.641H107.719V118.787H110.598V120.205H107.719V124.523H106.043ZM133.113 114.641V133.74H131.416V114.641H133.113ZM117.559 128.777C122.726 126.328 125.368 122.665 125.744 118.1H118.439V116.725H127.463C127.441 122.214 124.885 127.08 118.482 130.152L117.559 128.777ZM148.346 116.402V117.691H137.066V116.402H141.857V114.533H143.533V116.402H148.346ZM136.422 125.469C138.044 125.469 139.913 125.458 141.857 125.394V124.062C139.591 123.857 138.141 122.837 138.162 121.279C138.141 119.507 139.956 118.422 142.717 118.422C145.435 118.422 147.271 119.507 147.293 121.279C147.271 122.837 145.8 123.868 143.533 124.062V125.329C145.316 125.243 147.121 125.104 148.797 124.867L148.926 126.07C144.736 126.758 140.117 126.822 136.68 126.822L136.422 125.469ZM139.193 129.68V128.326H152.084V133.74H150.387V129.68H139.193ZM139.752 121.279C139.752 122.257 140.923 122.912 142.717 122.891C144.479 122.912 145.671 122.257 145.66 121.279C145.671 120.237 144.479 119.604 142.717 119.625C140.923 119.604 139.752 120.237 139.752 121.279ZM150.387 127.424V114.705H152.084V127.424H150.387ZM170.84 115.887V123.664H161.881V115.887H170.84ZM163.256 132.365C166.543 132 169.701 130.142 169.701 128.24H164.051V126.93H169.723V125.061H171.398V126.93H177.113V128.24H171.441C171.431 130.099 174.503 131.957 177.779 132.365L177.199 133.676C174.331 133.278 171.71 131.925 170.571 130.163C169.422 131.968 166.736 133.278 163.857 133.676L163.256 132.365ZM163.535 122.332H169.186V117.262H163.535V122.332ZM174.965 125.619V114.641H176.619V125.619H174.965ZM201.176 114.662V128.627H199.5V114.662H201.176ZM185.857 120.678C185.847 117.928 188.006 116.005 190.863 115.994C193.721 116.005 195.858 117.928 195.869 120.678C195.858 123.46 193.721 125.394 190.863 125.383C188.006 125.394 185.847 123.46 185.857 120.678ZM187.512 120.678C187.49 122.579 188.93 123.9 190.863 123.9C192.765 123.9 194.215 122.579 194.215 120.678C194.215 118.809 192.765 117.477 190.863 117.477C188.93 117.477 187.49 118.809 187.512 120.678ZM188.844 133.332V127.209H190.52V131.914H201.777V133.332H188.844ZM215.785 117.713V119.109H204.42V117.713H209.254V114.877H210.93V117.713H215.785ZM205.602 125.082C205.602 122.515 207.503 120.699 210.113 120.699C212.702 120.699 214.582 122.515 214.604 125.082C214.582 127.628 212.702 129.465 210.113 129.465C207.503 129.465 205.602 127.628 205.602 125.082ZM207.191 125.082C207.17 126.801 208.438 128.015 210.113 128.004C211.789 128.015 213.046 126.801 213.057 125.082C213.046 123.385 211.789 122.149 210.113 122.139C208.438 122.149 207.17 123.385 207.191 125.082ZM215.377 124.094V122.676H218.578V114.641H220.254V133.74H218.578V124.094H215.377ZM238.215 114.641V122.418H241.309V123.836H238.215V133.74H236.539V114.641H238.215ZM223.562 128.777C228.493 126.328 231.179 122.644 231.565 118.121H224.443V116.703H233.273C233.263 122.106 230.728 127.037 224.508 130.109L223.562 128.777ZM56.4141 163.004C55.2109 163.004 54.2227 162.016 54.2227 160.791C54.2227 159.588 55.2109 158.6 56.4141 158.6C57.6387 158.6 58.627 159.588 58.627 160.791C58.627 162.016 57.6387 163.004 56.4141 163.004ZM80.1758 154.775C80.1758 158.138 82.3994 161.607 85.1172 162.939L84.0859 164.293C81.9805 163.197 80.2188 160.931 79.3701 158.277C78.5215 161.092 76.7168 163.509 74.5684 164.658L73.4941 163.305C76.2871 161.93 78.5 158.267 78.5215 154.775V151.295H80.1758V154.775ZM86.8789 168.74V149.641H88.5547V157.396H91.7559V158.857H88.5547V168.74H86.8789ZM98.0508 150.543C100.607 150.532 102.562 152.025 102.928 154.217H106.924V149.641H108.621V159.889H106.924V155.613H102.938C102.605 157.869 100.64 159.373 98.0508 159.373C95.1396 159.373 93.0771 157.568 93.0879 154.947C93.0771 152.358 95.1396 150.532 98.0508 150.543ZM94.6992 154.947C94.6992 156.688 96.085 157.944 98.0508 157.955C99.9736 157.944 101.359 156.688 101.359 154.947C101.359 153.186 99.9736 151.961 98.0508 151.982C96.085 151.961 94.6992 153.186 94.6992 154.947ZM96.3105 168.482V160.855H98.0078V163.283H106.924V160.855H108.621V168.482H96.3105ZM98.0078 167.107H106.924V164.637H98.0078V167.107ZM118.375 152.648C118.354 155.377 120.298 157.772 123.102 158.729L122.156 160.039C120.051 159.255 118.396 157.697 117.569 155.688C116.753 157.977 115.013 159.749 112.703 160.619L111.779 159.244C114.723 158.213 116.678 155.678 116.699 152.713V150.736H118.375V152.648ZM114.895 165.131C114.884 162.832 117.322 161.511 121.297 161.521C125.261 161.511 127.699 162.832 127.699 165.131C127.699 167.408 125.261 168.697 121.297 168.697C117.322 168.697 114.884 167.408 114.895 165.131ZM116.57 165.131C116.56 166.517 118.364 167.354 121.297 167.344C124.219 167.354 126.023 166.517 126.023 165.131C126.023 163.702 124.219 162.854 121.297 162.854C118.364 162.854 116.56 163.702 116.57 165.131ZM121.684 155.141V153.744H125.938V149.641H127.635V160.963H125.938V155.141H121.684ZM146.197 150.887C146.187 155.678 142.76 159.115 137.26 160.684L136.551 159.352C141.116 158.062 144.038 155.527 144.403 152.283H137.539V150.887H146.197ZM139.773 168.482V161.371H152.17V168.482H139.773ZM141.406 167.107H150.494V162.725H141.406V167.107ZM146.24 156V154.582H150.473V149.662H152.17V160.555H150.473V156H146.24ZM170.818 159.588V160.963H164.889V164.959H172.838V166.355H155.35V164.959H163.213V160.963H157.605V151.209H170.604V152.605H159.324V155.334H170.195V156.709H159.324V159.588H170.818ZM56.4141 198.004C55.2109 198.004 54.2227 197.016 54.2227 195.791C54.2227 194.588 55.2109 193.6 56.4141 193.6C57.6387 193.6 58.627 194.588 58.627 195.791C58.627 197.016 57.6387 198.004 56.4141 198.004ZM91.2402 194.76V196.135H83.4629V199.873H81.7871V196.135H73.752V194.76H91.2402ZM75.9863 203.332V198.111H77.6621V201.914H89.2852V203.332H75.9863ZM76.0938 192.891V185.264H77.7695V187.713H87.2227V185.264H88.8984V192.891H76.0938ZM77.7695 191.516H87.2227V189.002H77.7695V191.516ZM110.555 187.541V188.938H107.719V191.602H110.555V193.02H107.719V195.984H106.043V184.641H107.719V187.541H110.555ZM93.1523 190.291C93.1416 187.627 95.2686 185.79 98.1582 185.801C101.069 185.79 103.164 187.627 103.186 190.291C103.164 192.944 101.069 194.771 98.1582 194.781C95.2686 194.771 93.1416 192.944 93.1523 190.291ZM94.8066 190.291C94.7959 192.096 96.2246 193.342 98.1582 193.363C100.113 193.342 101.521 192.096 101.531 190.291C101.521 188.497 100.113 187.219 98.1582 187.24C96.2246 187.219 94.7959 188.497 94.8066 190.291ZM95.2578 200.152C95.2686 197.886 97.6963 196.575 101.596 196.564C105.495 196.575 107.891 197.886 107.891 200.152C107.891 202.376 105.495 203.697 101.596 203.697C97.6963 203.697 95.2686 202.376 95.2578 200.152ZM96.9551 200.152C96.9336 201.527 98.7168 202.333 101.596 202.344C104.485 202.333 106.247 201.527 106.258 200.152C106.247 198.767 104.485 197.939 101.596 197.939C98.7168 197.939 96.9336 198.767 96.9551 200.152ZM126.582 184.641V192.418H129.676V193.836H126.582V203.74H124.906V184.641H126.582ZM111.93 198.777C116.86 196.328 119.546 192.644 119.933 188.121H112.811V186.703H121.641C121.63 192.106 119.095 197.037 112.875 200.109L111.93 198.777ZM146.305 185.887V193.664H137.346V185.887H146.305ZM138.721 202.365C142.008 202 145.166 200.142 145.166 198.24H139.516V196.93H145.188V195.061H146.863V196.93H152.578V198.24H146.906C146.896 200.099 149.968 201.957 153.244 202.365L152.664 203.676C149.796 203.278 147.175 201.925 146.036 200.163C144.887 201.968 142.201 203.278 139.322 203.676L138.721 202.365ZM139 192.332H144.65V187.262H139V192.332ZM150.43 195.619V184.641H152.084V195.619H150.43ZM167.66 189.775C167.649 193.267 170.023 196.769 172.838 198.047L171.807 199.379C169.626 198.326 167.746 196.06 166.833 193.342C165.952 196.221 164.072 198.638 161.838 199.766L160.764 198.348C163.61 197.048 165.963 193.396 165.984 189.775V186.295H167.66V189.775ZM174.922 203.783V184.641H176.619V203.783H174.922ZM185.557 190.076C185.557 193.116 187.039 196.393 189.574 197.896L188.607 199.207C186.76 198.09 185.438 196.049 184.772 193.718C184.074 196.264 182.656 198.455 180.744 199.615L179.67 198.348C182.312 196.801 183.924 193.417 183.924 190.141V186.445H185.557V190.076ZM187.469 192.934V191.494H190.713V185.049H192.303V202.773H190.713V192.934H187.469ZM194.623 203.74V184.641H196.256V203.74H194.623ZM216.365 194.76V196.135H208.588V199.873H206.912V196.135H198.877V194.76H216.365ZM201.111 203.332V198.111H202.787V201.914H214.41V203.332H201.111ZM201.219 192.891V185.264H202.895V187.713H212.348V185.264H214.023V192.891H201.219ZM202.895 191.516H212.348V189.002H202.895V191.516ZM224.422 187.713C224.411 190.345 226.377 192.772 229.148 193.729L228.225 195.082C226.108 194.298 224.443 192.676 223.627 190.635C222.821 192.891 221.103 194.652 218.857 195.533L217.934 194.137C220.834 193.116 222.746 190.592 222.768 187.648V185.629H224.422V187.713ZM220.898 198.348V196.994H233.746V203.74H232.049V198.348H220.898ZM227.795 190.076V188.658H232.049V184.641H233.746V195.941H232.049V190.076H227.795ZM56.4141 233.004C55.2109 233.004 54.2227 232.016 54.2227 230.791C54.2227 229.588 55.2109 228.6 56.4141 228.6C57.6387 228.6 58.627 229.588 58.627 230.791C58.627 232.016 57.6387 233.004 56.4141 233.004ZM80.1758 224.775C80.1758 228.138 82.3994 231.607 85.1172 232.939L84.0859 234.293C81.9805 233.197 80.2188 230.931 79.3701 228.277C78.5215 231.092 76.7168 233.509 74.5684 234.658L73.4941 233.305C76.2871 231.93 78.5 228.267 78.5215 224.775V221.295H80.1758V224.775ZM86.8789 238.74V219.641H88.5547V227.396H91.7559V228.857H88.5547V238.74H86.8789ZM98.0508 220.543C100.607 220.532 102.562 222.025 102.928 224.217H106.924V219.641H108.621V229.889H106.924V225.613H102.938C102.605 227.869 100.64 229.373 98.0508 229.373C95.1396 229.373 93.0771 227.568 93.0879 224.947C93.0771 222.358 95.1396 220.532 98.0508 220.543ZM94.6992 224.947C94.6992 226.688 96.085 227.944 98.0508 227.955C99.9736 227.944 101.359 226.688 101.359 224.947C101.359 223.186 99.9736 221.961 98.0508 221.982C96.085 221.961 94.6992 223.186 94.6992 224.947ZM96.3105 238.482V230.855H98.0078V233.283H106.924V230.855H108.621V238.482H96.3105ZM98.0078 237.107H106.924V234.637H98.0078V237.107ZM118.375 222.648C118.354 225.377 120.298 227.772 123.102 228.729L122.156 230.039C120.051 229.255 118.396 227.697 117.569 225.688C116.753 227.977 115.013 229.749 112.703 230.619L111.779 229.244C114.723 228.213 116.678 225.678 116.699 222.713V220.736H118.375V222.648ZM114.895 235.131C114.884 232.832 117.322 231.511 121.297 231.521C125.261 231.511 127.699 232.832 127.699 235.131C127.699 237.408 125.261 238.697 121.297 238.697C117.322 238.697 114.884 237.408 114.895 235.131ZM116.57 235.131C116.56 236.517 118.364 237.354 121.297 237.344C124.219 237.354 126.023 236.517 126.023 235.131C126.023 233.702 124.219 232.854 121.297 232.854C118.364 232.854 116.56 233.702 116.57 235.131ZM121.684 225.141V223.744H125.938V219.641H127.635V230.963H125.938V225.141H121.684ZM145.918 221.424C145.929 224.12 149.431 226.44 152.879 226.924L152.191 228.299C149.227 227.805 146.283 226.161 145.059 223.819C143.834 226.183 140.901 227.805 137.926 228.299L137.238 226.924C140.687 226.44 144.178 224.163 144.178 221.424V220.328H145.918V221.424ZM136.336 231.822V230.404H153.738V231.822H145.832V238.74H144.178V231.822H136.336ZM162.182 225.506C162.192 228.75 164.545 232.048 167.359 233.262L166.414 234.594C164.18 233.584 162.257 231.382 161.365 228.739C160.474 231.543 158.54 233.971 156.359 235.066L155.35 233.734C158.089 232.424 160.474 228.814 160.484 225.506V223.014H155.973V221.617H166.736V223.014H162.182V225.506ZM169.4 238.74V219.641H171.098V238.74H169.4ZM191.83 229.76V231.135H184.053V234.873H182.377V231.135H174.342V229.76H191.83ZM176.576 238.332V233.111H178.252V236.914H189.875V238.332H176.576ZM176.684 227.891V220.264H178.359V222.713H187.812V220.264H189.488V227.891H176.684ZM178.359 226.516H187.812V224.002H178.359V226.516ZM199.887 222.713C199.876 225.345 201.842 227.772 204.613 228.729L203.689 230.082C201.573 229.298 199.908 227.676 199.092 225.635C198.286 227.891 196.567 229.652 194.322 230.533L193.398 229.137C196.299 228.116 198.211 225.592 198.232 222.648V220.629H199.887V222.713ZM196.363 233.348V231.994H209.211V238.74H207.514V233.348H196.363ZM203.26 225.076V223.658H207.514V219.641H209.211V230.941H207.514V225.076H203.26ZM227.881 220.887V228.664H218.922V220.887H227.881ZM220.297 237.365C223.584 237 226.742 235.142 226.742 233.24H221.092V231.93H226.764V230.061H228.439V231.93H234.154V233.24H228.482C228.472 235.099 231.544 236.957 234.82 237.365L234.24 238.676C231.372 238.278 228.751 236.925 227.612 235.163C226.463 236.968 223.777 238.278 220.898 238.676L220.297 237.365ZM220.576 227.332H226.227V222.262H220.576V227.332ZM232.006 230.619V219.641H233.66V230.619H232.006ZM253.168 221.102V222.498H251.213V228.61C252.094 228.546 252.964 228.471 253.791 228.363L253.877 229.652C250.149 230.222 245.81 230.286 242.705 230.275L242.49 228.857C243.253 228.857 244.08 228.857 244.961 228.847V222.498H243.027V221.102H253.168ZM245.541 235.26C245.53 233.079 247.947 231.833 251.943 231.844C255.939 231.833 258.346 233.079 258.346 235.26C258.346 237.44 255.939 238.697 251.943 238.697C247.947 238.697 245.53 237.44 245.541 235.26ZM246.594 228.814C247.571 228.793 248.581 228.761 249.58 228.707V222.498H246.594V228.814ZM247.217 235.26C247.206 236.592 249 237.365 251.943 237.365C254.876 237.365 256.67 236.592 256.67 235.26C256.67 233.949 254.876 233.154 251.943 233.154C249 233.154 247.206 233.949 247.217 235.26ZM253.361 227.891V226.494H256.584V224.475H253.361V223.078H256.584V219.641H258.281V231.436H256.584V227.891H253.361ZM276.242 219.641V227.418H279.336V228.836H276.242V238.74H274.566V219.641H276.242ZM261.59 233.777C266.521 231.328 269.206 227.644 269.593 223.121H262.471V221.703H271.301C271.29 227.106 268.755 232.037 262.535 235.109L261.59 233.777Z" fill="white"/>
<rect x="620" width="580" height="252" rx="20" fill="#FAFAFA"/>
<path d="M1038.12 52.7188V55C1038.14 57.2188 1038.14 59.6719 1037.45 62.9375H1041.22V66.1562H1015.19V62.9375H1033.44C1034.05 60.1094 1034.12 57.9062 1034.16 55.9062H1018.38V52.7188H1038.12ZM1018.28 79.5625V69.1562H1038.03V79.5625H1018.28ZM1022.19 76.375H1034.06V72.2812H1022.19V76.375ZM1068.78 64.1875V67.4062H1063.03V70.8438C1064.73 71.7188 1065.67 73.0156 1065.69 74.6875C1065.66 78.0469 1061.92 79.9062 1055.78 79.9062C1049.55 79.9062 1045.81 78.0469 1045.81 74.6875C1045.81 72.9531 1046.81 71.625 1048.66 70.7344V67.4062H1042.84V64.1875H1068.78ZM1045.44 57.4062C1045.44 53.9688 1049.48 51.875 1055.81 51.875C1062.09 51.875 1066.14 53.9688 1066.16 57.4062C1066.14 60.7812 1062.09 62.8125 1055.81 62.8125C1049.48 62.8125 1045.44 60.7812 1045.44 57.4062ZM1049.59 57.4062C1049.56 58.9688 1051.83 59.7812 1055.81 59.7812C1059.73 59.7812 1062.03 58.9688 1062.03 57.4062C1062.03 55.7969 1059.73 54.9688 1055.81 54.9688C1051.83 54.9688 1049.56 55.7969 1049.59 57.4062ZM1049.88 74.6875C1049.86 76.1719 1051.84 76.875 1055.78 76.875C1059.64 76.875 1061.67 76.1719 1061.69 74.6875C1061.67 73.2188 1059.64 72.5156 1055.78 72.5C1051.84 72.5156 1049.86 73.2188 1049.88 74.6875ZM1052.62 69.6875C1053.59 69.5625 1054.64 69.5 1055.78 69.5C1056.95 69.5 1058.05 69.5625 1059.03 69.7031V67.4062H1052.62V69.6875ZM1092.88 53.5938C1092.88 61.5469 1089.47 66.9375 1079.88 70L1078.34 66.9375C1082.42 65.625 1085.03 64 1086.61 62.0312L1078.91 62.6562L1078.34 59.5L1088.17 59.1562C1088.42 58.4219 1088.58 57.625 1088.67 56.8125H1079.78V53.5938H1092.88ZM1083.12 79.375V70.4062H1087.16V76.1875H1102.56V79.375H1083.12ZM1092.72 63.2812V60.0625H1097.88V51.4688H1101.84V72.4375H1097.88V63.2812H1092.72ZM1129.5 51.4375V65.9062H1125.53V58.8438H1120.19V55.6875H1125.53V51.4375H1129.5ZM1105.31 62.9688C1110.03 61.5781 1112.14 58.1094 1112.16 54.4375V52.375H1116.19V54.4375C1116.17 57.8281 1118.16 61.125 1122.69 62.4688L1120.59 65.5312C1117.55 64.5625 1115.42 62.6562 1114.19 60.2188C1112.94 62.9531 1110.7 65.0781 1107.38 66.125L1105.31 62.9688ZM1110.59 70.1562V67.0938H1129.5V74.6875H1114.56V76.4375H1130.31V79.5625H1110.62V71.7812H1125.56V70.1562H1110.59ZM1148.53 53.4062V56.5938H1138.75V58.8125H1147.69V61.9062H1138.75V64.1875C1143.77 64.1875 1146.94 64.125 1150.53 63.5312L1150.94 66.6562C1146.89 67.3125 1143.27 67.4062 1137.19 67.375H1134.75V53.4062H1148.53ZM1137.53 74.4688C1137.53 71.0625 1141.23 69.0781 1147.31 69.0625C1153.33 69.0781 1157.12 71.0625 1157.16 74.4688C1157.12 77.9062 1153.33 79.8906 1147.31 79.875C1141.23 79.8906 1137.53 77.9062 1137.53 74.4688ZM1141.5 74.4688C1141.5 76.0469 1143.5 76.8438 1147.31 76.8438C1151.08 76.8438 1153.16 76.0469 1153.16 74.4688C1153.16 72.9531 1151.08 72.1406 1147.31 72.1562C1143.5 72.1406 1141.5 72.9531 1141.5 74.4688ZM1153 68.6875V51.4688H1157V68.6875H1153Z" fill="black"/>
<path d="M1048.35 128.004C1047.14 128.004 1046.15 127.016 1046.15 125.791C1046.15 124.588 1047.14 123.6 1048.35 123.6C1049.57 123.6 1050.56 124.588 1050.56 125.791C1050.56 127.016 1049.57 128.004 1048.35 128.004ZM1080.89 115.672V117.09C1080.89 118.572 1080.89 120.312 1080.39 122.697H1083.19V124.094H1065.71V122.697H1078.69C1079.23 120.291 1079.23 118.572 1079.22 117.09V117.068H1067.92V115.672H1080.89ZM1067.85 133.482V126.736H1080.98V133.482H1067.85ZM1069.53 132.107H1079.3V128.068H1069.53V132.107ZM1102.12 123.6V124.975H1097.78V127.617C1099.2 128.187 1099.98 129.1 1099.99 130.324C1099.97 132.505 1097.51 133.719 1093.42 133.74C1089.27 133.719 1086.81 132.505 1086.82 130.324C1086.81 129.067 1087.63 128.144 1089.12 127.574V124.975H1084.72V123.6H1102.12ZM1086.65 118.615C1086.65 116.349 1089.23 115.027 1093.42 115.027C1097.58 115.027 1100.16 116.349 1100.17 118.615C1100.16 120.85 1097.58 122.149 1093.42 122.16C1089.23 122.149 1086.65 120.85 1086.65 118.615ZM1088.39 118.615C1088.38 120.012 1090.33 120.828 1093.42 120.828C1096.48 120.828 1098.44 120.012 1098.45 118.615C1098.44 117.197 1096.48 116.381 1093.42 116.381C1090.33 116.381 1088.38 117.197 1088.39 118.615ZM1088.54 130.324C1088.52 131.646 1090.36 132.397 1093.42 132.387C1096.45 132.397 1098.29 131.646 1098.3 130.324C1098.29 129.024 1096.45 128.262 1093.42 128.24C1090.36 128.262 1088.52 129.024 1088.54 130.324ZM1090.82 127.145C1091.59 127.016 1092.46 126.951 1093.42 126.951C1094.41 126.951 1095.3 127.026 1096.08 127.155V124.975H1090.82V127.145ZM1118.84 115.887V117.562C1118.84 119.367 1118.84 121.354 1118.29 124.094H1121.13V125.49H1113.25V133.783H1111.55V125.49H1103.73V124.094H1116.58C1117.16 121.344 1117.16 119.346 1117.16 117.562V117.283H1105.92V115.887H1118.84ZM1140.23 129.873V131.291H1122.75V129.873H1130.63V125.232H1132.33V129.873H1140.23ZM1123.61 124.545C1126.84 123.997 1130.59 121.322 1130.59 118.271V117.799H1124.19V116.381H1138.73V117.799H1132.33V118.271C1132.34 121.322 1136.1 123.943 1139.4 124.48L1138.71 125.812C1135.79 125.232 1132.7 123.374 1131.48 120.731C1130.25 123.406 1127.18 125.308 1124.31 125.898L1123.61 124.545ZM1156.58 114.641V122.783H1159.63V124.201H1156.58V133.74H1154.89V114.641H1156.58ZM1141.52 128.648C1143.08 128.648 1144.9 128.638 1146.79 128.584V126.479C1144.56 126.221 1143.11 124.91 1143.13 123.02C1143.11 120.86 1144.94 119.464 1147.65 119.475C1150.31 119.464 1152.17 120.86 1152.18 123.02C1152.17 124.921 1150.7 126.221 1148.48 126.479V128.52C1150.26 128.434 1152.06 128.283 1153.73 128.047L1153.83 129.336C1149.67 130.045 1145.15 130.088 1141.8 130.088L1141.52 128.648ZM1141.87 118.357V116.982H1146.79V114.684H1148.48V116.982H1153.38V118.357H1141.87ZM1144.7 123.02C1144.71 124.341 1145.87 125.211 1147.65 125.189C1149.39 125.211 1150.56 124.341 1150.57 123.02C1150.56 121.688 1149.39 120.785 1147.65 120.785C1145.87 120.785 1144.71 121.688 1144.7 123.02ZM1004.8 163.004C1003.59 163.004 1002.61 162.016 1002.61 160.791C1002.61 159.588 1003.59 158.6 1004.8 158.6C1006.02 158.6 1007.01 159.588 1007.01 160.791C1007.01 162.016 1006.02 163.004 1004.8 163.004ZM1037.95 149.641V159.566H1036.25V149.641H1037.95ZM1022.48 157.482C1023.24 157.482 1024.07 157.472 1024.93 157.461V152.305H1023.02V150.951H1033.35V152.305H1031.42V157.203C1032.4 157.128 1033.37 157.031 1034.29 156.924L1034.38 158.17C1030.56 158.739 1026.07 158.89 1022.69 158.879L1022.48 157.482ZM1025.44 161.844V160.49H1037.95V165.045H1027.16V167.15H1038.68V168.525H1025.51V163.777H1036.27V161.844H1025.44ZM1026.56 157.429C1027.61 157.396 1028.7 157.364 1029.78 157.3V152.305H1026.56V157.429ZM1050.75 151.424C1050.76 154.12 1054.26 156.44 1057.71 156.924L1057.03 158.299C1054.06 157.805 1051.12 156.161 1049.89 153.819C1048.67 156.183 1045.74 157.805 1042.76 158.299L1042.07 156.924C1045.52 156.44 1049.01 154.163 1049.01 151.424V150.328H1050.75V151.424ZM1041.17 161.822V160.404H1058.57V161.822H1050.67V168.74H1049.01V161.822H1041.17ZM1066.59 154.775C1066.59 158.138 1068.81 161.607 1071.53 162.939L1070.5 164.293C1068.39 163.197 1066.63 160.931 1065.78 158.277C1064.93 161.092 1063.13 163.509 1060.98 164.658L1059.9 163.305C1062.7 161.93 1064.91 158.267 1064.93 154.775V151.295H1066.59V154.775ZM1073.29 168.74V149.641H1074.96V157.396H1078.17V158.857H1074.96V168.74H1073.29ZM1084.46 150.543C1087.02 150.532 1088.97 152.025 1089.34 154.217H1093.33V149.641H1095.03V159.889H1093.33V155.613H1089.35C1089.02 157.869 1087.05 159.373 1084.46 159.373C1081.55 159.373 1079.49 157.568 1079.5 154.947C1079.49 152.358 1081.55 150.532 1084.46 150.543ZM1081.11 154.947C1081.11 156.688 1082.5 157.944 1084.46 157.955C1086.38 157.944 1087.77 156.688 1087.77 154.947C1087.77 153.186 1086.38 151.961 1084.46 151.982C1082.5 151.961 1081.11 153.186 1081.11 154.947ZM1082.72 168.482V160.855H1084.42V163.283H1093.33V160.855H1095.03V168.482H1082.72ZM1084.42 167.107H1093.33V164.637H1084.42V167.107ZM1113.96 149.641V168.783H1112.26V149.641H1113.96ZM1099.33 164.164V151.273H1101V156.322H1106.7V151.273H1108.35V164.164H1099.33ZM1101 162.746H1106.7V157.676H1101V162.746ZM1140.23 164.873V166.291H1122.75V164.873H1130.63V160.232H1132.33V164.873H1140.23ZM1123.61 159.545C1126.84 158.997 1130.59 156.322 1130.59 153.271V152.799H1124.19V151.381H1138.73V152.799H1132.33V153.271C1132.34 156.322 1136.1 158.943 1139.4 159.48L1138.71 160.812C1135.79 160.232 1132.7 158.374 1131.48 155.731C1130.25 158.406 1127.18 160.308 1124.31 160.898L1123.61 159.545ZM1151.13 150.758V152.133H1144.29V157.16C1148.04 157.182 1150.3 157.042 1152.91 156.516L1153.12 157.869C1150.39 158.449 1148.05 158.557 1144.12 158.535H1142.64V150.758H1151.13ZM1144.51 161.607V160.232H1156.69V164.938H1146.21V167.107H1157.4V168.482H1144.55V163.605H1155.02V161.607H1144.51ZM1155.02 159.287V149.641H1156.69V153.701H1159.57V155.098H1156.69V159.287H1155.02ZM955.727 198.004C954.523 198.004 953.535 197.016 953.535 195.791C953.535 194.588 954.523 193.6 955.727 193.6C956.951 193.6 957.939 194.588 957.939 195.791C957.939 197.016 956.951 198.004 955.727 198.004ZM988.855 184.662V198.67H987.18V184.662H988.855ZM973.279 194.588C976.169 193.46 978.135 190.667 978.135 187.648V185.736H979.854V187.648C979.832 190.56 981.819 193.17 984.666 194.201L983.785 195.555C981.572 194.706 979.854 192.987 979.005 190.785C978.178 193.127 976.438 195.007 974.203 195.898L973.279 194.588ZM976.523 203.332V197.381H978.199V201.914H989.457V203.332H976.523ZM1001.79 185.951V187.348H994.678V189.84H1001.42V191.172H994.678V193.814C998.405 193.814 1000.52 193.707 1003.04 193.256L1003.23 194.652C1000.6 195.104 998.395 195.189 994.441 195.168H993.002V185.951H1001.79ZM994.527 198.541V197.166H1007.03V203.74H1005.36V198.541H994.527ZM1005.36 196.221V184.641H1007.03V189.732H1009.91V191.172H1007.03V196.221H1005.36ZM1017.52 189.775C1017.52 193.138 1019.74 196.607 1022.46 197.939L1021.43 199.293C1019.32 198.197 1017.56 195.931 1016.71 193.277C1015.86 196.092 1014.06 198.509 1011.91 199.658L1010.83 198.305C1013.63 196.93 1015.84 193.267 1015.86 189.775V186.295H1017.52V189.775ZM1024.22 203.74V184.641H1025.89V192.396H1029.1V193.857H1025.89V203.74H1024.22ZM1045.62 185.887V193.664H1036.66V185.887H1045.62ZM1038.03 202.365C1041.32 202 1044.48 200.142 1044.48 198.24H1038.83V196.93H1044.5V195.061H1046.18V196.93H1051.89V198.24H1046.22C1046.21 200.099 1049.28 201.957 1052.56 202.365L1051.98 203.676C1049.11 203.278 1046.49 201.925 1045.35 200.163C1044.2 201.968 1041.51 203.278 1038.63 203.676L1038.03 202.365ZM1038.31 192.332H1043.96V187.262H1038.31V192.332ZM1049.74 195.619V184.641H1051.4V195.619H1049.74ZM1075.37 185.672V187.09C1075.37 188.572 1075.37 190.312 1074.87 192.697H1077.67V194.094H1060.18V192.697H1073.17C1073.71 190.291 1073.71 188.572 1073.7 187.09V187.068H1062.4V185.672H1075.37ZM1062.33 203.482V196.736H1075.46V203.482H1062.33ZM1064.01 202.107H1073.78V198.068H1064.01V202.107ZM1096.6 193.6V194.975H1092.26V197.617C1093.68 198.187 1094.46 199.1 1094.47 200.324C1094.45 202.505 1091.99 203.719 1087.9 203.74C1083.75 203.719 1081.29 202.505 1081.3 200.324C1081.29 199.067 1082.11 198.144 1083.6 197.574V194.975H1079.2V193.6H1096.6ZM1081.13 188.615C1081.13 186.349 1083.71 185.027 1087.9 185.027C1092.06 185.027 1094.63 186.349 1094.64 188.615C1094.63 190.85 1092.06 192.149 1087.9 192.16C1083.71 192.149 1081.13 190.85 1081.13 188.615ZM1082.87 188.615C1082.86 190.012 1084.8 190.828 1087.9 190.828C1090.96 190.828 1092.92 190.012 1092.93 188.615C1092.92 187.197 1090.96 186.381 1087.9 186.381C1084.8 186.381 1082.86 187.197 1082.87 188.615ZM1083.02 200.324C1083 201.646 1084.84 202.397 1087.9 202.387C1090.93 202.397 1092.76 201.646 1092.78 200.324C1092.76 199.024 1090.93 198.262 1087.9 198.24C1084.84 198.262 1083 199.024 1083.02 200.324ZM1085.3 197.145C1086.07 197.016 1086.94 196.951 1087.9 196.951C1088.89 196.951 1089.78 197.026 1090.56 197.155V194.975H1085.3V197.145ZM1104.61 189.775C1104.61 193.138 1106.84 196.607 1109.55 197.939L1108.52 199.293C1106.42 198.197 1104.66 195.931 1103.81 193.277C1102.96 196.092 1101.15 198.509 1099.01 199.658L1097.93 198.305C1100.72 196.93 1102.94 193.267 1102.96 189.775V186.295H1104.61V189.775ZM1111.32 203.74V184.641H1112.99V192.396H1116.19V193.857H1112.99V203.74H1111.32ZM1129.28 188.25C1129.28 190.914 1131.21 193.428 1134 194.438L1133.06 195.748C1130.96 194.921 1129.29 193.267 1128.47 191.183C1127.67 193.492 1125.93 195.318 1123.67 196.221L1122.77 194.846C1125.64 193.793 1127.61 191.118 1127.62 188.186V185.822H1129.28V188.25ZM1126.23 203.332V197.338H1127.92V201.914H1139.01V203.332H1126.23ZM1132.63 190.57V189.152H1136.88V184.662H1138.58V198.971H1136.88V190.57H1132.63ZM1157.59 184.641V196.027H1155.9V191.021H1152.05V189.625H1155.9V184.641H1157.59ZM1141.85 194.502C1144.68 193.481 1146.7 190.893 1146.7 188.164V187.455H1142.38V186.037H1152.67V187.455H1148.4V188.143C1148.4 190.635 1150.31 193.009 1153.1 193.965L1152.22 195.318C1150.08 194.545 1148.42 192.934 1147.59 190.968C1146.78 193.202 1145 194.985 1142.73 195.855L1141.85 194.502ZM1144.85 200.174C1144.84 197.929 1147.28 196.618 1151.26 196.629C1155.22 196.618 1157.66 197.929 1157.66 200.174C1157.66 202.43 1155.22 203.719 1151.26 203.74C1147.28 203.719 1144.84 202.43 1144.85 200.174ZM1146.53 200.174C1146.52 201.56 1148.32 202.397 1151.26 202.387C1154.18 202.397 1155.98 201.56 1155.98 200.174C1155.98 198.777 1154.18 197.939 1151.26 197.939C1148.32 197.939 1146.52 198.777 1146.53 200.174Z" fill="black"/>
<rect x="620" y="327" width="580" height="287" rx="20" fill="#2779F4"/>
<path d="M870.031 389.25C869.656 386.75 867.734 385.234 865.094 385.219C861.578 385.234 859.25 387.922 859.25 392.688C859.25 397.562 861.609 400.141 865.062 400.156C867.641 400.141 869.578 398.734 870.031 396.281L874.781 396.312C874.266 400.5 870.75 404.312 865 404.312C858.953 404.312 854.469 400.047 854.469 392.688C854.469 385.297 859.031 381.062 865 381.062C870.219 381.062 874.156 384.047 874.781 389.25H870.031ZM878.062 381.375H883.875L890.156 396.719H890.406L896.688 381.375H902.5V404H897.938V389.188H897.75L891.844 403.906H888.719L882.812 389.125H882.625V404H878.062V381.375Z" fill="white"/>
<path d="M932.211 389.812C931.801 387.859 930.131 386.805 928.266 386.805C925.707 386.805 923.725 388.777 923.715 392.43C923.725 396.072 925.707 398.045 928.266 398.055C930.131 398.045 931.791 397 932.211 395.066H933.969C933.461 397.957 931.137 399.695 928.266 399.695C924.633 399.695 922.006 396.902 922.016 392.43C922.006 387.957 924.633 385.164 928.266 385.164C931.127 385.164 933.441 386.873 933.969 389.812H932.211ZM940.551 399.715C937.66 399.725 935.707 397.537 935.707 394.246C935.707 390.936 937.66 388.758 940.551 388.758C943.432 388.758 945.365 390.936 945.355 394.246C945.365 397.537 943.432 399.725 940.551 399.715ZM937.387 394.246C937.396 396.365 938.393 398.23 940.551 398.23C942.689 398.23 943.676 396.365 943.676 394.246C943.676 392.137 942.689 390.242 940.551 390.242C938.393 390.242 937.396 392.137 937.387 394.246ZM949.242 393.133V399.5H947.562V388.895H949.184V390.555H949.32C949.818 389.471 950.814 388.758 952.426 388.758C954.574 388.758 956.01 390.066 956 392.762V399.5H954.32V392.879C954.32 391.238 953.422 390.262 951.918 390.262C950.375 390.262 949.242 391.297 949.242 393.133ZM964.594 391.648C964.359 390.77 963.686 390.193 962.445 390.184C961.137 390.193 960.209 390.896 960.199 391.785C960.209 392.488 960.775 392.967 962.016 393.27L963.598 393.66C965.492 394.109 966.42 395.057 966.43 396.531C966.42 398.367 964.926 399.725 962.27 399.715C959.887 399.725 958.471 398.66 958.188 396.727H959.945C960.141 397.762 960.893 398.26 962.23 398.25C963.744 398.26 964.691 397.625 964.691 396.629C964.691 395.877 964.154 395.389 962.953 395.105L961.352 394.734C959.506 394.305 958.52 393.299 958.52 391.883C958.52 390.066 960.111 388.758 962.445 388.758C964.643 388.758 966.02 389.93 966.234 391.648H964.594ZM973.246 388.895V390.301H971.02V396.453C971.01 397.811 971.693 398.035 972.406 398.035C972.709 398.035 973.158 398.006 973.402 397.996V399.559C973.139 399.598 972.729 399.637 972.23 399.637C970.814 399.637 969.33 398.758 969.32 396.883V390.301H967.719V388.895H969.32V386.355H971.02V388.895H973.246ZM975.414 399.5V388.895H977.035V390.516H977.152C977.533 389.441 978.637 388.729 979.887 388.719C980.141 388.729 980.57 388.738 980.766 388.758V390.457C980.639 390.428 980.189 390.34 979.75 390.34C978.227 390.34 977.094 391.395 977.094 392.82V399.5H975.414ZM989.105 395.145V388.895H990.766V399.5H989.105V397.703H988.988C988.49 398.777 987.436 399.637 985.844 399.637C983.832 399.637 982.396 398.328 982.406 395.633V388.895H984.086V395.516C984.086 397.039 985.033 398.025 986.391 398.016C987.592 398.025 989.096 397.127 989.105 395.145ZM997.797 399.715C994.789 399.725 992.953 397.43 992.953 394.246C992.953 391.023 994.877 388.758 997.758 388.758C1000.01 388.758 1001.71 390.096 1001.98 392.098H1000.3C1000.05 391.131 999.213 390.242 997.797 390.242C995.902 390.242 994.643 391.805 994.633 394.188C994.643 396.639 995.873 398.211 997.797 398.211C999.047 398.211 1000 397.537 1000.3 396.375H1001.98C1001.71 398.27 1000.15 399.725 997.797 399.715ZM1008.68 388.895V390.301H1006.45V396.453C1006.44 397.811 1007.12 398.035 1007.84 398.035C1008.14 398.035 1008.59 398.006 1008.83 397.996V399.559C1008.57 399.598 1008.16 399.637 1007.66 399.637C1006.24 399.637 1004.76 398.758 1004.75 396.883V390.301H1003.15V388.895H1004.75V386.355H1006.45V388.895H1008.68ZM1010.84 399.5V388.895H1012.52V399.5H1010.84ZM1010.51 386.023C1010.5 385.398 1011.04 384.9 1011.68 384.91C1012.33 384.9 1012.87 385.398 1012.88 386.023C1012.87 386.639 1012.33 387.137 1011.68 387.137C1011.04 387.137 1010.5 386.639 1010.51 386.023ZM1019.54 399.715C1016.64 399.725 1014.69 397.537 1014.69 394.246C1014.69 390.936 1016.64 388.758 1019.54 388.758C1022.42 388.758 1024.35 390.936 1024.34 394.246C1024.35 397.537 1022.42 399.725 1019.54 399.715ZM1016.37 394.246C1016.38 396.365 1017.38 398.23 1019.54 398.23C1021.67 398.23 1022.66 396.365 1022.66 394.246C1022.66 392.137 1021.67 390.242 1019.54 390.242C1017.38 390.242 1016.38 392.137 1016.37 394.246ZM1028.23 393.133V399.5H1026.55V388.895H1028.17V390.555H1028.3C1028.8 389.471 1029.8 388.758 1031.41 388.758C1033.56 388.758 1034.99 390.066 1034.98 392.762V399.5H1033.3V392.879C1033.3 391.238 1032.41 390.262 1030.9 390.262C1029.36 390.262 1028.23 391.297 1028.23 393.133ZM1042.91 385.359H1045.02L1049.79 397H1049.96L1054.73 385.359H1056.84V399.5H1055.18V388.816H1055.04L1050.65 399.5H1049.09L1044.69 388.816H1044.57V399.5H1042.91V385.359ZM1059.24 396.492C1059.24 394.061 1061.39 393.504 1063.23 393.367C1063.91 393.318 1065.62 393.221 1066.1 393.211V392.352C1066.1 391.004 1065.3 390.223 1063.7 390.223C1062.36 390.223 1061.55 390.838 1061.31 391.648H1059.55C1059.77 389.939 1061.43 388.758 1063.77 388.758C1065.16 388.758 1067.77 389.168 1067.76 392.508V399.5H1066.1V398.055H1066.02C1065.67 398.768 1064.7 399.744 1062.86 399.754C1060.84 399.744 1059.24 398.562 1059.24 396.492ZM1060.92 396.57C1060.93 397.693 1061.86 398.26 1063.15 398.25C1065.04 398.26 1066.1 396.99 1066.1 395.652V394.588C1065.6 394.617 1063.93 394.744 1063.42 394.773C1061.9 394.871 1060.93 395.408 1060.92 396.57ZM1072.13 393.133V399.5H1070.45V388.895H1072.07V390.555H1072.21C1072.71 389.471 1073.71 388.758 1075.32 388.758C1077.46 388.758 1078.9 390.066 1078.89 392.762V399.5H1077.21V392.879C1077.21 391.238 1076.31 390.262 1074.81 390.262C1073.27 390.262 1072.13 391.297 1072.13 393.133ZM1081.08 396.492C1081.08 394.061 1083.23 393.504 1085.06 393.367C1085.75 393.318 1087.46 393.221 1087.93 393.211V392.352C1087.93 391.004 1087.13 390.223 1085.53 390.223C1084.19 390.223 1083.38 390.838 1083.15 391.648H1081.39C1081.61 389.939 1083.27 388.758 1085.61 388.758C1087 388.758 1089.6 389.168 1089.59 392.508V399.5H1087.93V398.055H1087.86C1087.5 398.768 1086.54 399.744 1084.69 399.754C1082.68 399.744 1081.08 398.562 1081.08 396.492ZM1082.76 396.57C1082.77 397.693 1083.7 398.26 1084.98 398.25C1086.88 398.26 1087.93 396.99 1087.93 395.652V394.588C1087.44 394.617 1085.77 394.744 1085.26 394.773C1083.73 394.871 1082.77 395.408 1082.76 396.57ZM1096.59 403.699C1094.02 403.699 1092.28 402.576 1092.09 400.613H1093.85C1094.08 401.697 1095.08 402.234 1096.59 402.234C1098.4 402.234 1099.52 401.443 1099.52 399.695V397.547H1099.38C1099.02 398.133 1098.34 399.334 1096.29 399.344C1093.71 399.334 1091.78 397.391 1091.78 394.051C1091.78 390.789 1093.65 388.758 1096.31 388.758C1098.37 388.758 1099.04 390.008 1099.42 390.574H1099.55V388.895H1101.2V399.793C1101.19 402.527 1099.17 403.699 1096.59 403.699ZM1093.48 394.109C1093.48 396.307 1094.52 397.84 1096.53 397.84C1098.47 397.84 1099.54 396.443 1099.55 394.109C1099.54 391.834 1098.5 390.262 1096.53 390.262C1094.49 390.262 1093.48 391.971 1093.48 394.109ZM1108.32 399.715C1105.26 399.725 1103.36 397.537 1103.36 394.285C1103.36 391.023 1105.29 388.758 1108.17 388.758C1110.39 388.758 1112.75 390.125 1112.74 394.051V394.754H1105.04C1105.13 397 1106.44 398.23 1108.32 398.23C1109.59 398.23 1110.39 397.674 1110.79 397.02H1112.58C1112.08 398.631 1110.51 399.725 1108.32 399.715ZM1105.05 393.328H1111.04C1111.03 391.561 1109.92 390.242 1108.17 390.242C1106.33 390.242 1105.17 391.688 1105.05 393.328ZM1114.93 399.5V388.895H1116.55V390.555H1116.68C1117.12 389.422 1118.15 388.758 1119.54 388.758C1120.92 388.758 1121.87 389.422 1122.37 390.555H1122.48C1123.02 389.461 1124.14 388.758 1125.67 388.758C1127.55 388.758 1128.91 389.91 1128.91 392.41V399.5H1127.23V392.43C1127.22 390.867 1126.24 390.262 1125.08 390.262C1123.61 390.262 1122.77 391.258 1122.76 392.605V399.5H1121.06V392.254C1121.07 391.062 1120.21 390.262 1118.99 390.262C1117.72 390.262 1116.61 391.336 1116.61 392.879V399.5H1114.93ZM1136.06 399.715C1132.99 399.725 1131.1 397.537 1131.1 394.285C1131.1 391.023 1133.02 388.758 1135.9 388.758C1138.13 388.758 1140.48 390.125 1140.47 394.051V394.754H1132.78C1132.87 397 1134.17 398.23 1136.06 398.23C1137.33 398.23 1138.13 397.674 1138.52 397.02H1140.32C1139.82 398.631 1138.25 399.725 1136.06 399.715ZM1132.79 393.328H1138.77C1138.76 391.561 1137.65 390.242 1135.9 390.242C1134.07 390.242 1132.9 391.688 1132.79 393.328ZM1144.34 393.133V399.5H1142.66V388.895H1144.28V390.555H1144.42C1144.92 389.471 1145.91 388.758 1147.52 388.758C1149.67 388.758 1151.11 390.066 1151.1 392.762V399.5H1149.42V392.879C1149.42 391.238 1148.52 390.262 1147.02 390.262C1145.47 390.262 1144.34 391.297 1144.34 393.133ZM1158.42 388.895V390.301H1156.2V396.453C1156.19 397.811 1156.87 398.035 1157.58 398.035C1157.88 398.035 1158.33 398.006 1158.58 397.996V399.559C1158.31 399.598 1157.9 399.637 1157.41 399.637C1155.99 399.637 1154.51 398.758 1154.5 396.883V390.301H1152.89V388.895H1154.5V386.355H1156.2V388.895H1158.42Z" fill="#F2F4F8"/>
<path d="M887.643 455.004C886.439 455.004 885.451 454.016 885.451 452.791C885.451 451.588 886.439 450.6 887.643 450.6C888.867 450.6 889.855 451.588 889.855 452.791C889.855 454.016 888.867 455.004 887.643 455.004ZM911.791 446.775C911.78 450.267 914.154 453.769 916.969 455.047L915.938 456.379C913.757 455.326 911.877 453.06 910.964 450.342C910.083 453.221 908.203 455.638 905.969 456.766L904.895 455.348C907.741 454.048 910.094 450.396 910.115 446.775V443.295H911.791V446.775ZM919.053 460.783V441.641H920.75V460.783H919.053ZM932.652 453.715C936.745 453.715 939.345 455.004 939.355 457.217C939.345 459.408 936.745 460.697 932.652 460.697C928.56 460.697 925.96 459.408 925.971 457.217C925.96 455.004 928.56 453.715 932.652 453.715ZM924.037 451.932V450.557H931.234V446.861H932.889V450.557H941.418V451.932H924.037ZM926.1 444.004V442.629H939.205V444.24C939.194 445.787 939.194 447.334 938.668 449.311L937.014 449.117C937.529 447.151 937.529 445.733 937.529 444.24V444.004H926.1ZM927.646 457.217C927.636 458.549 929.612 459.365 932.652 459.365C935.703 459.365 937.658 458.549 937.68 457.217C937.658 455.853 935.703 455.015 932.652 455.004C929.612 455.015 927.636 455.853 927.646 457.217ZM949.432 446.775C949.432 450.138 951.655 453.607 954.373 454.939L953.342 456.293C951.236 455.197 949.475 452.931 948.626 450.277C947.777 453.092 945.973 455.509 943.824 456.658L942.75 455.305C945.543 453.93 947.756 450.267 947.777 446.775V443.295H949.432V446.775ZM956.135 460.74V441.641H957.811V449.396H961.012V450.857H957.811V460.74H956.135ZM974.096 445.25C974.096 447.914 976.029 450.428 978.822 451.438L977.877 452.748C975.782 451.921 974.106 450.267 973.29 448.183C972.484 450.492 970.744 452.318 968.488 453.221L967.586 451.846C970.454 450.793 972.431 448.118 972.441 445.186V442.822H974.096V445.25ZM971.045 460.332V454.338H972.742V458.914H983.828V460.332H971.045ZM977.447 447.57V446.152H981.701V441.662H983.398V455.971H981.701V447.57H977.447ZM1002.41 441.641V453.027H1000.71V448.021H996.869V446.625H1000.71V441.641H1002.41ZM986.664 451.502C989.5 450.481 991.52 447.893 991.52 445.164V444.455H987.201V443.037H997.492V444.455H993.217V445.143C993.217 447.635 995.129 450.009 997.922 450.965L997.041 452.318C994.903 451.545 993.238 449.934 992.411 447.968C991.595 450.202 989.822 451.985 987.545 452.855L986.664 451.502ZM989.672 457.174C989.661 454.929 992.1 453.618 996.074 453.629C1000.04 453.618 1002.48 454.929 1002.48 457.174C1002.48 459.43 1000.04 460.719 996.074 460.74C992.1 460.719 989.661 459.43 989.672 457.174ZM991.348 457.174C991.337 458.56 993.142 459.397 996.074 459.387C998.996 459.397 1000.8 458.56 1000.8 457.174C1000.8 455.777 998.996 454.939 996.074 454.939C993.142 454.939 991.337 455.777 991.348 457.174ZM1021.08 442.887V450.664H1012.12V442.887H1021.08ZM1013.5 459.365C1016.79 459 1019.94 457.142 1019.94 455.24H1014.29V453.93H1019.96V452.061H1021.64V453.93H1027.36V455.24H1021.68C1021.67 457.099 1024.75 458.957 1028.02 459.365L1027.44 460.676C1024.57 460.278 1021.95 458.925 1020.81 457.163C1019.66 458.968 1016.98 460.278 1014.1 460.676L1013.5 459.365ZM1013.78 449.332H1019.43V444.262H1013.78V449.332ZM1025.21 452.619V441.641H1026.86V452.619H1025.21ZM1052 441.641V460.74H1050.39V441.641H1052ZM1035.63 455.391C1039.78 452.931 1041.87 449.482 1042.2 445.486H1036.49V444.09H1043.88C1043.88 445.067 1043.79 446.034 1043.62 446.969H1046.52V442.156H1048.13V459.773H1046.52V453.156H1042.97V451.76H1046.52V448.365H1043.29C1042.36 451.599 1040.27 454.456 1036.66 456.615L1035.63 455.391ZM1072.43 444.605V445.98H1069.59V448.666H1072.43V450.105H1069.59V453.006H1067.92V441.641H1069.59V444.605H1072.43ZM1055.03 447.291C1055.02 444.638 1057.14 442.79 1060.03 442.801C1062.94 442.79 1065.04 444.638 1065.06 447.291C1065.04 449.977 1062.94 451.813 1060.03 451.824C1057.14 451.813 1055.02 449.977 1055.03 447.291ZM1056.68 447.291C1056.67 449.128 1058.1 450.385 1060.03 450.363C1061.99 450.385 1063.4 449.128 1063.41 447.291C1063.4 445.497 1061.99 444.251 1060.03 444.24C1058.1 444.251 1056.67 445.497 1056.68 447.291ZM1057.09 455.283V453.887H1069.59V460.74H1067.92V455.283H1057.09ZM1084.78 447.527C1084.79 450.6 1086.35 453.747 1088.95 455.133L1087.98 456.4C1086.08 455.358 1084.71 453.382 1084.01 451.083C1083.33 453.532 1081.97 455.681 1080.06 456.83L1079.05 455.541C1081.65 454.037 1083.18 450.686 1083.19 447.527V446.582H1079.56V445.186H1083.19V442.35H1084.8V445.186H1088.37V446.582H1084.78V447.527ZM1087.06 450.621V449.182H1090.07V442.113H1091.66V459.752H1090.07V450.621H1087.06ZM1093.91 460.74V441.641H1095.53V460.74H1093.91ZM1114.04 441.641V451.416H1112.35V449.418H1107.26V448.086H1112.35V445.787H1107.54C1106.34 448.795 1103.38 450.825 1099.13 451.846L1098.53 450.449C1103.22 449.364 1105.93 447.087 1106.26 444.004H1099.5V442.607H1108.12C1108.12 443.241 1108.05 443.854 1107.93 444.434H1112.35V441.641H1114.04ZM1101.67 453.65V452.275H1114.04V456.938H1103.39V459.172H1114.69V460.568H1101.71V455.648H1112.35V453.65H1101.67ZM1128.01 442.543C1130.57 442.532 1132.52 444.025 1132.89 446.217H1136.88V441.641H1138.58V451.889H1136.88V447.613H1132.9C1132.56 449.869 1130.6 451.373 1128.01 451.373C1125.1 451.373 1123.04 449.568 1123.05 446.947C1123.04 444.358 1125.1 442.532 1128.01 442.543ZM1124.66 446.947C1124.66 448.688 1126.04 449.944 1128.01 449.955C1129.93 449.944 1131.32 448.688 1131.32 446.947C1131.32 445.186 1129.93 443.961 1128.01 443.982C1126.04 443.961 1124.66 445.186 1124.66 446.947ZM1126.27 460.482V452.855H1127.97V455.283H1136.88V452.855H1138.58V460.482H1126.27ZM1127.97 459.107H1136.88V456.637H1127.97V459.107ZM1159.23 452.748V454.145H1151.26V460.74H1149.6V454.145H1141.74V452.748H1159.23ZM1143.99 450.148V442.715H1156.95V450.148H1143.99ZM1145.65 448.816H1155.27V444.09H1145.65V448.816ZM893.164 490.004C891.961 490.004 890.973 489.016 890.973 487.791C890.973 486.588 891.961 485.6 893.164 485.6C894.389 485.6 895.377 486.588 895.377 487.791C895.377 489.016 894.389 490.004 893.164 490.004ZM917.764 486.717V490.24C919.611 490.144 921.48 489.993 923.242 489.725L923.371 490.971C918.999 491.766 914.305 491.798 910.867 491.787L910.631 490.391C912.231 490.38 914.122 490.369 916.109 490.305V486.717H917.764ZM911.211 486.051C914.036 485.213 916.023 483.118 916.066 480.551H911.684V479.154H916.109V476.791H917.764V479.154H922.254V480.551H917.764C917.817 483.011 919.858 485.03 922.684 485.836L921.889 487.168C919.601 486.48 917.796 485.009 916.937 483.075C916.109 485.116 914.326 486.642 912.027 487.34L911.211 486.051ZM924.51 495.783V476.641H926.186V495.783H924.51ZM936.176 480.164C936.176 482.646 938.088 485.02 940.881 485.986L940 487.318C937.852 486.545 936.187 484.944 935.37 482.979C934.543 485.17 932.771 486.932 930.504 487.77L929.623 486.438C932.438 485.428 934.479 482.882 934.479 480.186V479.348H930.16V477.973H940.451V479.348H936.176V480.164ZM932.523 490.498V489.102H945.371V495.74H943.674V490.498H932.523ZM939.85 483.064V481.646H943.674V476.641H945.371V488.092H943.674V483.064H939.85ZM969.906 476.662V490.777H968.209V483.967H963.977V482.549H968.209V476.662H969.906ZM954.373 487.189C958.767 485.739 961.828 482.989 962.215 479.541H955.34V478.123H964.062C964.041 483.032 960.528 486.771 955.104 488.543L954.373 487.189ZM957.746 495.332V489.338H959.465V493.914H970.4V495.332H957.746ZM990.488 486.266V487.641H982.604V489.832H988.34V495.676H986.643V491.207H975.02V489.832H980.949V487.641H973.086V486.266H990.488ZM974.117 483.902C977.694 483.548 980.724 482.065 980.863 479.885H974.891V478.531H980.949V476.555H982.604V478.531H988.727V479.885H982.711C982.829 482.065 985.848 483.548 989.457 483.902L988.898 485.191C985.751 484.858 982.937 483.709 981.787 481.765C980.616 483.709 977.802 484.858 974.676 485.191L974.117 483.902ZM1007.93 476.641V486.523H1006.24V481.561H1001.98V480.164H1006.24V476.641H1007.93ZM992.078 485.213C994.957 484.257 996.934 481.861 996.955 479.068V477.264H998.609V479.068C998.588 481.571 1000.56 483.87 1003.36 484.783L1002.46 486.094C1000.34 485.342 998.652 483.838 997.804 481.904C996.987 484.085 995.258 485.75 993.002 486.566L992.078 485.213ZM995.559 488.844V487.49H1007.93V492.045H997.256V494.129H1008.64V495.482H995.602V490.756H1006.26V488.844H995.559ZM1027.46 476.641V495.74H1025.85V476.641H1027.46ZM1011.09 490.391C1015.25 487.931 1017.33 484.482 1017.67 480.486H1011.95V479.09H1019.34C1019.34 480.067 1019.26 481.034 1019.08 481.969H1021.98V477.156H1023.6V494.773H1021.98V488.156H1018.44V486.76H1021.98V483.365H1018.75C1017.83 486.599 1015.73 489.456 1012.12 491.615L1011.09 490.391ZM1042.12 482.506C1042.09 485.567 1044.31 488.94 1047.08 490.262L1046.11 491.594C1043.96 490.541 1042.15 488.285 1041.29 485.696C1040.41 488.5 1038.5 490.971 1036.36 492.066L1035.33 490.734C1038.08 489.392 1040.44 485.761 1040.46 482.506V480.014H1036.01V478.617H1046.41V480.014H1042.12V482.506ZM1048.75 495.74V476.641H1050.43V484.375H1053.63V485.814H1050.43V495.74H1048.75ZM1072.13 486.416V487.812H1064.35V491.723H1062.68V487.812H1054.64V486.416H1072.13ZM1056.88 495.332V489.832H1058.57V493.914H1070.17V495.332H1056.88ZM1056.92 484.225V477.586H1069.85V484.225H1056.92ZM1058.57 482.871H1068.18V478.918H1058.57V482.871ZM1089.17 477.887V485.664H1080.21V477.887H1089.17ZM1081.58 494.365C1084.87 494 1088.03 492.142 1088.03 490.24H1082.38V488.93H1088.05V487.061H1089.72V488.93H1095.44V490.24H1089.77C1089.76 492.099 1092.83 493.957 1096.11 494.365L1095.53 495.676C1092.66 495.278 1090.04 493.925 1088.9 492.163C1087.75 493.968 1085.06 495.278 1082.18 495.676L1081.58 494.365ZM1081.86 484.332H1087.51V479.262H1081.86V484.332ZM1093.29 487.619V476.641H1094.95V487.619H1093.29ZM1110.97 486.717V490.24C1112.82 490.144 1114.69 489.993 1116.45 489.725L1116.58 490.971C1112.21 491.766 1107.51 491.798 1104.08 491.787L1103.84 490.391C1105.44 490.38 1107.33 490.369 1109.32 490.305V486.717H1110.97ZM1104.42 486.051C1107.25 485.213 1109.23 483.118 1109.28 480.551H1104.89V479.154H1109.32V476.791H1110.97V479.154H1115.46V480.551H1110.97C1111.03 483.011 1113.07 485.03 1115.89 485.836L1115.1 487.168C1112.81 486.48 1111 485.009 1110.15 483.075C1109.32 485.116 1107.54 486.642 1105.24 487.34L1104.42 486.051ZM1117.72 495.783V476.641H1119.39V495.783H1117.72ZM1140.21 487.533V488.93H1135.59V495.74H1133.9V488.93H1129V495.74H1127.26V488.93H1122.72V487.533H1140.21ZM1124.7 481.582C1124.71 479.036 1127.41 477.425 1131.43 477.414C1135.43 477.425 1138.15 479.036 1138.15 481.582C1138.15 484.128 1135.43 485.718 1131.43 485.707C1127.41 485.718 1124.71 484.128 1124.7 481.582ZM1126.44 481.582C1126.42 483.269 1128.45 484.354 1131.43 484.354C1134.4 484.354 1136.42 483.269 1136.43 481.582C1136.42 479.885 1134.4 478.789 1131.43 478.789C1128.45 478.789 1126.42 479.885 1126.44 481.582ZM1158.26 479.498V480.895H1142.62V479.498H1149.62V476.963H1151.28V479.498H1158.26ZM1141.76 493.549V492.152H1146.38V488.618C1144.96 488.017 1144.18 487.028 1144.19 485.729C1144.17 483.451 1146.56 482.13 1150.46 482.141C1154.33 482.13 1156.75 483.451 1156.73 485.729C1156.75 487.028 1155.94 488.017 1154.52 488.618V492.152H1159.25V493.549H1141.76ZM1145.88 485.729C1145.86 487.114 1147.61 487.952 1150.46 487.963C1153.28 487.952 1155.03 487.114 1155.02 485.729C1155.03 484.311 1153.28 483.473 1150.46 483.473C1147.61 483.473 1145.86 484.311 1145.88 485.729ZM1148.08 492.152H1152.87V489.091C1152.15 489.23 1151.34 489.295 1150.46 489.295C1149.59 489.295 1148.79 489.23 1148.08 489.102V492.152ZM980.262 525.004C979.059 525.004 978.07 524.016 978.07 522.791C978.07 521.588 979.059 520.6 980.262 520.6C981.486 520.6 982.475 521.588 982.475 522.791C982.475 524.016 981.486 525.004 980.262 525.004ZM1013.37 511.641V530.783H1011.67V511.641H1013.37ZM998.33 519.783C998.341 515.723 1000.36 513.134 1003.21 513.123C1006.04 513.134 1008.09 515.723 1008.08 519.783C1008.09 523.854 1006.04 526.433 1003.21 526.422C1000.36 526.433 998.341 523.854 998.33 519.783ZM999.963 519.783C999.963 522.888 1001.29 524.929 1003.21 524.918C1005.13 524.929 1006.45 522.888 1006.45 519.783C1006.45 516.679 1005.13 514.638 1003.21 514.627C1001.29 514.638 999.963 516.679 999.963 519.783ZM1034.04 521.094V522.49H1016.63V521.094H1020.95V518.397C1019.43 517.807 1018.57 516.84 1018.57 515.551C1018.57 513.306 1021.15 512.017 1025.34 512.006C1029.49 512.017 1032.07 513.306 1032.08 515.551C1032.07 516.829 1031.22 517.796 1029.72 518.397V521.094H1034.04ZM1018.74 527.324C1018.73 525.144 1021.19 523.94 1025.34 523.951C1029.43 523.94 1031.89 525.144 1031.91 527.324C1031.89 529.505 1029.43 530.697 1025.34 530.697C1021.19 530.697 1018.73 529.505 1018.74 527.324ZM1020.31 515.551C1020.3 516.947 1022.21 517.753 1025.34 517.764C1028.43 517.753 1030.35 516.947 1030.36 515.551C1030.35 514.176 1028.43 513.338 1025.34 513.338C1022.21 513.338 1020.3 514.176 1020.31 515.551ZM1020.46 527.324C1020.44 528.624 1022.27 529.397 1025.34 529.387C1028.37 529.397 1030.2 528.624 1030.21 527.324C1030.2 526.024 1028.37 525.262 1025.34 525.24C1022.27 525.262 1020.44 526.024 1020.46 527.324ZM1022.63 521.094H1028.04V518.849C1027.24 518.999 1026.33 519.074 1025.34 519.074C1024.34 519.074 1023.43 518.999 1022.63 518.859V521.094ZM1052 511.641V530.74H1050.39V511.641H1052ZM1035.63 525.391C1039.78 522.931 1041.87 519.482 1042.2 515.486H1036.49V514.09H1043.88C1043.88 515.067 1043.79 516.034 1043.62 516.969H1046.52V512.156H1048.13V529.773H1046.52V523.156H1042.97V521.76H1046.52V518.365H1043.29C1042.36 521.599 1040.27 524.456 1036.66 526.615L1035.63 525.391ZM1066.67 513.402V514.691H1055.39V513.402H1060.18V511.533H1061.86V513.402H1066.67ZM1054.75 522.469C1056.37 522.469 1058.24 522.458 1060.18 522.394V521.062C1057.92 520.857 1056.47 519.837 1056.49 518.279C1056.47 516.507 1058.28 515.422 1061.04 515.422C1063.76 515.422 1065.6 516.507 1065.62 518.279C1065.6 519.837 1064.13 520.868 1061.86 521.062V522.329C1063.64 522.243 1065.45 522.104 1067.12 521.867L1067.25 523.07C1063.06 523.758 1058.44 523.822 1055.01 523.822L1054.75 522.469ZM1057.52 526.68V525.326H1070.41V530.74H1068.71V526.68H1057.52ZM1058.08 518.279C1058.08 519.257 1059.25 519.912 1061.04 519.891C1062.8 519.912 1064 519.257 1063.99 518.279C1064 517.237 1062.8 516.604 1061.04 516.625C1059.25 516.604 1058.08 517.237 1058.08 518.279ZM1068.71 524.424V511.705H1070.41V524.424H1068.71ZM1088.01 523.65C1091.93 523.65 1094.3 524.939 1094.3 527.174C1094.3 529.43 1091.93 530.719 1088.01 530.74C1084.07 530.719 1081.68 529.43 1081.67 527.174C1081.68 524.939 1084.07 523.65 1088.01 523.65ZM1080.01 521.652V512.844H1081.67V515.766H1087.23V512.844H1088.91V521.652H1080.01ZM1081.67 520.277H1087.23V517.098H1081.67V520.277ZM1083.37 527.174C1083.34 528.549 1085.13 529.365 1088.01 529.365C1090.9 529.365 1092.66 528.549 1092.67 527.174C1092.66 525.81 1090.9 525.004 1088.01 524.982C1085.13 525.004 1083.34 525.81 1083.37 527.174ZM1092.45 523.135V511.641H1094.13V516.453H1097.01V517.893H1094.13V523.135H1092.45ZM1115.98 514.992V516.389H1113.14V519.031H1115.98V520.449H1113.14V523.973H1111.47V511.641H1113.14V514.992H1115.98ZM1098.25 515.164V513.832H1103.11V511.49H1104.79V513.832H1109.64V515.164H1098.25ZM1099.35 519.525C1099.34 517.484 1101.18 516.163 1103.95 516.152C1106.69 516.163 1108.52 517.484 1108.54 519.525C1108.52 521.588 1106.69 522.909 1103.95 522.898C1101.18 522.909 1099.34 521.588 1099.35 519.525ZM1100.85 527.41C1100.84 525.326 1103.21 524.112 1107.11 524.102C1110.99 524.112 1113.36 525.326 1113.36 527.41C1113.36 529.483 1110.99 530.697 1107.11 530.697C1103.21 530.697 1100.84 529.483 1100.85 527.41ZM1100.96 519.525C1100.95 520.782 1102.14 521.588 1103.95 521.588C1105.73 521.588 1106.93 520.782 1106.96 519.525C1106.93 518.269 1105.73 517.441 1103.95 517.42C1102.14 517.441 1100.95 518.269 1100.96 519.525ZM1102.53 527.41C1102.51 528.646 1104.25 529.397 1107.11 529.387C1109.95 529.397 1111.69 528.646 1111.68 527.41C1111.69 526.143 1109.95 525.434 1107.11 525.434C1104.25 525.434 1102.51 526.143 1102.53 527.41ZM1138.58 511.641V521.523H1136.88V516.561H1132.63V515.164H1136.88V511.641H1138.58ZM1122.72 520.213C1125.6 519.257 1127.58 516.861 1127.6 514.068V512.264H1129.26V514.068C1129.23 516.571 1131.21 518.87 1134 519.783L1133.1 521.094C1130.99 520.342 1129.3 518.838 1128.45 516.904C1127.63 519.085 1125.9 520.75 1123.65 521.566L1122.72 520.213ZM1126.21 523.844V522.49H1138.58V527.045H1127.9V529.129H1139.29V530.482H1126.25V525.756H1136.9V523.844H1126.21ZM1157.59 511.641V523.027H1155.9V518.021H1152.05V516.625H1155.9V511.641H1157.59ZM1141.85 521.502C1144.68 520.481 1146.7 517.893 1146.7 515.164V514.455H1142.38V513.037H1152.67V514.455H1148.4V515.143C1148.4 517.635 1150.31 520.009 1153.1 520.965L1152.22 522.318C1150.08 521.545 1148.42 519.934 1147.59 517.968C1146.78 520.202 1145 521.985 1142.73 522.855L1141.85 521.502ZM1144.85 527.174C1144.84 524.929 1147.28 523.618 1151.26 523.629C1155.22 523.618 1157.66 524.929 1157.66 527.174C1157.66 529.43 1155.22 530.719 1151.26 530.74C1147.28 530.719 1144.84 529.43 1144.85 527.174ZM1146.53 527.174C1146.52 528.56 1148.32 529.397 1151.26 529.387C1154.18 529.397 1155.98 528.56 1155.98 527.174C1155.98 525.777 1154.18 524.939 1151.26 524.939C1148.32 524.939 1146.52 525.777 1146.53 527.174Z" fill="white"/>
<rect y="327" width="580" height="287" rx="20" fill="#FAFAFA"/>
<path d="M55.4062 381.125V399.938H41.75V381.125H55.4062ZM45.6875 396.781H51.4375V384.25H45.6875V396.781ZM59.2812 406.875V378.438H63.2812V389.156H67.4688V392.469H63.2812V406.875H59.2812ZM81.1562 381.625C81.1562 384.312 80.9219 386.828 80.3125 389.188H83.375V379.062H87.0938V405.625H83.375V392.406H79.1719C77.625 395.781 74.9688 398.734 70.625 401.219L68.4062 398.5C72.0156 396.406 74.2812 394.047 75.625 391.297L69 391.969L68.5625 388.594L76.7344 388.156C77 387.094 77.1562 385.984 77.25 384.812H69.9688V381.625H81.1562ZM89.4062 406.875V378.438H93.1562V406.875H89.4062ZM111.5 380.406V383.594H101.719V385.812H110.656V388.906H101.719V391.188C106.734 391.188 109.906 391.125 113.5 390.531L113.906 393.656C109.859 394.312 106.234 394.406 100.156 394.375H97.7188V380.406H111.5ZM100.5 401.469C100.5 398.062 104.203 396.078 110.281 396.062C116.297 396.078 120.094 398.062 120.125 401.469C120.094 404.906 116.297 406.891 110.281 406.875C104.203 406.891 100.5 404.906 100.5 401.469ZM104.469 401.469C104.469 403.047 106.469 403.844 110.281 403.844C114.047 403.844 116.125 403.047 116.125 401.469C116.125 399.953 114.047 399.141 110.281 399.156C106.469 399.141 104.469 399.953 104.469 401.469ZM115.969 395.688V378.469H119.969V395.688H115.969Z" fill="black"/>
<path d="M56.4141 455.004C55.2109 455.004 54.2227 454.016 54.2227 452.791C54.2227 451.588 55.2109 450.6 56.4141 450.6C57.6387 450.6 58.627 451.588 58.627 452.791C58.627 454.016 57.6387 455.004 56.4141 455.004ZM91.2402 451.76V453.135H83.4629V456.873H81.7871V453.135H73.752V451.76H91.2402ZM75.9863 460.332V455.111H77.6621V458.914H89.2852V460.332H75.9863ZM76.0938 449.891V442.264H77.7695V444.713H87.2227V442.264H88.8984V449.891H76.0938ZM77.7695 448.516H87.2227V446.002H77.7695V448.516ZM110.555 444.541V445.938H107.719V448.602H110.555V450.02H107.719V452.984H106.043V441.641H107.719V444.541H110.555ZM93.1523 447.291C93.1416 444.627 95.2686 442.79 98.1582 442.801C101.069 442.79 103.164 444.627 103.186 447.291C103.164 449.944 101.069 451.771 98.1582 451.781C95.2686 451.771 93.1416 449.944 93.1523 447.291ZM94.8066 447.291C94.7959 449.096 96.2246 450.342 98.1582 450.363C100.113 450.342 101.521 449.096 101.531 447.291C101.521 445.497 100.113 444.219 98.1582 444.24C96.2246 444.219 94.7959 445.497 94.8066 447.291ZM95.2578 457.152C95.2686 454.886 97.6963 453.575 101.596 453.564C105.495 453.575 107.891 454.886 107.891 457.152C107.891 459.376 105.495 460.697 101.596 460.697C97.6963 460.697 95.2686 459.376 95.2578 457.152ZM96.9551 457.152C96.9336 458.527 98.7168 459.333 101.596 459.344C104.485 459.333 106.247 458.527 106.258 457.152C106.247 455.767 104.485 454.939 101.596 454.939C98.7168 454.939 96.9336 455.767 96.9551 457.152ZM127.291 442.887V450.664H118.332V442.887H127.291ZM119.707 459.365C122.994 459 126.152 457.142 126.152 455.24H120.502V453.93H126.174V452.061H127.85V453.93H133.564V455.24H127.893C127.882 457.099 130.954 458.957 134.23 459.365L133.65 460.676C130.782 460.278 128.161 458.925 127.022 457.163C125.873 458.968 123.188 460.278 120.309 460.676L119.707 459.365ZM119.986 449.332H125.637V444.262H119.986V449.332ZM131.416 452.619V441.641H133.07V452.619H131.416ZM152.449 442.844V443.875C152.438 445.067 152.438 446.797 151.934 449.053L150.258 448.902C150.709 446.883 150.752 445.4 150.752 444.262H142.932V442.844H152.449ZM141.75 450.836C142.996 450.836 144.393 450.825 145.854 450.782V446.99H147.529V450.739C149.656 450.653 151.837 450.514 153.824 450.256L153.932 451.502C149.925 452.146 145.37 452.254 141.922 452.254L141.75 450.836ZM144.264 457.217C144.264 455.079 146.67 453.822 150.623 453.822C154.576 453.822 156.993 455.079 156.982 457.217C156.993 459.43 154.576 460.687 150.623 460.676C146.67 460.687 144.264 459.43 144.264 457.217ZM145.961 457.217C145.95 458.57 147.733 459.333 150.623 459.344C153.502 459.333 155.274 458.57 155.285 457.217C155.274 455.928 153.502 455.144 150.623 455.133C147.733 455.144 145.95 455.928 145.961 457.217ZM155.113 453.586V441.641H156.832V446.883H159.625V448.301H156.832V453.586H155.113ZM176.189 443.574V445.486C176.168 447.828 176.168 450.449 175.48 454.295L173.762 454.102C174.481 450.449 174.481 447.774 174.492 445.486V444.971H162.719V443.574H176.189ZM160.871 458.033V456.637H167.703V449.805H169.357V456.637H178.273V458.033H160.871ZM186.287 446.775C186.287 450.138 188.511 453.607 191.229 454.939L190.197 456.293C188.092 455.197 186.33 452.931 185.481 450.277C184.633 453.092 182.828 455.509 180.68 456.658L179.605 455.305C182.398 453.93 184.611 450.267 184.633 446.775V443.295H186.287V446.775ZM192.99 460.74V441.641H194.666V449.396H197.867V450.857H194.666V460.74H192.99ZM219.76 443.574V445.701C219.749 448.15 219.749 450.61 219.072 454.166L217.418 453.973C218.095 450.6 218.095 448.086 218.105 445.701V444.971H206.246V443.574H219.76ZM204.42 458.033V456.637H208.738V450.342H210.414V456.637H213.508V450.342H215.162V456.637H221.822V458.033H204.42ZM240.836 450.857V452.232H236.195V454.66H238.688V460.74H236.99V456.014H225.367V454.66H228.053V452.232H223.434V450.857H240.836ZM225.367 445.744C225.367 443.456 227.978 442.092 232.135 442.113C236.271 442.092 238.87 443.456 238.881 445.744C238.87 448.043 236.271 449.418 232.135 449.396C227.978 449.418 225.367 448.043 225.367 445.744ZM227.107 445.744C227.097 447.194 229.041 448.075 232.135 448.086C235.196 448.075 237.151 447.194 237.162 445.744C237.151 444.326 235.196 443.445 232.135 443.467C229.041 443.445 227.097 444.326 227.107 445.744ZM229.75 454.66H234.541V452.232H229.75V454.66ZM257.938 442.887V450.664H248.979V442.887H257.938ZM250.354 459.365C253.641 459 256.799 457.142 256.799 455.24H251.148V453.93H256.82V452.061H258.496V453.93H264.211V455.24H258.539C258.528 457.099 261.601 458.957 264.877 459.365L264.297 460.676C261.429 460.278 258.808 458.925 257.669 457.163C256.52 458.968 253.834 460.278 250.955 460.676L250.354 459.365ZM250.633 449.332H256.283V444.262H250.633V449.332ZM262.062 452.619V441.641H263.717V452.619H262.062ZM288.273 441.662V452.576H286.598V441.662H288.273ZM272.955 447.141C272.944 444.477 275.061 442.672 277.961 442.672C280.861 442.672 282.956 444.477 282.967 447.141C282.956 449.762 280.861 451.588 277.961 451.588C275.061 451.588 272.944 449.762 272.955 447.141ZM274.609 447.141C274.588 448.913 275.995 450.159 277.961 450.148C279.905 450.159 281.312 448.913 281.312 447.141C281.312 445.357 279.905 444.101 277.961 444.111C275.995 444.101 274.588 445.357 274.609 447.141ZM275.855 460.482V453.607H288.273V460.482H275.855ZM277.51 459.107H286.619V454.982H277.51V459.107ZM307.846 441.641V460.74H306.234V450.729H303.42V459.752H301.873V442.07H303.42V449.332H306.234V441.641H307.846ZM292.227 456.014V443.982H299.381V445.379H293.902V454.574C296.534 454.563 298.35 454.467 300.477 454.037L300.627 455.455C298.328 455.928 296.384 456.003 293.451 456.014H292.227ZM321.123 443.123V444.133C321.112 445.39 321.112 447.291 320.629 449.783L318.932 449.654C319.394 447.377 319.437 445.755 319.458 444.541H311.605V443.123H321.123ZM310.424 451.566C311.659 451.566 313.056 451.556 314.527 451.513V447.355H316.203V451.459C318.319 451.373 320.511 451.223 322.498 450.943L322.605 452.189C318.599 452.877 314.001 452.952 310.596 452.963L310.424 451.566ZM313.367 460.332V454.725H315.064V458.914H326.129V460.332H313.367ZM323.787 456.014V441.641H325.506V447.871H328.299V449.311H325.506V456.014H323.787ZM345.314 441.641V460.783H343.639V441.641H345.314ZM330.619 444.82V443.424H339.514V450.213H332.381V454.725C335.55 454.735 338.375 454.585 341.791 454.037L341.963 455.455C338.45 456.003 335.55 456.143 332.252 456.143H330.662V448.838H337.816V444.82H330.619ZM56.4141 490.004C55.2109 490.004 54.2227 489.016 54.2227 487.791C54.2227 486.588 55.2109 485.6 56.4141 485.6C57.6387 485.6 58.627 486.588 58.627 487.791C58.627 489.016 57.6387 490.004 56.4141 490.004ZM83.4199 477.951V486.115H74.5898V477.951H83.4199ZM75.707 494.365C78.8652 493.871 81.6689 492.131 81.8623 490.047H76.459V488.672H89.0488V490.047H83.624C83.8066 492.088 86.6641 493.871 89.7793 494.365L89.1562 495.676C86.3633 495.214 83.8389 493.828 82.7324 491.916C81.6582 493.839 79.1338 495.203 76.3516 495.654L75.707 494.365ZM76.2441 484.74H81.7871V479.326H76.2441V484.74ZM87.0293 487.555V476.641H88.7051V481.238H91.584V482.656H88.7051V487.555H87.0293ZM110.189 486.094V487.469H102.305V489.574H108.062V495.482H94.9141V489.574H100.65V487.469H92.7871V486.094H110.189ZM93.7969 483.688C97.3955 483.365 100.425 481.926 100.564 479.799H94.5918V478.445H100.65V476.533H102.305V478.445H108.428V479.799H102.412C102.53 481.926 105.581 483.365 109.158 483.688L108.664 484.955C105.484 484.633 102.648 483.526 101.488 481.625C100.317 483.526 97.4814 484.633 94.3125 484.955L93.7969 483.688ZM96.5898 494.107H106.408V490.928H96.5898V494.107ZM126.023 489.875C130.213 489.864 132.576 490.885 132.598 492.818C132.576 494.709 130.213 495.697 126.023 495.697C121.791 495.697 119.417 494.709 119.428 492.818C119.417 490.885 121.791 489.864 126.023 489.875ZM117.322 488.672V487.318H125.186V485.825C121.748 485.696 119.814 484.772 119.814 483.129C119.814 481.313 122.06 480.39 126.023 480.379C129.977 480.39 132.211 481.313 132.211 483.129C132.211 484.772 130.288 485.696 126.861 485.825V487.318H134.725V488.672H117.322ZM118.225 479.605V478.252H125.186V476.383H126.861V478.252H133.715V479.605H118.225ZM121.146 492.818C121.157 493.86 122.919 494.44 126.023 494.43C129.117 494.44 130.879 493.86 130.879 492.818C130.879 491.733 129.117 491.143 126.023 491.143C122.919 491.143 121.157 491.733 121.146 492.818ZM121.619 483.129C121.608 484.074 123.22 484.622 126.023 484.633C128.827 484.622 130.417 484.074 130.428 483.129C130.417 482.119 128.827 481.571 126.023 481.582C123.22 481.571 121.608 482.119 121.619 483.129ZM153.824 491.895V493.291H136.336V491.895H144.199V487.77H138.398V477.994H140.096V481.453H150.021V477.994H151.676V487.77H145.854V491.895H153.824ZM140.096 486.395H150.021V482.828H140.096V486.395ZM172.838 491.959V493.377H155.35V491.959H163.213V488.35H157.541V482.463H168.971V479.455H157.498V478.059H170.625V483.838H159.217V486.953H171.076V488.35H164.867V491.959H172.838ZM186.459 479.648C186.438 482.377 188.382 484.772 191.186 485.729L190.24 487.039C188.135 486.255 186.48 484.697 185.653 482.688C184.837 484.977 183.097 486.749 180.787 487.619L179.863 486.244C182.807 485.213 184.762 482.678 184.783 479.713V477.736H186.459V479.648ZM182.979 492.131C182.968 489.832 185.406 488.511 189.381 488.521C193.345 488.511 195.783 489.832 195.783 492.131C195.783 494.408 193.345 495.697 189.381 495.697C185.406 495.697 182.968 494.408 182.979 492.131ZM184.654 492.131C184.644 493.517 186.448 494.354 189.381 494.344C192.303 494.354 194.107 493.517 194.107 492.131C194.107 490.702 192.303 489.854 189.381 489.854C186.448 489.854 184.644 490.702 184.654 492.131ZM189.768 482.141V480.744H194.021V476.641H195.719V487.963H194.021V482.141H189.768ZM207.535 488.715C211.628 488.715 214.228 490.004 214.238 492.217C214.228 494.408 211.628 495.697 207.535 495.697C203.442 495.697 200.843 494.408 200.854 492.217C200.843 490.004 203.442 488.715 207.535 488.715ZM198.92 486.932V485.557H206.117V481.861H207.771V485.557H216.301V486.932H198.92ZM200.982 479.004V477.629H214.088V479.24C214.077 480.787 214.077 482.334 213.551 484.311L211.896 484.117C212.412 482.151 212.412 480.733 212.412 479.24V479.004H200.982ZM202.529 492.217C202.519 493.549 204.495 494.365 207.535 494.365C210.586 494.365 212.541 493.549 212.562 492.217C212.541 490.853 210.586 490.015 207.535 490.004C204.495 490.015 202.519 490.853 202.529 492.217ZM224.551 480.164C224.551 482.646 226.463 485.02 229.256 485.986L228.375 487.318C226.227 486.545 224.562 484.944 223.745 482.979C222.918 485.17 221.146 486.932 218.879 487.77L217.998 486.438C220.812 485.428 222.854 482.882 222.854 480.186V479.348H218.535V477.973H228.826V479.348H224.551V480.164ZM220.898 490.498V489.102H233.746V495.74H232.049V490.498H220.898ZM228.225 483.064V481.646H232.049V476.641H233.746V488.092H232.049V483.064H228.225ZM252.695 476.662V490.627H251.02V476.662H252.695ZM237.377 482.678C237.366 479.928 239.525 478.005 242.383 477.994C245.24 478.005 247.378 479.928 247.389 482.678C247.378 485.46 245.24 487.394 242.383 487.383C239.525 487.394 237.366 485.46 237.377 482.678ZM239.031 482.678C239.01 484.579 240.449 485.9 242.383 485.9C244.284 485.9 245.734 484.579 245.734 482.678C245.734 480.809 244.284 479.477 242.383 479.477C240.449 479.477 239.01 480.809 239.031 482.678ZM240.363 495.332V489.209H242.039V493.914H253.297V495.332H240.363ZM278.928 486.76V488.135H271.15V491.873H269.475V488.135H261.439V486.76H278.928ZM263.674 495.332V490.111H265.35V493.914H276.973V495.332H263.674ZM263.781 484.891V477.264H265.457V479.713H274.91V477.264H276.586V484.891H263.781ZM265.457 483.516H274.91V481.002H265.457V483.516ZM298.242 479.541V480.938H295.406V483.602H298.242V485.02H295.406V487.984H293.73V476.641H295.406V479.541H298.242ZM280.84 482.291C280.829 479.627 282.956 477.79 285.846 477.801C288.757 477.79 290.852 479.627 290.873 482.291C290.852 484.944 288.757 486.771 285.846 486.781C282.956 486.771 280.829 484.944 280.84 482.291ZM282.494 482.291C282.483 484.096 283.912 485.342 285.846 485.363C287.801 485.342 289.208 484.096 289.219 482.291C289.208 480.497 287.801 479.219 285.846 479.24C283.912 479.219 282.483 480.497 282.494 482.291ZM282.945 492.152C282.956 489.886 285.384 488.575 289.283 488.564C293.183 488.575 295.578 489.886 295.578 492.152C295.578 494.376 293.183 495.697 289.283 495.697C285.384 495.697 282.956 494.376 282.945 492.152ZM284.643 492.152C284.621 493.527 286.404 494.333 289.283 494.344C292.173 494.333 293.935 493.527 293.945 492.152C293.935 490.767 292.173 489.939 289.283 489.939C286.404 489.939 284.621 490.767 284.643 492.152ZM311.842 482.506C311.853 485.75 314.205 489.048 317.02 490.262L316.074 491.594C313.84 490.584 311.917 488.382 311.025 485.739C310.134 488.543 308.2 490.971 306.02 492.066L305.01 490.734C307.749 489.424 310.134 485.814 310.145 482.506V480.014H305.633V478.617H316.396V480.014H311.842V482.506ZM319.061 495.74V476.641H320.758V495.74H319.061ZM339.771 476.662V491.164H338.074V489.188H334.121V487.963H338.074V476.662H339.771ZM323.916 485.514C327.472 485.492 332.263 485.46 336.355 484.955L336.463 486.18C334.766 486.448 332.972 486.62 331.221 486.728V490.498H329.523V486.813C327.59 486.889 325.753 486.889 324.152 486.889L323.916 485.514ZM325.463 480.766C325.452 478.757 327.364 477.436 330.189 477.436C332.993 477.436 334.905 478.757 334.916 480.766C334.905 482.807 332.993 484.074 330.189 484.074C327.364 484.074 325.452 482.807 325.463 480.766ZM326.666 495.332V489.746H328.363V493.914H340.244V495.332H326.666ZM327.074 480.766C327.053 482.012 328.32 482.817 330.189 482.828C332.005 482.817 333.294 482.012 333.305 480.766C333.294 479.541 332.005 478.703 330.189 478.725C328.32 478.703 327.053 479.541 327.074 480.766Z" fill="black"/>
<circle cx="599.5" cy="305.5" r="112.5" fill="white"/>
<g clip-path="url(#clip0_270_10498)">
<path d="M629.221 339.98L604.648 325.428C603.147 324.538 602.651 322.599 603.54 321.097C603.54 321.097 604.264 319.876 605.039 318.568L599.114 315.063C595.205 312.82 593.377 312.405 589.851 313.769L586.008 315.254C583.67 316.158 581.046 315.94 578.889 314.662L568.603 308.597L553.993 333.257L567.164 341.031C568.057 341.559 568.84 342.253 569.473 343.074L573.912 348.83C576.363 351.697 581.422 355.416 584.668 357.339L594.815 363.351C596.451 364.32 598.515 364.183 600.008 363.006L629.221 339.98Z" fill="#F9EAE2"/>
<path d="M633.933 342.77L623.212 336.421C623.079 336.342 622.908 336.384 622.826 336.515C622.768 336.606 622.77 336.721 622.825 336.814C623.745 338.364 623.774 340.374 622.679 341.999C621.302 344.041 618.519 344.576 616.4 343.321L614.796 342.371C614.464 342.174 614.034 342.286 613.839 342.62C613.729 342.809 613.714 343.039 613.8 343.24C614.331 344.491 614.216 346.236 613.618 347.564C612.76 349.47 610.521 350.778 608.127 349.36L607.431 348.947C606.954 348.664 606.351 348.711 605.923 349.064C605.475 349.064 605.23 349.409 605.354 349.84C605.716 351.101 605.569 352.505 604.826 353.716C603.431 355.991 600.413 356.648 598.117 355.288L596.228 354.168C595.866 353.954 595.401 354.042 595.143 354.374C594.985 354.576 594.929 354.839 594.993 355.087C595.302 356.29 595.154 357.61 594.471 358.763C593.693 360.075 592.394 360.884 590.994 361.088L601.51 367.318C603.706 368.618 606.587 368.019 607.964 365.871C609.411 363.616 608.689 360.632 606.404 359.278L611.599 362.356C613.795 363.657 616.676 363.057 618.054 360.909C619.5 358.655 618.778 355.67 616.494 354.316L620.022 356.407C622.258 357.731 625.144 356.993 626.469 354.757C627.793 352.521 627.055 349.634 624.819 348.31L629.04 350.81C631.235 352.111 634.116 351.511 635.493 349.364C636.94 347.108 636.218 344.124 633.933 342.77Z" fill="#F5DBCC"/>
<path d="M631.397 310.07L623.497 314.662C621.34 315.94 618.716 316.158 616.377 315.254L612.043 313.551C610.687 313.019 609.199 312.925 607.787 313.282L601.146 314.962C598.055 315.745 595.89 318.526 595.89 321.715V330.579C595.89 331.833 596.905 332.852 598.159 332.853C601.938 332.855 605.003 329.792 605.003 326.013V325.638L633.427 342.47C633.953 341.909 634.557 341.424 635.221 341.031L646.006 334.73L631.397 310.07Z" fill="#ECB784"/>
<path d="M572.937 346.253L570.272 349.965C568.757 352.076 565.817 352.558 563.707 351.043C561.596 349.528 561.114 346.588 562.629 344.478L565.294 340.766C566.809 338.656 569.748 338.173 571.859 339.688C573.969 341.204 574.452 344.143 572.937 346.253Z" fill="#ECB784"/>
<path d="M583.521 347.644L577.915 355.452C576.4 357.563 573.46 358.045 571.35 356.53C569.239 355.015 568.757 352.076 570.272 349.965L575.878 342.157C577.393 340.046 580.332 339.564 582.443 341.079C584.553 342.594 585.036 345.533 583.521 347.644Z" fill="#ECB784"/>
<path d="M591.164 353.131L585.558 360.939C584.043 363.05 581.103 363.532 578.993 362.017C576.882 360.502 576.4 357.563 577.915 355.452L583.521 347.644C585.036 345.533 587.975 345.051 590.086 346.566C592.196 348.081 592.679 351.02 591.164 353.131Z" fill="#ECB784"/>
<path d="M596.316 362.087L594.451 364.684C592.936 366.795 589.997 367.277 587.886 365.762C585.776 364.247 585.293 361.307 586.808 359.197L588.673 356.6C590.188 354.49 593.127 354.007 595.238 355.522C597.348 357.038 597.831 359.977 596.316 362.087Z" fill="#ECB784"/>
<path d="M638.372 335.684C643.956 332.356 647.376 326.335 647.376 319.835V297.694L646.006 295.53L625.18 307.944C623.296 309.067 622.676 311.502 623.794 313.389L637.357 336.284L638.372 335.684Z" fill="#407093"/>
<path d="M641.733 341.116C642.266 341.226 642.823 341.228 643.368 341.111C642.86 341.132 642.309 341.133 641.733 341.116Z" fill="#407093"/>
<path d="M646.007 295.53V319.835C646.007 326.335 642.586 332.356 637.003 335.684L639.114 339.248C640.236 341.141 642.682 341.764 644.573 340.637L659.201 331.918C660.865 330.925 661.885 329.13 661.885 327.192V289.794C661.885 288.15 660.094 287.133 658.682 287.974L646.007 295.53Z" fill="#365E7D"/>
<path d="M541.317 287.974L574.82 307.944C576.703 309.067 577.323 311.502 576.206 313.388L560.886 339.247C559.764 341.141 557.318 341.764 555.427 340.637L540.799 331.918C539.135 330.925 538.115 329.13 538.115 327.192V289.794C538.115 288.15 539.905 287.133 541.317 287.974Z" fill="#407093"/>
<path d="M609.234 258.412C608.202 258.412 607.366 257.576 607.366 256.544V250.169C607.366 248.827 606.275 247.735 604.934 247.735H595.065C593.724 247.735 592.633 248.827 592.633 250.169V256.544C592.633 257.576 591.797 258.412 590.765 258.412C589.734 258.412 588.897 257.576 588.897 256.544V250.169C588.897 246.767 591.664 244 595.065 244H604.934C608.335 244 611.102 246.767 611.102 250.169V256.544C611.102 257.576 610.266 258.412 609.234 258.412Z" fill="#365E7D"/>
<path d="M582.782 269.869C577.615 269.869 573.426 265.68 573.426 260.512V285.636C573.426 288.488 575.738 290.8 578.589 290.8H607.087C609.938 290.8 612.25 288.488 612.25 285.636V269.869H582.782Z" fill="#DDB7A0"/>
<path d="M617.217 269.869H610.818V285.636C610.818 288.488 608.506 290.8 605.655 290.8H621.41C624.261 290.8 626.573 288.488 626.573 285.636V260.512C626.573 265.68 622.384 269.869 617.217 269.869Z" fill="#D6A889"/>
<path d="M607.101 254.996H578.589C575.738 254.996 573.427 257.308 573.426 260.159V262.369C573.426 267.537 577.615 271.725 582.782 271.725H612.265V260.159C612.265 257.308 609.953 254.996 607.101 254.996Z" fill="#CC9675"/>
<path d="M610.818 260.159V271.725H617.217C622.384 271.725 626.573 267.536 626.573 262.369V260.159C626.573 257.307 624.262 254.996 621.41 254.996H605.655C608.506 254.996 610.818 257.308 610.818 260.159Z" fill="#C4845C"/>
<path d="M586.112 277.515C585.08 277.515 584.244 276.679 584.244 275.647V267.803C584.244 266.771 585.08 265.935 586.112 265.935C587.143 265.935 587.98 266.771 587.98 267.803V275.648C587.98 276.679 587.143 277.515 586.112 277.515Z" fill="#F4FBFF"/>
<path d="M613.887 277.515C612.856 277.515 612.02 276.679 612.02 275.647V267.803C612.02 266.771 612.856 265.935 613.887 265.935C614.919 265.935 615.755 266.771 615.755 267.803V275.648C615.755 276.679 614.919 277.515 613.887 277.515Z" fill="#F4FBFF"/>
</g>
<defs>
<clipPath id="clip0_270_10498">
<rect width="124" height="124" fill="white" transform="translate(538 244)"/>
</clipPath>
</defs>
</svg>
