<svg width="1200" height="118" viewBox="0 0 1200 118" fill="none" xmlns="http://www.w3.org/2000/svg">
<rect width="1200" height="118" rx="12" fill="#F2F4F8"/>
<path d="M40.7822 39.5156V40.3125C40.7739 41.2339 40.7739 42.5703 40.3838 44.3135L39.0889 44.1973C39.4375 42.6367 39.4707 41.4912 39.4707 40.6113H33.4277V39.5156H40.7822ZM32.5146 45.6914C33.4775 45.6914 34.5566 45.6831 35.6855 45.6499V42.7197H36.9805V45.6167C38.624 45.5503 40.3091 45.4424 41.8447 45.2432L41.9277 46.2061C38.8315 46.7041 35.312 46.7871 32.6475 46.7871L32.5146 45.6914ZM34.457 50.6221C34.457 48.9702 36.3164 47.999 39.3711 47.999C42.4258 47.999 44.2935 48.9702 44.2852 50.6221C44.2935 52.332 42.4258 53.3032 39.3711 53.2949C36.3164 53.3032 34.457 52.332 34.457 50.6221ZM35.7686 50.6221C35.7603 51.668 37.1382 52.2573 39.3711 52.2656C41.5957 52.2573 42.9653 51.668 42.9736 50.6221C42.9653 49.626 41.5957 49.02 39.3711 49.0117C37.1382 49.02 35.7603 49.626 35.7686 50.6221ZM42.8408 47.8164V38.5859H44.1689V42.6367H46.3271V43.7324H44.1689V47.8164H42.8408ZM59.127 40.0801V41.5576C59.1104 43.3672 59.1104 45.3926 58.5791 48.3643L57.251 48.2148C57.8071 45.3926 57.8071 43.3257 57.8154 41.5576V41.1592H48.7178V40.0801H59.127ZM47.29 51.2529V50.1738H52.5693V44.8945H53.8477V50.1738H60.7373V51.2529H47.29ZM74.1514 38.5859V53.3779H72.8398V38.5859H74.1514ZM62.8457 49.8086V39.8477H64.1406V43.749H68.54V39.8477H69.8184V49.8086H62.8457ZM64.1406 48.7129H68.54V44.7949H64.1406V48.7129ZM79.0986 50.8877L77.8037 55.4033H76.5752L77.4883 50.8877H79.0986ZM98.8047 50.3564V51.4521H85.291V50.3564H91.3672V46.7539H86.8848V39.8311H97.1279V46.7539H92.6455V50.3564H98.8047ZM88.1631 45.708H95.8662V40.877H88.1631V45.708ZM112.551 38.6025V46.4551H111.306V38.6025H112.551ZM100.714 45.708V39.4658H106.342V40.5117H102.009V44.6455C104.026 44.6455 105.404 44.5791 107.072 44.2471L107.155 45.3262C105.371 45.6499 103.918 45.708 101.644 45.708H100.714ZM102.723 48.1484V47.1025H112.551V50.5391H104.051V52.0996H113.115V53.1455H102.756V49.5264H111.289V48.1484H102.723ZM105.412 42.8857V41.8564H108.467V38.9014H109.712V46.3223H108.467V42.8857H105.412ZM126.098 38.5859V44.6787H128.571V45.7578H126.098V53.3447H124.803V38.5859H126.098ZM114.593 42.0391V40.96H118.395V38.7686H119.689V40.96H123.375V42.0391H114.593ZM115.439 46.6543C115.431 44.6621 116.958 43.2676 119.059 43.2676C121.142 43.2676 122.661 44.6621 122.678 46.6543C122.661 48.6548 121.142 50.041 119.059 50.041C116.958 50.041 115.431 48.6548 115.439 46.6543ZM116.685 46.6543C116.676 47.999 117.681 48.9453 119.059 48.9287C120.42 48.9453 121.416 47.999 121.433 46.6543C121.416 45.3179 120.42 44.355 119.059 44.3633C117.681 44.355 116.676 45.3179 116.685 46.6543ZM142.865 47.0527V48.1484H136.706V53.3447H135.428V48.1484H129.352V47.0527H142.865ZM130.879 42.4375C130.887 40.437 132.971 39.1919 136.075 39.1836C139.171 39.1919 141.271 40.437 141.271 42.4375C141.271 44.4048 139.171 45.6499 136.075 45.6416C132.971 45.6499 130.887 44.4048 130.879 42.4375ZM132.224 42.4375C132.207 43.749 133.776 44.5957 136.075 44.5957C138.375 44.5957 139.935 43.749 139.943 42.4375C139.935 41.1011 138.375 40.2461 136.075 40.2461C133.776 40.2461 132.207 41.1011 132.224 42.4375ZM151.415 40.7607C151.423 43.2925 154.312 45.542 156.877 46.0234L156.279 47.1191C154.046 46.6045 151.706 45.019 150.751 42.8525C149.788 45.019 147.456 46.5962 145.223 47.1191L144.625 46.0234C147.182 45.5337 150.045 43.3008 150.054 40.7607V39.6318H151.415V40.7607ZM144.061 51.3359V50.2568H157.574V51.3359H144.061ZM169.693 47.916C172.856 47.916 174.865 48.9121 174.873 50.6221C174.865 52.3154 172.856 53.3115 169.693 53.3115C166.531 53.3115 164.522 52.3154 164.53 50.6221C164.522 48.9121 166.531 47.916 169.693 47.916ZM163.036 46.5381V45.4756H168.598V42.6201H169.876V45.4756H176.467V46.5381H163.036ZM164.63 40.4121V39.3496H174.757V40.5947C174.749 41.79 174.749 42.9854 174.342 44.5127L173.063 44.3633C173.462 42.8442 173.462 41.7485 173.462 40.5947V40.4121H164.63ZM165.825 50.6221C165.817 51.6514 167.344 52.2822 169.693 52.2822C172.051 52.2822 173.562 51.6514 173.578 50.6221C173.562 49.5679 172.051 48.9204 169.693 48.9121C167.344 48.9204 165.817 49.5679 165.825 50.6221ZM182.659 42.5537C182.659 45.1519 184.377 47.833 186.478 48.8623L185.681 49.9082C184.054 49.0615 182.692 47.3101 182.037 45.2598C181.381 47.4346 179.986 49.3022 178.326 50.1904L177.496 49.1445C179.654 48.082 181.364 45.2515 181.381 42.5537V39.8643H182.659V42.5537ZM187.839 53.3447V38.5859H189.134V44.5791H191.607V45.708H189.134V53.3447H187.839ZM204.573 38.5859V53.3779H203.262V38.5859H204.573ZM193.268 49.8086V39.8477H194.562V43.749H198.962V39.8477H200.24V49.8086H193.268ZM194.562 48.7129H198.962V44.7949H194.562V48.7129ZM209.521 50.8877L208.226 55.4033H206.997L207.91 50.8877H209.521ZM227.251 38.5859V42.3379H229.476V43.4502H227.251V47.252H225.956V38.5859H227.251ZM215.696 46.0732C219.315 45.0938 221.548 43.1182 221.814 40.6113H216.36V39.5322H223.2C223.192 43.2676 220.585 45.9321 216.228 47.0859L215.696 46.0732ZM217.589 48.9951V47.9326H227.251V53.3447H225.956V48.9951H217.589ZM237.76 43.832V45.9404H243.853V47.0195H230.405V45.9404H236.481V43.832H237.76ZM231.152 43.5332C233.726 43.2593 236.191 41.9976 236.282 40.3457H231.634V39.2832H242.657V40.3457H237.976C238.067 41.9893 240.532 43.2593 243.105 43.5332L242.624 44.5625C240.208 44.2637 237.942 43.2095 237.129 41.5742C236.315 43.2095 234.066 44.2637 231.634 44.5625L231.152 43.5332ZM232.032 50.7715C232.024 49.1362 233.925 48.2314 237.129 48.2314C240.3 48.2314 242.192 49.1362 242.209 50.7715C242.192 52.415 240.3 53.3115 237.129 53.3115C233.925 53.3115 232.024 52.415 232.032 50.7715ZM233.36 50.7715C233.344 51.7427 234.738 52.3071 237.129 52.2988C239.495 52.3071 240.889 51.7427 240.897 50.7715C240.889 49.8086 239.495 49.2524 237.129 49.2607C234.738 49.2524 233.344 49.8086 233.36 50.7715ZM262.812 45.8906V46.9697H249.364V45.8906H252.701V43.8071C251.522 43.3506 250.858 42.6035 250.858 41.6074C250.858 39.8726 252.851 38.8765 256.088 38.8682C259.3 38.8765 261.292 39.8726 261.301 41.6074C261.292 42.5952 260.637 43.3423 259.475 43.8071V45.8906H262.812ZM250.991 50.7051C250.983 49.02 252.884 48.0903 256.088 48.0986C259.25 48.0903 261.151 49.02 261.168 50.7051C261.151 52.3901 259.25 53.3115 256.088 53.3115C252.884 53.3115 250.983 52.3901 250.991 50.7051ZM252.203 41.6074C252.195 42.6865 253.672 43.3091 256.088 43.3174C258.479 43.3091 259.964 42.6865 259.973 41.6074C259.964 40.5449 258.479 39.8975 256.088 39.8975C253.672 39.8975 252.195 40.5449 252.203 41.6074ZM252.319 50.7051C252.303 51.7095 253.722 52.3071 256.088 52.2988C258.429 52.3071 259.848 51.7095 259.856 50.7051C259.848 49.7007 258.429 49.1113 256.088 49.0947C253.722 49.1113 252.303 49.7007 252.319 50.7051ZM253.996 45.8906H258.18V44.1558C257.557 44.272 256.86 44.3301 256.088 44.3301C255.316 44.3301 254.619 44.272 253.996 44.1641V45.8906ZM276.292 48.0986V53.3447H274.98V49.1445H266.364V48.0986H276.292ZM264.289 42.9521C264.281 40.8936 265.916 39.4243 268.124 39.4326C269.402 39.4243 270.49 39.9307 271.17 40.7607H274.98V38.5859H276.292V47.2852H274.98V45.1602H271.179C270.498 45.9985 269.411 46.4966 268.124 46.4883C265.916 46.5049 264.281 45.0522 264.289 42.9521ZM265.534 42.9521C265.534 44.3882 266.613 45.3926 268.124 45.3926C269.577 45.3926 270.681 44.3882 270.681 42.9521C270.681 41.5659 269.577 40.5449 268.124 40.5449C266.613 40.5449 265.534 41.5659 265.534 42.9521ZM271.768 44.0811H274.98V41.8398H271.76C271.876 42.1885 271.942 42.5537 271.942 42.9521C271.942 43.3506 271.876 43.7324 271.768 44.0811ZM290.918 38.5859V53.3779H289.606V38.5859H290.918ZM279.612 49.8086V39.8477H280.907V43.749H285.307V39.8477H286.585V49.8086H279.612ZM280.907 48.7129H285.307V44.7949H280.907V48.7129ZM306.889 45.8906V46.9697H293.441V45.8906H296.778V43.8071C295.6 43.3506 294.936 42.6035 294.936 41.6074C294.936 39.8726 296.928 38.8765 300.165 38.8682C303.377 38.8765 305.37 39.8726 305.378 41.6074C305.37 42.5952 304.714 43.3423 303.552 43.8071V45.8906H306.889ZM295.068 50.7051C295.06 49.02 296.961 48.0903 300.165 48.0986C303.328 48.0903 305.229 49.02 305.245 50.7051C305.229 52.3901 303.328 53.3115 300.165 53.3115C296.961 53.3115 295.06 52.3901 295.068 50.7051ZM296.28 41.6074C296.272 42.6865 297.75 43.3091 300.165 43.3174C302.556 43.3091 304.042 42.6865 304.05 41.6074C304.042 40.5449 302.556 39.8975 300.165 39.8975C297.75 39.8975 296.272 40.5449 296.28 41.6074ZM296.396 50.7051C296.38 51.7095 297.799 52.3071 300.165 52.2988C302.506 52.3071 303.925 51.7095 303.934 50.7051C303.925 49.7007 302.506 49.1113 300.165 49.0947C297.799 49.1113 296.38 49.7007 296.396 50.7051ZM298.073 45.8906H302.257V44.1558C301.634 44.272 300.937 44.3301 300.165 44.3301C299.393 44.3301 298.696 44.272 298.073 44.1641V45.8906ZM325.864 45.6084V46.7041H312.4V45.6084H325.864ZM314.027 50.6553C314.019 48.9619 315.937 47.999 319.124 47.999C322.287 47.999 324.188 48.9619 324.204 50.6553C324.188 52.3652 322.287 53.3115 319.124 53.3115C315.937 53.3115 314.019 52.3652 314.027 50.6553ZM314.11 44.1973V39.1836H324.188V40.2793H315.389V43.1348H324.287V44.1973H314.11ZM315.355 50.6553C315.339 51.6929 316.758 52.2822 319.124 52.2822C321.465 52.2822 322.884 51.6929 322.893 50.6553C322.884 49.626 321.465 49.0283 319.124 49.0117C316.758 49.0283 315.339 49.626 315.355 50.6553ZM336.307 42.5537C336.307 45.1519 338.025 47.833 340.125 48.8623L339.328 49.9082C337.701 49.0615 336.34 47.3101 335.684 45.2598C335.028 47.4346 333.634 49.3022 331.974 50.1904L331.144 49.1445C333.302 48.082 335.012 45.2515 335.028 42.5537V39.8643H336.307V42.5537ZM341.486 53.3447V38.5859H342.781V44.5791H345.255V45.708H342.781V53.3447H341.486ZM350.119 39.2832C352.095 39.2749 353.605 40.4287 353.888 42.1221H356.976V38.5859H358.287V46.5049H356.976V43.2012H353.896C353.639 44.9443 352.12 46.1064 350.119 46.1064C347.87 46.1064 346.276 44.7119 346.284 42.6865C346.276 40.686 347.87 39.2749 350.119 39.2832ZM347.529 42.6865C347.529 44.0312 348.6 45.0024 350.119 45.0107C351.605 45.0024 352.676 44.0312 352.676 42.6865C352.676 41.3252 351.605 40.3789 350.119 40.3955C348.6 40.3789 347.529 41.3252 347.529 42.6865ZM348.774 53.1455V47.252H350.086V49.1279H356.976V47.252H358.287V53.1455H348.774ZM350.086 52.083H356.976V50.1738H350.086V52.083ZM374.258 50.3896V51.4854H360.744V50.3896H366.837V47.0029H368.115V50.3896H374.258ZM361.491 46.5049C364.338 46.0483 366.804 44.3301 366.82 42.0225H362.006V40.9434H366.837V38.9014H368.115V40.9434H372.963V42.0225H368.148C368.148 44.3301 370.614 46.0483 373.444 46.5049L372.946 47.5342C370.589 47.1191 368.422 45.9238 367.476 44.0728C366.546 45.9238 364.38 47.1191 362.006 47.5342L361.491 46.5049ZM387.639 38.5859V53.3447H386.327V38.5859H387.639ZM375.619 49.5098C379.612 47.6172 381.654 44.7866 381.944 41.2588H376.3V40.1963H383.272C383.256 44.438 381.28 48.1982 376.333 50.5723L375.619 49.5098ZM407.893 47.3516V48.4141H401.733V53.3447H400.455V48.4141H394.379V47.3516H407.893ZM396.105 45.5586V39.2002H397.4V41.2422H404.838V39.2002H406.149V45.5586H396.105ZM397.4 44.4961H404.838V42.3047H397.4V44.4961ZM421.34 39.2002V40.2627H416.658C416.683 41.9395 419.182 43.2676 421.788 43.5664L421.307 44.5957C418.891 44.2886 416.625 43.2095 415.812 41.5659C414.998 43.2095 412.749 44.2886 410.333 44.5957L409.852 43.5664C412.441 43.2676 414.94 41.9395 414.965 40.2627H410.316V39.2002H421.34ZM409.088 47.0859V46.0068H415.164V43.7656H416.442V46.0068H422.585V47.0859H409.088ZM410.582 49.6094V48.5469H420.875V53.3447H419.563V49.6094H410.582ZM435.318 38.6025V43.4668H437.543V44.5625H435.318V49.6592H434.023V38.6025H435.318ZM423.813 41.4746V40.4121H427.565V38.6025H428.86V40.4121H432.612V41.4746H423.813ZM424.66 45.0439C424.652 43.3672 426.08 42.2881 428.213 42.2881C430.321 42.2881 431.749 43.3672 431.766 45.0439C431.749 46.7041 430.321 47.7749 428.213 47.7666C426.08 47.7749 424.652 46.7041 424.66 45.0439ZM425.905 45.0439C425.897 46.0815 426.818 46.7539 428.213 46.7373C429.591 46.7539 430.521 46.0815 430.537 45.0439C430.521 43.9897 429.591 43.3091 428.213 43.3174C426.818 43.3091 425.897 43.9897 425.905 45.0439ZM426.088 53.0293V48.7793H427.366V51.9336H435.999V53.0293H426.088ZM447.687 42.5537C447.687 45.1519 449.405 47.833 451.505 48.8623L450.708 49.9082C449.081 49.0615 447.72 47.3101 447.064 45.2598C446.408 47.4346 445.014 49.3022 443.354 50.1904L442.523 49.1445C444.682 48.082 446.392 45.2515 446.408 42.5537V39.8643H447.687V42.5537ZM452.866 53.3447V38.5859H454.161V44.5791H456.635V45.708H454.161V53.3447H452.866ZM461.499 39.2832C463.475 39.2749 464.985 40.4287 465.268 42.1221H468.355V38.5859H469.667V46.5049H468.355V43.2012H465.276C465.019 44.9443 463.5 46.1064 461.499 46.1064C459.25 46.1064 457.656 44.7119 457.664 42.6865C457.656 40.686 459.25 39.2749 461.499 39.2832ZM458.909 42.6865C458.909 44.0312 459.98 45.0024 461.499 45.0107C462.985 45.0024 464.056 44.0312 464.056 42.6865C464.056 41.3252 462.985 40.3789 461.499 40.3955C459.98 40.3789 458.909 41.3252 458.909 42.6865ZM460.154 53.1455V47.252H461.466V49.1279H468.355V47.252H469.667V53.1455H460.154ZM461.466 52.083H468.355V50.1738H461.466V52.083ZM484.293 38.5859V53.3779H482.981V38.5859H484.293ZM472.987 49.8086V39.8477H474.282V43.749H478.682V39.8477H479.96V49.8086H472.987ZM474.282 48.7129H478.682V44.7949H474.282V48.7129ZM500.313 45.4424V46.4717H486.8V45.4424H500.313ZM488.427 48.6299V47.6504H498.62V50.7881H489.755V52.1992H499.102V53.1455H488.443V49.8916H497.325V48.6299H488.427ZM488.51 39.9805V39.0342H498.57V42.0889H489.854V43.3838H498.836V44.3301H488.56V41.1924H497.259V39.9805H488.51ZM46.0947 74.5342V75.6133H39.9521V80.3447H38.6738V75.6133H32.5811V74.5342H46.0947ZM34.3906 73.0068V66.2832H44.4014V67.3457H35.6855V69.0723H44.0527V70.1182H35.6855V71.9443H44.5674V73.0068H34.3906ZM52.2871 70.1182C52.2705 72.4839 53.9805 75.0903 56.1221 76.1113L55.375 77.1406C53.7148 76.3271 52.312 74.584 51.6479 72.5835C50.9673 74.75 49.4897 76.6592 47.8379 77.5059L47.041 76.4766C49.166 75.439 50.9922 72.6333 51.0088 70.1182V68.1924H47.5723V67.1133H55.6074V68.1924H52.2871V70.1182ZM57.417 80.3447V65.5859H58.7119V71.5625H61.1855V72.6748H58.7119V80.3447H57.417ZM66.9795 70.1182C66.9629 72.4839 68.6729 75.0903 70.8145 76.1113L70.0674 77.1406C68.4072 76.3271 67.0044 74.584 66.3403 72.5835C65.6597 74.75 64.1821 76.6592 62.5303 77.5059L61.7334 76.4766C63.8584 75.439 65.6846 72.6333 65.7012 70.1182V68.1924H62.2646V67.1133H70.2998V68.1924H66.9795V70.1182ZM72.1094 80.3447V65.5859H73.4043V71.5625H75.8779V72.6748H73.4043V80.3447H72.1094ZM94.4385 74.0029V75.082H90.8691V80.3447H89.5576V75.082H85.7725V80.3447H84.4277V75.082H80.9248V74.0029H94.4385ZM82.4521 69.4043C82.4604 67.437 84.5439 66.1919 87.6484 66.1836C90.7446 66.1919 92.8447 67.437 92.8447 69.4043C92.8447 71.3716 90.7446 72.6001 87.6484 72.5918C84.5439 72.6001 82.4604 71.3716 82.4521 69.4043ZM83.7969 69.4043C83.7803 70.7075 85.3491 71.5459 87.6484 71.5459C89.9478 71.5459 91.5083 70.7075 91.5166 69.4043C91.5083 68.0928 89.9478 67.2461 87.6484 67.2461C85.3491 67.2461 83.7803 68.0928 83.7969 69.4043ZM107.803 65.5859V80.3447H106.491V65.5859H107.803ZM95.9326 76.4766C98.124 75.4805 99.8008 72.9902 99.8008 70.4004V69.2217H96.3311V68.1592H99.7842V65.8682H101.079V68.1592H104.516V69.2217H101.079V70.4004C101.079 72.874 102.806 75.2646 105.03 76.2109L104.3 77.2236C102.59 76.4683 101.154 74.8745 100.465 72.9238C99.8008 74.9824 98.373 76.6841 96.6631 77.4893L95.9326 76.4766ZM123.823 72.4424V73.4717H110.31V72.4424H123.823ZM111.937 75.6299V74.6504H122.13V77.7881H113.265V79.1992H122.611V80.1455H111.953V76.8916H120.835V75.6299H111.937ZM112.02 66.9805V66.0342H122.08V69.0889H113.364V70.3838H122.346V71.3301H112.069V68.1924H120.769V66.9805H112.02ZM142.732 73.4219V74.4844H129.269V73.4219H135.345V71.9609H131.062V66.0176H141.056V67.0801H132.373V68.458H140.657V69.4541H132.373V70.915H141.139V71.9609H136.64V73.4219H142.732ZM130.912 77.9541C130.904 76.4185 132.738 75.5801 136.009 75.5967C139.246 75.5801 141.072 76.4185 141.089 77.9541C141.072 79.5063 139.246 80.3115 136.009 80.3115C132.738 80.3115 130.904 79.5063 130.912 77.9541ZM132.224 77.9541C132.207 78.8506 133.568 79.3154 136.009 79.2988C138.424 79.3154 139.769 78.8506 139.777 77.9541C139.769 77.0742 138.424 76.5845 136.009 76.5762C133.568 76.5845 132.207 77.0742 132.224 77.9541ZM151.349 68.1426V69.2051H143.944V68.1426H147.016V66.0342H148.311V68.1426H151.349ZM144.476 73.5547C144.476 71.5957 145.812 70.2095 147.646 70.2012C149.506 70.2095 150.834 71.5957 150.851 73.5547C150.834 75.5386 149.506 76.9331 147.646 76.9414C145.812 76.9331 144.476 75.5386 144.476 73.5547ZM145.638 73.5547C145.638 74.8662 146.476 75.8042 147.646 75.7959C148.825 75.8042 149.688 74.8662 149.688 73.5547C149.688 72.2598 148.825 71.3135 147.646 71.2969C146.476 71.3135 145.638 72.2598 145.638 73.5547ZM152.112 79.6143V65.9512H153.341V71.8115H155.3V65.5859H156.545V80.3447H155.3V72.8906H153.341V79.6143H152.112ZM176.45 77.3564V78.4521H162.937V77.3564H169.029V73.7705H170.341V77.3564H176.45ZM163.601 73.2393C166.099 72.8159 168.996 70.749 168.996 68.3916V68.0264H164.049V66.9307H175.288V68.0264H170.341V68.3916C170.349 70.749 173.254 72.7744 175.803 73.1895L175.271 74.2188C173.014 73.7705 170.631 72.3345 169.685 70.2925C168.739 72.3594 166.365 73.8286 164.148 74.2852L163.601 73.2393ZM184.867 66.4492V67.5117H179.588V71.3965C182.485 71.4131 184.228 71.3052 186.245 70.8984L186.411 71.9443C184.294 72.3926 182.493 72.4756 179.455 72.459H178.31V66.4492H184.867ZM179.754 74.833V73.7705H189.167V77.4062H181.065V79.083H189.715V80.1455H179.787V76.377H187.872V74.833H179.754ZM187.872 73.04V65.5859H189.167V68.7236H191.392V69.8027H189.167V73.04H187.872ZM203.859 65.5361V69.1221H206.101V70.2012H203.859V73.7041H202.564V65.5361H203.859ZM192.354 67.9766V66.9307H196.106V65.4365H197.401V66.9307H201.153V67.9766H192.354ZM193.201 71.0645C193.193 69.5703 194.604 68.6489 196.754 68.6406C198.896 68.6489 200.29 69.5703 200.307 71.0645C200.29 72.5669 198.896 73.48 196.754 73.4883C194.604 73.48 193.193 72.5669 193.201 71.0645ZM194.446 75.4473V74.4678H203.859V77.7383H195.758V79.1826H204.407V80.1787H194.479V76.7754H202.564V75.4473H194.446ZM194.446 71.0645C194.438 71.9526 195.351 72.5088 196.754 72.5088C198.148 72.5088 199.062 71.9526 199.078 71.0645C199.062 70.1846 198.148 69.6118 196.754 69.6035C195.351 69.6118 194.438 70.1846 194.446 71.0645ZM218.685 66.9639C218.693 69.0474 221.399 70.8403 224.063 71.2139L223.532 72.2764C221.241 71.8945 218.967 70.6245 218.021 68.8149C217.074 70.6411 214.808 71.8945 212.509 72.2764L211.978 71.2139C214.642 70.8403 217.34 69.0806 217.34 66.9639V66.1172H218.685V66.9639ZM211.28 74.999V73.9033H224.728V74.999H218.618V80.3447H217.34V74.999H211.28ZM235.236 75.4971C235.228 76.8003 235.934 78.1865 237.336 78.9834C238.748 78.1118 239.495 76.6343 239.486 75.4971V74.6836H240.765V75.4971C240.756 77.0161 241.877 78.5269 243.77 79.1826L243.122 80.1455C241.645 79.6226 240.615 78.5933 240.101 77.3564C239.644 78.5518 238.739 79.689 237.378 80.2617C235.942 79.7139 235.029 78.6348 234.589 77.3979C234.058 78.585 233.045 79.6143 231.634 80.1455L230.97 79.1826C232.837 78.4854 233.958 76.9082 233.975 75.4971V74.6836H235.236V75.4971ZM230.588 69.9189C230.58 67.8604 232.215 66.4575 234.456 66.4658C236.697 66.4575 238.316 67.8604 238.324 69.9189C238.316 71.9443 236.697 73.3389 234.456 73.3389C232.215 73.3389 230.58 71.9443 230.588 69.9189ZM231.866 69.9189C231.85 71.2886 232.937 72.2515 234.456 72.2598C235.958 72.2515 237.046 71.2886 237.046 69.9189C237.046 68.541 235.958 67.5615 234.456 67.5781C232.937 67.5615 231.85 68.541 231.866 69.9189ZM241.13 74.0361V65.6025H242.425V74.0361H241.13ZM256.852 72.5088V73.5713H252.286V77.3896H258.445V78.4854H244.932V77.3896H251.008V73.5713H246.658V66.7979H256.702V67.8604H247.97V72.5088H256.852ZM273.121 73.7207V74.7998H259.607V73.7207H265.717V72.1602H261.367V68.5576H270.066V67.0303H261.317V65.9678H271.378V69.5371H262.662V71.1143H271.693V72.1602H266.995V73.7207H273.121ZM261.118 76.9912V75.9287H271.461V80.2119H270.149V76.9912H261.118ZM290.005 65.5859V71.6787H292.479V72.7578H290.005V80.3447H288.71V65.5859H290.005ZM278.5 69.0391V67.96H282.302V65.7686H283.597V67.96H287.282V69.0391H278.5ZM279.347 73.6543C279.338 71.6621 280.866 70.2676 282.966 70.2676C285.049 70.2676 286.568 71.6621 286.585 73.6543C286.568 75.6548 285.049 77.041 282.966 77.041C280.866 77.041 279.338 75.6548 279.347 73.6543ZM280.592 73.6543C280.583 74.999 281.588 75.9453 282.966 75.9287C284.327 75.9453 285.323 74.999 285.34 73.6543C285.323 72.3179 284.327 71.355 282.966 71.3633C281.588 71.355 280.583 72.3179 280.592 73.6543ZM297.243 66.7314C298.596 66.7397 299.7 67.5283 300.339 68.8896H304.216V65.5859H305.511V80.3779H304.216V74.6504H300.431C299.816 76.1445 298.671 77.0161 297.243 77.0078C295.06 77.0161 293.533 75.0239 293.541 71.8779C293.533 68.7402 295.06 66.7397 297.243 66.7314ZM294.786 71.8779C294.794 74.2769 295.791 75.854 297.243 75.8457C298.688 75.854 299.7 74.2769 299.7 71.8779C299.7 69.479 298.688 67.9019 297.243 67.8936C295.791 67.9019 294.794 69.479 294.786 71.8779ZM300.713 69.9854C300.854 70.5581 300.929 71.189 300.929 71.8779C300.929 72.4839 300.871 73.0566 300.763 73.5713H304.216V69.9854H300.713ZM317.182 69.5537C317.182 72.1519 318.9 74.833 321 75.8623L320.203 76.9082C318.576 76.0615 317.215 74.3101 316.559 72.2598C315.903 74.4346 314.509 76.3022 312.849 77.1904L312.019 76.1445C314.177 75.082 315.887 72.2515 315.903 69.5537V66.8643H317.182V69.5537ZM322.361 80.3447V65.5859H323.656V71.5791H326.13V72.708H323.656V80.3447H322.361ZM330.994 66.2832C332.97 66.2749 334.48 67.4287 334.763 69.1221H337.851V65.5859H339.162V73.5049H337.851V70.2012H334.771C334.514 71.9443 332.995 73.1064 330.994 73.1064C328.745 73.1064 327.151 71.7119 327.159 69.6865C327.151 67.686 328.745 66.2749 330.994 66.2832ZM328.404 69.6865C328.404 71.0312 329.475 72.0024 330.994 72.0107C332.48 72.0024 333.551 71.0312 333.551 69.6865C333.551 68.3252 332.48 67.3789 330.994 67.3955C329.475 67.3789 328.404 68.3252 328.404 69.6865ZM329.649 80.1455V74.252H330.961V76.1279H337.851V74.252H339.162V80.1455H329.649ZM330.961 79.083H337.851V77.1738H330.961V79.083ZM348.343 65.8516C351.622 65.8516 353.547 66.7563 353.556 68.3916C353.547 70.0684 351.622 70.9731 348.343 70.9814C345.047 70.9731 343.113 70.0684 343.113 68.3916C343.113 66.7563 345.047 65.8516 348.343 65.8516ZM341.619 73.04V71.9775H355.066V73.04H341.619ZM343.246 75.3145V74.3184H353.34V77.6221H344.574V79.1494H353.788V80.1787H343.279V76.6592H352.062V75.3145H343.246ZM344.475 68.3916C344.458 69.4209 345.894 69.9854 348.343 69.9854C350.792 69.9854 352.219 69.4209 352.228 68.3916C352.219 67.4204 350.792 66.8394 348.343 66.8311C345.894 66.8394 344.458 67.4204 344.475 68.3916ZM372.747 65.6025V76.8086H371.436V75.2812H368.381V74.335H371.436V65.6025H372.747ZM360.495 72.4424C363.243 72.4258 366.945 72.4009 370.107 72.0107L370.19 72.957C368.879 73.1646 367.493 73.2974 366.14 73.3804V76.2939H364.828V73.4468C363.334 73.5049 361.915 73.5049 360.678 73.5049L360.495 72.4424ZM361.69 68.7734C361.682 67.2212 363.16 66.2002 365.343 66.2002C367.509 66.2002 368.987 67.2212 368.995 68.7734C368.987 70.3506 367.509 71.3301 365.343 71.3301C363.16 71.3301 361.682 70.3506 361.69 68.7734ZM362.62 80.0293V75.7129H363.932V78.9336H373.112V80.0293H362.62ZM362.936 68.7734C362.919 69.7363 363.898 70.3589 365.343 70.3672C366.746 70.3589 367.742 69.7363 367.75 68.7734C367.742 67.8271 366.746 67.1797 365.343 67.1963C363.898 67.1797 362.919 67.8271 362.936 68.7734ZM386.792 65.5859V69.3711H389V70.4834H386.792V74.3018H385.48V65.5859H386.792ZM375.204 72.9736C376.383 72.9736 377.761 72.9736 379.205 72.9321V72.019C377.47 71.8779 376.375 71.189 376.383 70.0684C376.375 68.8564 377.736 68.1509 379.836 68.1592C381.936 68.1509 383.289 68.8564 383.306 70.0684C383.289 71.1807 382.218 71.8696 380.5 72.019V72.8823C381.878 72.8159 383.272 72.708 384.567 72.5254L384.684 73.4053C381.496 73.9282 377.952 73.9531 375.354 73.9531L375.204 72.9736ZM375.569 67.6611V66.7148H379.205V65.4531H380.5V66.7148H384.119V67.6611H375.569ZM377.18 75.8955V74.9658H386.792V77.9375H378.508V79.249H387.356V80.1787H377.213V77.0576H385.497V75.8955H377.18ZM377.628 70.0684C377.62 70.7324 378.475 71.1558 379.836 71.1641C381.197 71.1558 382.061 70.7324 382.061 70.0684C382.061 69.4209 381.197 69.0308 379.836 69.0225C378.475 69.0308 377.62 69.4209 377.628 70.0684ZM402.132 65.5859V80.3447H400.82V65.5859H402.132ZM390.295 69.0557V67.9932H394.097V65.7354H395.408V67.9932H399.227V69.0557H390.295ZM391.125 73.6543C391.117 71.6621 392.652 70.2676 394.794 70.2676C396.911 70.2676 398.455 71.6621 398.446 73.6543C398.455 75.6548 396.911 77.041 394.794 77.041C392.652 77.041 391.117 75.6548 391.125 73.6543ZM392.354 73.6543C392.362 74.999 393.383 75.9453 394.794 75.9287C396.188 75.9453 397.209 74.999 397.201 73.6543C397.209 72.3179 396.188 71.355 394.794 71.3633C393.383 71.355 392.362 72.3179 392.354 73.6543ZM422.369 74.5176V75.6133H416.276V80.3779H414.998V75.6133H408.922V74.5176H422.369ZM409.769 72.3262C412.4 71.9692 414.99 70.3589 414.998 68.5078V68.4912H410.233V67.4287H414.998V65.5859H416.276V67.4287H421.074V68.4912H416.293V68.5078C416.293 70.3506 418.866 71.9692 421.506 72.3262L421.024 73.3721C418.742 73.0234 416.592 71.8779 415.654 70.2759C414.716 71.8945 412.533 73.0234 410.25 73.3721L409.769 72.3262ZM428.927 68.7568C428.935 70.749 430.504 72.542 432.712 73.2393L432.048 74.2852C430.33 73.6958 428.968 72.4839 428.296 70.9316C427.657 72.6084 426.271 73.9365 424.511 74.584L423.83 73.5381C426.046 72.7661 427.607 70.8486 427.615 68.7568V67.8936H424.162V66.8311H432.33V67.8936H428.927V68.7568ZM426.271 80.0293V75.3975H427.565V78.9336H436.265V80.0293H426.271ZM434.505 76.4268V65.6025H435.8V76.4268H434.505ZM449.845 65.5361V69.1221H452.086V70.2012H449.845V73.7041H448.55V65.5361H449.845ZM438.34 67.9766V66.9307H442.092V65.4365H443.387V66.9307H447.139V67.9766H438.34ZM439.187 71.0645C439.178 69.5703 440.589 68.6489 442.739 68.6406C444.881 68.6489 446.275 69.5703 446.292 71.0645C446.275 72.5669 444.881 73.48 442.739 73.4883C440.589 73.48 439.178 72.5669 439.187 71.0645ZM440.432 75.4473V74.4678H449.845V77.7383H441.743V79.1826H450.393V80.1787H440.465V76.7754H448.55V75.4473H440.432ZM440.432 71.0645C440.423 71.9526 441.336 72.5088 442.739 72.5088C444.134 72.5088 445.047 71.9526 445.063 71.0645C445.047 70.1846 444.134 69.6118 442.739 69.6035C441.336 69.6118 440.423 70.1846 440.432 71.0645ZM464.67 66.9639C464.678 69.0474 467.384 70.8403 470.049 71.2139L469.518 72.2764C467.227 71.8945 464.952 70.6245 464.006 68.8149C463.06 70.6411 460.793 71.8945 458.494 72.2764L457.963 71.2139C460.627 70.8403 463.325 69.0806 463.325 66.9639V66.1172H464.67V66.9639ZM457.266 74.999V73.9033H470.713V74.999H464.604V80.3447H463.325V74.999H457.266ZM481.222 75.4971C481.213 76.8003 481.919 78.1865 483.322 78.9834C484.733 78.1118 485.48 76.6343 485.472 75.4971V74.6836H486.75V75.4971C486.742 77.0161 487.862 78.5269 489.755 79.1826L489.107 80.1455C487.63 79.6226 486.601 78.5933 486.086 77.3564C485.629 78.5518 484.725 79.689 483.363 80.2617C481.927 79.7139 481.014 78.6348 480.574 77.3979C480.043 78.585 479.03 79.6143 477.619 80.1455L476.955 79.1826C478.823 78.4854 479.943 76.9082 479.96 75.4971V74.6836H481.222V75.4971ZM476.573 69.9189C476.565 67.8604 478.2 66.4575 480.441 66.4658C482.683 66.4575 484.301 67.8604 484.31 69.9189C484.301 71.9443 482.683 73.3389 480.441 73.3389C478.2 73.3389 476.565 71.9443 476.573 69.9189ZM477.852 69.9189C477.835 71.2886 478.922 72.2515 480.441 72.2598C481.944 72.2515 483.031 71.2886 483.031 69.9189C483.031 68.541 481.944 67.5615 480.441 67.5781C478.922 67.5615 477.835 68.541 477.852 69.9189ZM487.115 74.0361V65.6025H488.41V74.0361H487.115ZM502.837 72.5088V73.5713H498.271V77.3896H504.431V78.4854H490.917V77.3896H496.993V73.5713H492.644V66.7979H502.688V67.8604H493.955V72.5088H502.837ZM519.106 73.7207V74.7998H505.593V73.7207H511.702V72.1602H507.353V68.5576H516.052V67.0303H507.303V65.9678H517.363V69.5371H508.647V71.1143H517.679V72.1602H512.98V73.7207H519.106ZM507.104 76.9912V75.9287H517.446V80.2119H516.135V76.9912H507.104ZM536.106 65.5859V69.3711H538.331V70.4834H536.106V74.1689H534.812V65.5859H536.106ZM524.602 68.1924V67.1133H528.354V65.4531H529.648V67.1133H533.4V68.1924H524.602ZM525.448 71.4629C525.44 69.8857 526.859 68.8813 529.001 68.873C531.118 68.8813 532.537 69.8857 532.554 71.4629C532.537 73.04 531.118 74.061 529.001 74.0527C526.859 74.061 525.44 73.04 525.448 71.4629ZM526.693 71.4629C526.685 72.4258 527.606 73.0566 529.001 73.0566C530.379 73.0566 531.309 72.4258 531.325 71.4629C531.309 70.5083 530.379 69.8691 529.001 69.8857C527.606 69.8691 526.685 70.5083 526.693 71.4629ZM526.776 80.1455V74.8164H528.071V76.3936H534.812V74.8164H536.106V80.1455H526.776ZM528.071 79.0996H534.812V77.4229H528.071V79.0996ZM551.43 65.5859V80.3447H550.135V65.5859H551.43ZM540.224 76.543V67.0469H541.502V75.4141C543.76 75.3975 546.084 75.2231 548.558 74.7002L548.74 75.8125C546.117 76.3604 543.785 76.543 541.419 76.543H540.224ZM565.375 65.5859V71.4297H567.849V72.5254H565.375V80.3779H564.08V65.5859H565.375ZM554.601 76.6758V67.0303H561.49V68.1094H555.896V75.5801C558.568 75.5718 560.453 75.4556 562.652 75.0488L562.818 76.1777C560.502 76.5928 558.568 76.6758 555.763 76.6758H554.601Z" fill="#15191E"/>
</svg>
