<svg width="1200" height="960" viewBox="0 0 1200 960" fill="none" xmlns="http://www.w3.org/2000/svg">
<rect width="380" height="300" rx="16" fill="#F2F4F8"/>
<path d="M167.573 229.543V231.734H160.849V233.26H166.993V235.365H160.849V236.977C164.297 236.966 166.478 236.912 168.948 236.504L169.228 238.631C166.445 239.114 163.953 239.157 159.774 239.146H158.099V229.543H167.573ZM160.29 247.762V240.844H173.396V247.762H160.29ZM162.997 245.57H170.71V242.971H162.997V245.57ZM170.646 240.049V228.447H173.396V240.049H170.646ZM192.065 229.844V231.068C192.065 232.422 192.065 234.377 191.614 236.805L188.929 236.547C189.283 234.678 189.369 233.249 189.391 232.078H182.011V229.844H192.065ZM180.851 238.223C181.946 238.223 183.182 238.223 184.481 238.19V234.355H187.21V238.104C189.165 238.019 191.152 237.868 192.989 237.6L193.14 239.576C189.068 240.328 184.492 240.403 181.087 240.414L180.851 238.223ZM183.729 247.633V241.746H186.479V245.441H197.458V247.633H183.729ZM194.042 243.057V228.426H196.856V234.377H199.22V236.676H196.856V243.057H194.042ZM216.515 228.426V248.02H213.786V228.426H216.515ZM201.153 232.271V230.059H210.456V237.6H204.011V241.188C206.997 241.166 209.521 241.016 212.39 240.543L212.626 242.756C209.414 243.325 206.503 243.443 202.937 243.443H201.175V235.43H207.663V232.271H201.153Z" fill="black"/>
<g clip-path="url(#clip0_270_10486)">
<path d="M248 125.694V118.306C248 117.196 247.221 116.238 246.134 116.011L236.823 114.071C235.904 113.88 235.194 113.158 235.005 112.238C234.632 110.435 234.16 108.668 233.592 106.945C233.298 106.054 233.552 105.075 234.251 104.451L241.34 98.1191C242.168 97.3796 242.364 96.1606 241.809 95.1992L238.115 88.8008C237.56 87.8394 236.406 87.3992 235.351 87.7466L226.308 90.7255C225.418 91.0187 224.443 90.7494 223.819 90.05C222.603 88.6885 221.311 87.3966 219.95 86.1814C219.251 85.5573 218.981 84.5825 219.275 83.6923L222.253 74.6487C222.601 73.5943 222.161 72.4407 221.199 71.8857L214.801 68.1915C213.839 67.6365 212.62 67.832 211.881 68.66L205.549 75.7494C204.925 76.4488 203.946 76.7023 203.055 76.4089C201.332 75.8405 199.565 75.368 197.762 74.9959C196.842 74.8063 196.12 74.0961 195.929 73.1773L193.989 63.8656C193.762 62.7788 192.804 62 191.694 62H184.306C183.196 62 182.238 62.7788 182.011 63.8656L180.071 73.1771C179.88 74.0959 179.157 74.806 178.239 74.9956C176.435 75.3678 174.668 75.8405 172.945 76.4087C172.055 76.7023 171.075 76.4485 170.451 75.7491L164.119 68.6598C163.38 67.8317 162.161 67.6363 161.199 68.1913L154.801 71.8855C153.839 72.4405 153.399 73.5941 153.747 74.6485L156.725 83.6921C157.019 84.5823 156.749 85.557 156.05 86.1812C154.689 87.3966 153.397 88.6883 152.181 90.0498C151.557 90.7489 150.583 91.0184 149.692 90.7252L140.649 87.7463C139.594 87.399 138.441 87.8391 137.885 88.8005L134.191 95.199C133.636 96.1604 133.832 97.3794 134.66 98.1188L141.749 104.45C142.449 105.075 142.702 106.054 142.408 106.944C141.84 108.668 141.368 110.435 140.995 112.238C140.806 113.157 140.096 113.88 139.177 114.071L129.866 116.011C128.779 116.238 128 117.196 128 118.306V125.694C128 126.804 128.779 127.762 129.866 127.989L139.177 129.929C140.096 130.12 140.806 130.842 140.995 131.762C141.368 133.565 141.84 135.332 142.408 137.055C142.702 137.946 142.448 138.925 141.749 139.549L134.66 145.881C133.832 146.62 133.636 147.839 134.191 148.801L137.885 155.199C138.44 156.161 139.594 156.601 140.649 156.253L149.692 153.275C150.582 152.981 151.557 153.251 152.181 153.95C153.396 155.311 154.688 156.603 156.05 157.819C156.749 158.443 157.018 159.418 156.725 160.308L153.746 169.351C153.399 170.406 153.839 171.559 154.801 172.114L161.199 175.809C162.161 176.364 163.38 176.168 164.119 175.34L170.451 168.251C171.075 167.551 172.054 167.298 172.945 167.591C174.668 168.159 176.435 168.632 178.238 169.004C179.158 169.194 179.88 169.904 180.071 170.823L182.011 180.134C182.237 181.221 183.195 182 184.306 182H191.694C192.804 182 193.762 181.221 193.989 180.134L195.928 170.823C196.12 169.904 196.842 169.194 197.761 169.004C199.565 168.632 201.331 168.159 203.055 167.591C203.945 167.297 204.924 167.551 205.549 168.251L211.88 175.34C212.62 176.168 213.839 176.364 214.8 175.809L221.199 172.114C222.16 171.559 222.601 170.406 222.253 169.351L219.274 160.308C218.981 159.418 219.25 158.443 219.95 157.819C221.311 156.603 222.603 155.311 223.818 153.95C224.443 153.251 225.417 152.981 226.307 153.275L235.351 156.253C236.405 156.601 237.559 156.161 238.114 155.199L241.808 148.801C242.363 147.839 242.168 146.62 241.34 145.881L234.25 139.549C233.551 138.925 233.297 137.946 233.591 137.055C234.159 135.332 234.632 133.565 235.004 131.762C235.194 130.842 235.904 130.12 236.823 129.929L246.134 127.989C247.221 127.762 248 126.804 248 125.694ZM188 162.244C165.774 162.244 147.756 144.226 147.756 122C147.756 99.774 165.774 81.7562 188 81.7562C210.226 81.7562 228.244 99.774 228.244 122C228.244 144.226 210.226 162.244 188 162.244Z" fill="#D3EFFD"/>
<path d="M246.134 116.011L236.823 114.071C235.904 113.88 235.194 113.158 235.004 112.238C234.632 110.435 234.159 108.668 233.591 106.945C233.298 106.054 233.552 105.075 234.251 104.451L241.34 98.1191C242.168 97.3796 242.364 96.1607 241.809 95.1992L238.114 88.8008C237.559 87.8394 236.406 87.3992 235.351 87.7466L226.308 90.7255C226.139 90.7808 225.968 90.8099 225.797 90.826L225.729 90.916C227.672 96.4876 228.732 102.474 228.732 108.707C228.732 111.731 228.479 114.696 228.002 117.584C228.079 118.29 228.138 119.002 228.178 119.719C228.179 119.743 228.181 119.767 228.183 119.791C228.2 120.109 228.213 120.428 228.223 120.748C228.224 120.801 228.227 120.853 228.228 120.905C228.238 121.269 228.244 121.634 228.244 122C228.244 144.226 210.226 162.244 188 162.244C187.238 162.243 186.478 162.221 185.719 162.178C185.002 162.138 184.29 162.079 183.584 162.002C183.584 162.002 183.584 162.002 183.584 162.002C180.695 162.479 177.731 162.732 174.707 162.732C168.473 162.732 162.487 161.672 156.916 159.729L156.826 159.8C156.809 159.97 156.78 160.141 156.725 160.308L153.746 169.352C153.399 170.406 153.839 171.559 154.801 172.115L161.199 175.809C162.161 176.364 163.38 176.168 164.119 175.34L170.451 168.251C171.075 167.552 172.054 167.298 172.945 167.592C174.668 168.16 176.435 168.632 178.238 169.005C179.157 169.194 179.88 169.904 180.071 170.823L182.011 180.135C182.237 181.221 183.195 182 184.306 182H191.694C192.804 182 193.762 181.221 193.989 180.135L195.928 170.823C196.12 169.904 196.842 169.194 197.761 169.005C199.565 168.632 201.332 168.16 203.055 167.592C203.945 167.298 204.924 167.552 205.549 168.251L211.88 175.34C212.62 176.168 213.839 176.364 214.8 175.809L221.199 172.115C222.16 171.56 222.601 170.406 222.253 169.352L219.274 160.308C218.981 159.418 219.25 158.443 219.95 157.819C221.311 156.603 222.603 155.312 223.818 153.95C224.443 153.251 225.417 152.981 226.307 153.275L235.351 156.253C236.405 156.601 237.559 156.161 238.114 155.199L241.808 148.801C242.363 147.839 242.168 146.62 241.34 145.881L234.25 139.549C233.551 138.925 233.297 137.946 233.591 137.055C234.159 135.332 234.632 133.565 235.004 131.762C235.194 130.843 235.904 130.12 236.823 129.929L246.134 127.989C247.221 127.762 248 126.804 248 125.694V118.306C248 117.196 247.221 116.238 246.134 116.011Z" fill="#B2E5FB"/>
<path d="M224.169 139.634V135.754C224.169 130.69 220.063 126.585 214.999 126.585H201.754C196.69 126.585 192.585 130.69 192.585 135.754V161.981C206.487 160.397 218.26 151.704 224.169 139.634Z" fill="#88F2A9"/>
<path d="M208.377 126.585C214.003 126.585 218.565 122.023 218.565 116.396C218.565 110.77 214.003 106.208 208.377 106.208C202.75 106.208 198.188 110.77 198.188 116.396C198.188 122.023 202.75 126.585 208.377 126.585Z" fill="#FED2A4"/>
<path d="M213.167 107.404C213.929 108.832 214.363 110.462 214.363 112.194C214.363 117.821 209.801 122.382 204.174 122.382C202.443 122.382 200.812 121.949 199.384 121.186C201.099 124.398 204.482 126.585 208.377 126.585C214.004 126.585 218.565 122.023 218.565 116.396C218.565 112.502 216.378 109.118 213.167 107.404Z" fill="#FFBD86"/>
<path d="M151.832 139.634V135.754C151.832 130.69 155.937 126.585 161.001 126.585H174.246C179.31 126.585 183.415 130.69 183.415 135.754V161.981C169.513 160.397 157.74 151.704 151.832 139.634Z" fill="#88F2A9"/>
<path d="M167.623 126.585C173.25 126.585 177.812 122.023 177.812 116.396C177.812 110.77 173.25 106.208 167.623 106.208C161.997 106.208 157.435 110.77 157.435 116.396C157.435 122.023 161.997 126.585 167.623 126.585Z" fill="#FED2A4"/>
<path d="M158.631 121.186C160.059 121.949 161.689 122.382 163.421 122.382C169.048 122.382 173.609 117.821 173.609 112.194C173.609 110.462 173.176 108.832 172.413 107.404C175.625 109.119 177.812 112.502 177.812 116.397C177.812 122.024 173.25 126.585 167.623 126.585C163.728 126.585 160.345 124.398 158.631 121.186Z" fill="#FFBD86"/>
<path d="M203.792 130.151C203.792 125.087 199.687 120.981 194.623 120.981H181.378C176.314 120.981 172.208 125.087 172.208 130.151V159.014C177.059 161.092 182.398 162.244 188 162.244C193.603 162.244 198.941 161.092 203.792 159.014V130.151H203.792Z" fill="#62A4FB"/>
<path d="M194.623 120.981H188C193.064 120.981 197.17 125.087 197.17 130.151V161.189C199.458 160.654 201.671 159.922 203.792 159.014V130.151C203.792 125.087 199.687 120.981 194.623 120.981Z" fill="#5392F9"/>
<path d="M188 120.981C193.627 120.981 198.188 116.42 198.188 110.793C198.188 105.166 193.627 100.605 188 100.605C182.373 100.605 177.812 105.166 177.812 110.793C177.812 116.42 182.373 120.981 188 120.981Z" fill="#FED2A4"/>
<path d="M192.79 101.8C193.552 103.228 193.986 104.858 193.986 106.59C193.986 112.217 189.424 116.778 183.797 116.778C182.066 116.778 180.436 116.345 179.008 115.583C180.722 118.794 184.105 120.981 188 120.981C193.627 120.981 198.189 116.42 198.189 110.793C198.188 106.898 196.002 103.515 192.79 101.8Z" fill="#FFBD86"/>
<path d="M217.776 149.04V140.084C217.776 139.113 216.989 138.326 216.018 138.326C215.047 138.326 214.26 139.113 214.26 140.084V152.468C215.5 151.397 216.674 150.252 217.776 149.04Z" fill="#80E29E"/>
<path d="M161.74 152.468V140.084C161.74 139.113 160.953 138.326 159.982 138.326C159.011 138.326 158.224 139.113 158.224 140.084V149.04C159.326 150.252 160.5 151.397 161.74 152.468Z" fill="#80E29E"/>
<path d="M197.399 161.132V134.99C197.399 134.019 196.612 133.232 195.641 133.232C194.67 133.232 193.884 134.019 193.884 134.99V161.812C195.073 161.637 196.246 161.41 197.399 161.132Z" fill="#4981F8"/>
<path d="M180.359 133.232C179.388 133.232 178.601 134.019 178.601 134.99V161.132C179.754 161.41 180.927 161.637 182.116 161.812V134.99C182.116 134.019 181.33 133.232 180.359 133.232Z" fill="#4981F8"/>
</g>
<rect x="410" y="330" width="380" height="300" rx="16" fill="#F2F4F8"/>
<path d="M556.239 559.586V561.799H551.405V563.346H555.509V565.451H551.405V567.159C553.532 567.127 555.09 567.03 556.905 566.74L557.185 568.867C554.939 569.254 553.07 569.329 550.116 569.318H548.784V559.586H556.239ZM551.47 577.762V570.865H564.812V577.762H551.47ZM554.198 575.57H562.104V573.014H554.198V575.57ZM556.347 565.322V563.131H558.323V558.727H560.923V569.963H558.323V565.322H556.347ZM562.212 570.092V558.426H564.812V570.092H562.212ZM583.267 558.963V561.004H580.71V563.582H583.138V565.623H568.722V563.582H571.128V561.004H568.593V558.963H583.267ZM567.024 568.803V566.654H584.856V568.803H567.024ZM569.087 571.896V569.92H582.687V574.754H571.794V575.828H583.202V577.848H569.108V572.885H579.979V571.896H569.087ZM573.878 563.582H577.96V561.004H573.878V563.582ZM602.388 558.426V571.768H599.659V558.426H602.388ZM587.048 561.82V559.629H596.114V565.645H589.755V567.578C593.257 567.546 595.47 567.406 598.005 566.977L598.306 569.146C595.459 569.673 592.924 569.759 588.788 569.77H587.069V563.582H593.386V561.82H587.048ZM588.079 575.807C592.247 575.291 594.31 573.239 594.31 571.123V570.779H597.188V571.123C597.167 573.218 599.208 575.291 603.397 575.807L602.409 577.912C599.197 577.45 596.909 576.14 595.738 574.292C594.557 576.14 592.279 577.472 589.11 577.912L588.079 575.807ZM621.079 559.844V561.068C621.079 562.422 621.079 564.377 620.628 566.805L617.942 566.547C618.297 564.678 618.383 563.249 618.404 562.078H611.024V559.844H621.079ZM609.864 568.223C610.96 568.223 612.195 568.223 613.495 568.19V564.355H616.224V568.104C618.179 568.019 620.166 567.868 622.003 567.6L622.153 569.576C618.082 570.328 613.506 570.403 610.101 570.414L609.864 568.223ZM612.743 577.633V571.746H615.493V575.441H626.472V577.633H612.743ZM623.056 573.057V558.426H625.87V564.377H628.233V566.676H625.87V573.057H623.056ZM645.528 558.426V578.02H642.8V558.426H645.528ZM630.167 562.271V560.059H639.47V567.6H633.024V571.188C636.011 571.166 638.535 571.016 641.403 570.543L641.64 572.756C638.428 573.325 635.517 573.443 631.95 573.443H630.188V565.43H636.677V562.271H630.167Z" fill="black"/>
<g clip-path="url(#clip1_270_10486)">
<path d="M593.836 447.246H549.367C548.397 447.246 547.609 448.033 547.609 449.003V510.242C547.609 511.213 548.397 512 549.367 512H593.836C594.807 512 595.594 511.213 595.594 510.242V449.003C595.594 448.033 594.807 447.246 593.836 447.246Z" fill="#ECEDEF"/>
<path d="M593.836 447.246H588.446C589.416 447.246 590.203 448.033 590.203 449.003V510.242C590.203 511.213 589.416 512 588.446 512H593.836C594.807 512 595.594 511.213 595.594 510.242V449.003C595.594 448.033 594.807 447.246 593.836 447.246Z" fill="#D0CFD1"/>
<path d="M647.039 464.015H602.57C601.6 464.015 600.812 464.803 600.812 465.773V510.242C600.812 511.213 601.6 512 602.57 512H647.039C648.01 512 648.797 511.213 648.797 510.242V465.773C648.797 464.803 648.01 464.015 647.039 464.015Z" fill="#ECEDEF"/>
<path d="M647.039 464.015H641.649C642.619 464.015 643.406 464.803 643.406 465.773V510.242C643.406 511.213 642.619 512 641.649 512H647.039C648.01 512 648.797 511.213 648.797 510.242V465.773C648.797 464.803 648.01 464.015 647.039 464.015Z" fill="#D0CFD1"/>
<path d="M593.836 392.519H549.367C548.397 392.519 547.609 393.306 547.609 394.277V438.746C547.609 439.717 548.397 440.504 549.367 440.504H593.836C594.807 440.504 595.594 439.717 595.594 438.746V394.277C595.594 393.306 594.807 392.519 593.836 392.519Z" fill="#A3E2EE"/>
<path d="M593.836 392.519H588.446C589.416 392.519 590.203 393.306 590.203 394.277V438.746C590.203 439.717 589.416 440.504 588.446 440.504H593.836C594.807 440.504 595.594 439.717 595.594 438.746V394.277C595.594 393.306 594.807 392.519 593.836 392.519Z" fill="#65CEE3"/>
<path d="M569.039 399.62C561.889 399.62 556.071 405.437 556.071 412.587C556.071 419.738 561.889 425.556 569.039 425.556C576.189 425.556 582.007 419.738 582.007 412.587C582.007 405.437 576.189 399.62 569.039 399.62Z" fill="#F9E075"/>
<path d="M569.039 399.62C568.114 399.62 567.214 399.719 566.344 399.903C572.205 401.147 576.616 406.361 576.616 412.587C576.616 418.814 572.205 424.028 566.344 425.272C567.214 425.456 568.114 425.555 569.039 425.555C576.189 425.555 582.007 419.738 582.007 412.587C582.007 405.437 576.189 399.62 569.039 399.62Z" fill="#F9CD45"/>
<path d="M588.084 433.18L573.719 408.3C573.405 407.756 572.826 407.421 572.197 407.421C571.569 407.421 570.989 407.756 570.675 408.3L556.31 433.18C556.154 433.451 556.075 433.755 556.075 434.058C556.075 434.362 556.154 434.665 556.31 434.937C556.625 435.481 557.205 435.816 557.833 435.816H586.561C587.189 435.816 587.77 435.481 588.084 434.937C588.24 434.665 588.319 434.362 588.319 434.058C588.319 433.755 588.24 433.451 588.084 433.18Z" fill="#D47A3D"/>
<path d="M588.084 433.18L573.719 408.3C573.405 407.756 572.826 407.421 572.197 407.421C571.569 407.421 570.989 407.756 570.675 408.3L569.501 410.332L582.693 433.18C582.85 433.451 582.929 433.755 582.929 434.058C582.929 434.362 582.85 434.665 582.693 434.937C582.379 435.481 581.799 435.816 581.171 435.816H586.561C587.189 435.816 587.77 435.481 588.084 434.937C588.24 434.665 588.319 434.362 588.319 434.058C588.319 433.755 588.24 433.451 588.084 433.18Z" fill="#9F5C2E"/>
<path d="M567.668 460.053H556.886C555.915 460.053 555.129 459.266 555.129 458.295C555.129 457.324 555.915 456.537 556.886 456.537H567.668C568.638 456.537 569.425 457.324 569.425 458.295C569.425 459.266 568.638 460.053 567.668 460.053Z" fill="#D0CFD1"/>
<path d="M586.317 502.709H575.536C574.565 502.709 573.778 501.922 573.778 500.951C573.778 499.98 574.565 499.194 575.536 499.194H586.317C587.288 499.194 588.075 499.98 588.075 500.951C588.075 501.922 587.288 502.709 586.317 502.709Z" fill="#D0CFD1"/>
<path d="M586.317 467.787H556.886C555.915 467.787 555.129 467 555.129 466.03C555.129 465.058 555.915 464.272 556.886 464.272H586.317C587.288 464.272 588.075 465.058 588.075 466.03C588.075 467 587.288 467.787 586.317 467.787Z" fill="#D0CFD1"/>
<path d="M586.317 476.576H556.886C555.915 476.576 555.129 475.789 555.129 474.819C555.129 473.847 555.915 473.061 556.886 473.061H586.317C587.288 473.061 588.075 473.847 588.075 474.819C588.075 475.789 587.288 476.576 586.317 476.576Z" fill="#D0CFD1"/>
<path d="M586.317 485.365H556.886C555.915 485.365 555.129 484.578 555.129 483.608C555.129 482.636 555.915 481.85 556.886 481.85H586.317C587.288 481.85 588.075 482.636 588.075 483.608C588.075 484.578 587.288 485.365 586.317 485.365Z" fill="#D0CFD1"/>
<path d="M586.317 494.155H556.886C555.915 494.155 555.129 493.367 555.129 492.397C555.129 491.425 555.915 490.639 556.886 490.639H586.317C587.288 490.639 588.075 491.425 588.075 492.397C588.075 493.367 587.288 494.155 586.317 494.155Z" fill="#D0CFD1"/>
<path d="M647.039 392H602.57C601.6 392 600.812 392.787 600.812 393.758V454.997C600.812 455.967 601.6 456.754 602.57 456.754H647.039C648.01 456.754 648.797 455.967 648.797 454.997V393.758C648.797 392.787 648.01 392 647.039 392Z" fill="#ECEDEF"/>
<path d="M647.039 392H641.649C642.619 392 643.407 392.787 643.407 393.758V454.997C643.407 455.967 642.619 456.754 641.649 456.754H647.039C648.01 456.754 648.797 455.967 648.797 454.997V393.758C648.797 392.787 648.01 392 647.039 392Z" fill="#D0CFD1"/>
<path d="M620.871 404.806H610.09C609.118 404.806 608.332 404.02 608.332 403.049C608.332 402.078 609.118 401.291 610.09 401.291H620.871C621.841 401.291 622.629 402.078 622.629 403.049C622.629 404.02 621.841 404.806 620.871 404.806Z" fill="#D0CFD1"/>
<path d="M639.52 447.463H628.739C627.768 447.463 626.981 446.676 626.981 445.705C626.981 444.734 627.768 443.947 628.739 443.947H639.52C640.492 443.947 641.278 444.734 641.278 445.705C641.278 446.676 640.492 447.463 639.52 447.463Z" fill="#D0CFD1"/>
<path d="M639.52 412.541H610.09C609.118 412.541 608.332 411.754 608.332 410.783C608.332 409.812 609.118 409.025 610.09 409.025H639.52C640.492 409.025 641.278 409.812 641.278 410.783C641.278 411.754 640.492 412.541 639.52 412.541Z" fill="#D0CFD1"/>
<path d="M639.52 421.33H610.09C609.118 421.33 608.332 420.543 608.332 419.572C608.332 418.602 609.118 417.814 610.09 417.814H639.52C640.492 417.814 641.278 418.602 641.278 419.572C641.278 420.543 640.492 421.33 639.52 421.33Z" fill="#D0CFD1"/>
<path d="M639.52 430.119H610.09C609.118 430.119 608.332 429.332 608.332 428.361C608.332 427.391 609.118 426.603 610.09 426.603H639.52C640.492 426.603 641.278 427.391 641.278 428.361C641.278 429.332 640.492 430.119 639.52 430.119Z" fill="#D0CFD1"/>
<path d="M639.52 438.908H610.09C609.118 438.908 608.332 438.122 608.332 437.15C608.332 436.18 609.118 435.392 610.09 435.392H639.52C640.492 435.392 641.278 436.18 641.278 437.15C641.278 438.122 640.492 438.908 639.52 438.908Z" fill="#D0CFD1"/>
<path d="M639.464 475.45H610.145C609.175 475.45 608.388 476.237 608.388 477.208V484.211C608.388 484.228 608.388 484.244 608.388 484.26V488.615C608.388 489.585 609.176 490.372 610.146 490.372H615.145C616.116 490.372 616.903 489.585 616.903 488.615V485.969H619.545V495.332H618.393C617.423 495.332 616.636 496.118 616.636 497.09V502.089C616.636 503.059 617.423 503.846 618.393 503.846H631.216C632.187 503.846 632.974 503.059 632.974 502.089V497.09C632.974 496.118 632.187 495.332 631.216 495.332H630.065V485.969H632.707V488.615C632.707 489.585 633.494 490.372 634.465 490.372H639.464C640.435 490.372 641.222 489.585 641.222 488.615V477.208C641.222 476.237 640.435 475.45 639.464 475.45Z" fill="#8F43B1"/>
<path d="M639.464 475.45H634.074C635.044 475.45 635.831 476.237 635.831 477.208V488.615C635.831 489.519 635.148 490.264 634.269 490.361C634.334 490.368 634.399 490.372 634.465 490.372H639.464C640.435 490.372 641.222 489.585 641.222 488.615V477.208C641.222 476.237 640.435 475.45 639.464 475.45Z" fill="#823FB0"/>
</g>
<rect x="820" y="660" width="380" height="300" rx="16" fill="#F2F4F8"/>
<path d="M951.474 888.426V892.701H954.116V894.957H951.474V899.361H948.724V888.426H951.474ZM935.747 897.621C940.141 896.525 942.558 894.355 942.998 891.756H936.714V889.564H945.995C945.984 894.742 942.708 898.244 936.843 899.791L935.747 897.621ZM938.69 907.74V900.092H951.474V907.74H938.69ZM941.419 905.592H948.767V902.305H941.419V905.592ZM962.173 892.852C962.162 896.354 963.655 899.888 966.792 901.402L965.138 903.594C963.043 902.552 961.625 900.618 960.819 898.266C959.96 900.79 958.456 902.863 956.243 903.959L954.546 901.746C957.865 900.221 959.423 896.482 959.423 892.852V889.93H962.173V892.852ZM967.651 907.977V888.426H970.401V895.967H973.28V898.287H970.401V907.977H967.651ZM996.892 900.135V902.369H989.308V907.998H986.601V902.369H979.06V900.135H996.892ZM979.962 896.934C984.022 896.482 986.225 894.57 986.558 892.83H980.671V890.682H986.601V888.447H989.308V890.682H995.259V892.83H989.394C989.694 894.549 991.896 896.482 995.946 896.934L994.958 899.082C991.639 898.706 989.243 897.342 987.976 895.569C986.697 897.363 984.291 898.706 980.95 899.082L979.962 896.934ZM1009.35 889.521V891.691H1005.46C1005.47 893.99 1006.87 896.364 1009.95 897.385L1008.6 899.49C1006.44 898.813 1004.95 897.396 1004.1 895.645C1003.23 897.589 1001.67 899.157 999.362 899.898L997.966 897.729C1001.19 896.708 1002.65 894.119 1002.67 891.691H998.739V889.521H1009.35ZM1001.12 903.121V900.93H1014.55V907.977H1011.82V903.121H1001.12ZM1008.79 895.365V893.131H1011.82V888.426H1014.55V900.07H1011.82V895.365H1008.79ZM1038.53 888.447V902.498H1035.78V888.447H1038.53ZM1022.46 894.613C1022.46 891.745 1024.8 889.683 1027.81 889.693C1030.8 889.683 1033.15 891.745 1033.16 894.613C1033.15 897.524 1030.8 899.576 1027.81 899.576C1024.8 899.576 1022.46 897.524 1022.46 894.613ZM1025.14 894.613C1025.12 896.246 1026.27 897.191 1027.81 897.191C1029.29 897.191 1030.44 896.246 1030.45 894.613C1030.44 893.023 1029.29 892.067 1027.81 892.078C1026.27 892.067 1025.12 893.023 1025.14 894.613ZM1025.42 907.633V901.08H1028.19V905.441H1039.04V907.633H1025.42ZM1059 897.428V899.641H1041.17V897.428H1059ZM1041.97 894.57C1045.64 894.237 1047.65 892.895 1048.1 891.52H1042.8V889.328H1057.39V891.52H1052.05C1052.49 892.884 1054.49 894.237 1058.25 894.57L1057.28 896.719C1053.59 896.364 1051.11 894.968 1050.07 893.077C1049.03 894.968 1046.57 896.364 1042.87 896.719L1041.97 894.57ZM1043.21 904.367C1043.21 902.068 1045.79 900.736 1050.07 900.736C1054.31 900.736 1056.85 902.068 1056.88 904.367C1056.85 906.677 1054.31 907.987 1050.07 907.977C1045.79 907.987 1043.21 906.677 1043.21 904.367ZM1046 904.367C1045.99 905.377 1047.36 905.85 1050.07 905.85C1052.72 905.85 1054.12 905.377 1054.13 904.367C1054.12 903.347 1052.72 902.863 1050.07 902.863C1047.36 902.863 1045.99 903.347 1046 904.367ZM1067.58 892.852C1067.59 896.525 1069.07 900.103 1072.32 901.51L1070.65 903.701C1068.48 902.648 1067.02 900.693 1066.2 898.276C1065.36 900.844 1063.86 902.949 1061.62 904.045L1059.91 901.811C1063.26 900.296 1064.78 896.525 1064.8 892.852V889.93H1067.58V892.852ZM1070.13 896.783V894.57H1073.98V888.426H1076.68V908.02H1073.98V896.783H1070.13Z" fill="black"/>
<g clip-path="url(#clip2_270_10486)">
<path d="M1048.02 834C1052.44 834 1056.02 830.418 1056.02 826V730C1056.02 725.582 1052.44 722 1048.02 722H967.982C963.563 722 959.982 725.582 959.982 730V826C959.982 830.418 963.563 834 967.982 834H1048.02V834Z" fill="#FFDC67"/>
<path d="M1031.98 826H1037.98C1038.92 826 1039.74 825.346 1039.93 824.427C1040.61 821.227 1043.28 818.588 1046.44 817.916C1047.36 817.72 1048.02 816.905 1048.02 815.963V740.037C1048.02 739.095 1047.36 738.28 1046.44 738.084C1043.28 737.412 1040.61 734.773 1039.93 731.573C1039.74 730.654 1038.92 730 1037.98 730H978.018C977.078 730 976.261 730.654 976.066 731.573C975.389 734.773 972.718 737.412 969.56 738.084C968.639 738.28 967.982 739.095 967.982 740.037V815.963C967.982 816.905 968.639 817.72 969.56 817.916C972.717 818.588 975.389 821.227 976.066 824.427C976.261 825.346 977.078 826 978.018 826H1007.98H1031.98V826Z" fill="#F9F5F5"/>
<path d="M1048.02 722H1042.46C1046.88 722 1050.46 725.582 1050.46 730V826C1050.46 830.418 1046.88 834 1042.46 834H1048.02C1052.44 834 1056.02 830.418 1056.02 826V730C1056.02 725.582 1052.44 722 1048.02 722Z" fill="#FFB957"/>
<path d="M1046.44 738.084C1043.28 737.412 1040.61 734.773 1039.93 731.573C1039.74 730.654 1038.92 730 1037.98 730H1032.43C1033.37 730 1034.19 730.654 1034.38 731.573C1035.06 734.773 1037.73 737.412 1040.89 738.084C1041.81 738.28 1042.46 739.095 1042.46 740.037V815.963C1042.46 816.905 1041.81 817.72 1040.89 817.916C1037.73 818.588 1035.06 821.227 1034.38 824.427C1034.19 825.346 1033.37 826 1032.43 826H1037.98C1038.92 826 1039.74 825.346 1039.93 824.427C1040.61 821.227 1043.28 818.588 1046.44 817.916C1047.36 817.72 1048.02 816.905 1048.02 815.963V740.037C1048.02 739.095 1047.36 738.28 1046.44 738.084Z" fill="#E2D8EC"/>
<path d="M1022.11 750H993.857C992.821 750 991.982 749.161 991.982 748.125V743.875C991.982 742.839 992.821 742 993.857 742H1022.11C1023.14 742 1023.98 742.839 1023.98 743.875V748.125C1023.98 749.161 1023.14 750 1022.11 750Z" fill="#7DA8FF"/>
<path d="M1030.16 818.348L1031.56 821.156C1031.84 821.711 1031.98 822.323 1031.98 822.944V839.999C1031.98 841.364 1030.64 842.328 1029.35 841.896L1023.98 840.107L1020.61 837.533C1020.2 837.396 1019.76 837.396 1019.35 837.533L1015.98 840.107L1010.61 841.896C1009.32 842.328 1007.98 841.364 1007.98 839.999V822.944C1007.98 822.323 1008.13 821.711 1008.4 821.156L1009.81 818.349L1030.16 818.348Z" fill="#FF5856"/>
<path d="M1031.56 821.155L1030.16 818.348L1024.6 818.348L1026.01 821.155C1026.28 821.711 1026.43 822.323 1026.43 822.944V839.998C1026.43 840.31 1026.36 840.599 1026.23 840.857L1029.35 841.896C1030.64 842.327 1031.98 841.363 1031.98 839.998V822.944C1031.98 822.323 1031.84 821.711 1031.56 821.155Z" fill="#F54745"/>
<path d="M1023.98 818.348L1015.98 818.348V840.106L1019.35 838.984C1019.76 838.847 1020.2 838.847 1020.61 838.984L1023.98 840.106V818.348H1023.98Z" fill="#F9F5F5"/>
<path d="M1019.98 822C1028.82 822 1035.98 814.837 1035.98 806C1035.98 797.163 1028.82 790 1019.98 790C1011.15 790 1003.98 797.163 1003.98 806C1003.98 814.837 1011.15 822 1019.98 822Z" fill="#FFDC67"/>
<path d="M1019.98 814C1024.4 814 1027.98 810.418 1027.98 806C1027.98 801.582 1024.4 798 1019.98 798C1015.56 798 1011.98 801.582 1011.98 806C1011.98 810.418 1015.56 814 1019.98 814Z" fill="#FFB456"/>
<path d="M1019.98 790C1019.03 790 1018.11 790.087 1017.2 790.245C1024.72 791.56 1030.43 798.111 1030.43 806C1030.43 813.889 1024.72 820.44 1017.2 821.755C1018.11 821.913 1019.03 822 1019.98 822C1028.82 822 1035.98 814.837 1035.98 806C1035.98 797.163 1028.82 790 1019.98 790Z" fill="#FFB957"/>
<path d="M1048 823.689C1047 823.689 1046.19 824.5 1046.19 825.5V826.5C1046.19 827.5 1047 828.311 1048 828.311C1049 828.311 1049.81 827.5 1049.81 826.5V825.5C1049.81 824.5 1049 823.689 1048 823.689Z" fill="#FFB456"/>
<path d="M1048 727.689C1047 727.689 1046.19 728.5 1046.19 729.5V730.5C1046.19 731.5 1047 732.311 1048 732.311C1049 732.311 1049.81 731.5 1049.81 730.5V729.5C1049.81 728.5 1049 727.689 1048 727.689Z" fill="#FFB456"/>
<path d="M967.982 727.689C966.981 727.689 966.171 728.5 966.171 729.5V730.5C966.171 731.5 966.982 732.311 967.982 732.311C968.982 732.311 969.793 731.5 969.793 730.5V729.5C969.793 728.5 968.982 727.689 967.982 727.689Z" fill="#FFB456"/>
<path d="M967.982 823.689C966.981 823.689 966.171 824.5 966.171 825.5V826.5C966.171 827.5 966.982 828.311 967.982 828.311C968.982 828.311 969.793 827.5 969.793 826.5V825.5C969.793 824.5 968.982 823.689 967.982 823.689Z" fill="#FFB456"/>
<path d="M1020.48 804.189H1019.48C1018.48 804.189 1017.67 805 1017.67 806C1017.67 807 1018.48 807.811 1019.48 807.811H1020.48C1021.48 807.811 1022.29 807 1022.29 806C1022.29 805 1021.48 804.189 1020.48 804.189Z" fill="#FF9A56"/>
<path d="M983.982 759.811H1031.98C1032.98 759.811 1033.79 759 1033.79 758C1033.79 757 1032.98 756.189 1031.98 756.189H983.982C982.982 756.189 982.171 757 982.171 758C982.171 759 982.982 759.811 983.982 759.811Z" fill="#365E7D"/>
<path d="M1031.98 764.189H983.982C982.981 764.189 982.171 765 982.171 766C982.171 767 982.982 767.811 983.982 767.811H1031.98C1032.98 767.811 1033.79 767 1033.79 766C1033.79 765 1032.98 764.189 1031.98 764.189Z" fill="#365E7D"/>
<path d="M1031.98 772.189H983.982C982.981 772.189 982.171 773 982.171 774C982.171 775 982.982 775.811 983.982 775.811H1031.98C1032.98 775.811 1033.79 775 1033.79 774C1033.79 773 1032.98 772.189 1031.98 772.189Z" fill="#365E7D"/>
<path d="M1019.98 780.189H995.982C994.982 780.189 994.171 781 994.171 782C994.171 783 994.982 783.811 995.982 783.811H1019.98C1020.98 783.811 1021.79 783 1021.79 782C1021.79 781 1020.98 780.189 1019.98 780.189Z" fill="#365E7D"/>
<path d="M1022.05 742H1016.5C1017.56 742 1018.43 742.865 1018.43 743.932V748.069C1018.43 749.135 1017.56 750 1016.5 750H1022.05C1023.12 750 1023.98 749.135 1023.98 748.069V743.932C1023.98 742.865 1023.12 742 1022.05 742Z" fill="#7092FF"/>
</g>
<rect x="820" width="380" height="300" rx="16" fill="#F2F4F8"/>
<path d="M975.886 238.094V240.264H968.517V243.637H965.81V240.264H957.989V238.094H975.886ZM960.095 247.633V241.939H962.823V245.441H973.909V247.633H960.095ZM960.224 236.482V229.285H973.587V236.482H960.224ZM962.909 234.355H970.901V231.412H962.909V234.355ZM984.415 232.852C984.426 236.525 985.908 240.103 989.163 241.51L987.487 243.701C985.317 242.648 983.856 240.693 983.04 238.276C982.202 240.844 980.698 242.949 978.464 244.045L976.745 241.811C980.097 240.296 981.622 236.525 981.644 232.852V229.93H984.415V232.852ZM986.972 236.783V234.57H990.817V228.426H993.524V248.02H990.817V236.783H986.972ZM1011.55 228.426V233.238H1014.19V235.537H1011.55V240.221H1008.8V228.426H1011.55ZM996.038 232.357V230.188H1000.49V228.318H1003.21V230.188H1007.64V232.357H996.038ZM996.983 236.461C996.983 234.398 998.96 232.959 1001.84 232.959C1004.69 232.959 1006.65 234.398 1006.65 236.461C1006.65 238.577 1004.69 239.995 1001.84 240.006C998.96 239.995 996.983 238.577 996.983 236.461ZM998.767 247.762V241.08H1011.55V247.762H998.767ZM999.669 236.461C999.658 237.46 1000.53 237.976 1001.84 237.986C1003.16 237.976 1004.05 237.46 1004.05 236.461C1004.05 235.526 1003.16 235.011 1001.84 235.021C1000.53 235.011 999.658 235.526 999.669 236.461ZM1001.47 245.57H1008.84V243.229H1001.47V245.57ZM1031.08 229.844V231.068C1031.08 232.422 1031.08 234.377 1030.63 236.805L1027.94 236.547C1028.3 234.678 1028.38 233.249 1028.4 232.078H1021.02V229.844H1031.08ZM1019.86 238.223C1020.96 238.223 1022.2 238.223 1023.5 238.19V234.355H1026.22V238.104C1028.18 238.019 1030.17 237.868 1032 237.6L1032.15 239.576C1028.08 240.328 1023.51 240.403 1020.1 240.414L1019.86 238.223ZM1022.74 247.633V241.746H1025.49V245.441H1036.47V247.633H1022.74ZM1033.06 243.057V228.426H1035.87V234.377H1038.23V236.676H1035.87V243.057H1033.06ZM1055.53 228.426V248.02H1052.8V228.426H1055.53ZM1040.17 232.271V230.059H1049.47V237.6H1043.02V241.188C1046.01 241.166 1048.54 241.016 1051.4 240.543L1051.64 242.756C1048.43 243.325 1045.52 243.443 1041.95 243.443H1040.19V235.43H1046.68V232.271H1040.17Z" fill="black"/>
<path d="M981.252 85.1497V74.303H1006.91C1008.21 74.303 1009.38 75.099 1009.86 76.3112L1013.37 85.1499L998.153 89.1666L981.252 85.1497Z" fill="#8AC9FE"/>
<path d="M1013.37 85.1488H1008.37L1004.87 76.3102C1004.39 75.0999 1003.22 74.3033 1001.91 74.3033H1006.91C1008.21 74.3033 1009.38 75.0997 1009.86 76.3102L1013.37 85.1488Z" fill="#60B7FF"/>
<path d="M1036.38 85.1497H989.993C988.689 85.1497 987.518 84.3537 987.037 83.1415L984.33 76.3109C983.849 75.099 982.677 74.3028 981.374 74.3028H958.898C957.142 74.3028 955.718 75.7264 955.718 77.4826V81.9699C955.718 83.7261 954.295 85.1497 952.538 85.1497H952.245C949.901 85.1497 948 87.0505 948 89.3949V154.513C948 158.439 951.183 161.622 955.109 161.622H1040.62V89.3949C1040.62 87.0505 1038.72 85.1497 1036.38 85.1497Z" fill="#FEF0AE"/>
<path d="M1040.62 94.8992V161.622H955.109C954.19 161.622 953.314 161.449 952.507 161.129C954.139 160.47 955.369 159.146 956.225 157.216C956.598 156.374 956.849 155.484 957.01 154.576C957.01 154.576 966.89 99.0823 966.94 98.6485C967.185 96.5361 968.978 94.899 971.157 94.899L1040.62 94.8992Z" fill="#FEE97D"/>
<path d="M989.994 85.1488H985.181C983.877 85.1488 982.705 84.3547 982.224 83.1418L979.517 76.3102C979.038 75.0999 977.866 74.3033 976.562 74.3033H981.374C982.679 74.3033 983.85 75.0997 984.329 76.3102L987.036 83.1418C987.518 84.3545 988.689 85.1488 989.994 85.1488Z" fill="#FEE97D"/>
<path d="M1040.62 89.3959V161.622H1035.81V89.3959C1035.81 87.0498 1033.91 85.1487 1031.56 85.1487H1036.38C1038.72 85.1487 1040.62 87.0498 1040.62 89.3959Z" fill="#FEE97D"/>
<path d="M976.461 94.898H1055.56C1057.91 94.898 1059.81 96.7986 1059.81 99.1432L1049.81 157.377C1049.81 159.721 1047.91 161.622 1045.56 161.622H962.22H955.11C958.198 161.622 960.322 160.045 961.593 157.069C961.934 156.271 962.163 155.43 962.316 154.576L972.073 99.9464C972.15 99.5166 972.194 99.0821 972.245 98.6482C972.49 96.5368 974.284 94.898 976.461 94.898Z" fill="#FEE45A"/>
<path d="M1059.81 99.1439L1049.81 157.377C1049.81 159.721 1047.91 161.622 1045.57 161.622H1040.64C1042.99 161.622 1044.89 159.721 1044.89 157.377L1054.88 99.1439C1054.88 96.7978 1052.98 94.8992 1050.64 94.8992H1055.56C1057.91 94.8992 1059.81 96.7976 1059.81 99.1439Z" fill="#FED402"/>
<path d="M992.246 145.144H977.359C976.388 145.144 975.601 144.357 975.601 143.386C975.601 142.415 976.388 141.628 977.359 141.628H992.246C993.217 141.628 994.004 142.415 994.004 143.386C994.004 144.357 993.217 145.144 992.246 145.144Z" fill="#FAC600"/>
<path d="M998.153 152.301H974.471C973.501 152.301 972.714 151.514 972.714 150.543C972.714 149.572 973.501 148.785 974.471 148.785H998.153C999.124 148.785 999.911 149.572 999.911 150.543C999.911 151.514 999.124 152.301 998.153 152.301Z" fill="#FAC600"/>
<path d="M1023.03 154.789L1012.27 148.985L1007.36 168.212C1007.13 169.087 1007.93 169.882 1008.8 169.658L1028.03 164.748L1023.03 154.789Z" fill="#FEF1DA"/>
<path d="M1028.03 164.748L1008.8 169.657C1007.93 169.881 1007.13 169.087 1007.36 168.211L1007.95 165.877L1024.84 161.565L1028.03 164.748Z" fill="#FAE2C0"/>
<path d="M1017.45 167.451L1008.8 169.659C1007.93 169.882 1007.13 169.087 1007.36 168.212L1009.56 159.569L1017.45 167.451Z" fill="#7CA1B1"/>
<path d="M1017.45 167.45L1008.8 169.659C1007.93 169.881 1007.13 169.087 1007.36 168.213V168.211L1007.95 165.877L1014.26 164.267L1017.45 167.45Z" fill="#678D98"/>
<path d="M1060.45 132.324L1053.48 122.549L1044.69 116.562L1039.04 122.211L1045.22 132.325L1054.8 137.973L1060.45 132.324Z" fill="#7CA1B1"/>
<path d="M1057.26 129.121L1060.45 132.305L1054.8 137.954L1051.61 134.769L1057.26 129.121Z" fill="#678D98"/>
<path d="M1066.06 117.341L1059.67 110.956C1057.08 108.367 1052.88 108.367 1050.29 110.956L1044.69 116.562L1060.45 132.324L1066.06 126.719C1068.65 124.13 1068.65 119.931 1066.06 117.341Z" fill="#EAF6FF"/>
<path d="M1066.06 126.718L1060.45 132.325L1057.26 129.136L1062.86 123.542C1065.45 120.953 1065.45 116.753 1062.86 114.164L1066.06 117.341C1068.65 119.93 1068.65 124.129 1066.06 126.718Z" fill="#D8ECFE"/>
<path d="M1039.04 122.196L1054.8 137.957L1028.03 164.727L1012.27 148.967L1039.04 122.196Z" fill="#EE6161"/>
<path d="M1051.62 134.772L1054.8 137.956L1028.03 164.726L1024.85 161.542L1051.62 134.772Z" fill="#E94444"/>
<rect y="660" width="380" height="300" rx="16" fill="#F2F4F8"/>
<path d="M154.408 892.852C154.419 896.525 155.901 900.103 159.156 901.51L157.48 903.701C155.311 902.648 153.85 900.693 153.033 898.276C152.195 900.844 150.691 902.949 148.457 904.045L146.738 901.811C150.09 900.296 151.615 896.525 151.637 892.852V889.93H154.408V892.852ZM156.965 896.783V894.57H160.811V888.426H163.518V908.02H160.811V896.783H156.965ZM176.129 890.016V891.498H179.781V888.447H182.51V902.67H179.781V897.879H176.129V899.533H166.848V890.016H176.129ZM169.49 907.633V901.316H172.262V905.441H182.918V907.633H169.49ZM169.576 897.406H173.443V892.186H169.576V897.406ZM176.129 895.709H179.781V893.711H176.129V895.709ZM206.594 888.426V898.266H203.865V896.762H199.396V894.678H203.865V892.959H199.611C198.397 895.892 195.604 897.771 191.275 898.717L190.352 896.482C194.831 895.602 196.894 893.743 197.259 891.391H191.447V889.178H200.299C200.299 889.769 200.256 890.338 200.17 890.875H203.865V888.426H206.594ZM193.596 901.123V898.975H206.594V904.324H196.367V905.613H207.023V907.783H193.617V902.305H203.844V901.123H193.596ZM215.467 889.736C218.571 889.726 220.87 891.724 220.881 894.527C220.87 897.342 218.571 899.329 215.467 899.34C212.384 899.329 210.021 897.342 210.031 894.527C210.021 891.724 212.384 889.726 215.467 889.736ZM209.215 901.789C212.706 901.8 217.54 901.757 221.719 901.166L221.934 903.143C217.594 903.991 212.953 904.023 209.537 904.023L209.215 901.789ZM212.76 894.527C212.749 896.074 213.92 896.966 215.467 896.955C217.024 896.966 218.206 896.074 218.217 894.527C218.206 893.002 217.024 892.1 215.467 892.1C213.92 892.1 212.749 893.002 212.76 894.527ZM222.836 908.02V888.426H225.564V908.02H222.836Z" fill="black"/>
<g clip-path="url(#clip3_270_10486)">
<path d="M218.694 841.958H132.203C129.881 841.958 128 840.076 128 837.756V726.203C128 723.881 129.881 722 132.203 722H218.694C221.015 722 222.897 723.881 222.897 726.203V837.756C222.896 840.076 221.015 841.958 218.694 841.958Z" fill="#FFF5F5"/>
<path d="M222.895 726.202V837.757C222.895 840.077 221.014 841.958 218.694 841.958H212.468C214.788 841.958 216.672 840.077 216.672 837.757V726.202C216.672 723.881 214.788 722 212.468 722H218.694C221.014 722 222.895 723.881 222.895 726.202Z" fill="#EFE2DD"/>
<path d="M210.635 743.277C210.635 748.743 206.204 753.176 200.737 753.176C195.27 753.176 190.838 748.743 190.838 743.277C190.838 737.809 195.27 733.378 200.737 733.378C206.204 733.378 210.635 737.809 210.635 743.277Z" fill="#A8D3D8"/>
<path d="M210.635 743.276C210.635 748.743 206.204 753.176 200.739 753.176C197.855 753.176 195.262 751.945 193.451 749.979C194.454 750.321 195.531 750.505 196.651 750.505C202.117 750.505 206.549 746.073 206.549 740.606C206.549 738.021 205.559 735.666 203.938 733.904C207.833 735.237 210.635 738.929 210.635 743.276Z" fill="#7BC0C8"/>
<path d="M180.794 737.017H176.036C175.065 737.017 174.278 736.231 174.278 735.26C174.278 734.289 175.065 733.502 176.036 733.502H180.794C181.765 733.502 182.552 734.289 182.552 735.26C182.552 736.231 181.764 737.017 180.794 737.017Z" fill="#FFB541"/>
<path d="M164.311 737.017H140.261C139.29 737.017 138.503 736.231 138.503 735.26C138.503 734.289 139.29 733.502 140.261 733.502H164.311C165.281 733.502 166.069 734.289 166.069 735.26C166.069 736.231 165.281 737.017 164.311 737.017Z" fill="#FFB541"/>
<path d="M146.463 753.051H140.261C139.29 753.051 138.503 752.264 138.503 751.293C138.503 750.322 139.29 749.535 140.261 749.535H146.463C147.435 749.535 148.221 750.322 148.221 751.293C148.221 752.264 147.434 753.051 146.463 753.051Z" fill="#FFB541"/>
<path d="M162.11 753.051H158.189C157.217 753.051 156.431 752.264 156.431 751.293C156.431 750.322 157.217 749.535 158.189 749.535H162.11C163.08 749.535 163.868 750.322 163.868 751.293C163.868 752.264 163.08 753.051 162.11 753.051Z" fill="#FFB541"/>
<path d="M180.794 745.035H140.261C139.29 745.035 138.503 744.247 138.503 743.277C138.503 742.305 139.29 741.519 140.261 741.519H180.794C181.765 741.519 182.552 742.305 182.552 743.277C182.552 744.247 181.764 745.035 180.794 745.035Z" fill="#FFB541"/>
<path d="M205.891 773.268H145.005C142.385 773.268 140.261 771.144 140.261 768.523C140.261 765.903 142.385 763.778 145.005 763.778H205.891C208.511 763.778 210.635 765.902 210.635 768.523C210.635 771.144 208.511 773.268 205.891 773.268Z" fill="#87C080"/>
<path d="M205.891 789.87H145.005C142.385 789.87 140.261 787.746 140.261 785.126C140.261 782.505 142.385 780.38 145.005 780.38H205.891C208.511 780.38 210.635 782.504 210.635 785.126C210.635 787.746 208.511 789.87 205.891 789.87Z" fill="#87C080"/>
<path d="M205.891 806.472H145.005C142.385 806.472 140.261 804.348 140.261 801.728C140.261 799.108 142.385 796.984 145.005 796.984H205.891C208.511 796.984 210.635 799.108 210.635 801.728C210.635 804.348 208.511 806.472 205.891 806.472Z" fill="#87C080"/>
<path d="M187.715 823.075H145.005C142.385 823.075 140.261 820.95 140.261 818.33C140.261 815.71 142.385 813.586 145.005 813.586H187.715C190.336 813.586 192.46 815.71 192.46 818.33C192.46 820.95 190.336 823.075 187.715 823.075Z" fill="#87C080"/>
<path d="M210.635 768.524C210.635 769.833 210.104 771.019 209.247 771.879C208.387 772.736 207.201 773.267 205.892 773.267H200.532C201.843 773.267 203.03 772.736 203.889 771.879C204.746 771.019 205.278 769.833 205.278 768.524C205.278 765.902 203.154 763.778 200.532 763.778H205.892C208.511 763.778 210.635 765.902 210.635 768.524Z" fill="#70B568"/>
<path d="M210.635 785.126C210.635 786.436 210.104 787.623 209.247 788.48C208.387 789.339 207.201 789.871 205.892 789.871H200.532C201.843 789.871 203.03 789.339 203.889 788.48C204.746 787.623 205.278 786.436 205.278 785.126C205.278 782.506 203.154 780.382 200.532 780.382H205.892C208.511 780.382 210.635 782.505 210.635 785.126Z" fill="#70B568"/>
<path d="M210.635 801.729C210.635 803.04 210.104 804.223 209.247 805.083C208.387 805.94 207.201 806.471 205.892 806.471H200.532C201.843 806.471 203.03 805.94 203.889 805.083C204.746 804.223 205.278 803.04 205.278 801.729C205.278 799.107 203.154 796.983 200.532 796.983H205.892C208.511 796.983 210.635 799.107 210.635 801.729Z" fill="#70B568"/>
<path d="M192.461 818.33C192.461 819.641 191.93 820.828 191.073 821.687C190.213 822.544 189.026 823.075 187.715 823.075H182.358C183.669 823.075 184.853 822.544 185.712 821.687C186.569 820.828 187.101 819.641 187.101 818.33C187.101 815.711 184.977 813.587 182.358 813.587H187.714C190.336 813.587 192.461 815.711 192.461 818.33Z" fill="#70B568"/>
<path d="M218.949 789.246C216.987 791.564 216.217 794.663 216.864 797.629L219.924 811.66H232.866L235.928 797.629C236.575 794.663 235.804 791.564 233.842 789.246C229.945 784.642 222.846 784.642 218.949 789.246Z" fill="#B88A65"/>
<path d="M235.929 797.631L232.867 811.661H228.396L231.457 797.631C232.103 794.662 231.334 791.565 229.372 789.246C227.955 787.574 226.114 786.508 224.161 786.051C224.896 785.879 225.646 785.794 226.396 785.794C229.144 785.794 231.894 786.945 233.843 789.246C235.804 791.565 236.574 794.662 235.929 797.631Z" fill="#A87A52"/>
<path d="M226.395 831.069H210.191L211.607 837.356C212.21 840.033 214.588 841.935 217.333 841.935H235.458C238.203 841.935 240.581 840.033 241.184 837.356L242.6 831.069H226.395Z" fill="#FFB541"/>
<path d="M242.601 831.069L241.184 837.356C240.581 840.033 238.203 841.936 235.457 841.936H229.811C232.557 841.936 234.936 840.033 235.538 837.356L236.956 831.069H242.601Z" fill="#FFA812"/>
<path d="M235.496 820.195H217.296V812.344C217.296 811.256 218.178 810.374 219.266 810.374H233.525C234.613 810.374 235.495 811.256 235.495 812.344V820.195H235.496Z" fill="#7C8388"/>
<path d="M235.497 812.345V820.196H229.851V812.345C229.851 811.255 228.966 810.374 227.879 810.374H233.525C234.613 810.374 235.497 811.255 235.497 812.345Z" fill="#6A7075"/>
<path d="M244.145 831.551H208.647C206.518 831.551 204.792 829.825 204.792 827.696V823.084C204.792 820.956 206.518 819.229 208.647 819.229H244.145C246.273 819.229 247.999 820.956 247.999 823.084V827.696C247.999 829.825 246.273 831.551 244.145 831.551Z" fill="#B88A65"/>
<path d="M248 823.085V827.697C248 829.825 246.274 831.552 244.146 831.552H238.5C240.628 831.552 242.354 829.825 242.354 827.697V823.085C242.354 820.956 240.628 819.23 238.5 819.23H244.146C246.274 819.23 248 820.956 248 823.085Z" fill="#A87A52"/>
</g>
<rect x="410" width="380" height="300" rx="16" fill="#F2F4F8"/>
<path d="M556.508 246V230.445H562.609C566.144 230.445 568.174 232.626 568.174 235.688C568.174 238.792 566.111 240.93 562.523 240.93H559.73V246H556.508ZM559.73 238.33H562.008C563.92 238.33 564.854 237.256 564.844 235.688C564.854 234.141 563.92 233.099 562.008 233.088H559.73V238.33ZM575.693 246H570.215V230.445H575.758C580.441 230.445 583.31 233.356 583.299 238.201C583.31 243.067 580.441 246 575.693 246ZM573.438 243.229H575.564C578.529 243.229 580.076 241.692 580.076 238.201C580.076 234.742 578.529 233.217 575.586 233.217H573.438V243.229ZM585.641 246V230.445H595.889V233.109H588.863V236.891H595.223V239.555H588.863V246H585.641ZM618.877 228.426V248.02H616.127V237.471H612.625V235.236H616.127V228.426H618.877ZM602.055 242.176C605.331 240.672 606.932 236.944 606.932 233.324V232.508H602.871V230.316H613.807V232.508H609.746V233.324C609.735 236.762 611.325 240.35 614.623 241.768L613.012 243.938C610.734 242.885 609.209 240.833 608.371 238.341C607.522 241.005 605.965 243.218 603.688 244.346L602.055 242.176ZM632.477 229.736V231.928H628.588C628.599 234.205 629.984 236.407 633.1 237.32L631.789 239.469C629.63 238.813 628.126 237.492 627.267 235.827C626.396 237.793 624.807 239.361 622.465 240.135L621.068 237.965C624.312 236.944 625.784 234.409 625.816 231.928H621.82V229.736H632.477ZM623.775 244.174C623.765 241.789 626.343 240.403 630.479 240.414C634.55 240.403 637.063 241.789 637.074 244.174C637.063 246.569 634.55 247.987 630.479 247.977C626.343 247.987 623.765 246.569 623.775 244.174ZM626.525 244.174C626.504 245.291 627.911 245.85 630.479 245.85C633.014 245.85 634.367 245.291 634.367 244.174C634.367 243.078 633.014 242.53 630.479 242.541C627.911 242.53 626.504 243.078 626.525 244.174ZM634.131 240.027V228.426H636.881V232.959H639.523V235.193H636.881V240.027H634.131Z" fill="black"/>
<g clip-path="url(#clip4_270_10486)">
<path d="M619.104 162.234H552.51C548.509 162.234 545.266 158.991 545.266 154.99V69.2434C545.266 65.243 548.509 62 552.51 62H619.104C623.105 62 626.347 65.243 626.347 69.2434V154.99C626.347 158.991 623.104 162.234 619.104 162.234Z" fill="#F9F6F6"/>
<path d="M619.104 62H611.861C615.861 62 619.104 65.243 619.104 69.2434V154.99C619.104 158.991 615.861 162.234 611.861 162.234H619.104C623.105 162.234 626.347 158.99 626.347 154.99V69.2434C626.347 65.243 623.104 62 619.104 62Z" fill="#E2D8EC"/>
<path d="M626.37 182H545.243C541.243 182 538 178.757 538 174.757V116.326C538 112.325 541.243 109.083 545.243 109.083H580.578C583.458 109.083 585.969 111.043 586.668 113.838L587.912 118.814C588.61 121.609 591.121 123.569 594.002 123.569H626.37C630.37 123.569 633.613 126.812 633.613 130.813V174.756C633.614 178.757 630.371 182 626.37 182Z" fill="#F7E07F"/>
<path d="M579.424 113.838L580.668 118.814C581.367 121.609 583.878 123.569 586.759 123.569H594.002C591.122 123.569 588.61 121.609 587.912 118.814L586.668 113.838C585.969 111.043 583.458 109.083 580.577 109.083H573.334C576.215 109.082 578.726 111.043 579.424 113.838Z" fill="#F0D16F"/>
<path d="M626.37 123.569H619.127C623.127 123.569 626.37 126.812 626.37 130.813V174.756C626.37 178.757 623.127 182 619.127 182H626.37C630.371 182 633.613 178.757 633.613 174.756V130.813C633.614 126.812 630.371 123.569 626.37 123.569Z" fill="#F0D16F"/>
<path d="M605.102 150.881H600.918V146.621H605.619C606.619 146.621 607.43 145.811 607.43 144.811C607.43 143.81 606.619 143 605.619 143H599.107C598.107 143 597.296 143.81 597.296 144.811V160.877C597.296 161.877 598.107 162.688 599.107 162.688C600.107 162.688 600.918 161.877 600.918 160.877V154.503H605.102C606.102 154.503 606.913 153.692 606.913 152.692C606.913 151.692 606.102 150.881 605.102 150.881Z" fill="white"/>
<path d="M586.316 143.36H581.867C580.881 143.355 580.05 144.189 580.056 145.174V145.187V145.187V160.622C580.047 161.684 580.76 162.688 581.899 162.688H581.906C582.04 162.688 585.211 162.676 586.477 162.654C591.108 162.573 594.469 158.523 594.469 153.024C594.469 147.244 591.193 143.36 586.316 143.36ZM586.414 159.032C585.794 159.043 584.674 159.052 583.704 159.058C583.689 154.476 583.689 151.696 583.681 146.982H586.315C589.657 146.982 590.847 150.103 590.847 153.024C590.847 157.121 588.621 158.994 586.414 159.032Z" fill="white"/>
<path d="M570.501 142.881H565.994C565.099 142.864 564.146 143.674 564.184 144.692V160.877C564.184 161.877 564.994 162.688 565.994 162.688C566.995 162.688 567.805 161.877 567.805 160.877V155.648C568.764 155.643 569.878 155.638 570.501 155.638C574.068 155.638 576.969 152.776 576.969 149.259C576.969 145.743 574.068 142.881 570.501 142.881ZM570.501 152.016C569.883 152.016 568.783 152.021 567.827 152.026C567.822 151.04 567.814 147.534 567.811 146.503H570.501C572.044 146.503 573.347 147.765 573.347 149.259C573.347 150.754 572.044 152.016 570.501 152.016Z" fill="white"/>
<path d="M612.837 83.7303H558.776C558.11 83.7303 557.569 83.1899 557.569 82.5231V74.0724C557.569 73.4056 558.11 72.8652 558.776 72.8652H612.837C613.504 72.8652 614.044 73.4056 614.044 74.0724V82.5231C614.044 83.1899 613.504 83.7303 612.837 83.7303Z" fill="#D5C6E4"/>
<path d="M614.044 96.4065H557.569C556.569 96.4065 555.758 95.5958 555.758 94.5957C555.758 93.5956 556.569 92.7849 557.569 92.7849H614.044C615.044 92.7849 615.855 93.5956 615.855 94.5957C615.855 95.5958 615.044 96.4065 614.044 96.4065Z" fill="#D5C6E4"/>
<path d="M614.044 103.65H557.569C556.569 103.65 555.758 102.839 555.758 101.839C555.758 100.839 556.569 100.028 557.569 100.028H614.044C615.044 100.028 615.855 100.839 615.855 101.839C615.855 102.839 615.044 103.65 614.044 103.65Z" fill="#D5C6E4"/>
<path d="M614.044 110.893H593.786C592.786 110.893 591.976 110.083 591.976 109.083C591.976 108.083 592.786 107.272 593.786 107.272H614.044C615.044 107.272 615.855 108.083 615.855 109.083C615.855 110.083 615.044 110.893 614.044 110.893Z" fill="#D5C6E4"/>
<path d="M614.044 118.137H593.786C592.786 118.137 591.976 117.326 591.976 116.326C591.976 115.326 592.786 114.515 593.786 114.515H614.044C615.044 114.515 615.855 115.326 615.855 116.326C615.855 117.326 615.044 118.137 614.044 118.137Z" fill="#D5C6E4"/>
<path d="M635.368 182C647.867 182 658 171.867 658 159.368C658 146.869 647.867 136.737 635.368 136.737C622.869 136.737 612.737 146.869 612.737 159.368C612.737 171.867 622.869 182 635.368 182Z" fill="#BFE69F"/>
<path d="M635.368 136.736C634.135 136.736 632.926 136.836 631.746 137.026C642.524 138.76 650.757 148.102 650.757 159.368C650.757 170.634 642.524 179.976 631.746 181.71C632.926 181.9 634.135 182 635.368 182C647.867 182 658 171.867 658 159.368C658 146.869 647.867 136.736 635.368 136.736Z" fill="#A4D9A6"/>
<path d="M631.159 162.765V147.938C631.159 147.183 631.77 146.572 632.525 146.572H638.212C638.966 146.572 639.577 147.183 639.577 147.938V162.765C639.577 163.52 640.189 164.131 640.943 164.131H644.068C645.11 164.131 645.633 165.392 644.895 166.129L636.334 174.691C635.8 175.224 634.936 175.224 634.402 174.691L625.841 166.129C625.104 165.392 625.626 164.131 626.669 164.131H629.793C630.548 164.131 631.159 163.52 631.159 162.765Z" fill="white"/>
</g>
<rect x="820" y="330" width="380" height="300" rx="16" fill="#F2F4F8"/>
<path d="M995.968 560.381V562.529H979.919V560.381H986.601V558.404H989.329V560.381H995.968ZM979.06 573.143V570.93H996.956V573.143H992.81V577.998H990.038V573.143H985.956V577.998H983.228V573.143H979.06ZM981.229 566.654C981.219 564.495 983.743 563.313 987.976 563.324C992.176 563.313 994.711 564.495 994.722 566.654C994.711 568.803 992.176 570.006 987.976 570.006C983.743 570.006 981.219 568.803 981.229 566.654ZM984.065 566.654C984.065 567.524 985.354 567.933 987.976 567.943C990.564 567.933 991.864 567.524 991.864 566.654C991.864 565.763 990.564 565.365 987.976 565.365C985.354 565.365 984.065 565.763 984.065 566.654ZM1005.66 563.754C1005.65 566.912 1007.28 570.296 1010.56 571.66L1009.07 573.809C1006.77 572.831 1005.18 570.887 1004.3 568.523C1003.42 571.091 1001.8 573.239 999.491 574.303L997.923 572.133C1001.17 570.683 1002.84 567.062 1002.84 563.754V562.551H998.696V560.316H1009.74V562.551H1005.66V563.754ZM1011.67 577.977V558.426H1014.44V577.977H1011.67ZM1034.92 568.502V570.65H1017.04V568.502H1024.61V567.299H1019.28V558.898H1032.83V561.004H1022.03V562.1H1032.38V564.076H1022.03V565.193H1033.01V567.299H1027.36V568.502H1034.92ZM1019.13 574.754C1019.13 572.691 1021.6 571.531 1025.98 571.553C1030.29 571.531 1032.77 572.691 1032.79 574.754C1032.77 576.859 1030.29 577.987 1025.98 577.977C1021.6 577.987 1019.13 576.859 1019.13 574.754ZM1021.88 574.754C1021.86 575.592 1023.17 575.957 1025.98 575.957C1028.73 575.957 1030.03 575.592 1030.04 574.754C1030.03 573.938 1028.73 573.562 1025.98 573.572C1023.17 573.562 1021.86 573.938 1021.88 574.754Z" fill="black"/>
<path d="M950.724 398.392V505.608C950.724 509.138 953.586 512 957.116 512H1038.73C1042.26 512 1045.12 509.138 1045.12 505.608V420.189L1016.93 392H957.116C953.586 392 950.724 394.862 950.724 398.392Z" fill="#EAECF0"/>
<path d="M1023.09 398.156V424.655C1023.09 427.322 1025.25 429.484 1027.92 429.484H1032.41V512H1038.73C1042.26 512 1045.12 509.138 1045.12 505.608V420.189L1023.09 398.156Z" fill="#D3D7DE"/>
<path d="M1016.93 392L1045.12 420.189H1021.76C1019.1 420.189 1016.94 418.027 1016.94 415.36L1016.93 392Z" fill="#DF705D"/>
<path d="M1049.24 456.31H1014.96V449.931C1014.96 445.685 1018.4 442.244 1022.65 442.244H1041.55C1045.8 442.244 1049.24 445.685 1049.24 449.931V456.31Z" fill="#8DAE5C"/>
<path d="M1047.89 511.95H1016.31C1012.42 511.95 1009.19 508.915 1008.96 505.026L1005.76 451.995H1058.44L1055.24 505.026C1055.01 508.916 1051.78 511.95 1047.89 511.95Z" fill="#676E84"/>
<path d="M1046.48 451.995L1042.87 511.95H1047.89C1051.78 511.95 1055.01 508.916 1055.24 505.026L1058.44 451.995H1046.48V451.995Z" fill="#4A4E67"/>
<path d="M1060.63 459.002H1003.57C1001 459.002 998.923 456.921 998.923 454.354C998.923 451.787 1001 449.707 1003.57 449.707H1060.63C1063.2 449.707 1065.28 451.787 1065.28 454.354C1065.28 456.921 1063.2 459.002 1060.63 459.002Z" fill="#AED180"/>
<path d="M1060.63 449.706H1052.56V459.001H1060.63C1063.2 459.001 1065.28 456.921 1065.28 454.354C1065.28 451.787 1063.2 449.706 1060.63 449.706Z" fill="#8DAE5C"/>
<path d="M1019.44 503.948C1018.48 503.948 1017.68 503.193 1017.63 502.224L1015.91 466.493C1015.86 465.494 1016.63 464.645 1017.63 464.597C1018.63 464.55 1019.48 465.319 1019.52 466.318L1021.25 502.05C1021.29 503.049 1020.52 503.897 1019.52 503.946C1019.49 503.947 1019.47 503.948 1019.44 503.948Z" fill="#D3D7DE"/>
<path d="M1027.88 503.948C1026.89 503.948 1026.08 503.156 1026.07 502.166L1025.49 466.434C1025.48 465.434 1026.28 464.611 1027.28 464.595C1028.28 464.585 1029.1 465.376 1029.12 466.376L1029.69 502.107C1029.71 503.108 1028.91 503.931 1027.91 503.947C1027.9 503.947 1027.89 503.948 1027.88 503.948Z" fill="#D3D7DE"/>
<path d="M1036.32 503.948C1036.31 503.948 1036.3 503.948 1036.29 503.947C1035.29 503.931 1034.49 503.108 1034.51 502.107L1035.08 466.376C1035.1 465.376 1035.92 464.58 1036.92 464.595C1037.92 464.611 1038.72 465.434 1038.71 466.434L1038.13 502.166C1038.12 503.156 1037.31 503.948 1036.32 503.948Z" fill="#D3D7DE"/>
<path d="M1044.76 503.948C1044.73 503.948 1044.7 503.947 1044.68 503.945C1043.68 503.897 1042.91 503.049 1042.95 502.049L1044.68 466.318C1044.72 465.319 1045.58 464.552 1046.57 464.596C1047.57 464.645 1048.34 465.493 1048.29 466.493L1046.57 502.224C1046.52 503.193 1045.72 503.948 1044.76 503.948Z" fill="#D3D7DE"/>
<path d="M998.923 410.078H962.434C961.434 410.078 960.623 409.268 960.623 408.267C960.623 407.267 961.434 406.457 962.434 406.457H998.923C999.924 406.457 1000.73 407.267 1000.73 408.267C1000.73 409.268 999.923 410.078 998.923 410.078Z" fill="#676E84"/>
<path d="M998.923 422H962.434C961.434 422 960.623 421.189 960.623 420.189C960.623 419.189 961.434 418.378 962.434 418.378H998.923C999.924 418.378 1000.73 419.189 1000.73 420.189C1000.73 421.189 999.923 422 998.923 422Z" fill="#676E84"/>
<rect y="330" width="380" height="300" rx="16" fill="#F2F4F8"/>
<path d="M132.097 562.852C132.086 566.354 133.579 569.888 136.716 571.402L135.062 573.594C132.967 572.552 131.549 570.618 130.743 568.266C129.884 570.79 128.38 572.863 126.167 573.959L124.47 571.746C127.789 570.221 129.347 566.482 129.347 562.852V559.93H132.097V562.852ZM137.575 577.977V558.426H140.325V565.967H143.204V568.287H140.325V577.977H137.575ZM160.284 558.447V572.498H157.534V558.447H160.284ZM144.214 564.613C144.214 561.745 146.556 559.683 149.563 559.693C152.561 559.683 154.902 561.745 154.913 564.613C154.902 567.524 152.561 569.576 149.563 569.576C146.556 569.576 144.214 567.524 144.214 564.613ZM146.899 564.613C146.878 566.246 148.027 567.191 149.563 567.191C151.046 567.191 152.195 566.246 152.206 564.613C152.195 563.023 151.046 562.067 149.563 562.078C148.027 562.067 146.878 563.023 146.899 564.613ZM147.179 577.633V571.08H149.95V575.441H160.8V577.633H147.179ZM165.462 576.193C164.452 576.193 163.636 575.388 163.657 574.389C163.636 573.4 164.452 572.595 165.462 572.605C166.418 572.595 167.245 573.4 167.245 574.389C167.245 575.388 166.418 576.193 165.462 576.193ZM185.077 567.17V569.34H179.405V573.508H187.032V575.742H169.136V573.508H176.677V569.34H171.241V559.801H184.927V561.992H173.991V567.17H185.077ZM199.257 559.736V561.928H195.368C195.379 564.205 196.765 566.407 199.88 567.32L198.569 569.469C196.41 568.813 194.906 567.492 194.047 565.827C193.177 567.793 191.587 569.361 189.245 570.135L187.849 567.965C191.093 566.944 192.564 564.409 192.597 561.928H188.601V559.736H199.257ZM190.556 574.174C190.545 571.789 193.123 570.403 197.259 570.414C201.33 570.403 203.844 571.789 203.854 574.174C203.844 576.569 201.33 577.987 197.259 577.977C193.123 577.987 190.545 576.569 190.556 574.174ZM193.306 574.174C193.284 575.291 194.691 575.85 197.259 575.85C199.794 575.85 201.147 575.291 201.147 574.174C201.147 573.078 199.794 572.53 197.259 572.541C194.691 572.53 193.284 573.078 193.306 574.174ZM200.911 570.027V558.426H203.661V562.959H206.304V565.193H203.661V570.027H200.911ZM223.19 559.844V561.068C223.19 562.422 223.19 564.377 222.739 566.805L220.054 566.547C220.408 564.678 220.494 563.249 220.516 562.078H213.136V559.844H223.19ZM211.976 568.223C213.071 568.223 214.307 568.223 215.606 568.19V564.355H218.335V568.104C220.29 568.019 222.277 567.868 224.114 567.6L224.265 569.576C220.193 570.328 215.617 570.403 212.212 570.414L211.976 568.223ZM214.854 577.633V571.746H217.604V575.441H228.583V577.633H214.854ZM225.167 573.057V558.426H227.981V564.377H230.345V566.676H227.981V573.057H225.167ZM247.64 558.426V578.02H244.911V558.426H247.64ZM232.278 562.271V560.059H241.581V567.6H235.136V571.188C238.122 571.166 240.646 571.016 243.515 570.543L243.751 572.756C240.539 573.325 237.628 573.443 234.062 573.443H232.3V565.43H238.788V562.271H232.278Z" fill="black"/>
<g clip-path="url(#clip5_270_10486)">
<path d="M228.048 426.304V503.386C228.048 505.529 226.311 507.266 224.168 507.266L221.264 507.634H131.88C129.736 507.633 128 505.897 128 503.754V432.013L129.562 426.304H228.048Z" fill="#F5F8F9"/>
<path d="M229.566 426.304V503.754C229.566 505.897 227.829 507.634 225.687 507.634H220.454C222.597 507.634 224.334 505.897 224.334 503.754V436.77C224.334 434.143 222.204 432.013 219.576 432.013H128V426.304L192.19 422.455L229.566 426.304Z" fill="#E8EDF2"/>
<path d="M228.854 415.571L228.652 425.343L222.906 426.304H128V415.046C128 412.903 129.736 411.167 131.88 411.167H220.022L224.974 411.691C227.117 411.691 228.854 413.428 228.854 415.571Z" fill="#947DF6"/>
<path d="M229.566 415.046V426.304H222.906V415.046C222.906 412.903 221.17 411.167 219.027 411.167H225.687C227.83 411.167 229.566 412.903 229.566 415.046Z" fill="#8769EF"/>
<path d="M152.454 420.52C153.44 420.52 154.239 419.721 154.239 418.736C154.239 417.75 153.44 416.952 152.454 416.952C151.469 416.952 150.67 417.75 150.67 418.736C150.67 419.721 151.469 420.52 152.454 420.52Z" fill="#D1F19E"/>
<path d="M144.339 420.52C145.324 420.52 146.123 419.721 146.123 418.736C146.123 417.75 145.324 416.952 144.339 416.952C143.353 416.952 142.555 417.75 142.555 418.736C142.555 419.721 143.353 420.52 144.339 420.52Z" fill="#FCECA9"/>
<path d="M136.223 420.52C137.208 420.52 138.007 419.721 138.007 418.736C138.007 417.75 137.208 416.952 136.223 416.952C135.237 416.952 134.439 417.75 134.439 418.736C134.439 419.721 135.237 420.52 136.223 420.52Z" fill="#FEB3A7"/>
<path d="M170.1 501.326C169.039 501.326 167.967 501.039 167.004 500.446C165.639 499.606 164.736 498.212 164.526 496.624C164.317 495.035 164.828 493.455 165.928 492.289C168.361 489.711 171.589 488.064 175.086 487.601C175.069 487.288 175.041 486.976 175.002 486.663C174.858 485.521 174.181 484.578 173.145 484.077C172.109 483.575 170.949 483.631 169.965 484.227L169.375 484.584C168.532 485.095 167.435 484.826 166.925 483.984C166.414 483.141 166.683 482.044 167.526 481.533L168.116 481.175C170.124 479.959 172.585 479.843 174.698 480.865C176.812 481.887 178.249 483.888 178.542 486.217C178.587 486.575 178.62 486.933 178.642 487.291L182.862 486.945C184.248 486.831 185.561 487.661 186.053 488.962L187.369 492.44L191.683 487.347C192.295 486.624 193.22 486.275 194.157 486.416C195.094 486.555 195.878 487.158 196.253 488.028L197.791 491.592C198.4 493.003 199.53 494.07 200.975 494.596C202.419 495.123 203.971 495.033 205.345 494.344L206.468 493.781C207.349 493.34 206.797 497.37 206.797 497.37C204.536 498.504 202.129 498.814 199.753 497.949C197.377 497.083 195.517 495.328 194.515 493.006L193.519 490.699L190.035 494.813C189.221 495.773 187.995 496.219 186.755 496.005C185.514 495.791 184.508 494.961 184.062 493.784L182.83 490.528L178.47 490.884C177.986 493.978 176.637 496.908 174.535 499.309C173.377 500.631 171.75 501.326 170.1 501.326ZM174.764 491.27C172.385 491.751 170.206 492.954 168.522 494.738C168.162 495.119 167.995 495.637 168.064 496.157C168.132 496.677 168.428 497.133 168.874 497.408C169.847 498.007 171.099 497.817 171.851 496.958C173.29 495.314 174.281 493.355 174.764 491.27Z" fill="#A8D3D8"/>
<path d="M215.723 484.261C215.507 484.718 214.326 484.904 214.05 485.333L208.073 495.675C207.533 496.512 206.498 496.884 205.551 496.579C204.602 496.272 204.259 496.065 204.312 495.071L204.014 494.037L204.627 482.254C204.653 481.747 204.712 481.243 204.803 480.743L210.617 481.5L215.723 484.261Z" fill="#D9E7EC"/>
<path d="M215.723 484.261C215.507 484.718 215.262 485.163 214.986 485.591L207.997 496.461C207.457 497.298 206.423 497.67 205.476 497.365C204.527 497.058 203.904 496.154 203.956 495.16L204.016 494.037C205.89 493.3 207.388 491.747 208.019 489.744L210.298 482.513L213.479 482.075L215.723 484.261Z" fill="#C5D3DD"/>
<path d="M241.429 402.893L229.799 436.406L219.389 470.856L215.556 481.605C215.398 482.095 215.208 482.573 214.987 483.039L210.298 482.513L204.803 480.743C204.896 480.237 205.022 479.737 205.181 479.245L208.93 467.609L220.062 433.064L231.006 399.098C231.538 397.443 233.064 396.384 234.712 396.367C235.125 396.363 235.619 396.737 236.034 396.871L238.889 397.938C240.958 398.607 242.095 400.824 241.429 402.893Z" fill="#F99B8C"/>
<path d="M242.118 402.677L231.172 436.644L220.043 471.191L216.291 482.827C216.134 483.317 215.944 483.795 215.723 484.261L210.297 482.513L214.401 469.488L225.53 434.941L236.476 400.974C237.054 399.181 236.277 397.278 234.712 396.367C235.126 396.362 235.546 396.424 235.96 396.557L239.578 397.723C241.647 398.391 242.784 400.608 242.118 402.677Z" fill="#EA8378"/>
<path d="M222.176 468.71C221.833 469.774 220.693 470.359 219.629 470.016L214.573 468.952L209.074 467.181C208.01 466.838 207.423 465.696 207.766 464.632L217.393 434.755C217.737 433.688 218.879 433.104 219.943 433.447L225.449 435.221L230.05 437.153C231.114 437.496 231.699 438.637 231.355 439.703L222.176 468.71Z" fill="#FEB3A7"/>
<path d="M232.352 439.574L222.723 469.452C222.381 470.515 221.241 471.1 220.176 470.758L214.573 468.953C216.535 468.61 217.529 467.161 218.021 465.635L226.078 440.631C226.684 438.749 226.396 436.792 225.45 435.222L231.047 437.025C232.109 437.367 232.694 438.509 232.352 439.574Z" fill="#F99B8C"/>
<path d="M229.951 403.088C229.013 402.787 228.008 403.302 227.705 404.239C227.403 405.177 227.918 406.182 228.856 406.484L235.104 408.497L236.355 405.152L229.951 403.088Z" fill="#FEB3A7"/>
<path d="M247.791 413.369L241.529 432.809C241.284 433.566 240.584 434.046 239.83 434.046C239.65 434.046 239.464 434.02 239.283 433.961C238.346 433.659 237.83 432.652 238.132 431.715L244.397 412.275C244.478 412.018 244.402 411.809 244.35 411.706C244.297 411.604 244.171 411.418 243.917 411.338L234.15 408.191L235.244 404.794L245.011 407.941C247.273 408.669 248.522 411.105 247.791 413.369Z" fill="#F99B8C"/>
<path d="M138.466 454.746V437.959C138.466 437.303 138.998 436.77 139.655 436.77H159.14C159.797 436.77 160.329 437.303 160.329 437.959V454.746C160.329 455.403 159.797 455.936 159.14 455.936H139.655C138.998 455.936 138.466 455.403 138.466 454.746Z" fill="#D1F19E"/>
<path d="M205.174 443.311H196.452C195.466 443.311 194.667 442.513 194.667 441.527C194.667 440.542 195.466 439.743 196.452 439.743H205.174C206.159 439.743 206.958 440.542 206.958 441.527C206.958 442.513 206.159 443.311 205.174 443.311Z" fill="#E8EDF2"/>
<path d="M188.127 443.311H175.163C174.178 443.311 173.379 442.513 173.379 441.527C173.379 440.542 174.178 439.743 175.163 439.743H188.127C189.112 439.743 189.911 440.542 189.911 441.527C189.91 442.513 189.112 443.311 188.127 443.311Z" fill="#E8EDF2"/>
<path d="M199.263 456.394H175.164C174.179 456.394 173.38 455.595 173.38 454.61C173.38 453.624 174.179 452.826 175.164 452.826H199.264C200.249 452.826 201.048 453.624 201.048 454.61C201.047 455.595 200.249 456.394 199.263 456.394Z" fill="#E8EDF2"/>
<path d="M194.506 469.476H165.109C164.123 469.476 163.325 468.677 163.325 467.692C163.325 466.706 164.123 465.908 165.109 465.908H194.506C195.491 465.908 196.29 466.706 196.29 467.692C196.29 468.677 195.491 469.476 194.506 469.476Z" fill="#E8EDF2"/>
<path d="M156.783 469.476H138.989C138.004 469.476 137.205 468.677 137.205 467.692C137.205 466.706 138.004 465.908 138.989 465.908H156.783C157.769 465.908 158.567 466.706 158.567 467.692C158.567 468.677 157.769 469.476 156.783 469.476Z" fill="#E8EDF2"/>
<path d="M156.906 482.558H138.989C138.004 482.558 137.205 481.76 137.205 480.774C137.205 479.789 138.004 478.99 138.989 478.99H156.905C157.891 478.99 158.69 479.789 158.69 480.774C158.69 481.76 157.891 482.558 156.906 482.558Z" fill="#E8EDF2"/>
</g>
<rect x="410" y="660" width="380" height="300" rx="16" fill="#F2F4F8"/>
<path d="M564.36 888.426V898.33H561.632V888.426H564.36ZM547.925 896.225C551.19 895.247 552.651 892.787 552.651 890.359V888.855H555.509V890.359C555.487 892.733 556.905 895 560.106 895.924L558.774 898.029C556.529 897.385 554.982 896.021 554.091 894.28C553.21 896.182 551.609 897.675 549.278 898.373L547.925 896.225ZM551.255 901.295V899.168H564.382V904.475H553.983V905.678H564.919V907.848H551.298V902.434H561.653V901.295H551.255ZM574.63 892.852C574.619 896.439 576.252 900.038 579.571 901.445L577.96 903.637C575.726 902.627 574.179 900.672 573.287 898.255C572.406 900.897 570.806 903.024 568.421 904.109L566.767 901.832C570.183 900.393 571.848 896.644 571.858 892.852V889.93H574.63V892.852ZM580.624 908.02V888.426H583.396V908.02H580.624ZM601.55 888.426V893.904H604.192V896.16H601.55V902.434H598.778V888.426H601.55ZM585.909 898.352C590.292 897.138 592.773 894.871 593.203 892.121H586.769V889.887H596.222C596.211 895.172 592.913 898.867 587.048 900.521L585.909 898.352ZM588.831 907.633V900.994H591.603V905.441H602.216V907.633H588.831ZM625.634 888.426V892.207H628.276V894.463H625.634V898.201H622.884V888.426H625.634ZM610.251 893.432C610.24 890.821 612.507 889.017 615.515 889.006C618.512 889.017 620.757 890.821 620.757 893.432C620.757 896.01 618.512 897.857 615.515 897.857C612.507 897.857 610.24 896.01 610.251 893.432ZM612.657 901.08V898.975H625.634V904.303H615.386V905.613H626.192V907.762H612.7V902.326H622.905V901.08H612.657ZM612.937 893.432C612.915 894.817 614.011 895.688 615.515 895.688C617.008 895.688 618.093 894.817 618.093 893.432C618.093 892.067 617.008 891.24 615.515 891.24C614.011 891.24 612.915 892.067 612.937 893.432ZM645.507 888.447V900.027H642.757V888.447H645.507ZM630.146 891.713V889.564H639.212V895.43H632.853V897.127C636.118 897.116 638.428 897.03 641.06 896.59L641.403 898.781C638.406 899.265 635.764 899.361 631.886 899.361H630.167V893.346H636.483V891.713H630.146ZM632.401 907.762V900.887H645.507V907.762H632.401ZM635.108 905.57H642.821V903.057H635.108V905.57Z" fill="black"/>
<g clip-path="url(#clip6_270_10486)">
<path d="M637.168 734.539V829.461C637.168 836.375 631.551 842 624.646 842H571.289C564.385 842 558.767 836.375 558.767 829.461V734.539C558.767 727.625 564.385 722 571.289 722H624.646C631.551 722 637.168 727.625 637.168 734.539Z" fill="#56788B"/>
<path d="M637.168 734.539V829.461C637.168 836.375 631.551 842 624.646 842H619.959C626.863 842 632.481 836.375 632.481 829.461V734.539C632.481 727.625 626.863 722 619.959 722H624.646C631.551 722 637.168 727.625 637.168 734.539Z" fill="#415E6F"/>
<path d="M630.147 734.248V829.752C630.147 832.822 627.653 835.32 624.585 835.32H571.35C568.282 835.32 565.788 832.822 565.788 829.752V734.248C565.788 731.178 568.282 728.68 571.35 728.68H576.907C577.668 728.68 578.346 729.172 578.58 729.898L579.956 734.171C580.298 735.233 581.273 735.945 582.386 735.945H613.549C614.66 735.945 615.638 735.233 615.98 734.171L617.356 729.898C617.59 729.172 618.265 728.68 619.029 728.68H624.586C627.653 728.68 630.147 731.178 630.147 734.248Z" fill="#D9F0F4"/>
<path d="M630.147 734.248V829.752C630.147 832.822 627.653 835.32 624.585 835.32H619.898C622.966 835.32 625.46 832.822 625.46 829.752V734.248C625.46 731.178 622.966 728.68 619.898 728.68H624.585C627.653 728.68 630.147 731.178 630.147 734.248Z" fill="#BAE1E5"/>
<path d="M607.486 727.153H588.448C587.478 727.153 586.691 727.94 586.691 728.911C586.691 729.881 587.478 730.668 588.448 730.668H607.486C608.457 730.668 609.244 729.881 609.244 728.911C609.244 727.94 608.457 727.153 607.486 727.153Z" fill="#415E6F"/>
<path d="M607.486 823.888H588.448C587.478 823.888 586.691 824.675 586.691 825.646C586.691 826.617 587.478 827.404 588.448 827.404H607.486C608.457 827.404 609.244 826.617 609.244 825.646C609.244 824.675 608.457 823.888 607.486 823.888Z" fill="#56788B"/>
<path d="M578.252 750.289V768.012C578.252 770.975 575.843 773.387 572.883 773.387H550.088L540.822 780.437C540.51 780.676 540.135 780.795 539.758 780.795C539.49 780.795 539.223 780.737 538.977 780.612C538.38 780.317 538 779.705 538 779.037V750.289C538 747.327 540.409 744.915 543.369 744.915H572.883C575.843 744.915 578.252 747.327 578.252 750.289Z" fill="#4DD4F7"/>
<path d="M578.252 750.289V768.012C578.252 770.975 575.843 773.387 572.882 773.387H568.195C571.155 773.387 573.564 770.975 573.564 768.012V750.289C573.564 747.327 571.155 744.915 568.195 744.915H572.882C575.843 744.915 578.252 747.327 578.252 750.289Z" fill="#00C2F3"/>
<path d="M567.486 753.276H548.765C547.794 753.276 547.007 754.063 547.007 755.034C547.007 756.004 547.794 756.792 548.765 756.792H567.486C568.457 756.792 569.244 756.004 569.244 755.034C569.244 754.063 568.457 753.276 567.486 753.276Z" fill="white"/>
<path d="M565.146 761.245H548.765C547.794 761.245 547.007 762.032 547.007 763.002C547.007 763.973 547.794 764.76 548.765 764.76H565.146C566.117 764.76 566.904 763.973 566.904 763.002C566.904 762.032 566.117 761.245 565.146 761.245Z" fill="white"/>
<path d="M644.781 764.956C643.691 763.866 642.241 763.266 640.7 763.266C639.158 763.266 637.709 763.866 636.619 764.956L633.965 767.611C633.279 768.298 633.279 769.41 633.965 770.097L639.641 775.774C639.97 776.104 640.418 776.289 640.884 776.289C641.35 776.289 641.797 776.104 642.127 775.774L644.781 773.119C647.031 770.869 647.031 767.207 644.781 764.956Z" fill="#FF6B81"/>
<path d="M616.068 802.832L606.919 793.679C606.59 793.349 606.142 793.164 605.676 793.164C605.21 793.164 604.763 793.349 604.433 793.679C601.226 796.888 601.226 802.109 604.433 805.317C605.987 806.872 608.053 807.728 610.251 807.728C612.448 807.728 614.515 806.872 616.069 805.317C616.755 804.63 616.755 803.518 616.068 802.832Z" fill="#FF6B81"/>
<path d="M625.39 814.232C625.056 814.31 624.723 814.348 624.392 814.348C623.259 814.348 622.163 813.902 621.338 813.077L618.024 809.762L596.679 788.407C595.61 787.338 595.177 785.821 595.522 784.35C595.867 782.881 596.924 781.715 598.356 781.231L606.296 778.541L614.746 770.087C618.072 766.761 622.495 764.926 627.198 764.926C631.11 764.928 634.831 766.196 637.882 768.538C638.5 769.01 639.09 769.527 639.65 770.087C642.977 773.415 644.81 777.84 644.809 782.545C644.81 787.253 642.977 791.678 639.651 795.004L631.2 803.456L628.515 811.398C628.513 811.4 628.514 811.4 628.514 811.4C628.028 812.83 626.86 813.889 625.39 814.232Z" fill="#FBDF63"/>
<path d="M628.513 811.4C628.028 812.83 626.859 813.889 625.39 814.232C625.057 814.31 624.724 814.348 624.392 814.348C623.259 814.348 622.163 813.902 621.338 813.077L618.055 809.794C618.877 810.599 619.958 811.033 621.078 811.033C621.409 811.033 621.742 810.995 622.075 810.917C623.545 810.574 624.714 809.515 625.199 808.085C625.199 808.085 625.199 808.085 625.201 808.083L627.886 800.142L636.337 791.69C639.663 788.363 641.496 783.938 641.495 779.23C641.496 775.314 640.227 771.592 637.882 768.537C638.5 769.01 639.09 769.527 639.65 770.087C642.978 773.415 644.81 777.84 644.809 782.545C644.81 787.253 642.978 791.678 639.652 795.004L631.2 803.456L628.515 811.398C628.513 811.4 628.513 811.4 628.513 811.4Z" fill="#FFA402"/>
<path d="M611.419 759.118C608.512 759.118 606.147 761.484 606.147 764.392C606.147 765.363 606.934 766.15 607.905 766.15C608.876 766.15 609.663 765.363 609.663 764.392C609.663 763.422 610.451 762.634 611.419 762.634C612.39 762.634 613.177 761.847 613.177 760.876C613.177 759.905 612.39 759.118 611.419 759.118Z" fill="#FF6B81"/>
<path d="M611.419 751.71C604.429 751.71 598.742 757.399 598.742 764.392C598.742 765.363 599.528 766.15 600.499 766.15C601.47 766.15 602.257 765.363 602.257 764.392C602.257 759.338 606.367 755.226 611.419 755.226C612.39 755.226 613.177 754.439 613.177 753.468C613.177 752.497 612.39 751.71 611.419 751.71Z" fill="#FF6B81"/>
<path d="M645.322 803.581C648.23 803.581 650.594 801.215 650.594 798.307C650.594 797.337 649.808 796.55 648.837 796.55C647.866 796.55 647.079 797.337 647.079 798.307C647.079 799.277 646.291 800.065 645.322 800.065C644.351 800.065 643.564 800.852 643.564 801.823C643.564 802.794 644.352 803.581 645.322 803.581Z" fill="#FF6B81"/>
<path d="M656.242 796.55C655.271 796.55 654.484 797.337 654.484 798.307C654.484 803.361 650.374 807.473 645.322 807.473C644.351 807.473 643.564 808.26 643.564 809.231C643.564 810.202 644.351 810.989 645.322 810.989C652.313 810.989 658 805.3 658 798.307C658 797.337 657.213 796.55 656.242 796.55Z" fill="#FF6B81"/>
<path d="M578.009 808.578H585.542C586.513 808.578 587.3 807.791 587.3 806.82C587.3 805.85 586.513 805.062 585.542 805.062H578.009C577.038 805.062 576.251 805.85 576.251 806.82C576.251 807.791 577.038 808.578 578.009 808.578Z" fill="#90ABBD"/>
<path d="M590.223 813.266H578.009C577.038 813.266 576.251 814.053 576.251 815.023C576.251 815.994 577.038 816.781 578.009 816.781H590.223C591.194 816.781 591.981 815.994 591.981 815.023C591.981 814.053 591.194 813.266 590.223 813.266Z" fill="#90ABBD"/>
</g>
<defs>
<clipPath id="clip0_270_10486">
<rect width="120" height="120" fill="white" transform="translate(128 62)"/>
</clipPath>
<clipPath id="clip1_270_10486">
<rect width="120" height="120" fill="white" transform="translate(538 392)"/>
</clipPath>
<clipPath id="clip2_270_10486">
<rect width="120" height="120" fill="white" transform="translate(948 722)"/>
</clipPath>
<clipPath id="clip3_270_10486">
<rect width="120" height="120" fill="white" transform="translate(128 722)"/>
</clipPath>
<clipPath id="clip4_270_10486">
<rect width="120" height="120" fill="white" transform="translate(538 62)"/>
</clipPath>
<clipPath id="clip5_270_10486">
<rect width="120" height="120" fill="white" transform="translate(128 392)"/>
</clipPath>
<clipPath id="clip6_270_10486">
<rect width="120" height="120" fill="white" transform="translate(538 722)"/>
</clipPath>
</defs>
</svg>
