<svg width="1200" height="601" viewBox="0 0 1200 601" fill="none" xmlns="http://www.w3.org/2000/svg">
<rect x="1" y="409" width="378" height="191" rx="9" fill="white"/>
<rect x="1" y="409" width="378" height="191" rx="9" stroke="black" stroke-width="2"/>
<path d="M167.078 440.828V462.156H164.055V440.828H167.078ZM149.219 456.109C154.727 453.508 157.152 450.133 157.633 445.398H150.367V443.055H160.68C160.668 449.523 158.406 454.902 150.789 458.5L149.219 456.109ZM175.328 441.602V443.734H183.883V441.602H186.859V450.32H181.094V452.125H189.344V454.516H169.891V452.125H178.094V450.32H172.375V441.602H175.328ZM172.234 461.781V455.734H175.234V459.391H187.141V461.781H172.234ZM175.328 447.93H183.883V446.031H175.328V447.93ZM199.727 443.031V448.586H201.859V441.133H204.672V461.172H201.859V450.977H199.727V456.789H191.242V443.031H199.727ZM194.031 454.445H196.938V445.398H194.031V454.445ZM206.266 462.156V440.828H209.125V462.156H206.266ZM228.672 447.555V449.945H213.742V441.789H216.719V447.555H228.672ZM211.375 454.75V452.359H230.828V454.75H226.375V462.156H223.352V454.75H218.875V462.156H215.875V454.75H211.375Z" fill="#2779F4"/>
<path d="M55.4131 500.998C55.4131 503.749 57.2324 506.588 59.4561 507.678L58.6123 508.785C56.8896 507.889 55.4482 506.034 54.7539 503.863C54.0596 506.166 52.583 508.144 50.8252 509.084L49.9463 507.977C52.2314 506.852 54.042 503.854 54.0596 500.998V498.15H55.4131V500.998ZM60.8975 512.424V496.797H62.2686V503.143H64.8877V504.338H62.2686V512.424H60.8975ZM70.0381 497.535C72.1299 497.526 73.7295 498.748 74.0283 500.541H77.2979V496.797H78.6865V505.182H77.2979V501.684H74.0371C73.7646 503.529 72.1562 504.76 70.0381 504.76C67.6562 504.76 65.9688 503.283 65.9775 501.139C65.9688 499.021 67.6562 497.526 70.0381 497.535ZM67.2959 501.139C67.2959 502.562 68.4297 503.591 70.0381 503.6C71.6113 503.591 72.7451 502.562 72.7451 501.139C72.7451 499.697 71.6113 498.695 70.0381 498.713C68.4297 498.695 67.2959 499.697 67.2959 501.139ZM68.6143 512.213V505.973H70.0029V507.959H77.2979V505.973H78.6865V512.213H68.6143ZM70.0029 511.088H77.2979V509.066H70.0029V511.088ZM93.5049 496.797V501.561H95.8604V502.721H93.5049V508.328H92.1338V496.797H93.5049ZM81.5869 501.754C81.5781 499.486 83.3535 497.913 85.6826 497.904C88.0293 497.913 89.7783 499.486 89.7959 501.754C89.7783 504.013 88.0293 505.604 85.6826 505.604C83.3535 505.604 81.5781 504.013 81.5869 501.754ZM82.9404 501.754C82.9316 503.292 84.1357 504.391 85.6826 504.391C87.2559 504.391 88.4336 503.292 88.4424 501.754C88.4336 500.207 87.2559 499.117 85.6826 499.117C84.1357 499.117 82.9316 500.207 82.9404 501.754ZM83.7314 512.09V507.133H85.085V510.93H94.2256V512.09H83.7314ZM110.187 496.797V512.424H108.833V504.338H106.583V511.615H105.282V497.148H106.583V503.16H108.833V496.797H110.187ZM97.6357 508.381V498.713H99.0068V507.15C100.554 507.142 102.224 507.027 104.122 506.641L104.298 507.871C102.118 508.267 100.325 508.381 98.6025 508.381H97.6357ZM114.968 509.822L113.597 514.604H112.296L113.263 509.822H114.968ZM135.833 509.242V510.42H121.524V509.242H135.833ZM122.79 499.521V498.379H134.462V499.521H131.983V504.988H134.427V506.113H122.825V504.988H125.269V499.521H122.79ZM126.64 504.988H130.63V499.521H126.64V504.988ZM149.983 496.797V512.459H148.612V496.797H149.983ZM137.96 499.398V498.256H145.237V503.811H139.401V507.502C141.994 507.511 144.306 507.388 147.101 506.939L147.241 508.1C144.367 508.548 141.994 508.662 139.296 508.662H137.995V502.686H143.849V499.398H137.96ZM160.776 498.344V508.504H153.552V498.344H160.776ZM154.905 507.379H159.423V499.451H154.905V507.379ZM164.134 512.459V496.797H165.522V512.459H164.134ZM172.501 497.711C174.593 497.702 176.192 498.933 176.491 500.77H179.761V496.797H181.149V505.779H179.761V501.912H176.509C176.245 503.819 174.628 505.067 172.501 505.076C170.146 505.067 168.432 503.582 168.44 501.385C168.432 499.214 170.146 497.702 172.501 497.711ZM169.759 501.385C169.759 502.879 170.901 503.898 172.501 503.916C174.048 503.898 175.208 502.879 175.208 501.385C175.208 499.908 174.048 498.871 172.501 498.871C170.901 498.871 169.759 499.908 169.759 501.385ZM170.937 512.213V506.588H181.149V512.213H170.937ZM172.308 511.088H179.796V507.713H172.308V511.088ZM186.317 509.822L184.946 514.604H183.646L184.612 509.822H186.317ZM205.091 496.797V501.455H207.464V502.615H205.091V508.117H203.72V496.797H205.091ZM193.612 505.34V498.15H200.573V499.311H194.983V504.18C198.121 504.188 199.905 504.092 201.997 503.67L202.173 504.812C199.976 505.234 198.112 505.34 194.825 505.34H193.612ZM195.317 512.09V506.975H196.671V510.93H205.812V512.09H195.317ZM214.021 501.596C214.029 504.25 215.954 506.948 218.257 507.941L217.483 509.031C215.655 508.205 214.082 506.403 213.353 504.241C212.623 506.535 211.041 508.521 209.257 509.418L208.431 508.328C210.672 507.256 212.623 504.303 212.632 501.596V499.557H208.94V498.414H217.747V499.557H214.021V501.596ZM219.927 512.424V496.797H221.315V512.424H219.927ZM236.204 496.797V501.561H238.56V502.721H236.204V508.328H234.833V496.797H236.204ZM224.286 501.754C224.277 499.486 226.053 497.913 228.382 497.904C230.729 497.913 232.478 499.486 232.495 501.754C232.478 504.013 230.729 505.604 228.382 505.604C226.053 505.604 224.277 504.013 224.286 501.754ZM225.64 501.754C225.631 503.292 226.835 504.391 228.382 504.391C229.955 504.391 231.133 503.292 231.142 501.754C231.133 500.207 229.955 499.117 228.382 499.117C226.835 499.117 225.631 500.207 225.64 501.754ZM226.431 512.09V507.133H227.784V510.93H236.925V512.09H226.431ZM252.886 496.797V512.424H251.532V504.338H249.282V511.615H247.981V497.148H249.282V503.16H251.532V496.797H252.886ZM240.335 508.381V498.713H241.706V507.15C243.253 507.142 244.923 507.027 246.821 506.641L246.997 507.871C244.817 508.267 243.024 508.381 241.302 508.381H240.335ZM257.667 509.822L256.296 514.604H254.995L255.962 509.822H257.667ZM272.239 498.221V499.381H266.298V502.615H271.888V503.74H266.298V507.52C269.119 507.52 271.097 507.414 273.435 507.01L273.593 508.152C271.149 508.565 269.102 508.653 266.14 508.662H264.909V498.221H272.239ZM274.946 512.424V496.797H276.317V503.09H278.937V504.268H276.317V512.424H274.946ZM292.683 496.797V505.182H291.312V496.797H292.683ZM280.149 501.156C280.141 499.021 281.872 497.553 284.245 497.57C286.618 497.553 288.332 499.021 288.341 501.156C288.332 503.283 286.618 504.751 284.245 504.742C281.872 504.751 280.141 503.283 280.149 501.156ZM281.503 501.156C281.485 502.58 282.637 503.591 284.245 503.6C285.836 503.591 286.987 502.58 286.987 501.156C286.987 499.724 285.836 498.722 284.245 498.73C282.637 498.722 281.485 499.724 281.503 501.156ZM282.558 512.213V505.973H283.929V507.871H291.312V505.973H292.683V512.213H282.558ZM283.929 511.088H291.312V508.979H283.929V511.088ZM307.554 496.797V501.561H309.909V502.721H307.554V508.328H306.183V496.797H307.554ZM295.636 501.754C295.627 499.486 297.402 497.913 299.731 497.904C302.078 497.913 303.827 499.486 303.845 501.754C303.827 504.013 302.078 505.604 299.731 505.604C297.402 505.604 295.627 504.013 295.636 501.754ZM296.989 501.754C296.98 503.292 298.185 504.391 299.731 504.391C301.305 504.391 302.482 503.292 302.491 501.754C302.482 500.207 301.305 499.117 299.731 499.117C298.185 499.117 296.98 500.207 296.989 501.754ZM297.78 512.09V507.133H299.134V510.93H308.274V512.09H297.78ZM324.235 496.797V512.424H322.882V504.338H320.632V511.615H319.331V497.148H320.632V503.16H322.882V496.797H324.235ZM311.685 508.381V498.713H313.056V507.15C314.603 507.142 316.272 507.027 318.171 506.641L318.347 507.871C316.167 508.267 314.374 508.381 312.651 508.381H311.685ZM329.017 509.822L327.646 514.604H326.345L327.312 509.822H329.017ZM70.1699 530.596C70.1523 533.101 71.9629 535.86 74.2305 536.941L73.4395 538.031C71.6816 537.17 70.1963 535.324 69.4932 533.206C68.7725 535.5 67.208 537.521 65.459 538.418L64.6152 537.328C66.8652 536.229 68.7988 533.259 68.8164 530.596V528.557H65.1777V527.414H73.6855V528.557H70.1699V530.596ZM75.6016 541.424V525.797H76.9727V532.125H79.5918V533.303H76.9727V541.424H75.6016ZM94.7441 538.33V539.49H80.4355V538.33H84.4609V535.359H82.2285V530.543H91.5801V528.1H82.1934V526.957H92.9336V531.686H83.5996V534.217H93.3027V535.359H90.8594V538.33H94.7441ZM85.8145 538.33H89.5059V535.359H85.8145V538.33ZM108.877 525.797V533.9H107.523V525.797H108.877ZM96.0977 532.652C98.4531 531.835 100.123 529.743 100.123 527.449V526.254H101.529V527.449C101.512 529.655 103.199 531.606 105.52 532.371L104.834 533.443C102.997 532.819 101.547 531.51 100.844 529.822C100.141 531.642 98.6729 533.074 96.8184 533.742L96.0977 532.652ZM98.7344 535.799V534.691H108.895V538.436H100.123V540.123H109.457V541.248H98.7695V537.363H107.523V535.799H98.7344ZM114.115 538.822L112.744 543.604H111.443L112.41 538.822H114.115ZM133.205 527.379V528.943C133.188 530.859 133.188 533.004 132.625 536.15L131.219 535.992C131.808 533.004 131.808 530.815 131.816 528.943V528.521H122.184V527.379H133.205ZM120.672 539.209V538.066H126.262V532.477H127.615V538.066H134.91V539.209H120.672ZM149.5 525.814V535.025H148.182V530.895H146.055V534.92H144.736V526.113H146.055V529.752H148.182V525.814H149.5ZM136.316 534.164C139.56 532.846 141.396 530.728 141.66 528.1H136.949V526.957H143.084C143.075 530.692 140.966 533.514 137.002 535.201L136.316 534.164ZM138.953 536.871V535.746H149.5V541.424H148.146V536.871H138.953ZM165.057 525.797V537.521H163.738V525.797H165.057ZM151.838 534.199C153.851 533.25 155.081 531.088 155.072 529.242V526.904H156.408V529.242C156.408 531.07 157.551 532.951 159.537 533.795L158.764 534.885C157.322 534.226 156.294 533.021 155.758 531.606C155.204 533.162 154.105 534.542 152.611 535.271L151.838 534.199ZM154.809 541.09V536.08H156.18V539.93H165.531V541.09H154.809ZM158.184 530.912V529.77H160.645V526.113H161.98V537.082H160.645V530.912H158.184ZM180.297 525.797V541.459H178.926V532.846H175.621V531.703H178.926V525.797H180.297ZM168.062 537.68V527.238H175.357V528.381H169.451V531.633H174.672V532.758H169.451V536.537C172.316 536.528 174.162 536.449 176.307 536.062L176.465 537.205C174.188 537.574 172.281 537.68 169.258 537.68H168.062ZM187.609 526.816C190.009 526.834 191.767 528.311 191.775 530.49C191.767 532.45 190.343 533.839 188.312 534.103V536.757C189.771 536.695 191.239 536.59 192.602 536.414L192.689 537.451C189.376 538.014 185.685 538.049 182.934 538.031L182.705 536.871C183.962 536.862 185.412 536.854 186.924 536.81V534.103C184.85 533.856 183.435 532.459 183.443 530.49C183.435 528.311 185.166 526.834 187.609 526.816ZM184.797 530.49C184.779 531.958 185.966 532.978 187.609 532.969C189.227 532.978 190.404 531.958 190.422 530.49C190.404 529.022 189.227 528.021 187.609 528.012C185.966 528.021 184.779 529.022 184.797 530.49ZM193.604 541.424V525.797H194.975V532.248H197.523V533.443H194.975V541.424H193.604ZM215.189 525.797V529.453H217.545V530.596H215.189V534.164H213.818V525.797H215.189ZM203.025 533.338C206.998 532.459 209.23 530.49 209.459 528.029H203.693V526.904H210.988C210.979 530.815 208.211 533.408 203.605 534.463L203.025 533.338ZM205.293 541.213V534.867H215.26V535.922H206.682V537.469H215.084V538.523H206.682V540.141H215.629V541.213H205.293ZM232.768 534.041V535.166H218.529V534.041H232.768ZM220.111 529.453C220.111 527.493 222.256 526.342 225.648 526.359C229.006 526.342 231.159 527.493 231.168 529.453C231.159 531.396 229.006 532.564 225.648 532.564C222.256 532.564 220.111 531.396 220.111 529.453ZM220.375 541.09V536.537H221.764V539.93H231.186V541.09H220.375ZM221.535 529.453C221.526 530.692 223.126 531.439 225.648 531.439C228.153 531.439 229.753 530.692 229.762 529.453C229.753 528.231 228.153 527.467 225.648 527.467C223.126 527.467 221.526 528.231 221.535 529.453ZM251.523 525.797V541.424H250.135V525.797H251.523ZM238.797 537.363C243.024 535.359 245.187 532.362 245.494 528.627H239.518V527.502H246.9C246.883 531.993 244.791 535.975 239.553 538.488L238.797 537.363ZM257.43 526.43V528.416H265.164V526.43H266.535V532.67H261.965V534.34H268.398V535.482H254.16V534.34H260.594V532.67H256.059V526.43H257.43ZM256.006 541.09V536.73H257.395V539.93H266.816V541.09H256.006ZM257.43 531.562H265.164V529.506H257.43V531.562ZM276.273 527.625V531.703H278.646V526.131H279.965V540.633H278.646V532.846H276.273V537.223H270.297V527.625H276.273ZM271.598 536.115H274.973V528.732H271.598V536.115ZM281.775 541.424V525.797H283.111V541.424H281.775ZM297.842 531.088V532.23H287.084V526.605H288.49V531.088H297.842ZM285.273 535.641V534.498H299.512V535.641H295.803V541.424H294.432V535.641H290.371V541.424H289V535.641H285.273ZM315.121 533.057V534.146H300.812V533.057H315.121ZM302.535 536.432V535.395H313.328V538.717H303.941V540.211H313.838V541.213H302.553V537.768H311.957V536.432H302.535ZM302.623 527.273V526.271H313.275V529.506H304.047V530.877H313.557V531.879H302.676V528.557H311.887V527.273H302.623ZM62.3213 554.814V566.732H60.9326V563.375H58.2256V562.25H60.9326V560.123H58.2256V558.98H60.9326V554.814H62.3213ZM49.3838 557.855V556.73H53.1807V554.797H54.5518V556.73H58.2256V557.855H49.3838ZM50.3154 561.705C50.2979 559.912 51.7568 558.717 53.8486 558.717C55.9404 558.717 57.4082 559.912 57.417 561.705C57.4082 563.48 55.9404 564.685 53.8486 564.693C51.7568 564.685 50.2979 563.48 50.3154 561.705ZM51.5986 561.705C51.5898 562.83 52.5127 563.595 53.8486 563.586C55.1846 563.595 56.1074 562.83 56.1162 561.705C56.1074 560.58 55.1846 559.824 53.8486 559.807C52.5127 559.824 51.5898 560.58 51.5986 561.705ZM52.2139 570.09V565.678H53.6025V568.93H62.6729V570.09H52.2139ZM70.2139 557.768C70.2227 559.815 71.752 561.644 74.0459 562.391L73.3955 563.48C71.5938 562.883 70.2314 561.644 69.5547 560.07C68.8867 561.863 67.4453 563.261 65.5732 563.938L64.8701 562.83C67.208 562.039 68.8428 560.026 68.8604 557.768V557.1H65.292V555.957H73.7295V557.1H70.2139V557.768ZM66.9443 567.506C66.9531 565.704 68.9131 564.658 72.1299 564.658C75.3379 564.658 77.2803 565.704 77.2803 567.506C77.2803 569.334 75.3379 570.389 72.1299 570.389C68.9131 570.389 66.9531 569.334 66.9443 567.506ZM68.333 567.506C68.3154 568.631 69.7744 569.29 72.1299 569.281C74.4941 569.29 75.9355 568.631 75.9443 567.506C75.9355 566.416 74.4941 565.766 72.1299 565.766C69.7744 565.766 68.3154 566.416 68.333 567.506ZM75.7686 564.236V554.797H77.1396V558.787H79.4951V559.947H77.1396V564.236H75.7686ZM85.7002 557.328C85.7002 559.455 87.3174 561.406 89.585 562.18L88.8291 563.27C87.1064 562.637 85.7441 561.345 85.0586 559.71C84.3906 561.564 82.9932 562.997 81.165 563.709L80.4268 562.602C82.7646 561.731 84.3379 559.64 84.3467 557.223V555.605H85.7002V557.328ZM82.501 567.541C82.5098 565.757 84.4697 564.711 87.6865 564.711C90.8945 564.711 92.8369 565.757 92.8369 567.541C92.8369 569.36 90.8945 570.389 87.6865 570.389C84.4697 570.389 82.5098 569.36 82.501 567.541ZM83.8896 567.541C83.8721 568.648 85.3311 569.29 87.6865 569.299C90.0508 569.29 91.4922 568.648 91.501 567.541C91.4922 566.478 90.0508 565.818 87.6865 565.818C85.3311 565.818 83.8721 566.478 83.8896 567.541ZM91.3252 564.307V554.797H92.6963V558.875H95.0518V560.035H92.6963V564.307H91.3252ZM108.235 554.814V559.525H110.573V560.686H108.235V565.414H106.847V554.814H108.235ZM95.9658 563.586C97.2139 563.586 98.6816 563.586 100.202 563.533V562.294C98.3652 562.127 97.2051 561.327 97.2139 560.088C97.2051 558.69 98.6465 557.873 100.87 557.873C103.094 557.873 104.526 558.69 104.544 560.088C104.526 561.318 103.393 562.118 101.573 562.285V563.48C103.032 563.41 104.509 563.287 105.88 563.094L106.003 564.061C102.637 564.649 98.8926 564.702 96.124 564.693L95.9658 563.586ZM96.3525 557.223V556.15H100.202V554.674H101.573V556.15H105.405V557.223H96.3525ZM98.0576 568.016C98.0488 566.451 99.9297 565.59 103.19 565.607C106.442 565.59 108.332 566.451 108.341 568.016C108.332 569.571 106.442 570.406 103.19 570.424C99.9297 570.406 98.0488 569.571 98.0576 568.016ZM98.5322 560.088C98.5234 560.87 99.4287 561.354 100.87 561.354C102.312 561.354 103.226 560.87 103.226 560.088C103.226 559.332 102.312 558.831 100.87 558.84C99.4287 558.831 98.5234 559.332 98.5322 560.088ZM99.4463 568.016C99.4287 568.859 100.782 569.369 103.19 569.369C105.581 569.369 106.926 568.859 106.935 568.016C106.926 567.137 105.581 566.627 103.19 566.645C100.782 566.627 99.4287 567.137 99.4463 568.016ZM124.987 554.797V570.424H123.651V554.797H124.987ZM111.786 561.547C111.795 558.225 113.113 556.124 115.144 556.115C117.042 556.124 118.325 557.952 118.501 560.896H120.522V555.131H121.841V569.633H120.522V562.039H118.51C118.378 565.08 117.068 566.987 115.144 566.979C113.113 566.987 111.795 564.869 111.786 561.547ZM113.087 561.547C113.069 564.078 113.878 565.678 115.144 565.66C116.418 565.678 117.227 564.078 117.218 561.547C117.227 559.007 116.418 557.416 115.144 557.416C113.878 557.416 113.069 559.007 113.087 561.547ZM139.56 555.869V562.549H132.335V555.869H139.56ZM133.249 569.299C135.833 568.895 138.127 567.471 138.285 565.766H133.864V564.641H144.165V565.766H139.727C139.876 567.436 142.214 568.895 144.763 569.299L144.253 570.371C141.968 569.993 139.902 568.859 138.997 567.295C138.118 568.868 136.053 569.984 133.776 570.354L133.249 569.299ZM133.688 561.424H138.224V556.994H133.688V561.424ZM142.513 563.727V554.797H143.884V558.559H146.239V559.719H143.884V563.727H142.513ZM161.462 564.254V565.414H155.011V570.459H153.657V565.414H147.224V564.254H161.462ZM148.12 561.934C150.906 561.556 153.648 559.851 153.657 557.891V557.873H148.612V556.748H153.657V554.797H155.011V556.748H160.091V557.873H155.028V557.891C155.028 559.842 157.753 561.556 160.548 561.934L160.038 563.041C157.621 562.672 155.345 561.459 154.352 559.763C153.358 561.477 151.047 562.672 148.63 563.041L148.12 561.934ZM166.981 556.01C169.108 556.019 170.646 557.847 170.857 560.773H174.364V554.797H175.735V570.459H174.364V561.916H170.875C170.726 564.983 169.161 566.899 166.981 566.891C164.67 566.899 163.053 564.79 163.062 561.459C163.053 558.137 164.67 556.019 166.981 556.01ZM164.38 561.459C164.389 563.999 165.443 565.669 166.981 565.66C168.511 565.669 169.583 563.999 169.583 561.459C169.583 558.919 168.511 557.249 166.981 557.24C165.443 557.249 164.389 558.919 164.38 561.459ZM195.774 554.797V570.424H194.386V554.797H195.774ZM183.048 566.363C187.275 564.359 189.438 561.362 189.745 557.627H183.769V556.502H191.151C191.134 560.993 189.042 564.975 183.804 567.488L183.048 566.363ZM201.681 555.43V557.416H209.415V555.43H210.786V561.67H206.216V563.34H212.649V564.482H198.411V563.34H204.845V561.67H200.31V555.43H201.681ZM200.257 570.09V565.73H201.646V568.93H211.067V570.09H200.257ZM201.681 560.562H209.415V558.506H201.681V560.562ZM223.478 569.176C221.271 569.149 218.837 567.84 218.837 563.129C218.837 558.62 220.683 556.098 223.671 556.098C225.912 556.098 227.477 557.478 227.802 559.473H226.237C225.947 558.348 225.086 557.504 223.671 557.504C221.579 557.504 220.322 559.288 220.331 562.355H220.489C221.219 561.292 222.388 560.668 223.759 560.668C226.018 560.668 227.907 562.426 227.907 564.887C227.907 567.286 226.158 569.202 223.478 569.176ZM220.542 564.922C220.551 566.416 221.772 567.778 223.478 567.787C225.121 567.778 226.369 566.486 226.378 564.904C226.369 563.34 225.174 562.065 223.513 562.057C221.843 562.065 220.56 563.419 220.542 564.922ZM242.866 554.797V570.424H241.513V562.25H239.351V569.65H238.032V555.219H239.351V561.107H241.513V554.797H242.866ZM229.542 566.1C233.172 564.069 234.666 561.213 234.903 557.979H230.14V556.836H236.257C236.239 560.809 234.842 564.562 230.351 567.066L229.542 566.1ZM256.155 556.625V560.703H258.528V555.131H259.847V569.633H258.528V561.846H256.155V566.223H250.179V556.625H256.155ZM251.479 565.115H254.854V557.732H251.479V565.115ZM261.657 570.424V554.797H262.993V570.424H261.657ZM277.724 560.088V561.23H266.966V555.605H268.372V560.088H277.724ZM265.155 564.641V563.498H279.394V564.641H275.685V570.424H274.313V564.641H270.253V570.424H268.882V564.641H265.155ZM295.021 567.33V568.49H280.712V567.33H287.146V564.377H282.505V559.561H291.856V557.1H282.47V555.957H293.21V560.686H283.876V563.234H293.579V564.377H288.499V567.33H295.021ZM313.144 555.816V557.188C313.144 558.664 313.144 560.29 312.695 562.531H315.024V563.674H308.573V570.459H307.185V563.674H300.786V562.531H311.298C311.772 560.281 311.772 558.646 311.772 557.188V556.959H302.579V555.816H313.144ZM321.722 557.258C321.704 559.49 323.295 561.45 325.589 562.232L324.815 563.305C323.093 562.663 321.739 561.389 321.062 559.745C320.395 561.617 318.971 563.067 317.081 563.779L316.325 562.654C318.733 561.811 320.333 559.736 320.351 557.311V555.693H321.722V557.258ZM318.874 567.471C318.865 565.59 320.86 564.509 324.112 564.518C327.355 564.509 329.351 565.59 329.351 567.471C329.351 569.334 327.355 570.389 324.112 570.389C320.86 570.389 318.865 569.334 318.874 567.471ZM320.245 567.471C320.236 568.604 321.713 569.29 324.112 569.281C326.503 569.29 327.979 568.604 327.979 567.471C327.979 566.302 326.503 565.607 324.112 565.607C321.713 565.607 320.236 566.302 320.245 567.471ZM324.429 559.297V558.154H327.909V554.797H329.298V564.061H327.909V559.297H324.429Z" fill="black"/>
<rect x="411" y="409" width="378" height="191" rx="9" fill="white"/>
<rect x="411" y="409" width="378" height="191" rx="9" stroke="black" stroke-width="2"/>
<path d="M567.211 445.656C567.223 449.664 568.84 453.566 572.391 455.102L570.562 457.492C568.195 456.344 566.602 454.211 565.711 451.574C564.797 454.375 563.156 456.672 560.719 457.867L558.844 455.43C562.5 453.777 564.164 449.664 564.188 445.656V442.469H567.211V445.656ZM570 449.945V447.531H574.195V440.828H577.148V462.203H574.195V449.945H570ZM599.414 457.141V459.578H579.891V457.141H599.414ZM581.953 453.578V442.188H584.953V445.727H594.258V442.188H597.234V453.578H581.953ZM584.953 451.234H594.258V448.047H584.953V451.234ZM609.727 443.031V448.586H611.859V441.133H614.672V461.172H611.859V450.977H609.727V456.789H601.242V443.031H609.727ZM604.031 454.445H606.938V445.398H604.031V454.445ZM616.266 462.156V440.828H619.125V462.156H616.266ZM638.672 447.555V449.945H623.742V441.789H626.719V447.555H638.672ZM621.375 454.75V452.359H640.828V454.75H636.375V462.156H633.352V454.75H628.875V462.156H625.875V454.75H621.375Z" fill="#2779F4"/>
<path d="M480.064 496.797V512.424H478.676V496.797H480.064ZM467.338 508.363C471.565 506.359 473.728 503.362 474.035 499.627H468.059V498.502H475.441C475.424 502.993 473.332 506.975 468.094 509.488L467.338 508.363ZM485.971 497.43V499.416H493.705V497.43H495.076V503.67H490.506V505.34H496.939V506.482H482.701V505.34H489.135V503.67H484.6V497.43H485.971ZM484.547 512.09V507.73H485.936V510.93H495.357V512.09H484.547ZM485.971 502.562H493.705V500.506H485.971V502.562ZM509.332 498.625V502.703H511.705V497.131H513.023V511.633H511.705V503.846H509.332V508.223H503.355V498.625H509.332ZM504.656 507.115H508.031V499.732H504.656V507.115ZM514.834 512.424V496.797H516.17V512.424H514.834ZM530.9 502.088V503.23H520.143V497.605H521.549V502.088H530.9ZM518.332 506.641V505.498H532.57V506.641H528.861V512.424H527.49V506.641H523.43V512.424H522.059V506.641H518.332ZM550.5 496.797V503.248H553.119V504.391H550.5V512.424H549.129V496.797H550.5ZM538.318 500.453V499.311H542.344V496.99H543.715V499.311H547.617V500.453H538.318ZM539.215 505.34C539.206 503.23 540.823 501.754 543.047 501.754C545.253 501.754 546.861 503.23 546.879 505.34C546.861 507.458 545.253 508.926 543.047 508.926C540.823 508.926 539.206 507.458 539.215 505.34ZM540.533 505.34C540.524 506.764 541.588 507.766 543.047 507.748C544.488 507.766 545.543 506.764 545.561 505.34C545.543 503.925 544.488 502.905 543.047 502.914C541.588 502.905 540.524 503.925 540.533 505.34ZM566.18 496.797V501.455H568.553V502.615H566.18V508.117H564.809V496.797H566.18ZM554.701 505.34V498.15H561.662V499.311H556.072V504.18C559.21 504.188 560.994 504.092 563.086 503.67L563.262 504.812C561.064 505.234 559.201 505.34 555.914 505.34H554.701ZM556.406 512.09V506.975H557.76V510.93H566.9V512.09H556.406ZM582.914 496.797V512.424H581.578V496.797H582.914ZM569.713 503.547C569.722 500.225 571.04 498.124 573.07 498.115C574.969 498.124 576.252 499.952 576.428 502.896H578.449V497.131H579.768V511.633H578.449V504.039H576.437C576.305 507.08 574.995 508.987 573.07 508.979C571.04 508.987 569.722 506.869 569.713 503.547ZM571.014 503.547C570.996 506.078 571.805 507.678 573.07 507.66C574.345 507.678 575.153 506.078 575.145 503.547C575.153 501.007 574.345 499.416 573.07 499.416C571.805 499.416 570.996 501.007 571.014 503.547ZM601.951 497.816V499.188C601.951 500.664 601.951 502.29 601.503 504.531H603.832V505.674H597.381V512.459H595.992V505.674H589.594V504.531H600.105C600.58 502.281 600.58 500.646 600.58 499.188V498.959H591.387V497.816H601.951ZM610.529 499.258C610.512 501.49 612.103 503.45 614.396 504.232L613.623 505.305C611.9 504.663 610.547 503.389 609.87 501.745C609.202 503.617 607.778 505.067 605.889 505.779L605.133 504.654C607.541 503.811 609.141 501.736 609.158 499.311V497.693H610.529V499.258ZM607.682 509.471C607.673 507.59 609.668 506.509 612.92 506.518C616.163 506.509 618.158 507.59 618.158 509.471C618.158 511.334 616.163 512.389 612.92 512.389C609.668 512.389 607.673 511.334 607.682 509.471ZM609.053 509.471C609.044 510.604 610.521 511.29 612.92 511.281C615.311 511.29 616.787 510.604 616.787 509.471C616.787 508.302 615.311 507.607 612.92 507.607C610.521 507.607 609.044 508.302 609.053 509.471ZM613.236 501.297V500.154H616.717V496.797H618.105V506.061H616.717V501.297H613.236ZM630.023 503.547V504.689H626.596V507.766C628.125 507.704 629.663 507.599 631.113 507.432L631.219 508.469C627.756 508.97 623.977 509.04 620.988 509.031L620.795 507.871C622.157 507.871 623.669 507.862 625.225 507.818V504.689H621.99V498.291H629.953V499.416H623.344V503.547H630.023ZM632.15 512.459V496.797H633.521V512.459H632.15ZM648.902 501.543V502.65H638.197V497.377H639.568V501.543H648.902ZM636.246 505.902V504.777H650.555V505.902H636.246ZM638.109 512.037V507.502H639.48V510.895H648.99V512.037H638.109ZM661.84 500.998C661.831 503.828 663.65 506.676 665.918 507.713L665.092 508.838C663.316 507.924 661.849 506.061 661.154 503.837C660.46 506.175 658.992 508.179 657.217 509.119L656.32 508.012C658.614 506.887 660.425 503.881 660.434 500.998V498.15H661.84V500.998ZM664.213 503.266V502.141H667.922V496.797H669.293V512.459H667.922V503.266H664.213ZM686.203 509.189V510.35H671.895V509.189H686.203ZM673.582 506.061V497.922H674.971V500.84H683.092V497.922H684.445V506.061H673.582ZM674.971 504.953H683.092V501.947H674.971V504.953ZM694.008 498.625V502.703H696.381V497.131H697.699V511.633H696.381V503.846H694.008V508.223H688.031V498.625H694.008ZM689.332 507.115H692.707V499.732H689.332V507.115ZM699.51 512.424V496.797H700.846V512.424H699.51ZM715.576 502.088V503.23H704.818V497.605H706.225V502.088H715.576ZM703.008 506.641V505.498H717.246V506.641H713.537V512.424H712.166V506.641H708.105V512.424H706.734V506.641H703.008ZM731.203 501.543V502.65H720.498V497.377H721.869V501.543H731.203ZM718.547 505.902V504.777H732.855V505.902H718.547ZM720.41 512.037V507.502H721.781V510.895H731.291V512.037H720.41ZM507.029 534.076V535.201H500.666V538.26H499.295V535.201H492.721V534.076H507.029ZM494.549 541.09V536.818H495.92V539.93H505.43V541.09H494.549ZM494.637 532.547V526.307H496.008V528.311H503.742V526.307H505.113V532.547H494.637ZM496.008 531.422H503.742V529.365H496.008V531.422ZM522.832 528.17V529.312H520.512V531.492H522.832V532.652H520.512V535.078H519.141V525.797H520.512V528.17H522.832ZM508.594 530.42C508.585 528.24 510.325 526.737 512.689 526.746C515.071 526.737 516.785 528.24 516.803 530.42C516.785 532.591 515.071 534.085 512.689 534.094C510.325 534.085 508.585 532.591 508.594 530.42ZM509.947 530.42C509.938 531.896 511.107 532.916 512.689 532.934C514.289 532.916 515.44 531.896 515.449 530.42C515.44 528.952 514.289 527.906 512.689 527.924C511.107 527.906 509.938 528.952 509.947 530.42ZM510.316 538.488C510.325 536.634 512.312 535.562 515.502 535.553C518.692 535.562 520.652 536.634 520.652 538.488C520.652 540.308 518.692 541.389 515.502 541.389C512.312 541.389 510.325 540.308 510.316 538.488ZM511.705 538.488C511.688 539.613 513.146 540.272 515.502 540.281C517.866 540.272 519.308 539.613 519.316 538.488C519.308 537.354 517.866 536.678 515.502 536.678C513.146 536.678 511.688 537.354 511.705 538.488ZM529.072 528.328C529.072 530.455 530.689 532.406 532.957 533.18L532.201 534.27C530.479 533.637 529.116 532.345 528.431 530.71C527.763 532.564 526.365 533.997 524.537 534.709L523.799 533.602C526.137 532.731 527.71 530.64 527.719 528.223V526.605H529.072V528.328ZM525.873 538.541C525.882 536.757 527.842 535.711 531.059 535.711C534.267 535.711 536.209 536.757 536.209 538.541C536.209 540.36 534.267 541.389 531.059 541.389C527.842 541.389 525.882 540.36 525.873 538.541ZM527.262 538.541C527.244 539.648 528.703 540.29 531.059 540.299C533.423 540.29 534.864 539.648 534.873 538.541C534.864 537.478 533.423 536.818 531.059 536.818C528.703 536.818 527.244 537.478 527.262 538.541ZM534.697 535.307V525.797H536.068V529.875H538.424V531.035H536.068V535.307H534.697ZM553.646 533.355V534.498H547.195V536.344H551.906V541.213H541.148V536.344H545.842V534.498H539.408V533.355H553.646ZM540.744 527.449V526.307H552.293V527.449H549.885V530.736H552.24V531.879H540.797V530.736H543.152V527.449H540.744ZM542.52 540.088H550.553V537.434H542.52V540.088ZM544.523 530.736H548.514V527.449H544.523V530.736ZM568.359 525.797V541.424H567.023V525.797H568.359ZM555.158 532.547C555.167 529.225 556.485 527.124 558.516 527.115C560.414 527.124 561.697 528.952 561.873 531.896H563.895V526.131H565.213V540.633H563.895V533.039H561.882C561.75 536.08 560.44 537.987 558.516 537.979C556.485 537.987 555.167 535.869 555.158 532.547ZM556.459 532.547C556.441 535.078 557.25 536.678 558.516 536.66C559.79 536.678 560.599 535.078 560.59 532.547C560.599 530.007 559.79 528.416 558.516 528.416C557.25 528.416 556.441 530.007 556.459 532.547ZM582.932 526.869V533.549H575.707V526.869H582.932ZM576.621 540.299C579.205 539.895 581.499 538.471 581.657 536.766H577.236V535.641H587.537V536.766H583.099C583.248 538.436 585.586 539.895 588.135 540.299L587.625 541.371C585.34 540.993 583.274 539.859 582.369 538.295C581.49 539.868 579.425 540.984 577.148 541.354L576.621 540.299ZM577.061 532.424H581.596V527.994H577.061V532.424ZM585.885 534.727V525.797H587.256V529.559H589.611V530.719H587.256V534.727H585.885ZM596.361 528.697C596.361 530.253 597.935 531.606 600.123 532.09L599.525 533.18C597.741 532.74 596.344 531.765 595.685 530.481C595.034 531.879 593.619 532.925 591.773 533.391L591.176 532.336C593.382 531.817 594.938 530.367 594.938 528.697V528.645H591.51V527.537H594.973V525.85H596.344V527.537H599.771V528.645H596.361V528.697ZM590.525 534.41C593.496 534.428 597.442 534.393 600.896 533.9L600.984 534.955C599.438 535.219 597.838 535.368 596.291 535.465V540.949H594.902V535.526C593.399 535.588 591.976 535.588 590.719 535.588L590.525 534.41ZM598.523 537.82V536.713H602.127V525.814H603.533V541.441H602.127V537.82H598.523ZM622.887 525.797V530.156H625.242V531.334H622.887V535.887H621.516V525.797H622.887ZM610.705 528.68V527.59H614.678V525.674H616.049V527.59H620.021V528.68H610.705ZM611.602 532.248C611.593 530.578 613.096 529.497 615.363 529.488C617.604 529.497 619.107 530.578 619.125 532.248C619.107 533.936 617.604 535.017 615.363 535.008C613.096 535.017 611.593 533.936 611.602 532.248ZM612.832 538.699C612.823 536.994 614.757 536.001 617.947 535.992C621.129 536.001 623.062 536.994 623.062 538.699C623.062 540.396 621.129 541.389 617.947 541.389C614.757 541.389 612.823 540.396 612.832 538.699ZM612.92 532.248C612.911 533.276 613.887 533.936 615.363 533.936C616.822 533.936 617.807 533.276 617.824 532.248C617.807 531.22 616.822 530.543 615.363 530.525C613.887 530.543 612.911 531.22 612.92 532.248ZM614.203 538.699C614.186 539.71 615.609 540.325 617.947 540.316C620.276 540.325 621.7 539.71 621.691 538.699C621.7 537.662 620.276 537.082 617.947 537.082C615.609 537.082 614.186 537.662 614.203 538.699ZM638.654 526.465V531.738H634.031V533.742H640.465V534.867H626.227V533.742H632.66V531.738H628.072V526.465H638.654ZM627.809 537.609V536.502H638.707V541.424H637.318V537.609H627.809ZM629.426 530.631H637.283V527.572H629.426V530.631ZM648.902 526.816C652.163 526.825 654.615 528.53 654.615 531.105C654.615 533.707 652.163 535.412 648.902 535.395C645.642 535.412 643.189 533.707 643.189 531.105C643.189 528.53 645.642 526.825 648.902 526.816ZM641.783 539.35V538.189H656.092V539.35H641.783ZM644.508 531.105C644.49 533.004 646.38 534.27 648.902 534.27C651.407 534.27 653.279 533.004 653.279 531.105C653.279 529.233 651.407 527.933 648.902 527.941C646.38 527.933 644.49 529.233 644.508 531.105ZM671.648 538.33V539.49H657.34V538.33H663.773V535.377H659.133V530.561H668.484V528.1H659.098V526.957H669.838V531.686H660.504V534.234H670.207V535.377H665.127V538.33H671.648ZM689.771 526.816V528.188C689.771 529.664 689.771 531.29 689.323 533.531H691.652V534.674H685.201V541.459H683.812V534.674H677.414V533.531H687.926C688.4 531.281 688.4 529.646 688.4 528.188V527.959H679.207V526.816H689.771ZM698.35 528.258C698.332 530.49 699.923 532.45 702.217 533.232L701.443 534.305C699.721 533.663 698.367 532.389 697.69 530.745C697.022 532.617 695.599 534.067 693.709 534.779L692.953 533.654C695.361 532.811 696.961 530.736 696.979 528.311V526.693H698.35V528.258ZM695.502 538.471C695.493 536.59 697.488 535.509 700.74 535.518C703.983 535.509 705.979 536.59 705.979 538.471C705.979 540.334 703.983 541.389 700.74 541.389C697.488 541.389 695.493 540.334 695.502 538.471ZM696.873 538.471C696.864 539.604 698.341 540.29 700.74 540.281C703.131 540.29 704.607 539.604 704.607 538.471C704.607 537.302 703.131 536.607 700.74 536.607C698.341 536.607 696.864 537.302 696.873 538.471ZM701.057 530.297V529.154H704.537V525.797H705.926V535.061H704.537V530.297H701.057ZM543.671 564.148C543.688 560.835 544.585 558.075 546.202 555.729H547.538C546.352 557.46 545.244 561.02 545.235 564.148C545.244 567.286 546.352 570.837 547.538 572.586H546.202C544.585 570.23 543.688 567.471 543.671 564.148ZM549.401 569L549.384 567.84L553.726 563.27C555.229 561.67 555.949 560.809 555.958 559.631C555.949 558.321 554.859 557.478 553.427 557.469C551.906 557.478 550.957 558.436 550.948 559.859H549.454C549.437 557.609 551.177 556.098 553.479 556.098C555.791 556.098 557.426 557.653 557.435 559.631C557.426 561.055 556.767 562.162 554.517 564.482L551.599 567.488V567.594H557.663V569H549.401ZM564.132 569.176C561.311 569.176 559.676 566.803 559.685 562.637C559.676 558.506 561.328 556.098 564.132 556.098C566.927 556.098 568.579 558.506 568.579 562.637C568.579 566.803 566.953 569.176 564.132 569.176ZM561.214 562.637C561.223 565.933 562.286 567.77 564.132 567.77C565.969 567.77 567.041 565.933 567.032 562.637C567.041 559.341 565.96 557.478 564.132 557.469C562.304 557.478 561.223 559.341 561.214 562.637ZM583.573 554.797V570.424H582.237V554.797H583.573ZM569.95 565.379C570.434 565.379 570.996 565.379 571.603 565.37V557.943H570.284V556.801H577.474V557.943H576.155V565.186C576.744 565.133 577.307 565.08 577.825 565.01L577.913 566.029C575.443 566.486 572.165 566.565 570.126 566.557L569.95 565.379ZM572.868 565.344C573.519 565.326 574.204 565.3 574.872 565.265V557.943H572.868V565.344ZM577.017 561.986V560.738H579.196V555.184H580.515V569.598H579.196V561.986H577.017ZM598.567 554.797V570.459H597.179V554.797H598.567ZM586.263 561.459C586.271 558.137 587.924 556.019 590.253 556.01C592.573 556.019 594.252 558.137 594.243 561.459C594.252 564.79 592.573 566.899 590.253 566.891C587.924 566.899 586.271 564.79 586.263 561.459ZM587.599 561.459C587.599 563.999 588.688 565.669 590.253 565.66C591.826 565.669 592.907 563.999 592.907 561.459C592.907 558.919 591.826 557.249 590.253 557.24C588.688 557.249 587.599 558.919 587.599 561.459ZM606.829 559.596C606.838 562.25 608.763 564.948 611.065 565.941L610.292 567.031C608.464 566.205 606.891 564.403 606.161 562.241C605.432 564.535 603.85 566.521 602.065 567.418L601.239 566.328C603.48 565.256 605.432 562.303 605.44 559.596V557.557H601.749V556.414H610.556V557.557H606.829V559.596ZM612.735 570.424V554.797H614.124V570.424H612.735ZM634.198 554.797V570.459H632.81V554.797H634.198ZM621.894 561.459C621.902 558.137 623.555 556.019 625.884 556.01C628.204 556.019 629.883 558.137 629.874 561.459C629.883 564.79 628.204 566.899 625.884 566.891C623.555 566.899 621.902 564.79 621.894 561.459ZM623.229 561.459C623.229 563.999 624.319 565.669 625.884 565.66C627.457 565.669 628.538 563.999 628.538 561.459C628.538 558.919 627.457 557.249 625.884 557.24C624.319 557.249 623.229 558.919 623.229 561.459ZM650.212 554.797V570.424H648.858V562.338H646.608V569.615H645.308V555.148H646.608V561.16H648.858V554.797H650.212ZM637.661 566.381V556.713H639.032V565.15C640.579 565.142 642.249 565.027 644.147 564.641L644.323 565.871C642.144 566.267 640.351 566.381 638.628 566.381H637.661ZM656.329 564.148C656.312 567.471 655.415 570.23 653.798 572.586H652.462C653.648 570.837 654.756 567.286 654.765 564.148C654.756 561.02 653.648 557.46 652.462 555.729H653.798C655.415 558.075 656.312 560.835 656.329 564.148Z" fill="black"/>
<rect x="821" y="409" width="378" height="191" rx="9" fill="white"/>
<rect x="821" y="409" width="378" height="191" rx="9" stroke="black" stroke-width="2"/>
<path d="M987.125 440.852V456.414H984.148V448.773H980.656V446.359H984.148V440.852H987.125ZM969.031 451.609C972.559 450.508 974.152 447.73 974.164 445V444.672H969.875V442.281H981.453V444.672H977.211V445.023C977.199 447.496 978.723 450.133 982.109 451.234L980.633 453.602C978.277 452.828 976.648 451.281 975.723 449.371C974.773 451.492 973.074 453.215 970.555 454.047L969.031 451.609ZM972.969 461.781V455.055H975.969V459.391H987.641V461.781H972.969ZM997.766 446.641C997.754 449.887 999.488 453.637 1002.99 455.266L1001.33 457.609C998.949 456.52 997.262 454.34 996.301 451.785C995.352 454.598 993.594 456.988 991.133 458.148L989.398 455.781C992.949 454.129 994.742 450.168 994.766 446.641V445.328H990.242V442.891H1002.05V445.328H997.766V446.641ZM1003.72 462.156V440.828H1006.72V448.961H1009.86V451.469H1006.72V462.156H1003.72ZM1029.12 440.828V462.156H1026.31V440.828H1029.12ZM1010.3 455.617C1014.63 453.062 1016.53 449.957 1016.94 445.773H1011.55V443.359H1019.91C1019.91 444.426 1019.84 445.457 1019.71 446.453H1021.84V441.297H1024.67V461.219H1021.84V454.188H1018.81V451.773H1021.84V448.867H1019.22C1018.23 452.395 1016.05 455.359 1012.06 457.727L1010.3 455.617ZM1051.06 443.641V446.055H1048.3V448.234H1051.06V450.719H1048.3V453.414H1045.3V440.828H1048.3V443.641H1051.06ZM1031.52 447.18C1031.5 444.168 1034.04 441.988 1037.38 442C1040.68 441.988 1043.19 444.168 1043.19 447.18C1043.19 450.262 1040.68 452.418 1037.38 452.406C1034.04 452.418 1031.5 450.262 1031.52 447.18ZM1033.93 456.672V454.258H1048.3V462.156H1045.3V456.672H1033.93ZM1034.47 447.18C1034.45 448.902 1035.7 449.887 1037.38 449.875C1039.02 449.887 1040.27 448.902 1040.28 447.18C1040.27 445.516 1039.02 444.543 1037.38 444.555C1035.7 444.543 1034.45 445.516 1034.47 447.18Z" fill="#2779F4"/>
<path d="M923.472 496.814V508.275H922.083V502.281H918.866V501.139H922.083V496.814H923.472ZM910.587 505.146C912.89 504.338 914.56 502.272 914.56 500.031V499.223H911.026V498.08H919.446V499.223H915.948V500.031C915.948 502.053 917.513 504.013 919.798 504.795L919.077 505.902C917.319 505.261 915.957 503.951 915.28 502.334C914.604 504.145 913.162 505.577 911.308 506.271L910.587 505.146ZM913.435 512.09V507.238H914.823V510.93H923.911V512.09H913.435ZM931.364 501.596C931.347 504.101 933.157 506.86 935.425 507.941L934.634 509.031C932.876 508.17 931.391 506.324 930.688 504.206C929.967 506.5 928.402 508.521 926.653 509.418L925.81 508.328C928.06 507.229 929.993 504.259 930.011 501.596V499.557H926.372V498.414H934.88V499.557H931.364V501.596ZM936.796 512.424V496.797H938.167V503.125H940.786V504.303H938.167V512.424H936.796ZM955.007 496.797V512.424H953.688V496.797H955.007ZM941.612 508.047C945.014 506.034 946.719 503.213 946.991 499.943H942.315V498.801H948.362C948.362 499.601 948.292 500.392 948.151 501.156H950.524V497.219H951.843V511.633H950.524V506.219H947.624V505.076H950.524V502.299H947.879C947.123 504.944 945.409 507.282 942.456 509.049L941.612 508.047ZM971.724 499.223V500.348H969.403V502.545H971.724V503.723H969.403V506.096H968.032V496.797H969.403V499.223H971.724ZM957.485 501.42C957.477 499.249 959.217 497.737 961.581 497.746C963.963 497.737 965.677 499.249 965.694 501.42C965.677 503.617 963.963 505.12 961.581 505.129C959.217 505.12 957.477 503.617 957.485 501.42ZM958.839 501.42C958.83 502.923 959.999 503.951 961.581 503.934C963.181 503.951 964.332 502.923 964.341 501.42C964.332 499.952 963.181 498.933 961.581 498.924C959.999 498.933 958.83 499.952 958.839 501.42ZM959.173 507.959V506.816H969.403V512.424H968.032V507.959H959.173ZM979.862 497.078C983.334 497.078 985.373 498.036 985.382 499.768C985.373 501.543 983.334 502.501 979.862 502.51C976.373 502.501 974.325 501.543 974.325 499.768C974.325 498.036 976.373 497.078 979.862 497.078ZM972.743 504.689V503.564H986.981V504.689H972.743ZM974.466 507.098V506.043H985.153V509.541H975.872V511.158H985.628V512.248H974.501V508.521H983.8V507.098H974.466ZM975.767 499.768C975.749 500.857 977.27 501.455 979.862 501.455C982.455 501.455 983.967 500.857 983.976 499.768C983.967 498.739 982.455 498.124 979.862 498.115C977.27 498.124 975.749 498.739 975.767 499.768ZM997.388 501.613C997.396 504.127 998.671 506.702 1000.8 507.836L1000.01 508.873C998.451 508.021 997.326 506.403 996.755 504.522C996.201 506.526 995.085 508.284 993.521 509.225L992.694 508.17C994.821 506.939 996.078 504.197 996.087 501.613V500.84H993.116V499.697H996.087V497.377H997.405V499.697H1000.32V500.84H997.388V501.613ZM999.251 504.145V502.967H1001.71V497.184H1003.01V511.615H1001.71V504.145H999.251ZM1004.86 512.424V496.797H1006.18V512.424H1004.86ZM1021.33 496.797V504.795H1019.94V503.16H1015.77V502.07H1019.94V500.189H1016C1015.03 502.65 1012.6 504.312 1009.13 505.146L1008.64 504.004C1012.47 503.116 1014.69 501.253 1014.96 498.73H1009.43V497.588H1016.48C1016.48 498.106 1016.42 498.607 1016.33 499.082H1019.94V496.797H1021.33ZM1011.2 506.623V505.498H1021.33V509.312H1012.61V511.141H1021.86V512.283H1011.24V508.258H1019.94V506.623H1011.2ZM1036.02 496.797V503.248H1038.64V504.391H1036.02V512.424H1034.65V496.797H1036.02ZM1023.84 500.453V499.311H1027.87V496.99H1029.24V499.311H1033.14V500.453H1023.84ZM1024.74 505.34C1024.73 503.23 1026.35 501.754 1028.57 501.754C1030.78 501.754 1032.39 503.23 1032.4 505.34C1032.39 507.458 1030.78 508.926 1028.57 508.926C1026.35 508.926 1024.73 507.458 1024.74 505.34ZM1026.06 505.34C1026.05 506.764 1027.11 507.766 1028.57 507.748C1030.01 507.766 1031.07 506.764 1031.08 505.34C1031.07 503.925 1030.01 502.905 1028.57 502.914C1027.11 502.905 1026.05 503.925 1026.06 505.34ZM1052.37 496.797V504.9H1051.02V496.797H1052.37ZM1039.59 503.652C1041.95 502.835 1043.62 500.743 1043.62 498.449V497.254H1045.02V498.449C1045.01 500.655 1046.69 502.606 1049.01 503.371L1048.33 504.443C1046.49 503.819 1045.04 502.51 1044.34 500.822C1043.64 502.642 1042.17 504.074 1040.31 504.742L1039.59 503.652ZM1042.23 506.799V505.691H1052.39V509.436H1043.62V511.123H1052.95V512.248H1042.26V508.363H1051.02V506.799H1042.23ZM1067.4 498.256C1067.41 500.462 1070.28 502.36 1073.1 502.756L1072.53 503.881C1070.11 503.477 1067.7 502.132 1066.7 500.216C1065.7 502.149 1063.3 503.477 1060.86 503.881L1060.3 502.756C1063.12 502.36 1065.98 500.497 1065.98 498.256V497.359H1067.4V498.256ZM1059.56 506.764V505.604H1073.8V506.764H1067.33V512.424H1065.98V506.764H1059.56ZM1084.93 507.291C1084.92 508.671 1085.67 510.139 1087.15 510.982C1088.64 510.06 1089.44 508.495 1089.43 507.291V506.43H1090.78V507.291C1090.77 508.899 1091.96 510.499 1093.96 511.193L1093.28 512.213C1091.71 511.659 1090.62 510.569 1090.08 509.26C1089.59 510.525 1088.64 511.729 1087.19 512.336C1085.67 511.756 1084.71 510.613 1084.24 509.304C1083.68 510.561 1082.61 511.65 1081.11 512.213L1080.41 511.193C1082.39 510.455 1083.57 508.785 1083.59 507.291V506.43H1084.93V507.291ZM1080 501.385C1080 499.205 1081.73 497.72 1084.1 497.729C1086.47 497.72 1088.19 499.205 1088.2 501.385C1088.19 503.529 1086.47 505.006 1084.1 505.006C1081.73 505.006 1080 503.529 1080 501.385ZM1081.36 501.385C1081.34 502.835 1082.49 503.854 1084.1 503.863C1085.69 503.854 1086.84 502.835 1086.84 501.385C1086.84 499.926 1085.69 498.889 1084.1 498.906C1082.49 498.889 1081.34 499.926 1081.36 501.385ZM1091.17 505.744V496.814H1092.54V505.744H1091.17ZM1107.83 501.543V502.65H1097.13V497.377H1098.5V501.543H1107.83ZM1095.17 505.902V504.777H1109.48V505.902H1095.17ZM1097.04 512.037V507.502H1098.41V510.895H1107.92V512.037H1097.04ZM972.383 525.797V533.971H971.012V531.967H967.32V533.338H960.236V526.535H961.607V528.785H965.967V526.535H967.32V528.047H971.012V525.797H972.383ZM961.607 532.213H965.967V529.875H961.607V532.213ZM962.258 535.834V534.727H972.383V538.4H963.664V540.105H972.98V541.213H962.293V537.346H971.012V535.834H962.258ZM967.32 530.877H971.012V529.119H967.32V530.877ZM987.623 533.127V534.252H982.789V538.295H989.311V539.455H975.002V538.295H981.436V534.252H976.83V527.08H987.465V528.205H978.219V533.127H987.623ZM1001.63 527.625V531.703H1004.01V526.131H1005.32V540.633H1004.01V532.846H1001.63V537.223H995.656V527.625H1001.63ZM996.957 536.115H1000.33V528.732H996.957V536.115ZM1007.13 541.424V525.797H1008.47V541.424H1007.13ZM1023.2 531.088V532.23H1012.44V526.605H1013.85V531.088H1023.2ZM1010.63 535.641V534.498H1024.87V535.641H1021.16V541.424H1019.79V535.641H1015.73V541.424H1014.36V535.641H1010.63ZM1044.07 525.797V541.424H1042.75V525.797H1044.07ZM1030.51 537.258C1032.69 535.957 1033.97 533.101 1033.96 530.262V528.785H1030.95V527.643H1038.16V528.785H1035.29V530.262C1035.29 532.96 1036.52 535.658 1038.67 536.906L1037.83 537.926C1036.29 537.003 1035.2 535.315 1034.65 533.329C1034.09 535.482 1032.96 537.319 1031.39 538.295L1030.51 537.258ZM1036.96 532.564V531.439H1039.6V526.184H1040.9V540.615H1039.6V532.564H1036.96ZM1053.33 535.676C1056.68 535.676 1058.81 536.73 1058.81 538.541C1058.81 540.334 1056.68 541.389 1053.33 541.389C1049.98 541.389 1047.85 540.334 1047.86 538.541C1047.85 536.73 1049.98 535.676 1053.33 535.676ZM1046.28 534.217V533.092H1052.17V530.068H1053.52V533.092H1060.5V534.217H1046.28ZM1047.97 527.73V526.605H1058.69V527.924C1058.68 529.189 1058.68 530.455 1058.25 532.072L1056.9 531.914C1057.32 530.306 1057.32 529.146 1057.32 527.924V527.73H1047.97ZM1049.23 538.541C1049.23 539.631 1050.84 540.299 1053.33 540.299C1055.83 540.299 1057.43 539.631 1057.44 538.541C1057.43 537.425 1055.83 536.739 1053.33 536.73C1050.84 536.739 1049.23 537.425 1049.23 538.541Z" fill="black"/>
<g filter="url(#filter0_d_270_10493)">
<path d="M80 99H1120V281C1120 287.627 1114.63 293 1108 293H92C85.3726 293 80 287.627 80 281V99Z" fill="#FAFAFA"/>
<path d="M82.0212 287.667C81.1593 286.38 80.5399 284.916 80.2284 283.342L80.7189 283.245C80.5753 282.519 80.5 281.769 80.5 281V277.967H80V271.9H80.5V265.833H80V259.767H80.5V253.7H80V247.633H80.5V241.567H80V235.5H80.5V229.433H80V223.367H80.5V217.3H80V211.233H80.5V205.167H80V199.1H80.5V193.033H80V186.967H80.5V180.9H80V174.833H80.5V168.767H80V162.7H80.5V156.633H80V150.567H80.5V144.5H80V138.433H80.5V132.367H80V126.3H80.5V120.233H80V114.167H80.5V108.1H80V102.033H80.5V99.5H82.99V99H88.9671V99.5H94.9441V99H100.921V99.5H106.898V99H112.875V99.5H118.852V99H124.829V99.5H130.806V99H136.783V99.5H142.76V99H148.737V99.5H154.714V99H160.691V99.5H166.668V99H172.645V99.5H178.622V99H184.599V99.5H190.576V99H196.553V99.5H202.53V99H208.507V99.5H214.484V99H220.461V99.5H226.438V99H232.415V99.5H238.392V99H244.369V99.5H250.346V99H256.323V99.5H262.3V99H268.277V99.5H274.254V99H280.231V99.5H286.208V99H292.185V99.5H298.162V99H304.139V99.5H310.116V99H316.093V99.5H322.07V99H328.047V99.5H334.024V99H340.001V99.5H345.978V99H351.955V99.5H357.932V99H363.909V99.5H369.886V99H375.863V99.5H381.84V99H387.817V99.5H393.794V99H399.771V99.5H405.748V99H411.725V99.5H417.702V99H423.679V99.5H429.656V99H435.633V99.5H441.61V99H447.587V99.5H453.564V99H459.54V99.5H465.518V99H471.494V99.5H477.472V99H483.448V99.5H489.426V99H495.402V99.5H501.379V99H507.356V99.5H513.333V99H519.31V99.5H525.287V99H531.264V99.5H537.241V99H543.218V99.5H549.195V99H555.172V99.5H561.149V99H567.126V99.5H573.103V99H579.08V99.5H585.057V99H591.034V99.5H597.011V99H602.988V99.5H608.965V99H614.942V99.5H620.919V99H626.896V99.5H632.873V99H638.85V99.5H644.827V99H650.804V99.5H656.781V99H662.758V99.5H668.735V99H674.713V99.5H680.69V99H686.667V99.5H692.644V99H698.621V99.5H704.598V99H710.575V99.5H716.552V99H722.529V99.5H728.506V99H734.483V99.5H740.46V99H746.437V99.5H752.414V99H758.391V99.5H764.368V99H770.345V99.5H776.322V99H782.299V99.5H788.276V99H794.253V99.5H800.23V99H806.207V99.5H812.184V99H818.161V99.5H824.138V99H830.115V99.5H836.092V99H842.069V99.5H848.046V99H854.023V99.5H860V99H865.977V99.5H871.954V99H877.931V99.5H883.908V99H889.885V99.5H895.862V99H901.839V99.5H907.816V99H913.793V99.5H919.77V99H925.747V99.5H931.724V99H937.701V99.5H943.678V99H949.655V99.5H955.632V99H961.609V99.5H967.586V99H973.563V99.5H979.54V99H985.517V99.5H991.494V99H997.471V99.5H1003.45V99H1009.43V99.5H1015.4V99H1021.38V99.5H1027.36V99H1033.33V99.5H1039.31V99H1045.29V99.5H1051.26V99H1057.24V99.5H1063.22V99H1069.2V99.5H1075.17V99H1081.15V99.5H1087.13V99H1093.1V99.5H1099.08V99H1105.06V99.5H1111.03V99H1117.01V99.5H1119.5V102.033H1120V108.1H1119.5V114.167H1120V120.233H1119.5V126.3H1120V132.367H1119.5V138.433H1120V144.5H1119.5V150.567H1120V156.633H1119.5V162.7H1120V168.767H1119.5V174.833H1120V180.9H1119.5V186.967H1120V193.033H1119.5V199.1H1120V205.167H1119.5V211.233H1120V217.3H1119.5V223.367H1120V229.433H1119.5V235.5H1120V241.567H1119.5V247.633H1120V253.7H1119.5V259.767H1120V265.833H1119.5V271.9H1120V277.967H1119.5V281C1119.5 281.769 1119.42 282.519 1119.28 283.245L1119.77 283.342C1119.46 284.916 1118.84 286.38 1117.98 287.667L1117.56 287.389C1116.72 288.644 1115.64 289.724 1114.39 290.563L1114.67 290.979C1113.38 291.841 1111.92 292.46 1110.34 292.772L1110.24 292.281C1109.52 292.425 1108.77 292.5 1108 292.5H1105.01V293H1099.03V292.5H1093.06V293H1087.08V292.5H1081.1V293H1075.13V292.5H1069.15V293H1063.17V292.5H1057.2V293H1051.22V292.5H1045.24V293H1039.27V292.5H1033.29V293H1027.32V292.5H1021.34V293H1015.36V292.5H1009.39V293H1003.41V292.5H997.433V293H991.457V292.5H985.48V293H979.504V292.5H973.528V293H967.551V292.5H961.575V293H955.598V292.5H949.622V293H943.645V292.5H937.669V293H931.693V292.5H925.716V293H919.74V292.5H913.763V293H907.787V292.5H901.81V293H895.834V292.5H889.857V293H883.881V292.5H877.905V293H871.928V292.5H865.952V293H859.975V292.5H853.999V293H848.022V292.5H842.046V293H836.069V292.5H830.093V293H824.117V292.5H818.14V293H812.164V292.5H806.187V293H800.211V292.5H794.234V293H788.258V292.5H782.281V293H776.305V292.5H770.329V293H764.352V292.5H758.376V293H752.399V292.5H746.423V293H740.446V292.5H734.47V293H728.494V292.5H722.517V293H716.541V292.5H710.564V293H704.588V292.5H698.611V293H692.635V292.5H686.658V293H680.682V292.5H674.706V293H668.729V292.5H662.753V293H656.776V292.5H650.8V293H644.823V292.5H638.847V293H632.87V292.5H626.894V293H620.918V292.5H614.941V293H608.965V292.5H602.988V293H597.012V292.5H591.035V293H585.059V292.5H579.082V293H573.106V292.5H567.129V293H561.153V292.5H555.176V293H549.2V292.5H543.224V293H537.247V292.5H531.271V293H525.294V292.5H519.318V293H513.341V292.5H507.365V293H501.388V292.5H495.412V293H489.435V292.5H483.459V293H477.482V292.5H471.506V293H465.529V292.5H459.553V293H453.576V292.5H447.6V293H441.624V292.5H435.647V293H429.671V292.5H423.694V293H417.718V292.5H411.741V293H405.765V292.5H399.788V293H393.812V292.5H387.835V293H381.859V292.5H375.882V293H369.906V292.5H363.929V293H357.953V292.5H351.976V293H346V292.5H340.024V293H334.047V292.5H328.071V293H322.094V292.5H316.118V293H310.141V292.5H304.165V293H298.188V292.5H292.212V293H286.235V292.5H280.259V293H274.282V292.5H268.306V293H262.329V292.5H256.353V293H250.376V292.5H244.4V293H238.424V292.5H232.447V293H226.471V292.5H220.494V293H214.518V292.5H208.541V293H202.565V292.5H196.588V293H190.612V292.5H184.635V293H178.659V292.5H172.682V293H166.706V292.5H160.729V293H154.753V292.5H148.776V293H142.8V292.5H136.824V293H130.847V292.5H124.871V293H118.894V292.5H112.918V293H106.941V292.5H100.965V293H94.9882V292.5H92C91.2313 292.5 90.4807 292.425 89.7551 292.281L89.658 292.772C88.0837 292.46 86.6201 291.841 85.3326 290.979L85.6108 290.563C84.3565 289.724 83.2764 288.644 82.4367 287.389L82.0212 287.667Z" stroke="black" stroke-dasharray="6 6"/>
</g>
<path d="M161.258 137.998C161.258 140.749 163.077 143.588 165.301 144.678L164.457 145.785C162.734 144.889 161.293 143.034 160.599 140.863C159.904 143.166 158.428 145.144 156.67 146.084L155.791 144.977C158.076 143.852 159.887 140.854 159.904 137.998V135.15H161.258V137.998ZM166.742 149.424V133.797H168.113V140.143H170.732V141.338H168.113V149.424H166.742ZM175.883 134.535C177.975 134.526 179.574 135.748 179.873 137.541H183.143V133.797H184.531V142.182H183.143V138.684H179.882C179.609 140.529 178.001 141.76 175.883 141.76C173.501 141.76 171.813 140.283 171.822 138.139C171.813 136.021 173.501 134.526 175.883 134.535ZM173.141 138.139C173.141 139.562 174.274 140.591 175.883 140.6C177.456 140.591 178.59 139.562 178.59 138.139C178.59 136.697 177.456 135.695 175.883 135.713C174.274 135.695 173.141 136.697 173.141 138.139ZM174.459 149.213V142.973H175.848V144.959H183.143V142.973H184.531V149.213H174.459ZM175.848 148.088H183.143V146.066H175.848V148.088ZM200.475 133.797V149.424H199.121V141.25H196.959V148.65H195.641V134.219H196.959V140.107H199.121V133.797H200.475ZM187.15 145.1C190.78 143.069 192.274 140.213 192.512 136.979H187.748V135.836H193.865C193.848 139.809 192.45 143.562 187.959 146.066L187.15 145.1ZM216.998 146.26V147.42H202.689V146.26H206.24V142.05C204.904 141.355 204.096 140.23 204.096 138.807C204.096 136.39 206.469 134.799 209.809 134.781C213.148 134.799 215.521 136.39 215.521 138.807C215.521 140.204 214.739 141.312 213.447 142.006V146.26H216.998ZM205.432 138.807C205.423 140.556 207.242 141.725 209.809 141.725C212.349 141.725 214.186 140.556 214.186 138.807C214.186 137.058 212.349 135.906 209.809 135.924C207.242 135.906 205.423 137.058 205.432 138.807ZM207.594 146.26H212.059V142.542C211.382 142.718 210.626 142.814 209.809 142.814C209.009 142.814 208.262 142.727 207.594 142.551V146.26ZM160.291 175.189V176.35H145.982V175.189H160.291ZM147.67 172.061V163.922H149.059V166.84H157.18V163.922H158.533V172.061H147.67ZM149.059 170.953H157.18V167.947H149.059V170.953ZM174.811 162.814V174.451H173.492V168.65H171.295V173.994H170.012V163.113H171.295V167.49H173.492V162.814H174.811ZM162.225 165.275V164.15H168.148V168.615H163.596V170.988C165.652 170.971 167.234 170.883 169.08 170.514L169.238 171.621C167.208 172.017 165.547 172.104 163.279 172.096H162.26V167.525H166.83V165.275H162.225ZM164.562 178.09V173.379H165.934V176.93H175.285V178.09H164.562ZM189.717 170.32V171.463H178.924V164.256H189.559V165.398H180.295V170.32H189.717ZM177.096 176.297V175.137H191.404V176.297H177.096ZM211.479 175.242V176.385H197.17V175.242H203.568V171.41H204.922V175.242H211.479ZM197.732 170.443C200.466 169.978 203.507 167.692 203.516 165.064V163.869H204.957V165.064C204.966 167.675 208.051 169.978 210.775 170.443L210.16 171.586C207.778 171.094 205.265 169.485 204.254 167.235C203.226 169.477 200.738 171.094 198.348 171.586L197.732 170.443ZM226.068 162.797V178.424H224.715V170.25H222.553V177.65H221.234V163.219H222.553V169.107H224.715V162.797H226.068ZM212.744 174.1C216.374 172.069 217.868 169.213 218.105 165.979H213.342V164.836H219.459C219.441 168.809 218.044 172.562 213.553 175.066L212.744 174.1ZM163.139 192.816C166.461 192.834 168.852 194.451 168.852 196.912C168.852 199.241 166.777 200.779 163.807 200.981V204.26H170.328V205.42H156.02V204.26H162.453V200.981C159.5 200.771 157.426 199.232 157.426 196.912C157.426 194.451 159.825 192.834 163.139 192.816ZM158.762 196.912C158.753 198.714 160.607 199.883 163.139 199.9C165.67 199.883 167.516 198.714 167.516 196.912C167.516 195.146 165.67 193.95 163.139 193.959C160.607 193.95 158.753 195.146 158.762 196.912ZM177.131 195.998C177.122 198.854 179.064 201.72 181.367 202.766L180.523 203.855C178.739 202.994 177.201 201.14 176.454 198.916C175.733 201.271 174.195 203.249 172.367 204.172L171.488 203.012C173.817 201.948 175.742 198.96 175.76 195.998V193.15H177.131V195.998ZM183.072 207.459V191.797H184.461V207.459H183.072ZM199.771 196.543V197.65H189.066V192.377H190.438V196.543H199.771ZM187.115 200.902V199.777H201.424V200.902H187.115ZM188.979 207.037V202.502H190.35V205.895H199.859V207.037H188.979ZM215.592 191.797V199.795H214.221V191.797H215.592ZM202.953 198.969C206.873 198.099 209.158 196.227 209.404 193.713H203.744V192.57H210.916C210.907 196.561 208.086 199.048 203.463 200.129L202.953 198.969ZM205.432 201.641V200.533H215.592V204.312H206.838V206.176H216.154V207.283H205.467V203.258H214.221V201.641H205.432Z" fill="black"/>
<path d="M313.328 146.242V147.42H299.02V146.242H313.328ZM300.285 136.521V135.379H311.957V136.521H309.479V141.988H311.922V143.113H300.32V141.988H302.764V136.521H300.285ZM304.135 141.988H308.125V136.521H304.135V141.988ZM327.479 133.797V149.459H326.107V133.797H327.479ZM315.455 136.398V135.256H322.732V140.811H316.896V144.502C319.489 144.511 321.801 144.388 324.596 143.939L324.736 145.1C321.862 145.548 319.489 145.662 316.791 145.662H315.49V139.686H321.344V136.398H315.455ZM338.271 135.344V145.504H331.047V135.344H338.271ZM332.4 144.379H336.918V136.451H332.4V144.379ZM341.629 149.459V133.797H343.018V149.459H341.629ZM349.996 134.711C352.088 134.702 353.688 135.933 353.986 137.77H357.256V133.797H358.645V142.779H357.256V138.912H354.004C353.74 140.819 352.123 142.067 349.996 142.076C347.641 142.067 345.927 140.582 345.936 138.385C345.927 136.214 347.641 134.702 349.996 134.711ZM347.254 138.385C347.254 139.879 348.396 140.898 349.996 140.916C351.543 140.898 352.703 139.879 352.703 138.385C352.703 136.908 351.543 135.871 349.996 135.871C348.396 135.871 347.254 136.908 347.254 138.385ZM348.432 149.213V143.588H358.645V149.213H348.432ZM349.803 148.088H357.291V144.713H349.803V148.088ZM311.922 162.797V171.182H310.551V162.797H311.922ZM299.389 167.156C299.38 165.021 301.111 163.553 303.484 163.57C305.857 163.553 307.571 165.021 307.58 167.156C307.571 169.283 305.857 170.751 303.484 170.742C301.111 170.751 299.38 169.283 299.389 167.156ZM300.742 167.156C300.725 168.58 301.876 169.591 303.484 169.6C305.075 169.591 306.227 168.58 306.227 167.156C306.227 165.724 305.075 164.722 303.484 164.73C301.876 164.722 300.725 165.724 300.742 167.156ZM301.797 178.213V171.973H303.168V173.871H310.551V171.973H311.922V178.213H301.797ZM303.168 177.088H310.551V174.979H303.168V177.088ZM320.166 167.596C320.175 170.25 322.1 172.948 324.402 173.941L323.629 175.031C321.801 174.205 320.228 172.403 319.498 170.241C318.769 172.535 317.187 174.521 315.402 175.418L314.576 174.328C316.817 173.256 318.769 170.303 318.777 167.596V165.557H315.086V164.414H323.893V165.557H320.166V167.596ZM326.072 178.424V162.797H327.461V178.424H326.072ZM342.332 162.797V168.281H344.67V169.441H342.332V175.031H340.943V162.797H342.332ZM330.062 172.096C331.302 172.096 332.77 172.078 334.299 172.025V170.83C332.479 170.663 331.302 169.793 331.311 168.475C331.302 166.972 332.77 166.058 334.967 166.066C337.182 166.058 338.623 166.972 338.641 168.475C338.623 169.784 337.48 170.654 335.67 170.83V171.964C337.129 171.876 338.614 171.744 339.977 171.533L340.1 172.518C336.751 173.15 332.954 173.194 330.221 173.221L330.062 172.096ZM330.449 165.381V164.344H334.299V162.762H335.67V164.344H339.502V165.381H330.449ZM332.4 178.09V174.205H333.789V176.93H342.895V178.09H332.4ZM332.629 168.475C332.62 169.327 333.525 169.881 334.967 169.881C336.408 169.881 337.322 169.327 337.322 168.475C337.322 167.587 336.408 167.042 334.967 167.051C333.525 167.042 332.62 167.587 332.629 168.475ZM358.645 162.814V172.201H357.256V170.092H353.107V168.949H357.256V166.84H353.266C352.237 169.354 349.829 171.173 346.48 172.166L345.9 171.076C349.671 169.96 352.035 167.842 352.308 165.135H346.691V163.975H353.811C353.811 164.59 353.74 165.179 353.608 165.732H357.256V162.814H358.645ZM348.309 175.348C348.3 173.484 350.33 172.359 353.529 172.359C356.693 172.359 358.732 173.484 358.732 175.348C358.732 177.22 356.693 178.354 353.529 178.354C350.33 178.354 348.3 177.22 348.309 175.348ZM349.662 175.348C349.671 176.525 351.174 177.237 353.529 177.229C355.85 177.237 357.353 176.525 357.361 175.348C357.353 174.17 355.85 173.458 353.529 173.467C351.174 173.458 349.671 174.17 349.662 175.348Z" fill="black"/>
<path d="M438.96 141.531V142.639H424.704V141.531H431.155V139.703H426.515V134.535H437.185V135.643H427.868V138.578H437.29V139.703H432.491V141.531H438.96ZM426.427 146.594C426.418 144.81 428.448 143.79 431.823 143.781C435.172 143.79 437.185 144.81 437.202 146.594C437.185 148.396 435.172 149.406 431.823 149.424C428.448 149.406 426.418 148.396 426.427 146.594ZM427.833 146.594C427.815 147.692 429.318 148.325 431.823 148.316C434.302 148.325 435.805 147.692 435.813 146.594C435.805 145.513 434.302 144.871 431.823 144.871C429.318 144.871 427.815 145.513 427.833 146.594ZM453.761 136.117V137.26H440.964V136.117H446.694V134.061H448.048V136.117H453.761ZM440.261 147.596V146.453H446.694V144.256C443.908 144.106 442.229 143.025 442.247 141.268C442.229 139.413 444.189 138.314 447.38 138.332C450.526 138.314 452.521 139.413 452.513 141.268C452.521 143.025 450.808 144.106 448.048 144.256V146.453H454.569V147.596H440.261ZM443.636 141.268C443.618 142.454 445.051 143.14 447.38 143.148C449.683 143.14 451.115 142.454 451.106 141.268C451.115 140.107 449.683 139.422 447.38 139.422C445.051 139.422 443.618 140.107 443.636 141.268ZM463.657 135.256C463.666 137.462 466.531 139.36 469.353 139.756L468.79 140.881C466.364 140.477 463.956 139.132 462.954 137.216C461.952 139.149 459.553 140.477 457.118 140.881L456.556 139.756C459.377 139.36 462.233 137.497 462.233 135.256V134.359H463.657V135.256ZM455.817 143.764V142.604H470.056V143.764H463.587V149.424H462.233V143.764H455.817ZM477.79 135.291V139.105H481.183V135.291H482.466V145.521H476.472V135.291H477.79ZM477.79 144.379H481.183V140.23H477.79V144.379ZM484.452 148.633V134.131H485.771V140.002H487.95V133.797H489.286V149.424H487.95V141.145H485.771V148.633H484.452ZM504.333 133.797V149.424H502.944V133.797H504.333ZM491.765 145.328C494.085 144.273 495.86 141.637 495.86 138.895V137.646H492.187V136.521H495.843V134.096H497.214V136.521H500.853V137.646H497.214V138.895C497.214 141.514 499.042 144.045 501.397 145.047L500.624 146.119C498.813 145.319 497.293 143.632 496.563 141.566C495.86 143.746 494.349 145.548 492.538 146.4L491.765 145.328ZM519.626 141.127V142.252H514.792V146.295H521.313V147.455H507.005V146.295H513.438V142.252H508.833V135.08H519.468V136.205H510.222V141.127H519.626ZM455.853 166.998C455.844 169.854 457.786 172.72 460.089 173.766L459.245 174.855C457.461 173.994 455.923 172.14 455.176 169.916C454.455 172.271 452.917 174.249 451.089 175.172L450.21 174.012C452.539 172.948 454.464 169.96 454.481 166.998V164.15H455.853V166.998ZM461.794 178.459V162.797H463.183V178.459H461.794ZM473.642 165.1C473.65 167.78 476.709 170.162 479.425 170.672L478.792 171.832C476.428 171.287 473.949 169.608 472.938 167.314C471.919 169.608 469.449 171.278 467.085 171.832L466.452 170.672C469.159 170.153 472.191 167.789 472.2 165.1V163.904H473.642V165.1ZM465.854 176.297V175.154H480.163V176.297H465.854ZM488.108 163.816V164.977H483.468V166.91H487.458V168H483.468V170.127C485.735 170.118 487.133 170.03 488.812 169.723L488.952 170.83C487.142 171.173 485.665 171.243 483.134 171.252H482.149V163.816H488.108ZM484.364 178.213V172.939H494.683V178.213H484.364ZM485.718 177.088H493.329V174.064H485.718V177.088ZM488.196 167.877V166.734H490.306V163.078H491.642V172.078H490.306V167.877H488.196ZM493.364 172.219V162.797H494.683V172.219H493.364ZM450.465 193.432C450.447 197.94 448.848 202.071 443.328 204.84L442.537 203.785C445.411 202.344 447.187 200.542 448.162 198.433L442.836 198.934L442.59 197.738L448.584 197.343C448.874 196.464 449.032 195.541 449.103 194.574H443.381V193.432H450.465ZM450.412 199.232V198.09H454.086V191.797H455.457V207.424H454.086V199.232H450.412ZM472.367 200.85V201.992H468.711V207.547H467.34V201.992H463.104V207.547H461.732V201.992H458.059V200.85H472.367ZM459.904 198.74V192.658H470.504V198.74H459.904ZM461.258 197.633H469.133V193.783H461.258V197.633ZM486.518 191.797V207.424H485.146V191.797H486.518ZM474.652 203.398V193.344H476.006V202.203C478.396 202.186 480.857 202.001 483.477 201.447L483.67 202.625C480.893 203.205 478.423 203.398 475.918 203.398H474.652ZM497.803 193.221V194.381H491.562V197.615H497.24V198.74H491.562V202.52C494.48 202.52 496.484 202.414 498.875 202.01L499.016 203.152C496.546 203.565 494.445 203.653 491.439 203.662H490.191V193.221H497.803ZM500.721 207.424V191.797H502.109V207.424H500.721Z" fill="black"/>
<path d="M581.876 148L587.712 136.768V136.68H580.979V135.273H589.347V136.75L583.528 148H581.876ZM595.376 148.176C593.082 148.176 591.342 146.761 591.245 144.801H592.774C592.889 145.935 593.996 146.778 595.376 146.787C597.028 146.778 598.224 145.574 598.224 143.975C598.224 142.322 596.984 141.101 595.271 141.092C594.198 141.074 593.363 141.408 592.897 142.234H591.368L592.265 135.273H599.155V136.68H593.583L593.108 140.406H593.231C593.803 139.967 594.655 139.668 595.552 139.668C597.978 139.668 599.762 141.461 599.771 143.939C599.762 146.4 597.916 148.176 595.376 148.176ZM602.741 148H601.089L605.747 135.273H607.417L612.075 148H610.405L609.131 144.414H604.016L602.741 148ZM604.499 143.025H608.647L606.626 137.33H606.521L604.499 143.025ZM617.612 136.68V135.273H627.21V136.68H623.22V148H621.62V136.68H617.612ZM629.003 151.586C628.678 151.577 628.353 151.568 628.159 151.551V150.197C628.317 150.215 628.66 150.224 628.897 150.232C629.513 150.224 630.031 150.188 630.532 148.791L630.813 148.07L627.28 138.455H628.933L631.534 146.031H631.64L634.241 138.455H635.894L631.851 149.371C631.288 150.874 630.356 151.577 629.003 151.586ZM637.563 151.586V138.455H639.022V139.967H639.198C639.523 139.457 640.104 138.332 641.958 138.332C644.357 138.332 646.019 140.23 646.019 143.254C646.019 146.286 644.357 148.202 641.976 148.193C640.156 148.202 639.523 147.068 639.198 146.541H639.075V151.586H637.563ZM639.04 143.219C639.049 145.363 640.007 146.84 641.765 146.84C643.575 146.84 644.507 145.249 644.507 143.219C644.507 141.224 643.602 139.686 641.765 139.686C639.98 139.686 639.049 141.101 639.04 143.219ZM651.995 148.193C649.235 148.202 647.53 146.233 647.53 143.307C647.53 140.371 649.262 138.332 651.854 138.332C653.858 138.332 655.977 139.562 655.968 143.096V143.729H649.042C649.121 145.75 650.299 146.857 651.995 146.857C653.138 146.857 653.858 146.356 654.21 145.768H655.827C655.379 147.218 653.964 148.202 651.995 148.193ZM649.051 142.445H654.438C654.43 140.854 653.428 139.668 651.854 139.668C650.202 139.668 649.156 140.969 649.051 142.445ZM582.113 177L587.949 165.768V165.68H581.217V164.273H589.584V165.75L583.766 177H582.113ZM595.613 177.176C593.319 177.176 591.579 175.761 591.482 173.801H593.012C593.126 174.935 594.233 175.778 595.613 175.787C597.266 175.778 598.461 174.574 598.461 172.975C598.461 171.322 597.222 170.101 595.508 170.092C594.436 170.074 593.601 170.408 593.135 171.234H591.605L592.502 164.273H599.393V165.68H593.82L593.346 169.406H593.469C594.04 168.967 594.893 168.668 595.789 168.668C598.215 168.668 599.999 170.461 600.008 172.939C599.999 175.4 598.153 177.176 595.613 177.176ZM602.416 177V164.273H606.881C609.553 164.273 610.81 165.776 610.801 167.648C610.81 169.283 609.834 170.013 608.727 170.32V170.443C609.913 170.514 611.302 171.604 611.311 173.625C611.302 175.532 610.045 177 607.039 177H602.416ZM603.998 175.594H607.021C609.017 175.594 609.79 174.715 609.781 173.607C609.79 172.315 608.744 171.217 607.109 171.217H603.998V175.594ZM603.998 169.846H606.828C608.208 169.854 609.289 168.993 609.289 167.666C609.289 166.559 608.542 165.68 606.881 165.68H603.998V169.846ZM617.375 165.68V164.273H626.973V165.68H622.982V177H621.383V165.68H617.375ZM628.766 180.586C628.44 180.577 628.115 180.568 627.922 180.551V179.197C628.08 179.215 628.423 179.224 628.66 179.232C629.275 179.224 629.794 179.188 630.295 177.791L630.576 177.07L627.043 167.455H628.695L631.297 175.031H631.402L634.004 167.455H635.656L631.613 178.371C631.051 179.874 630.119 180.577 628.766 180.586ZM637.326 180.586V167.455H638.785V168.967H638.961C639.286 168.457 639.866 167.332 641.721 167.332C644.12 167.332 645.781 169.23 645.781 172.254C645.781 175.286 644.12 177.202 641.738 177.193C639.919 177.202 639.286 176.068 638.961 175.541H638.838V180.586H637.326ZM638.803 172.219C638.812 174.363 639.77 175.84 641.527 175.84C643.338 175.84 644.27 174.249 644.27 172.219C644.27 170.224 643.364 168.686 641.527 168.686C639.743 168.686 638.812 170.101 638.803 172.219ZM651.758 177.193C648.998 177.202 647.293 175.233 647.293 172.307C647.293 169.371 649.024 167.332 651.617 167.332C653.621 167.332 655.739 168.562 655.73 172.096V172.729H648.805C648.884 174.75 650.062 175.857 651.758 175.857C652.9 175.857 653.621 175.356 653.973 174.768H655.59C655.142 176.218 653.727 177.202 651.758 177.193ZM648.813 171.445H654.201C654.192 169.854 653.19 168.668 651.617 168.668C649.965 168.668 648.919 169.969 648.813 171.445ZM584.899 206.176C582.219 206.176 580.373 204.69 580.382 202.625C580.373 200.981 581.516 199.619 582.966 199.391V199.32C581.7 199.03 580.865 197.861 580.874 196.473C580.865 194.53 582.57 193.098 584.899 193.098C587.22 193.098 588.925 194.53 588.942 196.473C588.925 197.861 588.081 199.03 586.833 199.32V199.391C588.274 199.619 589.417 200.981 589.435 202.625C589.417 204.69 587.554 206.176 584.899 206.176ZM581.964 202.537C581.938 203.873 583.071 204.778 584.899 204.787C586.719 204.778 587.853 203.873 587.853 202.537C587.853 201.131 586.613 200.094 584.899 200.094C583.194 200.094 581.938 201.131 581.964 202.537ZM582.403 196.596C582.412 197.879 583.44 198.749 584.899 198.758C586.35 198.749 587.396 197.879 587.396 196.596C587.396 195.321 586.385 194.46 584.899 194.469C583.388 194.46 582.412 195.321 582.403 196.596ZM591.245 203.398V202.098L596.976 193.273H598.927V202.01H600.702V203.398H598.927V206H597.415V203.398H591.245ZM592.95 202.01H597.415V195.277H597.257L592.95 201.904V202.01ZM603.567 206H601.915L606.573 193.273H608.243L612.901 206H611.231L609.957 202.414H604.842L603.567 206ZM605.325 201.025H609.474L607.452 195.33H607.347L605.325 201.025ZM618.438 194.68V193.273H628.036V194.68H624.046V206H622.446V194.68H618.438ZM629.829 209.586C629.504 209.577 629.179 209.568 628.985 209.551V208.197C629.144 208.215 629.486 208.224 629.724 208.232C630.339 208.224 630.857 208.188 631.358 206.791L631.64 206.07L628.106 196.455H629.759L632.36 204.031H632.466L635.067 196.455H636.72L632.677 207.371C632.114 208.874 631.183 209.577 629.829 209.586ZM638.39 209.586V196.455H639.849V197.967H640.024C640.35 197.457 640.93 196.332 642.784 196.332C645.184 196.332 646.845 198.23 646.845 201.254C646.845 204.286 645.184 206.202 642.802 206.193C640.982 206.202 640.35 205.068 640.024 204.541H639.901V209.586H638.39ZM639.866 201.219C639.875 203.363 640.833 204.84 642.591 204.84C644.401 204.84 645.333 203.249 645.333 201.219C645.333 199.224 644.428 197.686 642.591 197.686C640.807 197.686 639.875 199.101 639.866 201.219ZM652.821 206.193C650.062 206.202 648.356 204.233 648.356 201.307C648.356 198.371 650.088 196.332 652.681 196.332C654.685 196.332 656.803 197.562 656.794 201.096V201.729H649.868C649.947 203.75 651.125 204.857 652.821 204.857C653.964 204.857 654.685 204.356 655.036 203.768H656.653C656.205 205.218 654.79 206.202 652.821 206.193ZM649.877 200.445H655.265C655.256 198.854 654.254 197.668 652.681 197.668C651.028 197.668 649.982 198.969 649.877 200.445ZM585.137 235.176C582.456 235.176 580.61 233.69 580.619 231.625C580.61 229.981 581.753 228.619 583.203 228.391V228.32C581.938 228.03 581.103 226.861 581.111 225.473C581.103 223.53 582.808 222.098 585.137 222.098C587.457 222.098 589.162 223.53 589.18 225.473C589.162 226.861 588.318 228.03 587.07 228.32V228.391C588.512 228.619 589.654 229.981 589.672 231.625C589.654 233.69 587.791 235.176 585.137 235.176ZM582.201 231.537C582.175 232.873 583.309 233.778 585.137 233.787C586.956 233.778 588.09 232.873 588.09 231.537C588.09 230.131 586.851 229.094 585.137 229.094C583.432 229.094 582.175 230.131 582.201 231.537ZM582.641 225.596C582.649 226.879 583.678 227.749 585.137 227.758C586.587 227.749 587.633 226.879 587.633 225.596C587.633 224.321 586.622 223.46 585.137 223.469C583.625 223.46 582.649 224.321 582.641 225.596ZM591.482 232.398V231.098L597.213 222.273H599.164V231.01H600.939V232.398H599.164V235H597.652V232.398H591.482ZM593.188 231.01H597.652V224.277H597.494L593.188 230.904V231.01ZM603.242 235V222.273H607.707C610.379 222.273 611.636 223.776 611.627 225.648C611.636 227.283 610.66 228.013 609.553 228.32V228.443C610.739 228.514 612.128 229.604 612.137 231.625C612.128 233.532 610.871 235 607.865 235H603.242ZM604.824 233.594H607.848C609.843 233.594 610.616 232.715 610.607 231.607C610.616 230.315 609.57 229.217 607.936 229.217H604.824V233.594ZM604.824 227.846H607.654C609.034 227.854 610.115 226.993 610.115 225.666C610.115 224.559 609.368 223.68 607.707 223.68H604.824V227.846ZM618.201 223.68V222.273H627.799V223.68H623.809V235H622.209V223.68H618.201ZM629.592 238.586C629.267 238.577 628.941 238.568 628.748 238.551V237.197C628.906 237.215 629.249 237.224 629.486 237.232C630.102 237.224 630.62 237.188 631.121 235.791L631.402 235.07L627.869 225.455H629.521L632.123 233.031H632.229L634.83 225.455H636.482L632.439 236.371C631.877 237.874 630.945 238.577 629.592 238.586ZM638.152 238.586V225.455H639.611V226.967H639.787C640.112 226.457 640.692 225.332 642.547 225.332C644.946 225.332 646.607 227.23 646.607 230.254C646.607 233.286 644.946 235.202 642.564 235.193C640.745 235.202 640.112 234.068 639.787 233.541H639.664V238.586H638.152ZM639.629 230.219C639.638 232.363 640.596 233.84 642.354 233.84C644.164 233.84 645.096 232.249 645.096 230.219C645.096 228.224 644.19 226.686 642.354 226.686C640.569 226.686 639.638 228.101 639.629 230.219ZM652.584 235.193C649.824 235.202 648.119 233.233 648.119 230.307C648.119 227.371 649.851 225.332 652.443 225.332C654.447 225.332 656.565 226.562 656.557 230.096V230.729H649.631C649.71 232.75 650.888 233.857 652.584 233.857C653.727 233.857 654.447 233.356 654.799 232.768H656.416C655.968 234.218 654.553 235.202 652.584 235.193ZM649.64 229.445H655.027C655.019 227.854 654.017 226.668 652.443 226.668C650.791 226.668 649.745 227.969 649.64 229.445ZM584.469 264.176C581.788 264.176 579.942 262.69 579.951 260.625C579.942 258.981 581.085 257.619 582.535 257.391V257.32C581.27 257.03 580.435 255.861 580.443 254.473C580.435 252.53 582.14 251.098 584.469 251.098C586.789 251.098 588.494 252.53 588.512 254.473C588.494 255.861 587.65 257.03 586.402 257.32V257.391C587.844 257.619 588.986 258.981 589.004 260.625C588.986 262.69 587.123 264.176 584.469 264.176ZM581.533 260.537C581.507 261.873 582.641 262.778 584.469 262.787C586.288 262.778 587.422 261.873 587.422 260.537C587.422 259.131 586.183 258.094 584.469 258.094C582.764 258.094 581.507 259.131 581.533 260.537ZM581.973 254.596C581.981 255.879 583.01 256.749 584.469 256.758C585.919 256.749 586.965 255.879 586.965 254.596C586.965 253.321 585.954 252.46 584.469 252.469C582.957 252.46 581.981 253.321 581.973 254.596ZM590.814 261.398V260.098L596.545 251.273H598.496V260.01H600.271V261.398H598.496V264H596.984V261.398H590.814ZM592.52 260.01H596.984V253.277H596.826L592.52 259.904V260.01ZM611.258 255.281C610.889 253.523 609.386 252.574 607.707 252.574C605.404 252.574 603.62 254.35 603.611 257.637C603.62 260.915 605.404 262.69 607.707 262.699C609.386 262.69 610.88 261.75 611.258 260.01H612.84C612.383 262.611 610.291 264.176 607.707 264.176C604.438 264.176 602.073 261.662 602.082 257.637C602.073 253.611 604.438 251.098 607.707 251.098C610.282 251.098 612.365 252.636 612.84 255.281H611.258ZM618.869 252.68V251.273H628.467V252.68H624.477V264H622.877V252.68H618.869ZM630.26 267.586C629.935 267.577 629.609 267.568 629.416 267.551V266.197C629.574 266.215 629.917 266.224 630.154 266.232C630.77 266.224 631.288 266.188 631.789 264.791L632.07 264.07L628.537 254.455H630.189L632.791 262.031H632.896L635.498 254.455H637.15L633.107 265.371C632.545 266.874 631.613 267.577 630.26 267.586ZM638.82 267.586V254.455H640.279V255.967H640.455C640.78 255.457 641.36 254.332 643.215 254.332C645.614 254.332 647.275 256.23 647.275 259.254C647.275 262.286 645.614 264.202 643.232 264.193C641.413 264.202 640.78 263.068 640.455 262.541H640.332V267.586H638.82ZM640.297 259.219C640.306 261.363 641.264 262.84 643.021 262.84C644.832 262.84 645.764 261.249 645.764 259.219C645.764 257.224 644.858 255.686 643.021 255.686C641.237 255.686 640.306 257.101 640.297 259.219ZM653.252 264.193C650.492 264.202 648.787 262.233 648.787 259.307C648.787 256.371 650.519 254.332 653.111 254.332C655.115 254.332 657.233 255.562 657.225 259.096V259.729H650.299C650.378 261.75 651.556 262.857 653.252 262.857C654.395 262.857 655.115 262.356 655.467 261.768H657.084C656.636 263.218 655.221 264.202 653.252 264.193ZM650.308 258.445H655.695C655.687 256.854 654.685 255.668 653.111 255.668C651.459 255.668 650.413 256.969 650.308 258.445Z" fill="black"/>
<path d="M727.086 143.676C730.435 143.676 732.562 144.73 732.57 146.541C732.562 148.334 730.435 149.389 727.086 149.389C723.737 149.389 721.61 148.334 721.619 146.541C721.61 144.73 723.737 143.676 727.086 143.676ZM720.037 142.217V141.092H725.926V138.068H727.279V141.092H734.258V142.217H720.037ZM721.725 135.73V134.605H732.447V135.924C732.438 137.189 732.438 138.455 732.008 140.072L730.654 139.914C731.076 138.306 731.076 137.146 731.076 135.924V135.73H721.725ZM722.99 146.541C722.981 147.631 724.599 148.299 727.086 148.299C729.582 148.299 731.182 147.631 731.199 146.541C731.182 145.425 729.582 144.739 727.086 144.73C724.599 144.739 722.981 145.425 722.99 146.541ZM741.166 138.596C741.175 141.25 743.1 143.948 745.402 144.941L744.629 146.031C742.801 145.205 741.228 143.403 740.498 141.241C739.769 143.535 738.187 145.521 736.402 146.418L735.576 145.328C737.817 144.256 739.769 141.303 739.777 138.596V136.557H736.086V135.414H744.893V136.557H741.166V138.596ZM747.072 149.424V133.797H748.461V149.424H747.072ZM756.371 137.998C756.371 140.749 758.19 143.588 760.414 144.678L759.57 145.785C757.848 144.889 756.406 143.034 755.712 140.863C755.018 143.166 753.541 145.144 751.783 146.084L750.904 144.977C753.189 143.852 755 140.854 755.018 137.998V135.15H756.371V137.998ZM761.855 149.424V133.797H763.227V140.143H765.846V141.338H763.227V149.424H761.855ZM778.906 133.797V138.156H781.262V139.334H778.906V143.887H777.535V133.797H778.906ZM766.725 136.68V135.59H770.697V133.674H772.068V135.59H776.041V136.68H766.725ZM767.621 140.248C767.612 138.578 769.115 137.497 771.383 137.488C773.624 137.497 775.127 138.578 775.145 140.248C775.127 141.936 773.624 143.017 771.383 143.008C769.115 143.017 767.612 141.936 767.621 140.248ZM768.852 146.699C768.843 144.994 770.776 144.001 773.967 143.992C777.148 144.001 779.082 144.994 779.082 146.699C779.082 148.396 777.148 149.389 773.967 149.389C770.776 149.389 768.843 148.396 768.852 146.699ZM768.939 140.248C768.931 141.276 769.906 141.936 771.383 141.936C772.842 141.936 773.826 141.276 773.844 140.248C773.826 139.22 772.842 138.543 771.383 138.525C769.906 138.543 768.931 139.22 768.939 140.248ZM770.223 146.699C770.205 147.71 771.629 148.325 773.967 148.316C776.296 148.325 777.72 147.71 777.711 146.699C777.72 145.662 776.296 145.082 773.967 145.082C771.629 145.082 770.205 145.662 770.223 146.699ZM732.975 162.814V174.328H731.586V168.299H728.316C728.009 170.224 726.392 171.533 724.326 171.533C721.988 171.533 720.257 169.925 720.266 167.666C720.257 165.398 721.988 163.825 724.326 163.816C726.436 163.825 728.079 165.17 728.334 167.156H731.586V162.814H732.975ZM721.584 167.666C721.584 169.222 722.753 170.32 724.326 170.338C725.864 170.32 727.033 169.222 727.033 167.666C727.033 166.119 725.864 165.038 724.326 165.029C722.753 165.038 721.584 166.119 721.584 167.666ZM722.938 178.09V173.15H724.326V176.93H733.414V178.09H722.938ZM749.867 171.727V172.869H735.559V171.727H742.027V170.004H737.422V166.154H746.633V164.414H737.369V163.307H748.021V167.174H738.793V168.914H748.355V170.004H743.381V171.727H749.867ZM737.457 178.266V173.924H738.846V177.123H748.355V178.266H737.457ZM765.441 175.277V176.42H751.133V175.277H757.566V171.902H752.82V163.904H754.209V166.734H762.33V163.904H763.684V171.902H758.92V175.277H765.441ZM754.209 170.777H762.33V167.859H754.209V170.777ZM779.311 170.127V171.252H774.477V175.295H780.998V176.455H766.689V175.295H773.123V171.252H768.518V164.08H779.152V165.205H769.906V170.127H779.311Z" fill="black"/>
<path d="M846.37 134.781V135.555C846.361 136.46 846.361 137.866 845.948 139.703L844.577 139.58C844.938 137.963 844.981 136.785 844.981 135.906H838.583V134.781H846.37ZM837.616 141.127C838.618 141.127 839.761 141.118 840.974 141.092V138.156H842.345V141.057C844.076 140.986 845.869 140.863 847.495 140.635L847.583 141.654C844.27 142.217 840.517 142.27 837.757 142.27L837.616 141.127ZM839.884 149.178V143.904H849.956V149.178H839.884ZM841.237 148.053H848.585V145.012H841.237V148.053ZM848.55 143.131V133.797H849.956V137.893H852.241V139.07H849.956V143.131H848.55ZM866.163 133.814V142.691H864.792V133.814H866.163ZM853.384 141.197C855.748 140.371 857.392 138.253 857.392 135.959V134.43H858.798V135.959C858.78 138.165 860.468 140.116 862.771 140.934L862.067 141.988C860.257 141.364 858.807 140.046 858.104 138.341C857.409 140.151 855.95 141.593 854.087 142.287L853.384 141.197ZM856.003 149.213V143.588H866.163V149.213H856.003ZM857.356 148.088H864.81V144.713H857.356V148.088ZM881.351 135.379V136.943C881.333 138.859 881.333 141.004 880.771 144.15L879.364 143.992C879.953 141.004 879.953 138.815 879.962 136.943V136.521H870.329V135.379H881.351ZM868.817 147.209V146.066H874.407V140.477H875.761V146.066H883.056V147.209H868.817ZM897.646 133.814V143.025H896.327V138.895H894.2V142.92H892.882V134.113H894.2V137.752H896.327V133.814H897.646ZM884.462 142.164C887.705 140.846 889.542 138.728 889.806 136.1H885.095V134.957H891.229C891.221 138.692 889.111 141.514 885.147 143.201L884.462 142.164ZM887.099 144.871V143.746H897.646V149.424H896.292V144.871H887.099ZM918.704 141.232V142.393H904.448V141.232H918.704ZM906.171 146.576C906.162 144.783 908.192 143.764 911.567 143.764C914.916 143.764 916.929 144.783 916.946 146.576C916.929 148.387 914.916 149.389 911.567 149.389C908.192 149.389 906.162 148.387 906.171 146.576ZM906.259 139.738V134.43H916.929V135.59H907.612V138.613H917.034V139.738H906.259ZM907.577 146.576C907.56 147.675 909.062 148.299 911.567 148.299C914.046 148.299 915.549 147.675 915.558 146.576C915.549 145.486 914.046 144.854 911.567 144.836C909.062 144.854 907.56 145.486 907.577 146.576ZM934.296 142.41V143.553H919.987V142.41H926.456V140.758H921.851V136.943H931.062V135.326H921.798V134.201H932.45V137.98H923.222V139.65H932.784V140.758H927.81V142.41H934.296ZM921.587 145.873V144.748H932.538V149.283H931.149V145.873H921.587Z" fill="black"/>
<g filter="url(#filter1_d_270_10493)">
<rect x="80" y="12" width="1040" height="87" fill="white"/>
</g>
<path d="M148.953 51.8867C148.953 54.9434 150.975 58.0977 153.445 59.3086L152.508 60.5391C150.594 59.543 148.992 57.4824 148.221 55.0703C147.449 57.6289 145.809 59.8262 143.855 60.8711L142.879 59.6406C145.418 58.3906 147.43 55.0605 147.449 51.8867V48.7227H148.953V51.8867ZM155.047 64.582V47.2188H156.57V54.2695H159.48V55.5977H156.57V64.582H155.047ZM165.203 48.0391C167.527 48.0293 169.305 49.3867 169.637 51.3789H173.27V47.2188H174.812V56.5352H173.27V52.6484H169.646C169.344 54.6992 167.557 56.0664 165.203 56.0664C162.557 56.0664 160.682 54.4258 160.691 52.043C160.682 49.6895 162.557 48.0293 165.203 48.0391ZM162.156 52.043C162.156 53.625 163.416 54.7676 165.203 54.7773C166.951 54.7676 168.211 53.625 168.211 52.043C168.211 50.4414 166.951 49.3281 165.203 49.3477C163.416 49.3281 162.156 50.4414 162.156 52.043ZM163.621 64.3477V57.4141H165.164V59.6211H173.27V57.4141H174.812V64.3477H163.621ZM165.164 63.0977H173.27V60.8516H165.164V63.0977ZM191.277 47.2188V52.5117H193.895V53.8008H191.277V60.0312H189.754V47.2188H191.277ZM178.035 52.7266C178.025 50.207 179.998 48.459 182.586 48.4492C185.193 48.459 187.137 50.207 187.156 52.7266C187.137 55.2363 185.193 57.0039 182.586 57.0039C179.998 57.0039 178.025 55.2363 178.035 52.7266ZM179.539 52.7266C179.529 54.4355 180.867 55.6562 182.586 55.6562C184.334 55.6562 185.643 54.4355 185.652 52.7266C185.643 51.0078 184.334 49.7969 182.586 49.7969C180.867 49.7969 179.529 51.0078 179.539 52.7266ZM180.418 64.2109V58.7031H181.922V62.9219H192.078V64.2109H180.418ZM209.812 47.2188V64.582H208.309V55.5977H205.809V63.6836H204.363V47.6094H205.809V54.2891H208.309V47.2188H209.812ZM195.867 60.0898V49.3477H197.391V58.7227C199.109 58.7129 200.965 58.5859 203.074 58.1562L203.27 59.5234C200.848 59.9629 198.855 60.0898 196.941 60.0898H195.867Z" fill="black"/>
<path d="M303.031 61.0469V62.3555H287.133V61.0469H303.031ZM288.539 50.2461V48.9766H301.508V50.2461H298.754V56.3203H301.469V57.5703H288.578V56.3203H291.293V50.2461H288.539ZM292.816 56.3203H297.25V50.2461H292.816V56.3203ZM318.754 47.2188V64.6211H317.23V47.2188H318.754ZM305.395 50.1094V48.8398H313.48V55.0117H306.996V59.1133C309.877 59.123 312.445 58.9863 315.551 58.4883L315.707 59.7773C312.514 60.2754 309.877 60.4023 306.879 60.4023H305.434V53.7617H311.938V50.1094H305.395ZM330.746 48.9375V60.2266H322.719V48.9375H330.746ZM324.223 58.9766H329.242V50.168H324.223V58.9766ZM334.477 64.6211V47.2188H336.02V64.6211H334.477ZM343.773 48.2344C346.098 48.2246 347.875 49.5918 348.207 51.6328H351.84V47.2188H353.383V57.1992H351.84V52.9023H348.227C347.934 55.0215 346.137 56.4082 343.773 56.418C341.156 56.4082 339.252 54.7578 339.262 52.3164C339.252 49.9043 341.156 48.2246 343.773 48.2344ZM340.727 52.3164C340.727 53.9766 341.996 55.1094 343.773 55.1289C345.492 55.1094 346.781 53.9766 346.781 52.3164C346.781 50.6758 345.492 49.5234 343.773 49.5234C341.996 49.5234 340.727 50.6758 340.727 52.3164ZM342.035 64.3477V58.0977H353.383V64.3477H342.035ZM343.559 63.0977H351.879V59.3477H343.559V63.0977Z" fill="black"/>
<path d="M444.707 47.2188V52.3945H447.344V53.6836H444.707V59.7969H443.184V47.2188H444.707ZM431.953 56.7109V48.7227H439.688V50.0117H433.477V55.4219C436.963 55.4316 438.945 55.3242 441.27 54.8555L441.465 56.125C439.023 56.5938 436.953 56.7109 433.301 56.7109H431.953ZM433.848 64.2109V58.5273H435.352V62.9219H445.508V64.2109H433.848ZM454.629 52.5508C454.639 55.5 456.777 58.498 459.336 59.6016L458.477 60.8125C456.445 59.8945 454.697 57.8926 453.887 55.4902C453.076 58.0391 451.318 60.2461 449.336 61.2422L448.418 60.0312C450.908 58.8398 453.076 55.5586 453.086 52.5508V50.2852H448.984V49.0156H458.77V50.2852H454.629V52.5508ZM461.191 64.582V47.2188H462.734V64.582H461.191ZM479.277 47.2188V52.5117H481.895V53.8008H479.277V60.0312H477.754V47.2188H479.277ZM466.035 52.7266C466.025 50.207 467.998 48.459 470.586 48.4492C473.193 48.459 475.137 50.207 475.156 52.7266C475.137 55.2363 473.193 57.0039 470.586 57.0039C467.998 57.0039 466.025 55.2363 466.035 52.7266ZM467.539 52.7266C467.529 54.4355 468.867 55.6562 470.586 55.6562C472.334 55.6562 473.643 54.4355 473.652 52.7266C473.643 51.0078 472.334 49.7969 470.586 49.7969C468.867 49.7969 467.529 51.0078 467.539 52.7266ZM468.418 64.2109V58.7031H469.922V62.9219H480.078V64.2109H468.418ZM497.812 47.2188V64.582H496.309V55.5977H493.809V63.6836H492.363V47.6094H493.809V54.2891H496.309V47.2188H497.812ZM483.867 60.0898V49.3477H485.391V58.7227C487.109 58.7129 488.965 58.5859 491.074 58.1562L491.27 59.5234C488.848 59.9629 486.855 60.0898 484.941 60.0898H483.867Z" fill="black"/>
<path d="M584.039 48.8008V50.0898H577.438V53.6836H583.648V54.9336H577.438V59.1328C580.572 59.1328 582.77 59.0156 585.367 58.5664L585.543 59.8359C582.828 60.2949 580.553 60.3926 577.262 60.4023H575.895V48.8008H584.039ZM587.047 64.582V47.2188H588.57V54.2109H591.48V55.5195H588.57V64.582H587.047ZM606.754 47.2188V56.5352H605.23V47.2188H606.754ZM592.828 52.0625C592.818 49.6895 594.742 48.0586 597.379 48.0781C600.016 48.0586 601.92 49.6895 601.93 52.0625C601.92 54.4258 600.016 56.0566 597.379 56.0469C594.742 56.0566 592.818 54.4258 592.828 52.0625ZM594.332 52.0625C594.312 53.6445 595.592 54.7676 597.379 54.7773C599.146 54.7676 600.426 53.6445 600.426 52.0625C600.426 50.4707 599.146 49.3574 597.379 49.3672C595.592 49.3574 594.312 50.4707 594.332 52.0625ZM595.504 64.3477V57.4141H597.027V59.5234H605.23V57.4141H606.754V64.3477H595.504ZM597.027 63.0977H605.23V60.7539H597.027V63.0977ZM623.277 47.2188V52.5117H625.895V53.8008H623.277V60.0312H621.754V47.2188H623.277ZM610.035 52.7266C610.025 50.207 611.998 48.459 614.586 48.4492C617.193 48.459 619.137 50.207 619.156 52.7266C619.137 55.2363 617.193 57.0039 614.586 57.0039C611.998 57.0039 610.025 55.2363 610.035 52.7266ZM611.539 52.7266C611.529 54.4355 612.867 55.6562 614.586 55.6562C616.334 55.6562 617.643 54.4355 617.652 52.7266C617.643 51.0078 616.334 49.7969 614.586 49.7969C612.867 49.7969 611.529 51.0078 611.539 52.7266ZM612.418 64.2109V58.7031H613.922V62.9219H624.078V64.2109H612.418ZM641.812 47.2188V64.582H640.309V55.5977H637.809V63.6836H636.363V47.6094H637.809V54.2891H640.309V47.2188H641.812ZM627.867 60.0898V49.3477H629.391V58.7227C631.109 58.7129 632.965 58.5859 635.074 58.1562L635.27 59.5234C632.848 59.9629 630.855 60.0898 628.941 60.0898H627.867Z" fill="black"/>
<path d="M724.654 52.5508C724.635 55.334 726.646 58.4004 729.166 59.6016L728.287 60.8125C726.334 59.8555 724.684 57.8047 723.902 55.4512C723.102 58 721.363 60.2461 719.42 61.2422L718.482 60.0312C720.982 58.8105 723.131 55.5098 723.15 52.5508V50.2852H719.107V49.0156H728.561V50.2852H724.654V52.5508ZM730.689 64.582V47.2188H732.213V54.25H735.123V55.5586H732.213V64.582H730.689ZM751.959 61.1445V62.4336H736.061V61.1445H740.533V57.8438H738.053V52.4922H748.443V49.7773H738.014V48.5078H749.947V53.7617H739.576V56.5742H750.357V57.8438H747.643V61.1445H751.959ZM742.037 61.1445H746.139V57.8438H742.037V61.1445ZM767.662 47.2188V56.2227H766.158V47.2188H767.662ZM753.463 54.8359C756.08 53.9277 757.936 51.6035 757.936 49.0547V47.7266H759.498V49.0547C759.479 51.5059 761.354 53.6738 763.932 54.5234L763.17 55.7148C761.129 55.0215 759.518 53.5664 758.736 51.6914C757.955 53.7129 756.324 55.3047 754.264 56.0469L753.463 54.8359ZM756.393 58.332V57.1016H767.682V61.2617H757.936V63.1367H768.307V64.3867H756.432V60.0703H766.158V58.332H756.393Z" fill="black"/>
<path d="M859.059 48.9766V50.7148C859.039 52.8438 859.039 55.2266 858.414 58.7227L856.852 58.5469C857.506 55.2266 857.506 52.7949 857.516 50.7148V50.2461H846.812V48.9766H859.059ZM845.133 62.1211V60.8516H851.344V54.6406H852.848V60.8516H860.953V62.1211H845.133ZM877.164 47.2383V57.4727H875.699V52.8828H873.336V57.3555H871.871V47.5703H873.336V51.6133H875.699V47.2383H877.164ZM862.516 56.5156C866.119 55.0508 868.16 52.6973 868.453 49.7773H863.219V48.5078H870.035C870.025 52.6582 867.682 55.793 863.277 57.668L862.516 56.5156ZM865.445 59.5234V58.2734H877.164V64.582H875.66V59.5234H865.445ZM894.449 47.2188V60.2461H892.984V47.2188H894.449ZM879.762 56.5547C881.998 55.5 883.365 53.0977 883.355 51.0469V48.4492H884.84V51.0469C884.84 53.0781 886.109 55.168 888.316 56.1055L887.457 57.3164C885.855 56.584 884.713 55.2461 884.117 53.6738C883.502 55.4023 882.281 56.9355 880.621 57.7461L879.762 56.5547ZM883.062 64.2109V58.6445H884.586V62.9219H894.977V64.2109H883.062ZM886.812 52.9023V51.6328H889.547V47.5703H891.031V59.7578H889.547V52.9023H886.812ZM911.383 47.2188V64.6211H909.859V55.0508H906.188V53.7812H909.859V47.2188H911.383ZM897.789 60.4219V48.8203H905.895V50.0898H899.332V53.7031H905.133V54.9531H899.332V59.1523C902.516 59.1426 904.566 59.0547 906.949 58.625L907.125 59.8945C904.596 60.3047 902.477 60.4219 899.117 60.4219H897.789Z" fill="black"/>
<path d="M1003.8 47.1016V59.9922H1001.63V53.5273H998.508V51.7695H1001.63V47.1016H1003.8ZM988.977 56.1836C991.789 55.2559 993.293 52.9512 993.293 50.5977V50.1289H989.621V48.3711H999.152V50.1289H995.5V50.6172C995.5 52.7363 996.926 54.9336 999.66 55.832L998.566 57.5703C996.594 56.8965 995.197 55.5488 994.426 53.8789C993.654 55.7344 992.18 57.2188 990.09 57.9414L988.977 56.1836ZM992.219 64.3867V58.8594H994.387V62.6289H1004.25V64.3867H992.219ZM1012.63 52.1016C1012.62 54.8262 1014.26 57.9316 1017.04 59.2305L1015.83 60.9492C1013.84 60.0117 1012.37 58.1172 1011.57 55.9102C1010.77 58.332 1009.23 60.4023 1007.2 61.3789L1005.93 59.6797C1008.74 58.3418 1010.45 55.041 1010.46 52.1016V50.6172H1006.61V48.8203H1016.32V50.6172H1012.63V52.1016ZM1017.96 64.7383V47.082H1020.13V53.957H1022.84V55.7734H1020.13V64.7383H1017.96ZM1038.82 47.082V64.7383H1036.75V47.082H1038.82ZM1023.41 59.4648C1027.06 57.3066 1028.74 54.543 1029.07 50.9883H1024.35V49.2305H1031.22C1031.22 50.1191 1031.16 50.9883 1031.04 51.8281H1033.1V47.5117H1035.17V63.8984H1033.1V58H1030.34V56.2227H1033.1V53.6055H1030.67C1029.83 56.5352 1027.99 59.0547 1024.68 61.0078L1023.41 59.4648ZM1057.2 49.543V51.3008H1054.8V53.332H1057.2V55.1484H1054.8V57.5117H1052.63V47.082H1054.8V49.543H1057.2ZM1041.07 52.3359C1041.06 49.8555 1043.11 48.0781 1045.83 48.0977C1048.55 48.0781 1050.58 49.8555 1050.6 52.3359C1050.58 54.8555 1048.55 56.6035 1045.83 56.6133C1043.11 56.6035 1041.06 54.8555 1041.07 52.3359ZM1043.04 60.0312V58.2734H1054.8V64.7383H1052.63V60.0312H1043.04ZM1043.2 52.3359C1043.19 53.8398 1044.31 54.7676 1045.83 54.7578C1047.34 54.7676 1048.46 53.8398 1048.47 52.3359C1048.46 50.8613 1047.34 49.9434 1045.83 49.9336C1044.31 49.9434 1043.19 50.8613 1043.2 52.3359Z" fill="#2779F4"/>
<rect x="81" y="13" width="1038" height="85" stroke="#2779F4" stroke-width="2"/>
<path d="M23 58V57H22V58H23ZM80.7071 58.7071C81.0976 58.3166 81.0976 57.6834 80.7071 57.2929L74.3431 50.9289C73.9526 50.5384 73.3195 50.5384 72.9289 50.9289C72.5384 51.3195 72.5384 51.9526 72.9289 52.3431L78.5858 58L72.9289 63.6569C72.5384 64.0474 72.5384 64.6805 72.9289 65.0711C73.3195 65.4616 73.9526 65.4616 74.3431 65.0711L80.7071 58.7071ZM24 408V58H22V408H24ZM23 59H80V57H23V59Z" fill="black"/>
<path d="M1162 58V57H1163V58H1162ZM1077.29 58.7071C1076.9 58.3166 1076.9 57.6834 1077.29 57.2929L1083.66 50.9289C1084.05 50.5384 1084.68 50.5384 1085.07 50.9289C1085.46 51.3195 1085.46 51.9526 1085.07 52.3431L1079.41 58L1085.07 63.6569C1085.46 64.0474 1085.46 64.6805 1085.07 65.0711C1084.68 65.4616 1084.05 65.4616 1083.66 65.0711L1077.29 58.7071ZM1161 408V58H1163V408H1161ZM1162 59H1078V57H1162V59Z" fill="black"/>
<path d="M484.707 250.293C484.317 249.902 483.683 249.902 483.293 250.293L476.929 256.657C476.538 257.047 476.538 257.681 476.929 258.071C477.319 258.462 477.953 258.462 478.343 258.071L484 252.414L489.657 258.071C490.047 258.462 490.681 258.462 491.071 258.071C491.462 257.681 491.462 257.047 491.071 256.657L484.707 250.293ZM485 408L485 251L483 251L483 408L485 408Z" fill="black"/>
<defs>
<filter id="filter0_d_270_10493" x="74" y="95" width="1052" height="206" filterUnits="userSpaceOnUse" color-interpolation-filters="sRGB">
<feFlood flood-opacity="0" result="BackgroundImageFix"/>
<feColorMatrix in="SourceAlpha" type="matrix" values="0 0 0 0 0 0 0 0 0 0 0 0 0 0 0 0 0 0 127 0" result="hardAlpha"/>
<feOffset dy="2"/>
<feGaussianBlur stdDeviation="3"/>
<feComposite in2="hardAlpha" operator="out"/>
<feColorMatrix type="matrix" values="0 0 0 0 0 0 0 0 0 0 0 0 0 0 0 0 0 0 0.1 0"/>
<feBlend mode="normal" in2="BackgroundImageFix" result="effect1_dropShadow_270_10493"/>
<feBlend mode="normal" in="SourceGraphic" in2="effect1_dropShadow_270_10493" result="shape"/>
</filter>
<filter id="filter1_d_270_10493" x="56" y="0" width="1088" height="135" filterUnits="userSpaceOnUse" color-interpolation-filters="sRGB">
<feFlood flood-opacity="0" result="BackgroundImageFix"/>
<feColorMatrix in="SourceAlpha" type="matrix" values="0 0 0 0 0 0 0 0 0 0 0 0 0 0 0 0 0 0 127 0" result="hardAlpha"/>
<feOffset dy="12"/>
<feGaussianBlur stdDeviation="12"/>
<feComposite in2="hardAlpha" operator="out"/>
<feColorMatrix type="matrix" values="0 0 0 0 0 0 0 0 0 0 0 0 0 0 0 0 0 0 0.15 0"/>
<feBlend mode="normal" in2="BackgroundImageFix" result="effect1_dropShadow_270_10493"/>
<feBlend mode="normal" in="SourceGraphic" in2="effect1_dropShadow_270_10493" result="shape"/>
</filter>
</defs>
</svg>
