<svg width="13" height="15" viewBox="0 0 13 15" fill="none" xmlns="http://www.w3.org/2000/svg">
<path d="M6.00195 8.58789H8.26953L9.23633 9.82715C9.84277 9.12402 10.1943 8.04297 10.1855 6.63672C10.1943 3.91211 8.89355 2.44434 6.93359 2.43555C4.95605 2.44434 3.66406 3.91211 3.66406 6.63672C3.66406 9.35254 4.95605 10.8291 6.93359 10.8379C7.18848 10.8379 7.43457 10.8115 7.66309 10.7588L6.00195 8.58789ZM0.974609 6.63672C0.974609 2.47949 3.54102 0.0976562 6.93359 0.0976562C10.2998 0.0976562 12.875 2.47949 12.875 6.63672C12.875 8.91309 12.1016 10.6533 10.8535 11.7695L12.6641 14.0547H10.1855L9.16602 12.7891C8.48047 13.0439 7.72461 13.1758 6.93359 13.1758C3.54102 13.1758 0.974609 10.7764 0.974609 6.63672Z" fill="#2779F4"/>
</svg>
